%TF.GenerationSoftware,KiCad,Pcbnew,(6.0.4-0)*%
%TF.CreationDate,2022-04-21T20:04:49-07:00*%
%TF.ProjectId,Labpass RFID Reader - Mez,4c616270-6173-4732-9052-464944205265,0.1.0*%
%TF.SameCoordinates,Original*%
%TF.FileFunction,Legend,Top*%
%TF.FilePolarity,Positive*%
%FSLAX46Y46*%
G04 Gerber Fmt 4.6, Leading zero omitted, Abs format (unit mm)*
G04 Created by KiCad (PCBNEW (6.0.4-0)) date 2022-04-21 20:04:49*
%MOMM*%
%LPD*%
G01*
G04 APERTURE LIST*
%ADD10C,0.150000*%
%ADD11C,0.200000*%
%ADD12C,0.100000*%
%ADD13C,0.125000*%
%ADD14C,0.127000*%
%ADD15C,0.120000*%
G04 APERTURE END LIST*
D10*
X110070004Y-101634999D02*
X116470004Y-101634999D01*
X116470004Y-101634999D02*
X116470004Y-72934999D01*
X116470004Y-72934999D02*
X110070004Y-72934999D01*
X110070004Y-72934999D02*
X110070004Y-101634999D01*
D11*
X115398575Y-98177856D02*
X115455718Y-98234999D01*
X115512861Y-98406427D01*
X115512861Y-98520713D01*
X115455718Y-98692141D01*
X115341432Y-98806427D01*
X115227146Y-98863570D01*
X114998575Y-98920713D01*
X114827146Y-98920713D01*
X114598575Y-98863570D01*
X114484289Y-98806427D01*
X114370004Y-98692141D01*
X114312861Y-98520713D01*
X114312861Y-98406427D01*
X114370004Y-98234999D01*
X114427146Y-98177856D01*
X115512861Y-97149284D02*
X114884289Y-97149284D01*
X114770004Y-97206427D01*
X114712861Y-97320713D01*
X114712861Y-97549284D01*
X114770004Y-97663570D01*
X115455718Y-97149284D02*
X115512861Y-97263570D01*
X115512861Y-97549284D01*
X115455718Y-97663570D01*
X115341432Y-97720713D01*
X115227146Y-97720713D01*
X115112861Y-97663570D01*
X115055718Y-97549284D01*
X115055718Y-97263570D01*
X114998575Y-97149284D01*
X114712861Y-96577856D02*
X115912861Y-96577856D01*
X114770004Y-96577856D02*
X114712861Y-96463570D01*
X114712861Y-96234999D01*
X114770004Y-96120713D01*
X114827146Y-96063570D01*
X114941432Y-96006427D01*
X115284289Y-96006427D01*
X115398575Y-96063570D01*
X115455718Y-96120713D01*
X115512861Y-96234999D01*
X115512861Y-96463570D01*
X115455718Y-96577856D01*
X115455718Y-95549284D02*
X115512861Y-95434999D01*
X115512861Y-95206427D01*
X115455718Y-95092141D01*
X115341432Y-95034999D01*
X115284289Y-95034999D01*
X115170004Y-95092141D01*
X115112861Y-95206427D01*
X115112861Y-95377856D01*
X115055718Y-95492141D01*
X114941432Y-95549284D01*
X114884289Y-95549284D01*
X114770004Y-95492141D01*
X114712861Y-95377856D01*
X114712861Y-95206427D01*
X114770004Y-95092141D01*
X114712861Y-94692141D02*
X114712861Y-94234999D01*
X114312861Y-94520713D02*
X115341432Y-94520713D01*
X115455718Y-94463570D01*
X115512861Y-94349284D01*
X115512861Y-94234999D01*
X115512861Y-93663570D02*
X115455718Y-93777856D01*
X115398575Y-93834999D01*
X115284289Y-93892141D01*
X114941432Y-93892141D01*
X114827146Y-93834999D01*
X114770004Y-93777856D01*
X114712861Y-93663570D01*
X114712861Y-93492141D01*
X114770004Y-93377856D01*
X114827146Y-93320713D01*
X114941432Y-93263570D01*
X115284289Y-93263570D01*
X115398575Y-93320713D01*
X115455718Y-93377856D01*
X115512861Y-93492141D01*
X115512861Y-93663570D01*
X114712861Y-92749284D02*
X115512861Y-92749284D01*
X114827146Y-92749284D02*
X114770004Y-92692141D01*
X114712861Y-92577856D01*
X114712861Y-92406427D01*
X114770004Y-92292141D01*
X114884289Y-92234999D01*
X115512861Y-92234999D01*
X115455718Y-91206427D02*
X115512861Y-91320713D01*
X115512861Y-91549284D01*
X115455718Y-91663570D01*
X115341432Y-91720713D01*
X114884289Y-91720713D01*
X114770004Y-91663570D01*
X114712861Y-91549284D01*
X114712861Y-91320713D01*
X114770004Y-91206427D01*
X114884289Y-91149284D01*
X114998575Y-91149284D01*
X115112861Y-91720713D01*
X114312861Y-89892141D02*
X114312861Y-89206427D01*
X115512861Y-89549284D02*
X114312861Y-89549284D01*
X115455718Y-88349284D02*
X115512861Y-88463570D01*
X115512861Y-88692141D01*
X115455718Y-88806427D01*
X115341432Y-88863570D01*
X114884289Y-88863570D01*
X114770004Y-88806427D01*
X114712861Y-88692141D01*
X114712861Y-88463570D01*
X114770004Y-88349284D01*
X114884289Y-88292141D01*
X114998575Y-88292141D01*
X115112861Y-88863570D01*
X115512861Y-87263570D02*
X114884289Y-87263570D01*
X114770004Y-87320713D01*
X114712861Y-87434999D01*
X114712861Y-87663570D01*
X114770004Y-87777856D01*
X115455718Y-87263570D02*
X115512861Y-87377856D01*
X115512861Y-87663570D01*
X115455718Y-87777856D01*
X115341432Y-87834999D01*
X115227146Y-87834999D01*
X115112861Y-87777856D01*
X115055718Y-87663570D01*
X115055718Y-87377856D01*
X114998575Y-87263570D01*
X115512861Y-86692141D02*
X114712861Y-86692141D01*
X114827146Y-86692141D02*
X114770004Y-86634999D01*
X114712861Y-86520713D01*
X114712861Y-86349284D01*
X114770004Y-86234999D01*
X114884289Y-86177856D01*
X115512861Y-86177856D01*
X114884289Y-86177856D02*
X114770004Y-86120713D01*
X114712861Y-86006427D01*
X114712861Y-85834999D01*
X114770004Y-85720713D01*
X114884289Y-85663570D01*
X115512861Y-85663570D01*
X115512861Y-83549284D02*
X115512861Y-84234999D01*
X115512861Y-83892141D02*
X114312861Y-83892141D01*
X114484289Y-84006427D01*
X114598575Y-84120713D01*
X114655718Y-84234999D01*
X114312861Y-83149284D02*
X114312861Y-82349284D01*
X115512861Y-82863570D01*
X115455718Y-81834999D02*
X115512861Y-81834999D01*
X115627146Y-81892141D01*
X115684289Y-81949284D01*
X114427146Y-80463570D02*
X114370004Y-80406427D01*
X114312861Y-80292141D01*
X114312861Y-80006427D01*
X114370004Y-79892141D01*
X114427146Y-79834999D01*
X114541432Y-79777856D01*
X114655718Y-79777856D01*
X114827146Y-79834999D01*
X115512861Y-80520713D01*
X115512861Y-79777856D01*
X114312861Y-79034999D02*
X114312861Y-78920713D01*
X114370004Y-78806427D01*
X114427146Y-78749284D01*
X114541432Y-78692141D01*
X114770004Y-78634999D01*
X115055718Y-78634999D01*
X115284289Y-78692141D01*
X115398575Y-78749284D01*
X115455718Y-78806427D01*
X115512861Y-78920713D01*
X115512861Y-79034999D01*
X115455718Y-79149284D01*
X115398575Y-79206427D01*
X115284289Y-79263570D01*
X115055718Y-79320713D01*
X114770004Y-79320713D01*
X114541432Y-79263570D01*
X114427146Y-79206427D01*
X114370004Y-79149284D01*
X114312861Y-79034999D01*
X114427146Y-78177856D02*
X114370004Y-78120713D01*
X114312861Y-78006427D01*
X114312861Y-77720713D01*
X114370004Y-77606427D01*
X114427146Y-77549284D01*
X114541432Y-77492141D01*
X114655718Y-77492141D01*
X114827146Y-77549284D01*
X115512861Y-78234999D01*
X115512861Y-77492141D01*
X114427146Y-77034999D02*
X114370004Y-76977856D01*
X114312861Y-76863570D01*
X114312861Y-76577856D01*
X114370004Y-76463570D01*
X114427146Y-76406427D01*
X114541432Y-76349284D01*
X114655718Y-76349284D01*
X114827146Y-76406427D01*
X115512861Y-77092141D01*
X115512861Y-76349284D01*
X112593813Y-98730237D02*
X112593813Y-99492141D01*
X110993813Y-99492141D01*
X112593813Y-97511189D02*
X111755718Y-97511189D01*
X111603337Y-97587379D01*
X111527146Y-97739760D01*
X111527146Y-98044522D01*
X111603337Y-98196903D01*
X112517623Y-97511189D02*
X112593813Y-97663570D01*
X112593813Y-98044522D01*
X112517623Y-98196903D01*
X112365242Y-98273094D01*
X112212861Y-98273094D01*
X112060480Y-98196903D01*
X111984289Y-98044522D01*
X111984289Y-97663570D01*
X111908099Y-97511189D01*
X112593813Y-96749284D02*
X110993813Y-96749284D01*
X111603337Y-96749284D02*
X111527146Y-96596903D01*
X111527146Y-96292141D01*
X111603337Y-96139760D01*
X111679527Y-96063570D01*
X111831908Y-95987379D01*
X112289051Y-95987379D01*
X112441432Y-96063570D01*
X112517623Y-96139760D01*
X112593813Y-96292141D01*
X112593813Y-96596903D01*
X112517623Y-96749284D01*
X111527146Y-95301665D02*
X113127146Y-95301665D01*
X111603337Y-95301665D02*
X111527146Y-95149284D01*
X111527146Y-94844522D01*
X111603337Y-94692141D01*
X111679527Y-94615951D01*
X111831908Y-94539760D01*
X112289051Y-94539760D01*
X112441432Y-94615951D01*
X112517623Y-94692141D01*
X112593813Y-94844522D01*
X112593813Y-95149284D01*
X112517623Y-95301665D01*
X112593813Y-93168332D02*
X111755718Y-93168332D01*
X111603337Y-93244522D01*
X111527146Y-93396903D01*
X111527146Y-93701665D01*
X111603337Y-93854046D01*
X112517623Y-93168332D02*
X112593813Y-93320713D01*
X112593813Y-93701665D01*
X112517623Y-93854046D01*
X112365242Y-93930237D01*
X112212861Y-93930237D01*
X112060480Y-93854046D01*
X111984289Y-93701665D01*
X111984289Y-93320713D01*
X111908099Y-93168332D01*
X112517623Y-92482618D02*
X112593813Y-92330237D01*
X112593813Y-92025475D01*
X112517623Y-91873094D01*
X112365242Y-91796903D01*
X112289051Y-91796903D01*
X112136670Y-91873094D01*
X112060480Y-92025475D01*
X112060480Y-92254046D01*
X111984289Y-92406427D01*
X111831908Y-92482618D01*
X111755718Y-92482618D01*
X111603337Y-92406427D01*
X111527146Y-92254046D01*
X111527146Y-92025475D01*
X111603337Y-91873094D01*
X112517623Y-91187379D02*
X112593813Y-91034999D01*
X112593813Y-90730237D01*
X112517623Y-90577856D01*
X112365242Y-90501665D01*
X112289051Y-90501665D01*
X112136670Y-90577856D01*
X112060480Y-90730237D01*
X112060480Y-90958808D01*
X111984289Y-91111189D01*
X111831908Y-91187379D01*
X111755718Y-91187379D01*
X111603337Y-91111189D01*
X111527146Y-90958808D01*
X111527146Y-90730237D01*
X111603337Y-90577856D01*
X112593813Y-87682618D02*
X111831908Y-88215951D01*
X112593813Y-88596903D02*
X110993813Y-88596903D01*
X110993813Y-87987379D01*
X111070004Y-87834999D01*
X111146194Y-87758808D01*
X111298575Y-87682618D01*
X111527146Y-87682618D01*
X111679527Y-87758808D01*
X111755718Y-87834999D01*
X111831908Y-87987379D01*
X111831908Y-88596903D01*
X111755718Y-86463570D02*
X111755718Y-86996903D01*
X112593813Y-86996903D02*
X110993813Y-86996903D01*
X110993813Y-86234999D01*
X112593813Y-85625475D02*
X110993813Y-85625475D01*
X112593813Y-84863570D02*
X110993813Y-84863570D01*
X110993813Y-84482618D01*
X111070004Y-84254046D01*
X111222384Y-84101665D01*
X111374765Y-84025475D01*
X111679527Y-83949284D01*
X111908099Y-83949284D01*
X112212861Y-84025475D01*
X112365242Y-84101665D01*
X112517623Y-84254046D01*
X112593813Y-84482618D01*
X112593813Y-84863570D01*
X112593813Y-81130237D02*
X111831908Y-81663570D01*
X112593813Y-82044522D02*
X110993813Y-82044522D01*
X110993813Y-81434999D01*
X111070004Y-81282618D01*
X111146194Y-81206427D01*
X111298575Y-81130237D01*
X111527146Y-81130237D01*
X111679527Y-81206427D01*
X111755718Y-81282618D01*
X111831908Y-81434999D01*
X111831908Y-82044522D01*
X112517623Y-79834999D02*
X112593813Y-79987379D01*
X112593813Y-80292141D01*
X112517623Y-80444522D01*
X112365242Y-80520713D01*
X111755718Y-80520713D01*
X111603337Y-80444522D01*
X111527146Y-80292141D01*
X111527146Y-79987379D01*
X111603337Y-79834999D01*
X111755718Y-79758808D01*
X111908099Y-79758808D01*
X112060480Y-80520713D01*
X112593813Y-78387379D02*
X111755718Y-78387379D01*
X111603337Y-78463570D01*
X111527146Y-78615951D01*
X111527146Y-78920713D01*
X111603337Y-79073094D01*
X112517623Y-78387379D02*
X112593813Y-78539760D01*
X112593813Y-78920713D01*
X112517623Y-79073094D01*
X112365242Y-79149284D01*
X112212861Y-79149284D01*
X112060480Y-79073094D01*
X111984289Y-78920713D01*
X111984289Y-78539760D01*
X111908099Y-78387379D01*
X112593813Y-76939760D02*
X110993813Y-76939760D01*
X112517623Y-76939760D02*
X112593813Y-77092141D01*
X112593813Y-77396903D01*
X112517623Y-77549284D01*
X112441432Y-77625475D01*
X112289051Y-77701665D01*
X111831908Y-77701665D01*
X111679527Y-77625475D01*
X111603337Y-77549284D01*
X111527146Y-77396903D01*
X111527146Y-77092141D01*
X111603337Y-76939760D01*
X112517623Y-75568332D02*
X112593813Y-75720713D01*
X112593813Y-76025475D01*
X112517623Y-76177856D01*
X112365242Y-76254046D01*
X111755718Y-76254046D01*
X111603337Y-76177856D01*
X111527146Y-76025475D01*
X111527146Y-75720713D01*
X111603337Y-75568332D01*
X111755718Y-75492141D01*
X111908099Y-75492141D01*
X112060480Y-76254046D01*
X112593813Y-74806427D02*
X111527146Y-74806427D01*
X111831908Y-74806427D02*
X111679527Y-74730237D01*
X111603337Y-74654046D01*
X111527146Y-74501665D01*
X111527146Y-74349284D01*
D12*
X137419047Y-119473809D02*
X137133333Y-119473809D01*
X137276190Y-118973809D02*
X137276190Y-119473809D01*
X137014285Y-119473809D02*
X136680952Y-118973809D01*
X136680952Y-119473809D02*
X137014285Y-118973809D01*
X136514285Y-119426190D02*
X136490476Y-119450000D01*
X136442857Y-119473809D01*
X136323809Y-119473809D01*
X136276190Y-119450000D01*
X136252380Y-119426190D01*
X136228571Y-119378571D01*
X136228571Y-119330952D01*
X136252380Y-119259523D01*
X136538095Y-118973809D01*
X136228571Y-118973809D01*
X140033333Y-119473809D02*
X139747619Y-119473809D01*
X139890476Y-118973809D02*
X139890476Y-119473809D01*
X139652380Y-119473809D02*
X139485714Y-118973809D01*
X139319047Y-119473809D01*
X139176190Y-118997619D02*
X139104761Y-118973809D01*
X138985714Y-118973809D01*
X138938095Y-118997619D01*
X138914285Y-119021428D01*
X138890476Y-119069047D01*
X138890476Y-119116666D01*
X138914285Y-119164285D01*
X138938095Y-119188095D01*
X138985714Y-119211904D01*
X139080952Y-119235714D01*
X139128571Y-119259523D01*
X139152380Y-119283333D01*
X139176190Y-119330952D01*
X139176190Y-119378571D01*
X139152380Y-119426190D01*
X139128571Y-119450000D01*
X139080952Y-119473809D01*
X138961904Y-119473809D01*
X138890476Y-119450000D01*
X138700000Y-118997619D02*
X138628571Y-118973809D01*
X138509523Y-118973809D01*
X138461904Y-118997619D01*
X138438095Y-119021428D01*
X138414285Y-119069047D01*
X138414285Y-119116666D01*
X138438095Y-119164285D01*
X138461904Y-119188095D01*
X138509523Y-119211904D01*
X138604761Y-119235714D01*
X138652380Y-119259523D01*
X138676190Y-119283333D01*
X138700000Y-119330952D01*
X138700000Y-119378571D01*
X138676190Y-119426190D01*
X138652380Y-119450000D01*
X138604761Y-119473809D01*
X138485714Y-119473809D01*
X138414285Y-119450000D01*
X142219047Y-119473809D02*
X141933333Y-119473809D01*
X142076190Y-118973809D02*
X142076190Y-119473809D01*
X141814285Y-119473809D02*
X141480952Y-118973809D01*
X141480952Y-119473809D02*
X141814285Y-118973809D01*
X141028571Y-118973809D02*
X141314285Y-118973809D01*
X141171428Y-118973809D02*
X141171428Y-119473809D01*
X141219047Y-119402380D01*
X141266666Y-119354761D01*
X141314285Y-119330952D01*
D10*
X117300000Y-113447380D02*
X116966666Y-112971190D01*
X116728571Y-113447380D02*
X116728571Y-112447380D01*
X117109523Y-112447380D01*
X117204761Y-112495000D01*
X117252380Y-112542619D01*
X117300000Y-112637857D01*
X117300000Y-112780714D01*
X117252380Y-112875952D01*
X117204761Y-112923571D01*
X117109523Y-112971190D01*
X116728571Y-112971190D01*
X118109523Y-113399761D02*
X118014285Y-113447380D01*
X117823809Y-113447380D01*
X117728571Y-113399761D01*
X117680952Y-113304523D01*
X117680952Y-112923571D01*
X117728571Y-112828333D01*
X117823809Y-112780714D01*
X118014285Y-112780714D01*
X118109523Y-112828333D01*
X118157142Y-112923571D01*
X118157142Y-113018809D01*
X117680952Y-113114047D01*
X118490476Y-112780714D02*
X118728571Y-113447380D01*
X118966666Y-112780714D01*
X116323809Y-114057380D02*
X116419047Y-114057380D01*
X116514285Y-114105000D01*
X116561904Y-114152619D01*
X116609523Y-114247857D01*
X116657142Y-114438333D01*
X116657142Y-114676428D01*
X116609523Y-114866904D01*
X116561904Y-114962142D01*
X116514285Y-115009761D01*
X116419047Y-115057380D01*
X116323809Y-115057380D01*
X116228571Y-115009761D01*
X116180952Y-114962142D01*
X116133333Y-114866904D01*
X116085714Y-114676428D01*
X116085714Y-114438333D01*
X116133333Y-114247857D01*
X116180952Y-114152619D01*
X116228571Y-114105000D01*
X116323809Y-114057380D01*
X117085714Y-114962142D02*
X117133333Y-115009761D01*
X117085714Y-115057380D01*
X117038095Y-115009761D01*
X117085714Y-114962142D01*
X117085714Y-115057380D01*
X118085714Y-115057380D02*
X117514285Y-115057380D01*
X117800000Y-115057380D02*
X117800000Y-114057380D01*
X117704761Y-114200238D01*
X117609523Y-114295476D01*
X117514285Y-114343095D01*
X118514285Y-114962142D02*
X118561904Y-115009761D01*
X118514285Y-115057380D01*
X118466666Y-115009761D01*
X118514285Y-114962142D01*
X118514285Y-115057380D01*
X119180952Y-114057380D02*
X119276190Y-114057380D01*
X119371428Y-114105000D01*
X119419047Y-114152619D01*
X119466666Y-114247857D01*
X119514285Y-114438333D01*
X119514285Y-114676428D01*
X119466666Y-114866904D01*
X119419047Y-114962142D01*
X119371428Y-115009761D01*
X119276190Y-115057380D01*
X119180952Y-115057380D01*
X119085714Y-115009761D01*
X119038095Y-114962142D01*
X118990476Y-114866904D01*
X118942857Y-114676428D01*
X118942857Y-114438333D01*
X118990476Y-114247857D01*
X119038095Y-114152619D01*
X119085714Y-114105000D01*
X119180952Y-114057380D01*
D13*
%TO.C,C1*%
X132162666Y-114178576D02*
X132138857Y-114202385D01*
X132067428Y-114226195D01*
X132019809Y-114226195D01*
X131948380Y-114202385D01*
X131900761Y-114154766D01*
X131876952Y-114107147D01*
X131853142Y-114011909D01*
X131853142Y-113940481D01*
X131876952Y-113845243D01*
X131900761Y-113797624D01*
X131948380Y-113750005D01*
X132019809Y-113726195D01*
X132067428Y-113726195D01*
X132138857Y-113750005D01*
X132162666Y-113773814D01*
X132638857Y-114226195D02*
X132353142Y-114226195D01*
X132496000Y-114226195D02*
X132496000Y-113726195D01*
X132448380Y-113797624D01*
X132400761Y-113845243D01*
X132353142Y-113869052D01*
%TO.C,C5*%
X123963573Y-114213570D02*
X123939764Y-114237379D01*
X123868335Y-114261189D01*
X123820716Y-114261189D01*
X123749287Y-114237379D01*
X123701668Y-114189760D01*
X123677859Y-114142141D01*
X123654049Y-114046903D01*
X123654049Y-113975475D01*
X123677859Y-113880237D01*
X123701668Y-113832618D01*
X123749287Y-113784999D01*
X123820716Y-113761189D01*
X123868335Y-113761189D01*
X123939764Y-113784999D01*
X123963573Y-113808808D01*
X124415954Y-113761189D02*
X124177859Y-113761189D01*
X124154049Y-113999284D01*
X124177859Y-113975475D01*
X124225478Y-113951665D01*
X124344526Y-113951665D01*
X124392145Y-113975475D01*
X124415954Y-113999284D01*
X124439764Y-114046903D01*
X124439764Y-114165951D01*
X124415954Y-114213570D01*
X124392145Y-114237379D01*
X124344526Y-114261189D01*
X124225478Y-114261189D01*
X124177859Y-114237379D01*
X124154049Y-114213570D01*
%TO.C,C2*%
X129763573Y-119413570D02*
X129739764Y-119437379D01*
X129668335Y-119461189D01*
X129620716Y-119461189D01*
X129549287Y-119437379D01*
X129501668Y-119389760D01*
X129477859Y-119342141D01*
X129454049Y-119246903D01*
X129454049Y-119175475D01*
X129477859Y-119080237D01*
X129501668Y-119032618D01*
X129549287Y-118984999D01*
X129620716Y-118961189D01*
X129668335Y-118961189D01*
X129739764Y-118984999D01*
X129763573Y-119008808D01*
X129954049Y-119008808D02*
X129977859Y-118984999D01*
X130025478Y-118961189D01*
X130144526Y-118961189D01*
X130192145Y-118984999D01*
X130215954Y-119008808D01*
X130239764Y-119056427D01*
X130239764Y-119104046D01*
X130215954Y-119175475D01*
X129930240Y-119461189D01*
X130239764Y-119461189D01*
%TO.C,C8*%
X151410666Y-114178571D02*
X151386857Y-114202380D01*
X151315428Y-114226190D01*
X151267809Y-114226190D01*
X151196380Y-114202380D01*
X151148761Y-114154761D01*
X151124952Y-114107142D01*
X151101142Y-114011904D01*
X151101142Y-113940476D01*
X151124952Y-113845238D01*
X151148761Y-113797619D01*
X151196380Y-113750000D01*
X151267809Y-113726190D01*
X151315428Y-113726190D01*
X151386857Y-113750000D01*
X151410666Y-113773809D01*
X151696380Y-113940476D02*
X151648761Y-113916666D01*
X151624952Y-113892857D01*
X151601142Y-113845238D01*
X151601142Y-113821428D01*
X151624952Y-113773809D01*
X151648761Y-113750000D01*
X151696380Y-113726190D01*
X151791619Y-113726190D01*
X151839238Y-113750000D01*
X151863047Y-113773809D01*
X151886857Y-113821428D01*
X151886857Y-113845238D01*
X151863047Y-113892857D01*
X151839238Y-113916666D01*
X151791619Y-113940476D01*
X151696380Y-113940476D01*
X151648761Y-113964285D01*
X151624952Y-113988095D01*
X151601142Y-114035714D01*
X151601142Y-114130952D01*
X151624952Y-114178571D01*
X151648761Y-114202380D01*
X151696380Y-114226190D01*
X151791619Y-114226190D01*
X151839238Y-114202380D01*
X151863047Y-114178571D01*
X151886857Y-114130952D01*
X151886857Y-114035714D01*
X151863047Y-113988095D01*
X151839238Y-113964285D01*
X151791619Y-113940476D01*
%TO.C,R2*%
X156658573Y-118429184D02*
X156491907Y-118191089D01*
X156372859Y-118429184D02*
X156372859Y-117929184D01*
X156563335Y-117929184D01*
X156610954Y-117952994D01*
X156634764Y-117976803D01*
X156658573Y-118024422D01*
X156658573Y-118095851D01*
X156634764Y-118143470D01*
X156610954Y-118167279D01*
X156563335Y-118191089D01*
X156372859Y-118191089D01*
X156849049Y-117976803D02*
X156872859Y-117952994D01*
X156920478Y-117929184D01*
X157039526Y-117929184D01*
X157087145Y-117952994D01*
X157110954Y-117976803D01*
X157134764Y-118024422D01*
X157134764Y-118072041D01*
X157110954Y-118143470D01*
X156825240Y-118429184D01*
X157134764Y-118429184D01*
%TO.C,C4*%
X146330666Y-114172171D02*
X146306857Y-114195980D01*
X146235428Y-114219790D01*
X146187809Y-114219790D01*
X146116380Y-114195980D01*
X146068761Y-114148361D01*
X146044952Y-114100742D01*
X146021142Y-114005504D01*
X146021142Y-113934076D01*
X146044952Y-113838838D01*
X146068761Y-113791219D01*
X146116380Y-113743600D01*
X146187809Y-113719790D01*
X146235428Y-113719790D01*
X146306857Y-113743600D01*
X146330666Y-113767409D01*
X146759238Y-113886457D02*
X146759238Y-114219790D01*
X146640190Y-113695980D02*
X146521142Y-114053123D01*
X146830666Y-114053123D01*
D10*
%TO.C,J1*%
X144266666Y-112852380D02*
X144266666Y-113566666D01*
X144219047Y-113709523D01*
X144123809Y-113804761D01*
X143980952Y-113852380D01*
X143885714Y-113852380D01*
X145266666Y-113852380D02*
X144695238Y-113852380D01*
X144980952Y-113852380D02*
X144980952Y-112852380D01*
X144885714Y-112995238D01*
X144790476Y-113090476D01*
X144695238Y-113138095D01*
D13*
%TO.C,C3*%
X148463573Y-119413565D02*
X148439764Y-119437374D01*
X148368335Y-119461184D01*
X148320716Y-119461184D01*
X148249287Y-119437374D01*
X148201668Y-119389755D01*
X148177859Y-119342136D01*
X148154049Y-119246898D01*
X148154049Y-119175470D01*
X148177859Y-119080232D01*
X148201668Y-119032613D01*
X148249287Y-118984994D01*
X148320716Y-118961184D01*
X148368335Y-118961184D01*
X148439764Y-118984994D01*
X148463573Y-119008803D01*
X148630240Y-118961184D02*
X148939764Y-118961184D01*
X148773097Y-119151660D01*
X148844526Y-119151660D01*
X148892145Y-119175470D01*
X148915954Y-119199279D01*
X148939764Y-119246898D01*
X148939764Y-119365946D01*
X148915954Y-119413565D01*
X148892145Y-119437374D01*
X148844526Y-119461184D01*
X148701668Y-119461184D01*
X148654049Y-119437374D01*
X148630240Y-119413565D01*
%TO.C,R1*%
X121463573Y-118531195D02*
X121296907Y-118293100D01*
X121177859Y-118531195D02*
X121177859Y-118031195D01*
X121368335Y-118031195D01*
X121415954Y-118055005D01*
X121439764Y-118078814D01*
X121463573Y-118126433D01*
X121463573Y-118197862D01*
X121439764Y-118245481D01*
X121415954Y-118269290D01*
X121368335Y-118293100D01*
X121177859Y-118293100D01*
X121939764Y-118531195D02*
X121654049Y-118531195D01*
X121796907Y-118531195D02*
X121796907Y-118031195D01*
X121749287Y-118102624D01*
X121701668Y-118150243D01*
X121654049Y-118174052D01*
%TO.C,C7*%
X126828666Y-114178576D02*
X126804857Y-114202385D01*
X126733428Y-114226195D01*
X126685809Y-114226195D01*
X126614380Y-114202385D01*
X126566761Y-114154766D01*
X126542952Y-114107147D01*
X126519142Y-114011909D01*
X126519142Y-113940481D01*
X126542952Y-113845243D01*
X126566761Y-113797624D01*
X126614380Y-113750005D01*
X126685809Y-113726195D01*
X126733428Y-113726195D01*
X126804857Y-113750005D01*
X126828666Y-113773814D01*
X126995333Y-113726195D02*
X127328666Y-113726195D01*
X127114380Y-114226195D01*
%TO.C,C6*%
X154213573Y-114213565D02*
X154189764Y-114237374D01*
X154118335Y-114261184D01*
X154070716Y-114261184D01*
X153999287Y-114237374D01*
X153951668Y-114189755D01*
X153927859Y-114142136D01*
X153904049Y-114046898D01*
X153904049Y-113975470D01*
X153927859Y-113880232D01*
X153951668Y-113832613D01*
X153999287Y-113784994D01*
X154070716Y-113761184D01*
X154118335Y-113761184D01*
X154189764Y-113784994D01*
X154213573Y-113808803D01*
X154642145Y-113761184D02*
X154546907Y-113761184D01*
X154499287Y-113784994D01*
X154475478Y-113808803D01*
X154427859Y-113880232D01*
X154404049Y-113975470D01*
X154404049Y-114165946D01*
X154427859Y-114213565D01*
X154451668Y-114237374D01*
X154499287Y-114261184D01*
X154594526Y-114261184D01*
X154642145Y-114237374D01*
X154665954Y-114213565D01*
X154689764Y-114165946D01*
X154689764Y-114046898D01*
X154665954Y-113999279D01*
X154642145Y-113975470D01*
X154594526Y-113951660D01*
X154499287Y-113951660D01*
X154451668Y-113975470D01*
X154427859Y-113999279D01*
X154404049Y-114046898D01*
D14*
%TO.C,C1*%
X130350000Y-114825005D02*
X133400000Y-114825005D01*
X130350000Y-117595005D02*
X130350000Y-117925005D01*
X133732000Y-117594005D02*
X133400000Y-117925005D01*
X133400000Y-114825005D02*
X133732000Y-115156005D01*
X133400000Y-117925005D02*
X130350000Y-117925005D01*
X130350000Y-114825005D02*
X130350000Y-115155005D01*
D15*
%TO.C,C5*%
X124556907Y-117315585D02*
X124556907Y-117034425D01*
X123536907Y-117315585D02*
X123536907Y-117034425D01*
%TO.C,C2*%
X132240580Y-118774999D02*
X131959420Y-118774999D01*
X132240580Y-119794999D02*
X131959420Y-119794999D01*
D14*
%TO.C,C8*%
X150381000Y-118632000D02*
X150050000Y-118300000D01*
X153150000Y-115250000D02*
X152820000Y-115250000D01*
X150380000Y-115250000D02*
X150050000Y-115250000D01*
X150050000Y-118300000D02*
X150050000Y-115250000D01*
X153150000Y-115250000D02*
X153150000Y-118300000D01*
X153150000Y-118300000D02*
X152819000Y-118632000D01*
D15*
%TO.C,R2*%
X156559649Y-116262494D02*
X157034165Y-116262494D01*
X156559649Y-117307494D02*
X157034165Y-117307494D01*
D14*
%TO.C,C4*%
X148050000Y-117950000D02*
X148050000Y-117620000D01*
X148050000Y-117950000D02*
X145000000Y-117950000D01*
X145000000Y-114850000D02*
X148050000Y-114850000D01*
X145000000Y-117950000D02*
X144668000Y-117619000D01*
X144668000Y-115181000D02*
X145000000Y-114850000D01*
X148050000Y-115180000D02*
X148050000Y-114850000D01*
D15*
%TO.C,J1*%
X143070000Y-114960000D02*
X143070000Y-112300000D01*
X135330000Y-112300000D02*
X135330000Y-114960000D01*
X137040000Y-115290000D02*
X137040000Y-114960000D01*
X143070000Y-112300000D02*
X135330000Y-112300000D01*
X136660000Y-117670000D02*
X135390000Y-117670000D01*
X139580000Y-115357071D02*
X139580000Y-114960000D01*
X135330000Y-114960000D02*
X143070000Y-114960000D01*
X140470000Y-114960000D02*
X140470000Y-112300000D01*
X137930000Y-114960000D02*
X137930000Y-112300000D01*
X141360000Y-115357071D02*
X141360000Y-114960000D01*
X142120000Y-115357071D02*
X142120000Y-114960000D01*
X135390000Y-117670000D02*
X135390000Y-116400000D01*
X138820000Y-115357071D02*
X138820000Y-114960000D01*
X136280000Y-115290000D02*
X136280000Y-114960000D01*
%TO.C,C3*%
X146204420Y-119794994D02*
X146485580Y-119794994D01*
X146204420Y-118774994D02*
X146485580Y-118774994D01*
%TO.C,R1*%
X121784165Y-117397505D02*
X121309649Y-117397505D01*
X121784165Y-116352505D02*
X121309649Y-116352505D01*
D14*
%TO.C,C7*%
X128350000Y-115775005D02*
X128350000Y-118825005D01*
X125250000Y-118825005D02*
X125580000Y-118825005D01*
X128019000Y-115443005D02*
X128350000Y-115775005D01*
X128020000Y-118825005D02*
X128350000Y-118825005D01*
X125250000Y-118825005D02*
X125250000Y-115775005D01*
X125250000Y-115775005D02*
X125581000Y-115443005D01*
D15*
%TO.C,C6*%
X153786907Y-116894414D02*
X153786907Y-117175574D01*
X154806907Y-116894414D02*
X154806907Y-117175574D01*
%TD*%
M02*
