%TF.GenerationSoftware,KiCad,Pcbnew,(6.0.4-0)*%
%TF.CreationDate,2022-04-21T23:00:07-07:00*%
%TF.ProjectId,Labpass RFID Reader,4c616270-6173-4732-9052-464944205265,0.1.0*%
%TF.SameCoordinates,Original*%
%TF.FileFunction,Paste,Top*%
%TF.FilePolarity,Positive*%
%FSLAX46Y46*%
G04 Gerber Fmt 4.6, Leading zero omitted, Abs format (unit mm)*
G04 Created by KiCad (PCBNEW (6.0.4-0)) date 2022-04-21 23:00:07*
%MOMM*%
%LPD*%
G01*
G04 APERTURE LIST*
G04 Aperture macros list*
%AMRoundRect*
0 Rectangle with rounded corners*
0 $1 Rounding radius*
0 $2 $3 $4 $5 $6 $7 $8 $9 X,Y pos of 4 corners*
0 Add a 4 corners polygon primitive as box body*
4,1,4,$2,$3,$4,$5,$6,$7,$8,$9,$2,$3,0*
0 Add four circle primitives for the rounded corners*
1,1,$1+$1,$2,$3*
1,1,$1+$1,$4,$5*
1,1,$1+$1,$6,$7*
1,1,$1+$1,$8,$9*
0 Add four rect primitives between the rounded corners*
20,1,$1+$1,$2,$3,$4,$5,0*
20,1,$1+$1,$4,$5,$6,$7,0*
20,1,$1+$1,$6,$7,$8,$9,0*
20,1,$1+$1,$8,$9,$2,$3,0*%
G04 Aperture macros list end*
%ADD10RoundRect,0.200000X0.200000X0.275000X-0.200000X0.275000X-0.200000X-0.275000X0.200000X-0.275000X0*%
%ADD11RoundRect,0.225000X0.225000X0.250000X-0.225000X0.250000X-0.225000X-0.250000X0.225000X-0.250000X0*%
%ADD12R,0.500000X0.500000*%
%ADD13R,2.000000X2.400000*%
%ADD14RoundRect,0.250000X-0.375000X-1.075000X0.375000X-1.075000X0.375000X1.075000X-0.375000X1.075000X0*%
%ADD15RoundRect,0.225000X-0.225000X-0.250000X0.225000X-0.250000X0.225000X0.250000X-0.225000X0.250000X0*%
%ADD16R,2.510000X1.000000*%
%ADD17RoundRect,0.200000X-0.200000X-0.275000X0.200000X-0.275000X0.200000X0.275000X-0.200000X0.275000X0*%
%ADD18RoundRect,0.200000X-0.275000X0.200000X-0.275000X-0.200000X0.275000X-0.200000X0.275000X0.200000X0*%
%ADD19RoundRect,0.200000X0.275000X-0.200000X0.275000X0.200000X-0.275000X0.200000X-0.275000X-0.200000X0*%
%ADD20RoundRect,0.225000X-0.250000X0.225000X-0.250000X-0.225000X0.250000X-0.225000X0.250000X0.225000X0*%
%ADD21RoundRect,0.225000X0.250000X-0.225000X0.250000X0.225000X-0.250000X0.225000X-0.250000X-0.225000X0*%
%ADD22RoundRect,0.150000X-0.825000X-0.150000X0.825000X-0.150000X0.825000X0.150000X-0.825000X0.150000X0*%
%ADD23RoundRect,0.207500X0.207500X-0.207500X0.207500X0.207500X-0.207500X0.207500X-0.207500X-0.207500X0*%
%ADD24RoundRect,0.062500X0.062500X-0.375000X0.062500X0.375000X-0.062500X0.375000X-0.062500X-0.375000X0*%
%ADD25RoundRect,0.062500X0.375000X-0.062500X0.375000X0.062500X-0.375000X0.062500X-0.375000X-0.062500X0*%
%ADD26RoundRect,0.250000X0.375000X1.075000X-0.375000X1.075000X-0.375000X-1.075000X0.375000X-1.075000X0*%
G04 APERTURE END LIST*
D10*
%TO.C,R15*%
X121091182Y-100360280D03*
X119441182Y-100360280D03*
%TD*%
D11*
%TO.C,C4*%
X149516169Y-65882169D03*
X147966169Y-65882169D03*
%TD*%
D12*
%TO.C,D1*%
X132483169Y-68110169D03*
X132483169Y-65910169D03*
%TD*%
D13*
%TO.C,Y1*%
X155775169Y-105922169D03*
X152075169Y-105922169D03*
%TD*%
D14*
%TO.C,L2*%
X165733169Y-111510169D03*
X168533169Y-111510169D03*
%TD*%
D15*
%TO.C,C19*%
X160184169Y-110238169D03*
X161734169Y-110238169D03*
%TD*%
%TO.C,C8*%
X135234865Y-70228169D03*
X136784865Y-70228169D03*
%TD*%
D16*
%TO.C,L1*%
X132055000Y-73070000D03*
X128745000Y-70530000D03*
%TD*%
D10*
%TO.C,R20*%
X121091182Y-107960280D03*
X119441182Y-107960280D03*
%TD*%
D17*
%TO.C,R14*%
X166916169Y-108460169D03*
X168566169Y-108460169D03*
%TD*%
%TO.C,R5*%
X157644169Y-67566169D03*
X159294169Y-67566169D03*
%TD*%
D18*
%TO.C,R4*%
X157644169Y-69789169D03*
X157644169Y-71439169D03*
%TD*%
D10*
%TO.C,R10*%
X137091182Y-79760280D03*
X135441182Y-79760280D03*
%TD*%
D18*
%TO.C,R3*%
X155104169Y-87252169D03*
X155104169Y-88902169D03*
%TD*%
D10*
%TO.C,R16*%
X121091182Y-95360280D03*
X119441182Y-95360280D03*
%TD*%
D16*
%TO.C,J2*%
X112455000Y-93910000D03*
X109145000Y-96450000D03*
X112455000Y-98990000D03*
X109145000Y-101530000D03*
X112455000Y-104070000D03*
X109145000Y-106610000D03*
X112455000Y-109150000D03*
X109145000Y-111690000D03*
%TD*%
D19*
%TO.C,R9*%
X138086169Y-67532169D03*
X138086169Y-65882169D03*
%TD*%
D11*
%TO.C,C3*%
X162476169Y-67566169D03*
X160926169Y-67566169D03*
%TD*%
D20*
%TO.C,C17*%
X155703169Y-101322169D03*
X155703169Y-102872169D03*
%TD*%
D10*
%TO.C,R18*%
X121091182Y-102960280D03*
X119441182Y-102960280D03*
%TD*%
D18*
%TO.C,R7*%
X151294169Y-67280169D03*
X151294169Y-68930169D03*
%TD*%
D21*
%TO.C,C18*%
X152147169Y-102872169D03*
X152147169Y-101322169D03*
%TD*%
D16*
%TO.C,J1*%
X178055000Y-116940000D03*
X174745000Y-114400000D03*
X178055000Y-111860000D03*
%TD*%
D10*
%TO.C,R8*%
X144690169Y-65882169D03*
X143040169Y-65882169D03*
%TD*%
D15*
%TO.C,C6*%
X139838169Y-65882169D03*
X141388169Y-65882169D03*
%TD*%
D22*
%TO.C,U3*%
X157709169Y-73408169D03*
X157709169Y-74678169D03*
X157709169Y-75948169D03*
X157709169Y-77218169D03*
X157709169Y-78488169D03*
X157709169Y-79758169D03*
X157709169Y-81028169D03*
X162659169Y-81028169D03*
X162659169Y-79758169D03*
X162659169Y-78488169D03*
X162659169Y-77218169D03*
X162659169Y-75948169D03*
X162659169Y-74678169D03*
X162659169Y-73408169D03*
%TD*%
D10*
%TO.C,R17*%
X121091182Y-97760280D03*
X119441182Y-97760280D03*
%TD*%
D21*
%TO.C,C20*%
X171526169Y-111172169D03*
X171526169Y-109622169D03*
%TD*%
D22*
%TO.C,U2*%
X157709169Y-84457169D03*
X157709169Y-85727169D03*
X157709169Y-86997169D03*
X157709169Y-88267169D03*
X162659169Y-88267169D03*
X162659169Y-86997169D03*
X162659169Y-85727169D03*
X162659169Y-84457169D03*
%TD*%
D10*
%TO.C,R19*%
X121091182Y-105560280D03*
X119441182Y-105560280D03*
%TD*%
D21*
%TO.C,C21*%
X171626169Y-119322169D03*
X171626169Y-117772169D03*
%TD*%
D19*
%TO.C,R11*%
X135851182Y-77760280D03*
X135851182Y-76110280D03*
%TD*%
D23*
%TO.C,U4*%
X155463169Y-114400169D03*
X153403169Y-114400169D03*
X155463169Y-115430169D03*
X154433169Y-115430169D03*
X154433169Y-113370169D03*
X154433169Y-114400169D03*
X153403169Y-115430169D03*
X153403169Y-113370169D03*
X155463169Y-113370169D03*
D24*
X152683169Y-116837669D03*
X153183169Y-116837669D03*
X153683169Y-116837669D03*
X154183169Y-116837669D03*
X154683169Y-116837669D03*
X155183169Y-116837669D03*
X155683169Y-116837669D03*
X156183169Y-116837669D03*
D25*
X156870669Y-116150169D03*
X156870669Y-115650169D03*
X156870669Y-115150169D03*
X156870669Y-114650169D03*
X156870669Y-114150169D03*
X156870669Y-113650169D03*
X156870669Y-113150169D03*
X156870669Y-112650169D03*
D24*
X156183169Y-111962669D03*
X155683169Y-111962669D03*
X155183169Y-111962669D03*
X154683169Y-111962669D03*
X154183169Y-111962669D03*
X153683169Y-111962669D03*
X153183169Y-111962669D03*
X152683169Y-111962669D03*
D25*
X151995669Y-112650169D03*
X151995669Y-113150169D03*
X151995669Y-113650169D03*
X151995669Y-114150169D03*
X151995669Y-114650169D03*
X151995669Y-115150169D03*
X151995669Y-115650169D03*
X151995669Y-116150169D03*
%TD*%
D18*
%TO.C,R1*%
X155358169Y-79504169D03*
X155358169Y-81154169D03*
%TD*%
D26*
%TO.C,L3*%
X168533169Y-117604169D03*
X165733169Y-117604169D03*
%TD*%
D20*
%TO.C,C5*%
X146214169Y-65882169D03*
X146214169Y-67432169D03*
%TD*%
D18*
%TO.C,R2*%
X155104169Y-84204169D03*
X155104169Y-85854169D03*
%TD*%
D20*
%TO.C,C7*%
X134530169Y-65910169D03*
X134530169Y-67460169D03*
%TD*%
D18*
%TO.C,R6*%
X151294169Y-64232169D03*
X151294169Y-65882169D03*
%TD*%
%TO.C,R13*%
X158406169Y-108588169D03*
X158406169Y-110238169D03*
%TD*%
M02*
