G04 #@! TF.GenerationSoftware,KiCad,Pcbnew,(6.0.4-0)*
G04 #@! TF.CreationDate,2022-05-10T10:58:29-07:00*
G04 #@! TF.ProjectId,Labpass RFID Reader,4c616270-6173-4732-9052-464944205265,0.1.0*
G04 #@! TF.SameCoordinates,Original*
G04 #@! TF.FileFunction,Paste,Top*
G04 #@! TF.FilePolarity,Positive*
%FSLAX46Y46*%
G04 Gerber Fmt 4.6, Leading zero omitted, Abs format (unit mm)*
G04 Created by KiCad (PCBNEW (6.0.4-0)) date 2022-05-10 10:58:29*
%MOMM*%
%LPD*%
G01*
G04 APERTURE LIST*
G04 Aperture macros list*
%AMRoundRect*
0 Rectangle with rounded corners*
0 $1 Rounding radius*
0 $2 $3 $4 $5 $6 $7 $8 $9 X,Y pos of 4 corners*
0 Add a 4 corners polygon primitive as box body*
4,1,4,$2,$3,$4,$5,$6,$7,$8,$9,$2,$3,0*
0 Add four circle primitives for the rounded corners*
1,1,$1+$1,$2,$3*
1,1,$1+$1,$4,$5*
1,1,$1+$1,$6,$7*
1,1,$1+$1,$8,$9*
0 Add four rect primitives between the rounded corners*
20,1,$1+$1,$2,$3,$4,$5,0*
20,1,$1+$1,$4,$5,$6,$7,0*
20,1,$1+$1,$6,$7,$8,$9,0*
20,1,$1+$1,$8,$9,$2,$3,0*%
G04 Aperture macros list end*
%ADD10RoundRect,0.225000X-0.225000X-0.250000X0.225000X-0.250000X0.225000X0.250000X-0.225000X0.250000X0*%
%ADD11RoundRect,0.225000X0.225000X0.250000X-0.225000X0.250000X-0.225000X-0.250000X0.225000X-0.250000X0*%
%ADD12R,0.500000X0.500000*%
%ADD13R,2.000000X2.400000*%
%ADD14RoundRect,0.250000X-0.375000X-1.075000X0.375000X-1.075000X0.375000X1.075000X-0.375000X1.075000X0*%
%ADD15RoundRect,0.225000X-0.250000X0.225000X-0.250000X-0.225000X0.250000X-0.225000X0.250000X0.225000X0*%
%ADD16RoundRect,0.200000X0.200000X0.275000X-0.200000X0.275000X-0.200000X-0.275000X0.200000X-0.275000X0*%
%ADD17RoundRect,0.200000X-0.200000X-0.275000X0.200000X-0.275000X0.200000X0.275000X-0.200000X0.275000X0*%
%ADD18RoundRect,0.200000X-0.275000X0.200000X-0.275000X-0.200000X0.275000X-0.200000X0.275000X0.200000X0*%
%ADD19RoundRect,0.200000X0.275000X-0.200000X0.275000X0.200000X-0.275000X0.200000X-0.275000X-0.200000X0*%
%ADD20RoundRect,0.225000X0.250000X-0.225000X0.250000X0.225000X-0.250000X0.225000X-0.250000X-0.225000X0*%
%ADD21RoundRect,0.150000X-0.825000X-0.150000X0.825000X-0.150000X0.825000X0.150000X-0.825000X0.150000X0*%
%ADD22RoundRect,0.075000X0.675000X-0.075000X0.675000X0.075000X-0.675000X0.075000X-0.675000X-0.075000X0*%
%ADD23RoundRect,0.075000X0.075000X-0.675000X0.075000X0.675000X-0.075000X0.675000X-0.075000X-0.675000X0*%
%ADD24RoundRect,0.250000X0.375000X1.075000X-0.375000X1.075000X-0.375000X-1.075000X0.375000X-1.075000X0*%
G04 APERTURE END LIST*
D10*
X163042000Y-108458000D03*
X164592000Y-108458000D03*
D11*
X149516169Y-65882169D03*
X147966169Y-65882169D03*
D12*
X132502000Y-66040000D03*
X130302000Y-66040000D03*
D13*
X155775169Y-105922169D03*
X152075169Y-105922169D03*
D14*
X165733169Y-111510169D03*
X168533169Y-111510169D03*
D10*
X160184169Y-110238169D03*
X161734169Y-110238169D03*
D15*
X128270000Y-66040000D03*
X128270000Y-67590000D03*
D16*
X166916169Y-108460169D03*
X168566169Y-108460169D03*
D17*
X157644169Y-67566169D03*
X159294169Y-67566169D03*
D18*
X157644169Y-69789169D03*
X157644169Y-71439169D03*
D16*
X137091182Y-79760280D03*
X135441182Y-79760280D03*
D18*
X155104169Y-87252169D03*
X155104169Y-88902169D03*
D19*
X138086169Y-67532169D03*
X138086169Y-65882169D03*
D11*
X162476169Y-67566169D03*
X160926169Y-67566169D03*
D15*
X155703169Y-101322169D03*
X155703169Y-102872169D03*
D18*
X151294169Y-72262000D03*
X151294169Y-70612000D03*
D20*
X152147169Y-102872169D03*
X152147169Y-101322169D03*
D16*
X144690169Y-65882169D03*
X143040169Y-65882169D03*
D10*
X139838169Y-65882169D03*
X141388169Y-65882169D03*
D21*
X162659169Y-73408169D03*
X162659169Y-74678169D03*
X162659169Y-75948169D03*
X162659169Y-77218169D03*
X162659169Y-78488169D03*
X162659169Y-79758169D03*
X162659169Y-81028169D03*
X157709169Y-81028169D03*
X157709169Y-79758169D03*
X157709169Y-78488169D03*
X157709169Y-77218169D03*
X157709169Y-75948169D03*
X157709169Y-74678169D03*
X157709169Y-73408169D03*
D20*
X171526169Y-111172169D03*
X171526169Y-109622169D03*
D21*
X162659169Y-84457169D03*
X162659169Y-85727169D03*
X162659169Y-86997169D03*
X162659169Y-88267169D03*
X157709169Y-88267169D03*
X157709169Y-86997169D03*
X157709169Y-85727169D03*
X157709169Y-84457169D03*
D20*
X171626169Y-119322169D03*
X171626169Y-117772169D03*
D19*
X135851182Y-77760280D03*
X135851182Y-76110280D03*
D22*
X151258169Y-116150169D03*
X151258169Y-115650169D03*
X151258169Y-115150169D03*
X151258169Y-114650169D03*
X151258169Y-114150169D03*
X151258169Y-113650169D03*
X151258169Y-113150169D03*
X151258169Y-112650169D03*
D23*
X152683169Y-111225169D03*
X153183169Y-111225169D03*
X153683169Y-111225169D03*
X154183169Y-111225169D03*
X154683169Y-111225169D03*
X155183169Y-111225169D03*
X155683169Y-111225169D03*
X156183169Y-111225169D03*
D22*
X157608169Y-112650169D03*
X157608169Y-113150169D03*
X157608169Y-113650169D03*
X157608169Y-114150169D03*
X157608169Y-114650169D03*
X157608169Y-115150169D03*
X157608169Y-115650169D03*
X157608169Y-116150169D03*
D23*
X156183169Y-117575169D03*
X155683169Y-117575169D03*
X155183169Y-117575169D03*
X154683169Y-117575169D03*
X154183169Y-117575169D03*
X153683169Y-117575169D03*
X153183169Y-117575169D03*
X152683169Y-117575169D03*
D18*
X155358169Y-79504169D03*
X155358169Y-81154169D03*
D24*
X168533169Y-117604169D03*
X165733169Y-117604169D03*
D15*
X146214169Y-65882169D03*
X146214169Y-67432169D03*
D18*
X155104169Y-84204169D03*
X155104169Y-85854169D03*
D15*
X134530169Y-65910169D03*
X134530169Y-67460169D03*
D18*
X151294169Y-65723000D03*
X151294169Y-67373000D03*
X158406169Y-108588169D03*
X158406169Y-110238169D03*
M02*
