G04 #@! TF.GenerationSoftware,KiCad,Pcbnew,(6.0.4-0)*
G04 #@! TF.CreationDate,2022-05-10T10:58:29-07:00*
G04 #@! TF.ProjectId,Labpass RFID Reader,4c616270-6173-4732-9052-464944205265,0.1.0*
G04 #@! TF.SameCoordinates,Original*
G04 #@! TF.FileFunction,Soldermask,Bot*
G04 #@! TF.FilePolarity,Negative*
%FSLAX46Y46*%
G04 Gerber Fmt 4.6, Leading zero omitted, Abs format (unit mm)*
G04 Created by KiCad (PCBNEW (6.0.4-0)) date 2022-05-10 10:58:29*
%MOMM*%
%LPD*%
G01*
G04 APERTURE LIST*
G04 Aperture macros list*
%AMRoundRect*
0 Rectangle with rounded corners*
0 $1 Rounding radius*
0 $2 $3 $4 $5 $6 $7 $8 $9 X,Y pos of 4 corners*
0 Add a 4 corners polygon primitive as box body*
4,1,4,$2,$3,$4,$5,$6,$7,$8,$9,$2,$3,0*
0 Add four circle primitives for the rounded corners*
1,1,$1+$1,$2,$3*
1,1,$1+$1,$4,$5*
1,1,$1+$1,$6,$7*
1,1,$1+$1,$8,$9*
0 Add four rect primitives between the rounded corners*
20,1,$1+$1,$2,$3,$4,$5,0*
20,1,$1+$1,$4,$5,$6,$7,0*
20,1,$1+$1,$6,$7,$8,$9,0*
20,1,$1+$1,$8,$9,$2,$3,0*%
G04 Aperture macros list end*
%ADD10RoundRect,0.050800X0.850000X-0.850000X0.850000X0.850000X-0.850000X0.850000X-0.850000X-0.850000X0*%
%ADD11O,1.801600X1.801600*%
%ADD12RoundRect,0.050800X-0.850000X-0.850000X0.850000X-0.850000X0.850000X0.850000X-0.850000X0.850000X0*%
%ADD13RoundRect,0.250800X-0.275000X0.200000X-0.275000X-0.200000X0.275000X-0.200000X0.275000X0.200000X0*%
%ADD14C,1.625600*%
%ADD15RoundRect,0.250800X0.200000X0.275000X-0.200000X0.275000X-0.200000X-0.275000X0.200000X-0.275000X0*%
%ADD16C,2.301600*%
%ADD17RoundRect,0.050800X0.650000X0.650000X-0.650000X0.650000X-0.650000X-0.650000X0.650000X-0.650000X0*%
%ADD18C,1.401600*%
%ADD19C,1.676400*%
%ADD20RoundRect,0.275800X0.225000X0.250000X-0.225000X0.250000X-0.225000X-0.250000X0.225000X-0.250000X0*%
%ADD21RoundRect,0.250800X-0.200000X-0.275000X0.200000X-0.275000X0.200000X0.275000X-0.200000X0.275000X0*%
%ADD22RoundRect,0.275800X-0.225000X-0.250000X0.225000X-0.250000X0.225000X0.250000X-0.225000X0.250000X0*%
G04 APERTURE END LIST*
D10*
X175768000Y-116332000D03*
D11*
X175768000Y-113792000D03*
X178308000Y-116332000D03*
X178308000Y-113792000D03*
D12*
X128270000Y-60198000D03*
D11*
X128270000Y-62738000D03*
X116088000Y-111822000D03*
X116088000Y-114362000D03*
X113548000Y-111822000D03*
X113548000Y-114362000D03*
X111008000Y-111822000D03*
X111008000Y-114362000D03*
X108468000Y-111822000D03*
D10*
X108468000Y-114362000D03*
D13*
X116078000Y-109537000D03*
X116078000Y-107887000D03*
D14*
X119250169Y-76456169D03*
X114250169Y-76456169D03*
D15*
X115188000Y-116332000D03*
X113538000Y-116332000D03*
D16*
X118779296Y-66252193D03*
X118819296Y-124232193D03*
X167829296Y-124222193D03*
D17*
X132866182Y-77760280D03*
D18*
X131596182Y-79030280D03*
X130326182Y-77760280D03*
D13*
X110998000Y-109537000D03*
X110998000Y-107887000D03*
X117856000Y-114300000D03*
X117856000Y-112650000D03*
X113538000Y-109537000D03*
X113538000Y-107887000D03*
D19*
X123366169Y-110535419D03*
X143686169Y-90215419D03*
X123366169Y-87675419D03*
X123366169Y-90215419D03*
X143686169Y-100375419D03*
X143686169Y-92755419D03*
X143686169Y-125775419D03*
X143686169Y-120695419D03*
X143686169Y-97835419D03*
X143686169Y-95295419D03*
X143686169Y-118155419D03*
X123366169Y-113075419D03*
X123366169Y-115615419D03*
X143686169Y-102915419D03*
X143686169Y-105455419D03*
X143686169Y-107995419D03*
X143686169Y-110535419D03*
X143686169Y-113075419D03*
X143686169Y-115615419D03*
X123366169Y-100375419D03*
X123366169Y-95295419D03*
X123366169Y-102915419D03*
X143686169Y-87675419D03*
X123366169Y-97835419D03*
X123366169Y-92755419D03*
X123366169Y-107995419D03*
X123366169Y-105455419D03*
X143686169Y-123235419D03*
D16*
X167789296Y-66232193D03*
D15*
X112648000Y-118110000D03*
X110998000Y-118110000D03*
D20*
X160976169Y-111572169D03*
X159426169Y-111572169D03*
D21*
X148691169Y-118114169D03*
X150341169Y-118114169D03*
D22*
X159426169Y-109872169D03*
X160976169Y-109872169D03*
X159426169Y-116272169D03*
X160976169Y-116272169D03*
D20*
X160976169Y-118018169D03*
X159426169Y-118018169D03*
D22*
X150944169Y-122372169D03*
X152494169Y-122372169D03*
D20*
X152526169Y-120572169D03*
X150976169Y-120572169D03*
X166576169Y-83314169D03*
X165026169Y-83314169D03*
X155676169Y-122372169D03*
X154126169Y-122372169D03*
D22*
X154126169Y-120572169D03*
X155676169Y-120572169D03*
D20*
X154676169Y-77172169D03*
X153126169Y-77172169D03*
M02*
