G04 #@! TF.GenerationSoftware,KiCad,Pcbnew,(6.0.4-0)*
G04 #@! TF.CreationDate,2022-05-10T10:58:29-07:00*
G04 #@! TF.ProjectId,Labpass RFID Reader,4c616270-6173-4732-9052-464944205265,0.1.0*
G04 #@! TF.SameCoordinates,Original*
G04 #@! TF.FileFunction,Copper,L2,Bot*
G04 #@! TF.FilePolarity,Positive*
%FSLAX46Y46*%
G04 Gerber Fmt 4.6, Leading zero omitted, Abs format (unit mm)*
G04 Created by KiCad (PCBNEW (6.0.4-0)) date 2022-05-10 10:58:29*
%MOMM*%
%LPD*%
G01*
G04 APERTURE LIST*
G04 Aperture macros list*
%AMRoundRect*
0 Rectangle with rounded corners*
0 $1 Rounding radius*
0 $2 $3 $4 $5 $6 $7 $8 $9 X,Y pos of 4 corners*
0 Add a 4 corners polygon primitive as box body*
4,1,4,$2,$3,$4,$5,$6,$7,$8,$9,$2,$3,0*
0 Add four circle primitives for the rounded corners*
1,1,$1+$1,$2,$3*
1,1,$1+$1,$4,$5*
1,1,$1+$1,$6,$7*
1,1,$1+$1,$8,$9*
0 Add four rect primitives between the rounded corners*
20,1,$1+$1,$2,$3,$4,$5,0*
20,1,$1+$1,$4,$5,$6,$7,0*
20,1,$1+$1,$6,$7,$8,$9,0*
20,1,$1+$1,$8,$9,$2,$3,0*%
G04 Aperture macros list end*
G04 #@! TA.AperFunction,ComponentPad*
%ADD10R,1.700000X1.700000*%
G04 #@! TD*
G04 #@! TA.AperFunction,ComponentPad*
%ADD11O,1.700000X1.700000*%
G04 #@! TD*
G04 #@! TA.AperFunction,SMDPad,CuDef*
%ADD12RoundRect,0.200000X-0.275000X0.200000X-0.275000X-0.200000X0.275000X-0.200000X0.275000X0.200000X0*%
G04 #@! TD*
G04 #@! TA.AperFunction,ComponentPad*
%ADD13C,1.524000*%
G04 #@! TD*
G04 #@! TA.AperFunction,SMDPad,CuDef*
%ADD14RoundRect,0.200000X0.200000X0.275000X-0.200000X0.275000X-0.200000X-0.275000X0.200000X-0.275000X0*%
G04 #@! TD*
G04 #@! TA.AperFunction,ComponentPad*
%ADD15R,1.300000X1.300000*%
G04 #@! TD*
G04 #@! TA.AperFunction,ComponentPad*
%ADD16C,1.300000*%
G04 #@! TD*
G04 #@! TA.AperFunction,ComponentPad*
%ADD17C,1.574800*%
G04 #@! TD*
G04 #@! TA.AperFunction,SMDPad,CuDef*
%ADD18RoundRect,0.225000X0.225000X0.250000X-0.225000X0.250000X-0.225000X-0.250000X0.225000X-0.250000X0*%
G04 #@! TD*
G04 #@! TA.AperFunction,SMDPad,CuDef*
%ADD19RoundRect,0.200000X-0.200000X-0.275000X0.200000X-0.275000X0.200000X0.275000X-0.200000X0.275000X0*%
G04 #@! TD*
G04 #@! TA.AperFunction,SMDPad,CuDef*
%ADD20RoundRect,0.225000X-0.225000X-0.250000X0.225000X-0.250000X0.225000X0.250000X-0.225000X0.250000X0*%
G04 #@! TD*
G04 #@! TA.AperFunction,ViaPad*
%ADD21C,0.508000*%
G04 #@! TD*
G04 #@! TA.AperFunction,ViaPad*
%ADD22C,0.800000*%
G04 #@! TD*
G04 #@! TA.AperFunction,Conductor*
%ADD23C,0.250000*%
G04 #@! TD*
G04 APERTURE END LIST*
D10*
X175768000Y-116332000D03*
D11*
X175768000Y-113792000D03*
X178308000Y-116332000D03*
X178308000Y-113792000D03*
D10*
X128270000Y-60198000D03*
D11*
X128270000Y-62738000D03*
X116088000Y-111822000D03*
X116088000Y-114362000D03*
X113548000Y-111822000D03*
X113548000Y-114362000D03*
X111008000Y-111822000D03*
X111008000Y-114362000D03*
X108468000Y-111822000D03*
D10*
X108468000Y-114362000D03*
D12*
X116078000Y-109537000D03*
X116078000Y-107887000D03*
D13*
X119250169Y-76456169D03*
X114250169Y-76456169D03*
D14*
X115188000Y-116332000D03*
X113538000Y-116332000D03*
D15*
X132866182Y-77760280D03*
D16*
X131596182Y-79030280D03*
X130326182Y-77760280D03*
D12*
X110998000Y-109537000D03*
X110998000Y-107887000D03*
X117856000Y-114300000D03*
X117856000Y-112650000D03*
X113538000Y-109537000D03*
X113538000Y-107887000D03*
D17*
X123366169Y-110535419D03*
X143686169Y-90215419D03*
X123366169Y-87675419D03*
X123366169Y-90215419D03*
X143686169Y-100375419D03*
X143686169Y-92755419D03*
X143686169Y-125775419D03*
X143686169Y-120695419D03*
X143686169Y-97835419D03*
X143686169Y-95295419D03*
X143686169Y-118155419D03*
X123366169Y-113075419D03*
X123366169Y-115615419D03*
X143686169Y-102915419D03*
X143686169Y-105455419D03*
X143686169Y-107995419D03*
X143686169Y-110535419D03*
X143686169Y-113075419D03*
X143686169Y-115615419D03*
X123366169Y-100375419D03*
X123366169Y-95295419D03*
X123366169Y-102915419D03*
X143686169Y-87675419D03*
X123366169Y-97835419D03*
X123366169Y-92755419D03*
X123366169Y-107995419D03*
X123366169Y-105455419D03*
X143686169Y-123235419D03*
D14*
X112648000Y-118110000D03*
X110998000Y-118110000D03*
D18*
X160976169Y-111572169D03*
X159426169Y-111572169D03*
D19*
X148691169Y-118114169D03*
X150341169Y-118114169D03*
D20*
X159426169Y-109872169D03*
X160976169Y-109872169D03*
X159426169Y-116272169D03*
X160976169Y-116272169D03*
D18*
X160976169Y-118018169D03*
X159426169Y-118018169D03*
D20*
X150944169Y-122372169D03*
X152494169Y-122372169D03*
D18*
X152526169Y-120572169D03*
X150976169Y-120572169D03*
X166576169Y-83314169D03*
X165026169Y-83314169D03*
X155676169Y-122372169D03*
X154126169Y-122372169D03*
D20*
X154126169Y-120572169D03*
X155676169Y-120572169D03*
D18*
X154676169Y-77172169D03*
X153126169Y-77172169D03*
D21*
X170180000Y-112268000D03*
X164338000Y-114808000D03*
D22*
X155926169Y-77218169D03*
X165010169Y-84584169D03*
X154088169Y-119128169D03*
X153926169Y-79422169D03*
X159422169Y-114810169D03*
X155104169Y-82934169D03*
X152564169Y-119128169D03*
X153416000Y-65786000D03*
X159422169Y-112522000D03*
D21*
X169800000Y-116800000D03*
X148400000Y-114200000D03*
X145400000Y-114200000D03*
X157000000Y-110800000D03*
X163400000Y-118400000D03*
D22*
X135851182Y-74712280D03*
X150368000Y-117094000D03*
D23*
X153416000Y-65786000D02*
X153416000Y-74708000D01*
X153416000Y-74708000D02*
X155926169Y-77218169D01*
X148691169Y-118114169D02*
X149705169Y-119128169D01*
X149705169Y-119128169D02*
X152564169Y-119128169D01*
X116078000Y-109537000D02*
X116078000Y-111812000D01*
X116078000Y-111812000D02*
X116088000Y-111822000D01*
X113538000Y-109537000D02*
X113538000Y-111812000D01*
X113538000Y-111812000D02*
X113548000Y-111822000D01*
X110998000Y-109537000D02*
X110998000Y-111812000D01*
X110998000Y-111812000D02*
X111008000Y-111822000D01*
X113548000Y-114362000D02*
X113548000Y-116322000D01*
X113548000Y-116322000D02*
X113538000Y-116332000D01*
X111008000Y-114362000D02*
X111008000Y-118100000D01*
X111008000Y-118100000D02*
X110998000Y-118110000D01*
X112648000Y-118110000D02*
X116392400Y-118110000D01*
X122301858Y-112200542D02*
X122301858Y-109059730D01*
X116392400Y-118110000D02*
X122301858Y-112200542D01*
X122301858Y-109059730D02*
X123366169Y-107995419D01*
X117602000Y-116332000D02*
X118872000Y-115062000D01*
X115188000Y-116332000D02*
X117602000Y-116332000D01*
X118872000Y-115062000D02*
X118872000Y-109949588D01*
X118872000Y-109949588D02*
X123366169Y-105455419D01*
X117856000Y-114300000D02*
X116150000Y-114300000D01*
X116150000Y-114300000D02*
X116088000Y-114362000D01*
X110998000Y-107887000D02*
X110998000Y-107663588D01*
X110998000Y-107663588D02*
X123366169Y-95295419D01*
X113538000Y-107887000D02*
X113538000Y-107663588D01*
X113538000Y-107663588D02*
X123366169Y-97835419D01*
X116078000Y-107887000D02*
X116078000Y-107663588D01*
X116078000Y-107663588D02*
X123366169Y-100375419D01*
X117856000Y-112650000D02*
X117856000Y-108425588D01*
X117856000Y-108425588D02*
X123366169Y-102915419D01*
X150341169Y-118114169D02*
X150341169Y-117120831D01*
X150341169Y-117120831D02*
X150368000Y-117094000D01*
X154088169Y-119128169D02*
X154088169Y-120534169D01*
X154088169Y-118366169D02*
X154088169Y-119128169D01*
X155104169Y-84592169D02*
X159426169Y-88914169D01*
X159426169Y-118018169D02*
X159426169Y-116272169D01*
X155880169Y-77172169D02*
X155926169Y-77218169D01*
X148691169Y-118230419D02*
X148691169Y-118114169D01*
X165026169Y-83314169D02*
X165026169Y-84568169D01*
X159422169Y-113032169D02*
X157104169Y-115350169D01*
X152564169Y-119128169D02*
X152564169Y-120534169D01*
X154126169Y-122372169D02*
X154126169Y-120572169D01*
X143686169Y-123235419D02*
X148691169Y-118230419D01*
X152564169Y-120534169D02*
X152526169Y-120572169D01*
X159422169Y-114810169D02*
X159422169Y-116268169D01*
X159422169Y-111576169D02*
X159426169Y-111572169D01*
X159422169Y-116268169D02*
X159426169Y-116272169D01*
X159426169Y-109872169D02*
X159426169Y-111572169D01*
X154676169Y-77172169D02*
X155880169Y-77172169D01*
X152494169Y-122372169D02*
X152494169Y-120604169D01*
X159422169Y-113032169D02*
X159422169Y-114810169D01*
X157104169Y-115350169D02*
X154427169Y-118027169D01*
X165026169Y-84568169D02*
X165010169Y-84584169D01*
X154088169Y-120534169D02*
X154126169Y-120572169D01*
X152564169Y-119128169D02*
X154088169Y-119128169D01*
X155926169Y-77218169D02*
X158930169Y-77218169D01*
X154427169Y-118027169D02*
X154088169Y-118366169D01*
X159426169Y-109872169D02*
X159426169Y-88914169D01*
X159422169Y-113032169D02*
X159422169Y-111576169D01*
X159426169Y-88914169D02*
X165026169Y-83314169D01*
X153926169Y-79422169D02*
X153926169Y-79218169D01*
X155104169Y-82934169D02*
X155104169Y-84592169D01*
X152494169Y-120604169D02*
X152526169Y-120572169D01*
X158930169Y-77218169D02*
X165026169Y-83314169D01*
X153926169Y-79218169D02*
X155926169Y-77218169D01*
X135851182Y-74712280D02*
X136992169Y-75853267D01*
X136992169Y-96909419D02*
X123366169Y-110535419D01*
X136992169Y-75853267D02*
X136992169Y-96909419D01*
G04 #@! TA.AperFunction,Conductor*
G36*
X173442100Y-58692171D02*
G01*
X173463074Y-58709074D01*
X177389264Y-62635264D01*
X177423290Y-62697576D01*
X177426169Y-62724359D01*
X177426169Y-84672169D01*
X177441361Y-84679765D01*
X179356518Y-85637344D01*
X179408502Y-85685699D01*
X179426169Y-85750042D01*
X179426169Y-113253289D01*
X179406167Y-113321410D01*
X179352511Y-113367903D01*
X179282237Y-113378007D01*
X179217657Y-113348513D01*
X179188921Y-113312447D01*
X179147379Y-113234318D01*
X179143489Y-113229548D01*
X179143486Y-113229544D01*
X179026967Y-113086678D01*
X179026964Y-113086675D01*
X179023072Y-113081903D01*
X179016791Y-113076707D01*
X178876278Y-112960464D01*
X178876274Y-112960462D01*
X178871528Y-112956535D01*
X178698520Y-112862990D01*
X178510637Y-112804830D01*
X178504519Y-112804187D01*
X178504514Y-112804186D01*
X178321164Y-112784916D01*
X178321162Y-112784916D01*
X178315035Y-112784272D01*
X178232199Y-112791810D01*
X178125305Y-112801538D01*
X178125302Y-112801539D01*
X178119166Y-112802097D01*
X177930489Y-112857628D01*
X177756192Y-112948748D01*
X177602912Y-113071988D01*
X177598954Y-113076705D01*
X177598952Y-113076707D01*
X177545079Y-113140911D01*
X177476489Y-113222653D01*
X177381739Y-113395004D01*
X177379878Y-113400871D01*
X177379877Y-113400873D01*
X177370267Y-113431169D01*
X177322269Y-113582476D01*
X177300345Y-113777930D01*
X177303889Y-113820138D01*
X177315236Y-113955254D01*
X177316803Y-113973919D01*
X177318502Y-113979844D01*
X177330907Y-114023104D01*
X177371015Y-114162979D01*
X177373830Y-114168456D01*
X177373831Y-114168459D01*
X177455220Y-114326825D01*
X177460916Y-114337908D01*
X177464739Y-114342732D01*
X177464742Y-114342736D01*
X177576925Y-114484275D01*
X177583083Y-114492044D01*
X177587777Y-114496038D01*
X177587777Y-114496039D01*
X177685429Y-114579147D01*
X177732862Y-114619516D01*
X177904547Y-114715467D01*
X178091600Y-114776244D01*
X178286895Y-114799532D01*
X178293030Y-114799060D01*
X178293032Y-114799060D01*
X178476852Y-114784916D01*
X178476856Y-114784915D01*
X178482994Y-114784443D01*
X178672428Y-114731552D01*
X178677932Y-114728772D01*
X178677934Y-114728771D01*
X178842480Y-114645653D01*
X178842482Y-114645652D01*
X178847981Y-114642874D01*
X179002966Y-114521786D01*
X179006992Y-114517122D01*
X179006995Y-114517119D01*
X179127451Y-114377569D01*
X179127452Y-114377567D01*
X179131480Y-114372901D01*
X179190613Y-114268808D01*
X179241652Y-114219458D01*
X179311270Y-114205535D01*
X179377364Y-114231461D01*
X179418948Y-114289004D01*
X179426169Y-114331045D01*
X179426169Y-115793289D01*
X179406167Y-115861410D01*
X179352511Y-115907903D01*
X179282237Y-115918007D01*
X179217657Y-115888513D01*
X179188921Y-115852447D01*
X179147379Y-115774318D01*
X179143489Y-115769548D01*
X179143486Y-115769544D01*
X179026967Y-115626678D01*
X179026964Y-115626675D01*
X179023072Y-115621903D01*
X179016791Y-115616707D01*
X178876278Y-115500464D01*
X178876274Y-115500462D01*
X178871528Y-115496535D01*
X178698520Y-115402990D01*
X178510637Y-115344830D01*
X178504519Y-115344187D01*
X178504514Y-115344186D01*
X178321164Y-115324916D01*
X178321162Y-115324916D01*
X178315035Y-115324272D01*
X178256423Y-115329606D01*
X178125305Y-115341538D01*
X178125302Y-115341539D01*
X178119166Y-115342097D01*
X177930489Y-115397628D01*
X177756192Y-115488748D01*
X177602912Y-115611988D01*
X177598954Y-115616705D01*
X177598952Y-115616707D01*
X177523647Y-115706452D01*
X177476489Y-115762653D01*
X177381739Y-115935004D01*
X177379878Y-115940871D01*
X177379877Y-115940873D01*
X177370569Y-115970216D01*
X177322269Y-116122476D01*
X177300345Y-116317930D01*
X177316803Y-116513919D01*
X177318502Y-116519844D01*
X177360119Y-116664979D01*
X177371015Y-116702979D01*
X177373830Y-116708456D01*
X177373831Y-116708459D01*
X177457389Y-116871045D01*
X177460916Y-116877908D01*
X177464739Y-116882732D01*
X177464742Y-116882736D01*
X177518940Y-116951116D01*
X177583083Y-117032044D01*
X177732862Y-117159516D01*
X177904547Y-117255467D01*
X178091600Y-117316244D01*
X178286895Y-117339532D01*
X178293030Y-117339060D01*
X178293032Y-117339060D01*
X178476852Y-117324916D01*
X178476856Y-117324915D01*
X178482994Y-117324443D01*
X178672428Y-117271552D01*
X178677932Y-117268772D01*
X178677934Y-117268771D01*
X178842480Y-117185653D01*
X178842482Y-117185652D01*
X178847981Y-117182874D01*
X179002966Y-117061786D01*
X179006992Y-117057122D01*
X179006995Y-117057119D01*
X179127451Y-116917569D01*
X179127452Y-116917567D01*
X179131480Y-116912901D01*
X179137192Y-116902847D01*
X179180438Y-116826719D01*
X179190613Y-116808808D01*
X179241652Y-116759458D01*
X179311270Y-116745535D01*
X179377364Y-116771461D01*
X179418948Y-116829004D01*
X179426169Y-116871045D01*
X179426169Y-126619979D01*
X179406167Y-126688100D01*
X179389264Y-126709074D01*
X177463074Y-128635264D01*
X177400762Y-128669290D01*
X177373979Y-128672169D01*
X169426169Y-128672169D01*
X169418573Y-128687361D01*
X168460995Y-130602518D01*
X168412640Y-130654502D01*
X168348297Y-130672169D01*
X118504041Y-130672169D01*
X118435920Y-130652167D01*
X118391343Y-130602518D01*
X117434270Y-128688371D01*
X117426169Y-128672169D01*
X109455914Y-128672169D01*
X109399565Y-128658867D01*
X107495819Y-127706994D01*
X107443836Y-127658640D01*
X107426169Y-127594297D01*
X107426169Y-125775419D01*
X142740690Y-125775419D01*
X142761351Y-125971995D01*
X142822431Y-126159980D01*
X142825734Y-126165702D01*
X142825735Y-126165703D01*
X142917957Y-126325438D01*
X142917960Y-126325442D01*
X142921260Y-126331158D01*
X143053520Y-126478047D01*
X143213429Y-126594228D01*
X143219457Y-126596912D01*
X143219459Y-126596913D01*
X143387969Y-126671938D01*
X143394000Y-126674623D01*
X143490670Y-126695171D01*
X143580883Y-126714347D01*
X143580888Y-126714347D01*
X143587340Y-126715719D01*
X143784998Y-126715719D01*
X143791450Y-126714347D01*
X143791455Y-126714347D01*
X143881668Y-126695171D01*
X143978338Y-126674623D01*
X143984369Y-126671938D01*
X144152879Y-126596913D01*
X144152881Y-126596912D01*
X144158909Y-126594228D01*
X144318818Y-126478047D01*
X144451078Y-126331158D01*
X144454378Y-126325442D01*
X144454381Y-126325438D01*
X144546603Y-126165703D01*
X144546604Y-126165702D01*
X144549907Y-126159980D01*
X144610987Y-125971995D01*
X144631648Y-125775419D01*
X144610987Y-125578843D01*
X144608912Y-125572455D01*
X144553876Y-125403073D01*
X144549907Y-125390858D01*
X144546603Y-125385135D01*
X144454381Y-125225400D01*
X144454378Y-125225396D01*
X144451078Y-125219680D01*
X144429143Y-125195319D01*
X144323233Y-125077694D01*
X144323231Y-125077693D01*
X144318818Y-125072791D01*
X144158909Y-124956610D01*
X144152881Y-124953926D01*
X144152879Y-124953925D01*
X143984369Y-124878900D01*
X143984368Y-124878900D01*
X143978338Y-124876215D01*
X143876451Y-124854558D01*
X143791455Y-124836491D01*
X143791450Y-124836491D01*
X143784998Y-124835119D01*
X143587340Y-124835119D01*
X143580888Y-124836491D01*
X143580883Y-124836491D01*
X143495887Y-124854558D01*
X143394000Y-124876215D01*
X143387970Y-124878900D01*
X143387969Y-124878900D01*
X143219460Y-124953925D01*
X143219458Y-124953926D01*
X143213430Y-124956610D01*
X143053520Y-125072791D01*
X143049107Y-125077693D01*
X143049105Y-125077694D01*
X142943195Y-125195319D01*
X142921260Y-125219680D01*
X142917960Y-125225396D01*
X142917957Y-125225400D01*
X142825735Y-125385135D01*
X142822431Y-125390858D01*
X142818462Y-125403073D01*
X142763427Y-125572455D01*
X142761351Y-125578843D01*
X142740690Y-125775419D01*
X107426169Y-125775419D01*
X107426169Y-124232193D01*
X117463637Y-124232193D01*
X117484233Y-124467601D01*
X117485657Y-124472915D01*
X117485657Y-124472916D01*
X117542714Y-124685856D01*
X117545393Y-124695856D01*
X117547715Y-124700836D01*
X117547716Y-124700838D01*
X117642699Y-124904527D01*
X117645261Y-124910022D01*
X117780801Y-125103594D01*
X117947895Y-125270688D01*
X118141467Y-125406228D01*
X118146445Y-125408549D01*
X118146448Y-125408551D01*
X118350651Y-125503773D01*
X118355633Y-125506096D01*
X118360941Y-125507518D01*
X118360943Y-125507519D01*
X118578573Y-125565832D01*
X118583888Y-125567256D01*
X118686978Y-125576275D01*
X118757606Y-125582455D01*
X118757613Y-125582455D01*
X118760330Y-125582693D01*
X118878262Y-125582693D01*
X118880979Y-125582455D01*
X118880986Y-125582455D01*
X118951614Y-125576275D01*
X119054704Y-125567256D01*
X119060019Y-125565832D01*
X119277649Y-125507519D01*
X119277651Y-125507518D01*
X119282959Y-125506096D01*
X119287941Y-125503773D01*
X119492144Y-125408551D01*
X119492147Y-125408549D01*
X119497125Y-125406228D01*
X119690697Y-125270688D01*
X119857791Y-125103594D01*
X119860951Y-125099082D01*
X119990174Y-124914532D01*
X119990177Y-124914527D01*
X119993331Y-124910023D01*
X119995654Y-124905041D01*
X119995657Y-124905036D01*
X120090876Y-124700838D01*
X120090877Y-124700837D01*
X120093199Y-124695856D01*
X120095879Y-124685856D01*
X120152935Y-124472916D01*
X120152935Y-124472915D01*
X120154359Y-124467601D01*
X120174955Y-124232193D01*
X120174080Y-124222193D01*
X166473637Y-124222193D01*
X166494233Y-124457601D01*
X166495657Y-124462915D01*
X166495657Y-124462916D01*
X166498337Y-124472916D01*
X166555393Y-124685856D01*
X166557715Y-124690836D01*
X166557716Y-124690838D01*
X166645412Y-124878900D01*
X166655261Y-124900022D01*
X166790801Y-125093594D01*
X166957895Y-125260688D01*
X167151467Y-125396228D01*
X167156445Y-125398549D01*
X167156448Y-125398551D01*
X167360651Y-125493773D01*
X167365633Y-125496096D01*
X167370941Y-125497518D01*
X167370943Y-125497519D01*
X167588573Y-125555832D01*
X167593888Y-125557256D01*
X167691910Y-125565832D01*
X167767606Y-125572455D01*
X167767613Y-125572455D01*
X167770330Y-125572693D01*
X167888262Y-125572693D01*
X167890979Y-125572455D01*
X167890986Y-125572455D01*
X167966682Y-125565832D01*
X168064704Y-125557256D01*
X168070019Y-125555832D01*
X168287649Y-125497519D01*
X168287651Y-125497518D01*
X168292959Y-125496096D01*
X168297941Y-125493773D01*
X168502144Y-125398551D01*
X168502147Y-125398549D01*
X168507125Y-125396228D01*
X168700697Y-125260688D01*
X168867791Y-125093594D01*
X168870951Y-125089082D01*
X169000174Y-124904532D01*
X169000177Y-124904527D01*
X169003331Y-124900023D01*
X169005654Y-124895041D01*
X169005657Y-124895036D01*
X169100876Y-124690838D01*
X169100877Y-124690837D01*
X169103199Y-124685856D01*
X169160256Y-124472916D01*
X169162935Y-124462916D01*
X169162935Y-124462915D01*
X169164359Y-124457601D01*
X169184955Y-124222193D01*
X169164359Y-123986785D01*
X169107301Y-123773840D01*
X169104622Y-123763840D01*
X169104621Y-123763838D01*
X169103199Y-123758530D01*
X169100876Y-123753548D01*
X169005654Y-123549345D01*
X169005652Y-123549342D01*
X169003331Y-123544364D01*
X168867791Y-123350792D01*
X168700697Y-123183698D01*
X168507125Y-123048158D01*
X168502147Y-123045837D01*
X168502144Y-123045835D01*
X168297941Y-122950613D01*
X168297939Y-122950612D01*
X168292959Y-122948290D01*
X168287651Y-122946868D01*
X168287649Y-122946867D01*
X168070019Y-122888554D01*
X168070018Y-122888554D01*
X168064704Y-122887130D01*
X167961614Y-122878111D01*
X167890986Y-122871931D01*
X167890979Y-122871931D01*
X167888262Y-122871693D01*
X167770330Y-122871693D01*
X167767613Y-122871931D01*
X167767606Y-122871931D01*
X167696978Y-122878111D01*
X167593888Y-122887130D01*
X167588574Y-122888554D01*
X167588573Y-122888554D01*
X167370943Y-122946867D01*
X167370941Y-122946868D01*
X167365633Y-122948290D01*
X167360653Y-122950612D01*
X167360651Y-122950613D01*
X167156448Y-123045835D01*
X167156445Y-123045837D01*
X167151467Y-123048158D01*
X166957895Y-123183698D01*
X166790801Y-123350792D01*
X166787644Y-123355300D01*
X166787642Y-123355303D01*
X166738538Y-123425431D01*
X166655261Y-123544363D01*
X166652938Y-123549345D01*
X166652935Y-123549350D01*
X166620000Y-123619980D01*
X166555393Y-123758530D01*
X166553971Y-123763838D01*
X166553970Y-123763840D01*
X166551291Y-123773840D01*
X166494233Y-123986785D01*
X166473637Y-124222193D01*
X120174080Y-124222193D01*
X120154359Y-123996785D01*
X120151680Y-123986785D01*
X120094622Y-123773840D01*
X120094621Y-123773838D01*
X120093199Y-123768530D01*
X120026597Y-123625703D01*
X119995654Y-123559345D01*
X119995652Y-123559342D01*
X119993331Y-123554364D01*
X119857791Y-123360792D01*
X119732418Y-123235419D01*
X142740690Y-123235419D01*
X142761351Y-123431995D01*
X142822431Y-123619980D01*
X142825734Y-123625702D01*
X142825735Y-123625703D01*
X142917957Y-123785438D01*
X142917960Y-123785442D01*
X142921260Y-123791158D01*
X143053520Y-123938047D01*
X143213429Y-124054228D01*
X143219457Y-124056912D01*
X143219459Y-124056913D01*
X143387969Y-124131938D01*
X143394000Y-124134623D01*
X143490670Y-124155171D01*
X143580883Y-124174347D01*
X143580888Y-124174347D01*
X143587340Y-124175719D01*
X143784998Y-124175719D01*
X143791450Y-124174347D01*
X143791455Y-124174347D01*
X143881668Y-124155171D01*
X143978338Y-124134623D01*
X143984369Y-124131938D01*
X144152879Y-124056913D01*
X144152881Y-124056912D01*
X144158909Y-124054228D01*
X144318818Y-123938047D01*
X144451078Y-123791158D01*
X144454378Y-123785442D01*
X144454381Y-123785438D01*
X144546603Y-123625703D01*
X144546604Y-123625702D01*
X144549907Y-123619980D01*
X144610987Y-123431995D01*
X144631648Y-123235419D01*
X144610987Y-123038843D01*
X144598389Y-123000069D01*
X144552636Y-122859255D01*
X144550609Y-122788287D01*
X144583374Y-122731224D01*
X144646991Y-122667607D01*
X149986169Y-122667607D01*
X149986506Y-122674122D01*
X149996063Y-122766226D01*
X149998957Y-122779625D01*
X150048550Y-122928276D01*
X150054724Y-122941455D01*
X150136957Y-123074342D01*
X150145993Y-123085743D01*
X150256598Y-123196155D01*
X150268009Y-123205167D01*
X150401049Y-123287173D01*
X150414230Y-123293320D01*
X150562983Y-123342660D01*
X150576359Y-123345527D01*
X150667266Y-123354841D01*
X150672295Y-123355098D01*
X150687293Y-123350694D01*
X150688498Y-123349304D01*
X150690169Y-123341621D01*
X150690169Y-122644284D01*
X150685694Y-122629045D01*
X150684304Y-122627840D01*
X150676621Y-122626169D01*
X150004284Y-122626169D01*
X149989045Y-122630644D01*
X149987840Y-122632034D01*
X149986169Y-122639717D01*
X149986169Y-122667607D01*
X144646991Y-122667607D01*
X145214544Y-122100054D01*
X149986169Y-122100054D01*
X149990644Y-122115293D01*
X149992034Y-122116498D01*
X149999717Y-122118169D01*
X150672054Y-122118169D01*
X150687293Y-122113694D01*
X150688498Y-122112304D01*
X150690169Y-122104621D01*
X150690169Y-121425301D01*
X150710171Y-121357180D01*
X150720473Y-121343418D01*
X150722169Y-121335621D01*
X150722169Y-120844284D01*
X150717694Y-120829045D01*
X150716304Y-120827840D01*
X150708621Y-120826169D01*
X150036284Y-120826169D01*
X150021045Y-120830644D01*
X150019840Y-120832034D01*
X150018169Y-120839717D01*
X150018169Y-120867607D01*
X150018506Y-120874122D01*
X150028063Y-120966226D01*
X150030957Y-120979625D01*
X150080550Y-121128276D01*
X150086724Y-121141455D01*
X150168957Y-121274342D01*
X150177993Y-121285743D01*
X150259314Y-121366922D01*
X150293393Y-121429204D01*
X150288390Y-121500024D01*
X150259469Y-121545113D01*
X150145183Y-121659598D01*
X150136171Y-121671009D01*
X150054165Y-121804049D01*
X150048018Y-121817230D01*
X149998678Y-121965983D01*
X149995811Y-121979359D01*
X149986497Y-122070266D01*
X149986169Y-122076683D01*
X149986169Y-122100054D01*
X145214544Y-122100054D01*
X148535624Y-118778974D01*
X148597936Y-118744948D01*
X148624719Y-118742069D01*
X148873869Y-118742069D01*
X148941990Y-118762071D01*
X148962964Y-118778974D01*
X149474696Y-119290706D01*
X149475988Y-119292202D01*
X149478201Y-119296730D01*
X149486711Y-119304624D01*
X149511280Y-119327415D01*
X149514685Y-119330695D01*
X149526942Y-119342952D01*
X149530702Y-119345531D01*
X149532708Y-119347293D01*
X149545569Y-119359224D01*
X149545575Y-119359228D01*
X149554100Y-119367136D01*
X149564905Y-119371447D01*
X149571056Y-119375335D01*
X149574392Y-119377116D01*
X149581036Y-119380060D01*
X149590630Y-119386642D01*
X149601949Y-119389328D01*
X149601951Y-119389329D01*
X149612132Y-119391745D01*
X149629732Y-119397311D01*
X149641995Y-119402204D01*
X149642000Y-119402205D01*
X149650256Y-119405499D01*
X149656070Y-119406069D01*
X149659156Y-119406069D01*
X149662222Y-119406219D01*
X149662204Y-119406590D01*
X149668421Y-119407318D01*
X149668422Y-119407291D01*
X149680037Y-119407859D01*
X149691359Y-119410546D01*
X149702889Y-119408977D01*
X149707376Y-119408366D01*
X149715800Y-119407220D01*
X149732789Y-119406069D01*
X150405057Y-119406069D01*
X150473178Y-119426071D01*
X150519671Y-119479727D01*
X150529775Y-119550001D01*
X150500281Y-119614581D01*
X150451201Y-119647401D01*
X150451690Y-119648445D01*
X150431883Y-119657724D01*
X150298996Y-119739957D01*
X150287595Y-119748993D01*
X150177183Y-119859598D01*
X150168171Y-119871009D01*
X150086165Y-120004049D01*
X150080018Y-120017230D01*
X150030678Y-120165983D01*
X150027811Y-120179359D01*
X150018497Y-120270266D01*
X150018169Y-120276683D01*
X150018169Y-120300054D01*
X150022644Y-120315293D01*
X150024034Y-120316498D01*
X150031717Y-120318169D01*
X151104169Y-120318169D01*
X151172290Y-120338171D01*
X151218783Y-120391827D01*
X151230169Y-120444169D01*
X151230169Y-121519037D01*
X151210167Y-121587158D01*
X151199865Y-121600920D01*
X151198169Y-121608717D01*
X151198169Y-123337054D01*
X151202644Y-123352293D01*
X151204034Y-123353498D01*
X151211717Y-123355169D01*
X151214607Y-123355169D01*
X151221122Y-123354832D01*
X151313226Y-123345275D01*
X151326625Y-123342381D01*
X151475276Y-123292788D01*
X151488455Y-123286614D01*
X151621342Y-123204381D01*
X151632743Y-123195345D01*
X151743155Y-123084740D01*
X151752167Y-123073329D01*
X151833930Y-122940684D01*
X151886702Y-122893191D01*
X151956774Y-122881767D01*
X152021897Y-122910041D01*
X152030207Y-122917626D01*
X152046687Y-122934077D01*
X152056043Y-122938650D01*
X152056044Y-122938651D01*
X152075764Y-122948290D01*
X152159715Y-122989326D01*
X152193087Y-122994195D01*
X152228828Y-122999409D01*
X152228832Y-122999409D01*
X152233354Y-123000069D01*
X152493174Y-123000069D01*
X152754983Y-123000068D01*
X152829264Y-122989135D01*
X152892087Y-122958290D01*
X152932847Y-122938278D01*
X152932848Y-122938277D01*
X152942195Y-122933688D01*
X152994026Y-122881767D01*
X153023719Y-122852022D01*
X153023719Y-122852021D01*
X153031077Y-122844651D01*
X153086326Y-122731623D01*
X153097069Y-122657984D01*
X153097068Y-122086355D01*
X153086135Y-122012074D01*
X153059107Y-121957026D01*
X153035278Y-121908491D01*
X153035277Y-121908490D01*
X153030688Y-121899143D01*
X152941651Y-121810261D01*
X152928135Y-121803654D01*
X152902707Y-121791225D01*
X152842735Y-121761910D01*
X152790320Y-121714026D01*
X152772069Y-121648711D01*
X152772069Y-121308057D01*
X152792071Y-121239936D01*
X152845727Y-121193443D01*
X152854339Y-121190154D01*
X152861264Y-121189135D01*
X152870050Y-121184821D01*
X152870051Y-121184821D01*
X152964847Y-121138278D01*
X152964850Y-121138276D01*
X152974195Y-121133688D01*
X153063077Y-121044651D01*
X153118326Y-120931623D01*
X153129069Y-120857984D01*
X153129068Y-120286355D01*
X153118135Y-120212074D01*
X153080181Y-120134772D01*
X153067278Y-120108491D01*
X153067277Y-120108490D01*
X153062688Y-120099143D01*
X152973651Y-120010261D01*
X152960190Y-120003681D01*
X152912736Y-119980485D01*
X152860319Y-119932599D01*
X152842069Y-119867285D01*
X152842069Y-119673981D01*
X152862071Y-119605860D01*
X152891365Y-119574018D01*
X152951956Y-119527525D01*
X152958502Y-119522502D01*
X152991324Y-119479727D01*
X153010018Y-119455365D01*
X153067356Y-119413498D01*
X153109981Y-119406069D01*
X153542357Y-119406069D01*
X153610478Y-119426071D01*
X153642320Y-119455365D01*
X153661014Y-119479727D01*
X153693836Y-119522502D01*
X153700382Y-119527525D01*
X153760973Y-119574018D01*
X153802840Y-119631356D01*
X153810269Y-119673981D01*
X153810269Y-119867275D01*
X153790267Y-119935396D01*
X153739801Y-119980377D01*
X153722418Y-119988912D01*
X153687491Y-120006060D01*
X153687490Y-120006061D01*
X153678143Y-120010650D01*
X153589261Y-120099687D01*
X153534012Y-120212715D01*
X153523269Y-120286354D01*
X153523270Y-120857983D01*
X153534203Y-120932264D01*
X153550878Y-120966226D01*
X153584789Y-121035294D01*
X153589650Y-121045195D01*
X153678687Y-121134077D01*
X153688043Y-121138650D01*
X153688044Y-121138651D01*
X153717631Y-121153113D01*
X153777603Y-121182428D01*
X153830018Y-121230312D01*
X153848269Y-121295627D01*
X153848269Y-121648617D01*
X153828267Y-121716738D01*
X153777802Y-121761720D01*
X153678143Y-121810650D01*
X153589261Y-121899687D01*
X153534012Y-122012715D01*
X153523269Y-122086354D01*
X153523270Y-122657983D01*
X153534203Y-122732264D01*
X153550878Y-122766226D01*
X153584789Y-122835294D01*
X153589650Y-122845195D01*
X153678687Y-122934077D01*
X153688043Y-122938650D01*
X153688044Y-122938651D01*
X153707764Y-122948290D01*
X153791715Y-122989326D01*
X153825087Y-122994195D01*
X153860828Y-122999409D01*
X153860832Y-122999409D01*
X153865354Y-123000069D01*
X154125174Y-123000069D01*
X154386983Y-123000068D01*
X154461264Y-122989135D01*
X154524087Y-122958290D01*
X154564847Y-122938278D01*
X154564848Y-122938277D01*
X154574195Y-122933688D01*
X154589912Y-122917943D01*
X154652193Y-122883863D01*
X154723013Y-122888865D01*
X154779887Y-122931361D01*
X154786230Y-122940657D01*
X154868957Y-123074342D01*
X154877993Y-123085743D01*
X154988598Y-123196155D01*
X155000009Y-123205167D01*
X155133049Y-123287173D01*
X155146230Y-123293320D01*
X155294983Y-123342660D01*
X155308359Y-123345527D01*
X155399266Y-123354841D01*
X155404295Y-123355098D01*
X155419293Y-123350694D01*
X155420498Y-123349304D01*
X155422169Y-123341621D01*
X155422169Y-123337054D01*
X155930169Y-123337054D01*
X155934644Y-123352293D01*
X155936034Y-123353498D01*
X155943717Y-123355169D01*
X155946607Y-123355169D01*
X155953122Y-123354832D01*
X156045226Y-123345275D01*
X156058625Y-123342381D01*
X156207276Y-123292788D01*
X156220455Y-123286614D01*
X156353342Y-123204381D01*
X156364743Y-123195345D01*
X156475155Y-123084740D01*
X156484167Y-123073329D01*
X156566173Y-122940289D01*
X156572320Y-122927108D01*
X156621660Y-122778355D01*
X156624527Y-122764979D01*
X156633841Y-122674072D01*
X156634169Y-122667656D01*
X156634169Y-122644284D01*
X156629694Y-122629045D01*
X156628304Y-122627840D01*
X156620621Y-122626169D01*
X155948284Y-122626169D01*
X155933045Y-122630644D01*
X155931840Y-122632034D01*
X155930169Y-122639717D01*
X155930169Y-123337054D01*
X155422169Y-123337054D01*
X155422169Y-122100054D01*
X155930169Y-122100054D01*
X155934644Y-122115293D01*
X155936034Y-122116498D01*
X155943717Y-122118169D01*
X156616054Y-122118169D01*
X156631293Y-122113694D01*
X156632498Y-122112304D01*
X156634169Y-122104621D01*
X156634169Y-122076731D01*
X156633832Y-122070216D01*
X156624275Y-121978112D01*
X156621381Y-121964713D01*
X156571788Y-121816062D01*
X156565614Y-121802883D01*
X156483381Y-121669996D01*
X156474345Y-121658595D01*
X156376996Y-121561416D01*
X156342917Y-121499134D01*
X156347920Y-121428314D01*
X156376841Y-121383225D01*
X156475155Y-121284740D01*
X156484167Y-121273329D01*
X156566173Y-121140289D01*
X156572320Y-121127108D01*
X156621660Y-120978355D01*
X156624527Y-120964979D01*
X156633841Y-120874072D01*
X156634169Y-120867656D01*
X156634169Y-120844284D01*
X156629694Y-120829045D01*
X156628304Y-120827840D01*
X156620621Y-120826169D01*
X155948284Y-120826169D01*
X155933045Y-120830644D01*
X155931840Y-120832034D01*
X155930169Y-120839717D01*
X155930169Y-122100054D01*
X155422169Y-122100054D01*
X155422169Y-120300054D01*
X155930169Y-120300054D01*
X155934644Y-120315293D01*
X155936034Y-120316498D01*
X155943717Y-120318169D01*
X156616054Y-120318169D01*
X156631293Y-120313694D01*
X156632498Y-120312304D01*
X156634169Y-120304621D01*
X156634169Y-120276731D01*
X156633832Y-120270216D01*
X156624275Y-120178112D01*
X156621381Y-120164713D01*
X156571788Y-120016062D01*
X156565614Y-120002883D01*
X156483381Y-119869996D01*
X156474345Y-119858595D01*
X156363740Y-119748183D01*
X156352329Y-119739171D01*
X156219289Y-119657165D01*
X156206108Y-119651018D01*
X156057355Y-119601678D01*
X156043979Y-119598811D01*
X155953072Y-119589497D01*
X155948043Y-119589240D01*
X155933045Y-119593644D01*
X155931840Y-119595034D01*
X155930169Y-119602717D01*
X155930169Y-120300054D01*
X155422169Y-120300054D01*
X155422169Y-119607284D01*
X155417694Y-119592045D01*
X155416304Y-119590840D01*
X155408621Y-119589169D01*
X155405731Y-119589169D01*
X155399216Y-119589506D01*
X155307112Y-119599063D01*
X155293713Y-119601957D01*
X155145062Y-119651550D01*
X155131883Y-119657724D01*
X154998996Y-119739957D01*
X154987595Y-119748993D01*
X154877183Y-119859598D01*
X154868171Y-119871009D01*
X154786408Y-120003654D01*
X154733636Y-120051147D01*
X154663564Y-120062571D01*
X154598441Y-120034297D01*
X154590131Y-120026712D01*
X154581022Y-120017619D01*
X154581021Y-120017619D01*
X154573651Y-120010261D01*
X154560135Y-120003654D01*
X154469406Y-119959305D01*
X154469405Y-119959305D01*
X154460623Y-119955012D01*
X154453627Y-119953991D01*
X154395685Y-119915584D01*
X154367110Y-119850592D01*
X154366069Y-119834429D01*
X154366069Y-119673981D01*
X154386071Y-119605860D01*
X154415365Y-119574018D01*
X154475956Y-119527525D01*
X154482502Y-119522502D01*
X154571126Y-119407004D01*
X154576562Y-119393882D01*
X154613534Y-119304624D01*
X154626838Y-119272505D01*
X154632114Y-119232434D01*
X154644762Y-119136357D01*
X154645840Y-119128169D01*
X154642784Y-119104956D01*
X154627916Y-118992019D01*
X154627915Y-118992017D01*
X154626838Y-118983833D01*
X154578808Y-118867880D01*
X154574286Y-118856962D01*
X154574285Y-118856960D01*
X154571126Y-118849334D01*
X154482502Y-118733836D01*
X154415365Y-118682320D01*
X154373498Y-118624982D01*
X154366069Y-118582357D01*
X154366069Y-118533469D01*
X154386071Y-118465348D01*
X154402974Y-118444374D01*
X158929174Y-113918174D01*
X158991486Y-113884148D01*
X159062301Y-113889213D01*
X159119137Y-113931760D01*
X159143948Y-113998280D01*
X159144269Y-114007269D01*
X159144269Y-114264357D01*
X159124267Y-114332478D01*
X159094973Y-114364320D01*
X159056761Y-114393641D01*
X159027836Y-114415836D01*
X158939212Y-114531334D01*
X158883500Y-114665833D01*
X158882423Y-114674017D01*
X158882422Y-114674019D01*
X158873939Y-114738459D01*
X158864498Y-114810169D01*
X158865576Y-114818357D01*
X158881267Y-114937541D01*
X158883500Y-114954505D01*
X158903016Y-115001620D01*
X158928045Y-115062044D01*
X158939212Y-115089004D01*
X159027836Y-115204502D01*
X159034382Y-115209525D01*
X159094973Y-115256018D01*
X159136840Y-115313356D01*
X159144269Y-115355981D01*
X159144269Y-115550581D01*
X159124267Y-115618702D01*
X159073802Y-115663683D01*
X158978143Y-115710650D01*
X158933512Y-115755359D01*
X158919352Y-115769544D01*
X158889261Y-115799687D01*
X158884688Y-115809043D01*
X158884687Y-115809044D01*
X158868643Y-115841868D01*
X158834012Y-115912715D01*
X158823269Y-115986354D01*
X158823270Y-116557983D01*
X158834203Y-116632264D01*
X158856833Y-116678355D01*
X158872278Y-116709812D01*
X158889650Y-116745195D01*
X158978687Y-116834077D01*
X159077603Y-116882428D01*
X159130018Y-116930312D01*
X159148269Y-116995627D01*
X159148269Y-117294617D01*
X159128267Y-117362738D01*
X159077802Y-117407720D01*
X158978143Y-117456650D01*
X158934275Y-117500595D01*
X158922222Y-117512669D01*
X158889261Y-117545687D01*
X158834012Y-117658715D01*
X158832600Y-117668395D01*
X158824576Y-117723397D01*
X158823269Y-117732354D01*
X158823270Y-118303983D01*
X158834203Y-118378264D01*
X158856151Y-118422967D01*
X158884991Y-118481705D01*
X158889650Y-118491195D01*
X158978687Y-118580077D01*
X158988043Y-118584650D01*
X158988044Y-118584651D01*
X159013171Y-118596933D01*
X159091715Y-118635326D01*
X159125087Y-118640195D01*
X159160828Y-118645409D01*
X159160832Y-118645409D01*
X159165354Y-118646069D01*
X159425174Y-118646069D01*
X159686983Y-118646068D01*
X159761264Y-118635135D01*
X159838037Y-118597441D01*
X159864847Y-118584278D01*
X159864848Y-118584277D01*
X159874195Y-118579688D01*
X159889912Y-118563943D01*
X159952193Y-118529863D01*
X160023013Y-118534865D01*
X160079887Y-118577361D01*
X160086230Y-118586657D01*
X160168957Y-118720342D01*
X160177993Y-118731743D01*
X160288598Y-118842155D01*
X160300009Y-118851167D01*
X160433049Y-118933173D01*
X160446230Y-118939320D01*
X160594983Y-118988660D01*
X160608359Y-118991527D01*
X160699266Y-119000841D01*
X160704295Y-119001098D01*
X160719293Y-118996694D01*
X160720498Y-118995304D01*
X160722169Y-118987621D01*
X160722169Y-118983054D01*
X161230169Y-118983054D01*
X161234644Y-118998293D01*
X161236034Y-118999498D01*
X161243717Y-119001169D01*
X161246607Y-119001169D01*
X161253122Y-119000832D01*
X161345226Y-118991275D01*
X161358625Y-118988381D01*
X161507276Y-118938788D01*
X161520455Y-118932614D01*
X161653342Y-118850381D01*
X161664743Y-118841345D01*
X161775155Y-118730740D01*
X161784167Y-118719329D01*
X161866173Y-118586289D01*
X161872320Y-118573108D01*
X161921660Y-118424355D01*
X161924527Y-118410979D01*
X161933841Y-118320072D01*
X161934169Y-118313656D01*
X161934169Y-118290284D01*
X161929694Y-118275045D01*
X161928304Y-118273840D01*
X161920621Y-118272169D01*
X161248284Y-118272169D01*
X161233045Y-118276644D01*
X161231840Y-118278034D01*
X161230169Y-118285717D01*
X161230169Y-118983054D01*
X160722169Y-118983054D01*
X160722169Y-117746054D01*
X161230169Y-117746054D01*
X161234644Y-117761293D01*
X161236034Y-117762498D01*
X161243717Y-117764169D01*
X161916054Y-117764169D01*
X161931293Y-117759694D01*
X161932498Y-117758304D01*
X161934169Y-117750621D01*
X161934169Y-117722731D01*
X161933832Y-117716216D01*
X161924275Y-117624112D01*
X161921381Y-117610713D01*
X161871788Y-117462062D01*
X161865614Y-117448883D01*
X161783381Y-117315996D01*
X161774341Y-117304590D01*
X161703997Y-117234369D01*
X161669917Y-117172087D01*
X161674920Y-117101267D01*
X161703841Y-117056178D01*
X161775155Y-116984740D01*
X161784167Y-116973329D01*
X161866173Y-116840289D01*
X161872320Y-116827108D01*
X161921660Y-116678355D01*
X161924527Y-116664979D01*
X161933841Y-116574072D01*
X161934169Y-116567656D01*
X161934169Y-116544284D01*
X161929694Y-116529045D01*
X161928304Y-116527840D01*
X161920621Y-116526169D01*
X161248284Y-116526169D01*
X161233045Y-116530644D01*
X161231840Y-116532034D01*
X161230169Y-116539717D01*
X161230169Y-117746054D01*
X160722169Y-117746054D01*
X160722169Y-116000054D01*
X161230169Y-116000054D01*
X161234644Y-116015293D01*
X161236034Y-116016498D01*
X161243717Y-116018169D01*
X161916054Y-116018169D01*
X161931293Y-116013694D01*
X161932498Y-116012304D01*
X161934169Y-116004621D01*
X161934169Y-115976731D01*
X161933832Y-115970216D01*
X161924275Y-115878112D01*
X161921381Y-115864713D01*
X161871788Y-115716062D01*
X161865614Y-115702883D01*
X161783381Y-115569996D01*
X161774345Y-115558595D01*
X161682533Y-115466943D01*
X174765100Y-115466943D01*
X174765101Y-117197056D01*
X174773972Y-117241658D01*
X174780866Y-117251975D01*
X174780868Y-117251979D01*
X174783199Y-117255467D01*
X174807766Y-117292234D01*
X174818082Y-117299127D01*
X174848025Y-117319135D01*
X174848028Y-117319136D01*
X174858342Y-117326028D01*
X174870509Y-117328448D01*
X174870511Y-117328449D01*
X174888743Y-117332075D01*
X174902943Y-117334900D01*
X175767860Y-117334900D01*
X176633056Y-117334899D01*
X176649710Y-117331587D01*
X176665483Y-117328450D01*
X176665485Y-117328449D01*
X176677658Y-117326028D01*
X176695151Y-117314340D01*
X176717918Y-117299127D01*
X176728234Y-117292234D01*
X176740945Y-117273211D01*
X176755135Y-117251975D01*
X176755136Y-117251972D01*
X176762028Y-117241658D01*
X176770900Y-117197057D01*
X176770899Y-115466944D01*
X176767168Y-115448183D01*
X176764450Y-115434517D01*
X176764448Y-115434511D01*
X176762028Y-115422342D01*
X176751055Y-115405919D01*
X176735127Y-115382082D01*
X176728234Y-115371766D01*
X176707219Y-115357724D01*
X176687975Y-115344865D01*
X176687972Y-115344864D01*
X176677658Y-115337972D01*
X176665491Y-115335552D01*
X176665489Y-115335551D01*
X176647257Y-115331925D01*
X176633057Y-115329100D01*
X175768140Y-115329100D01*
X174902944Y-115329101D01*
X174886290Y-115332413D01*
X174870517Y-115335550D01*
X174870515Y-115335551D01*
X174858342Y-115337972D01*
X174848022Y-115344867D01*
X174848021Y-115344868D01*
X174831390Y-115355981D01*
X174807766Y-115371766D01*
X174800873Y-115382082D01*
X174780865Y-115412025D01*
X174780864Y-115412028D01*
X174773972Y-115422342D01*
X174771552Y-115434509D01*
X174771551Y-115434511D01*
X174767925Y-115452743D01*
X174765100Y-115466943D01*
X161682533Y-115466943D01*
X161663740Y-115448183D01*
X161652329Y-115439171D01*
X161519289Y-115357165D01*
X161506108Y-115351018D01*
X161357355Y-115301678D01*
X161343979Y-115298811D01*
X161253072Y-115289497D01*
X161248043Y-115289240D01*
X161233045Y-115293644D01*
X161231840Y-115295034D01*
X161230169Y-115302717D01*
X161230169Y-116000054D01*
X160722169Y-116000054D01*
X160722169Y-115307284D01*
X160717694Y-115292045D01*
X160716304Y-115290840D01*
X160708621Y-115289169D01*
X160705731Y-115289169D01*
X160699216Y-115289506D01*
X160607112Y-115299063D01*
X160593713Y-115301957D01*
X160445062Y-115351550D01*
X160431883Y-115357724D01*
X160298996Y-115439957D01*
X160287595Y-115448993D01*
X160177183Y-115559598D01*
X160168171Y-115571009D01*
X160086408Y-115703654D01*
X160033636Y-115751147D01*
X159963564Y-115762571D01*
X159898441Y-115734297D01*
X159890131Y-115726712D01*
X159881022Y-115717619D01*
X159881021Y-115717619D01*
X159873651Y-115710261D01*
X159862418Y-115704770D01*
X159770736Y-115659955D01*
X159718319Y-115612069D01*
X159700069Y-115546755D01*
X159700069Y-115355981D01*
X159720071Y-115287860D01*
X159749365Y-115256018D01*
X159809956Y-115209525D01*
X159816502Y-115204502D01*
X159905126Y-115089004D01*
X159916294Y-115062044D01*
X159941322Y-115001620D01*
X159960838Y-114954505D01*
X159963072Y-114937541D01*
X159978762Y-114818357D01*
X159979840Y-114810169D01*
X159970399Y-114738459D01*
X159961916Y-114674019D01*
X159961915Y-114674017D01*
X159960838Y-114665833D01*
X159905126Y-114531334D01*
X159816502Y-114415836D01*
X159749365Y-114364320D01*
X159707498Y-114306982D01*
X159700069Y-114264357D01*
X159700069Y-113777930D01*
X174760345Y-113777930D01*
X174763889Y-113820138D01*
X174775236Y-113955254D01*
X174776803Y-113973919D01*
X174778502Y-113979844D01*
X174790907Y-114023104D01*
X174831015Y-114162979D01*
X174833830Y-114168456D01*
X174833831Y-114168459D01*
X174915220Y-114326825D01*
X174920916Y-114337908D01*
X174924739Y-114342732D01*
X174924742Y-114342736D01*
X175036925Y-114484275D01*
X175043083Y-114492044D01*
X175047777Y-114496038D01*
X175047777Y-114496039D01*
X175145429Y-114579147D01*
X175192862Y-114619516D01*
X175364547Y-114715467D01*
X175551600Y-114776244D01*
X175746895Y-114799532D01*
X175753030Y-114799060D01*
X175753032Y-114799060D01*
X175936852Y-114784916D01*
X175936856Y-114784915D01*
X175942994Y-114784443D01*
X176132428Y-114731552D01*
X176137932Y-114728772D01*
X176137934Y-114728771D01*
X176302480Y-114645653D01*
X176302482Y-114645652D01*
X176307981Y-114642874D01*
X176462966Y-114521786D01*
X176466992Y-114517122D01*
X176466995Y-114517119D01*
X176587451Y-114377569D01*
X176587452Y-114377567D01*
X176591480Y-114372901D01*
X176688628Y-114201890D01*
X176750710Y-114015266D01*
X176775360Y-113820138D01*
X176775753Y-113792000D01*
X176756561Y-113596260D01*
X176699714Y-113407975D01*
X176607379Y-113234318D01*
X176603489Y-113229548D01*
X176603486Y-113229544D01*
X176486967Y-113086678D01*
X176486964Y-113086675D01*
X176483072Y-113081903D01*
X176476791Y-113076707D01*
X176336278Y-112960464D01*
X176336274Y-112960462D01*
X176331528Y-112956535D01*
X176158520Y-112862990D01*
X175970637Y-112804830D01*
X175964519Y-112804187D01*
X175964514Y-112804186D01*
X175781164Y-112784916D01*
X175781162Y-112784916D01*
X175775035Y-112784272D01*
X175692199Y-112791810D01*
X175585305Y-112801538D01*
X175585302Y-112801539D01*
X175579166Y-112802097D01*
X175390489Y-112857628D01*
X175216192Y-112948748D01*
X175062912Y-113071988D01*
X175058954Y-113076705D01*
X175058952Y-113076707D01*
X175005079Y-113140911D01*
X174936489Y-113222653D01*
X174841739Y-113395004D01*
X174839878Y-113400871D01*
X174839877Y-113400873D01*
X174830267Y-113431169D01*
X174782269Y-113582476D01*
X174760345Y-113777930D01*
X159700069Y-113777930D01*
X159700069Y-113079591D01*
X159701318Y-113068917D01*
X159701292Y-113068916D01*
X159701703Y-113060516D01*
X159702605Y-113057920D01*
X159703474Y-113050496D01*
X159703848Y-113048923D01*
X159704546Y-113045980D01*
X159704546Y-113045979D01*
X159706587Y-113046463D01*
X159725010Y-112993455D01*
X159750848Y-112966711D01*
X159767930Y-112953604D01*
X159816502Y-112916333D01*
X159905126Y-112800835D01*
X159928061Y-112745467D01*
X159948077Y-112697143D01*
X159960838Y-112666336D01*
X159962657Y-112652523D01*
X159978762Y-112530188D01*
X159979840Y-112522000D01*
X159975181Y-112486614D01*
X159962428Y-112389740D01*
X159973367Y-112319591D01*
X160020496Y-112266493D01*
X160088850Y-112247303D01*
X160156728Y-112268114D01*
X160176368Y-112284121D01*
X160288597Y-112396155D01*
X160300009Y-112405167D01*
X160433049Y-112487173D01*
X160446230Y-112493320D01*
X160594983Y-112542660D01*
X160608359Y-112545527D01*
X160699266Y-112554841D01*
X160704295Y-112555098D01*
X160719293Y-112550694D01*
X160720498Y-112549304D01*
X160722169Y-112541621D01*
X160722169Y-112537054D01*
X161230169Y-112537054D01*
X161234644Y-112552293D01*
X161236034Y-112553498D01*
X161243717Y-112555169D01*
X161246607Y-112555169D01*
X161253122Y-112554832D01*
X161345226Y-112545275D01*
X161358625Y-112542381D01*
X161507276Y-112492788D01*
X161520455Y-112486614D01*
X161653342Y-112404381D01*
X161664743Y-112395345D01*
X161775155Y-112284740D01*
X161784167Y-112273329D01*
X161866173Y-112140289D01*
X161872320Y-112127108D01*
X161921660Y-111978355D01*
X161924527Y-111964979D01*
X161933841Y-111874072D01*
X161934169Y-111867656D01*
X161934169Y-111844284D01*
X161929694Y-111829045D01*
X161928304Y-111827840D01*
X161920621Y-111826169D01*
X161248284Y-111826169D01*
X161233045Y-111830644D01*
X161231840Y-111832034D01*
X161230169Y-111839717D01*
X161230169Y-112537054D01*
X160722169Y-112537054D01*
X160722169Y-111300054D01*
X161230169Y-111300054D01*
X161234644Y-111315293D01*
X161236034Y-111316498D01*
X161243717Y-111318169D01*
X161916054Y-111318169D01*
X161931293Y-111313694D01*
X161932498Y-111312304D01*
X161934169Y-111304621D01*
X161934169Y-111276731D01*
X161933832Y-111270216D01*
X161924275Y-111178112D01*
X161921381Y-111164713D01*
X161871788Y-111016062D01*
X161865614Y-111002883D01*
X161783381Y-110869996D01*
X161774345Y-110858595D01*
X161726997Y-110811330D01*
X161692917Y-110749047D01*
X161697920Y-110678227D01*
X161726841Y-110633138D01*
X161775155Y-110584740D01*
X161784167Y-110573329D01*
X161866173Y-110440289D01*
X161872320Y-110427108D01*
X161921660Y-110278355D01*
X161924527Y-110264979D01*
X161933841Y-110174072D01*
X161934169Y-110167656D01*
X161934169Y-110144284D01*
X161929694Y-110129045D01*
X161928304Y-110127840D01*
X161920621Y-110126169D01*
X161248284Y-110126169D01*
X161233045Y-110130644D01*
X161231840Y-110132034D01*
X161230169Y-110139717D01*
X161230169Y-111300054D01*
X160722169Y-111300054D01*
X160722169Y-109600054D01*
X161230169Y-109600054D01*
X161234644Y-109615293D01*
X161236034Y-109616498D01*
X161243717Y-109618169D01*
X161916054Y-109618169D01*
X161931293Y-109613694D01*
X161932498Y-109612304D01*
X161934169Y-109604621D01*
X161934169Y-109576731D01*
X161933832Y-109570216D01*
X161924275Y-109478112D01*
X161921381Y-109464713D01*
X161871788Y-109316062D01*
X161865614Y-109302883D01*
X161783381Y-109169996D01*
X161774345Y-109158595D01*
X161663740Y-109048183D01*
X161652329Y-109039171D01*
X161519289Y-108957165D01*
X161506108Y-108951018D01*
X161357355Y-108901678D01*
X161343979Y-108898811D01*
X161253072Y-108889497D01*
X161248043Y-108889240D01*
X161233045Y-108893644D01*
X161231840Y-108895034D01*
X161230169Y-108902717D01*
X161230169Y-109600054D01*
X160722169Y-109600054D01*
X160722169Y-108907284D01*
X160717694Y-108892045D01*
X160716304Y-108890840D01*
X160708621Y-108889169D01*
X160705731Y-108889169D01*
X160699216Y-108889506D01*
X160607112Y-108899063D01*
X160593713Y-108901957D01*
X160445062Y-108951550D01*
X160431883Y-108957724D01*
X160298996Y-109039957D01*
X160287595Y-109048993D01*
X160177183Y-109159598D01*
X160168171Y-109171009D01*
X160086408Y-109303654D01*
X160033636Y-109351147D01*
X159963564Y-109362571D01*
X159898441Y-109334297D01*
X159890131Y-109326712D01*
X159881022Y-109317619D01*
X159881021Y-109317619D01*
X159873651Y-109310261D01*
X159860135Y-109303654D01*
X159834707Y-109291225D01*
X159774735Y-109261910D01*
X159722320Y-109214026D01*
X159704069Y-109148711D01*
X159704069Y-89081469D01*
X159724071Y-89013348D01*
X159740974Y-88992374D01*
X164238481Y-84494867D01*
X164300793Y-84460841D01*
X164371608Y-84465906D01*
X164428444Y-84508453D01*
X164453255Y-84574973D01*
X164453352Y-84577684D01*
X164452498Y-84584169D01*
X164453576Y-84592357D01*
X164469428Y-84712763D01*
X164471500Y-84728505D01*
X164482042Y-84753956D01*
X164510929Y-84823693D01*
X164527212Y-84863004D01*
X164615836Y-84978502D01*
X164731333Y-85067126D01*
X164865833Y-85122838D01*
X165010169Y-85141840D01*
X165018357Y-85140762D01*
X165146317Y-85123916D01*
X165154505Y-85122838D01*
X165289005Y-85067126D01*
X165404502Y-84978502D01*
X165493126Y-84863004D01*
X165509410Y-84823693D01*
X165538296Y-84753956D01*
X165548838Y-84728505D01*
X165550911Y-84712763D01*
X165566762Y-84592357D01*
X165567840Y-84584169D01*
X165561812Y-84538380D01*
X165549916Y-84448019D01*
X165549915Y-84448017D01*
X165548838Y-84439833D01*
X165529322Y-84392718D01*
X165496286Y-84312962D01*
X165496285Y-84312960D01*
X165493126Y-84305334D01*
X165434257Y-84228614D01*
X165409529Y-84196387D01*
X165409528Y-84196386D01*
X165404502Y-84189836D01*
X165397952Y-84184810D01*
X165397949Y-84184807D01*
X165353365Y-84150597D01*
X165311498Y-84093259D01*
X165304069Y-84050635D01*
X165304069Y-84037721D01*
X165324071Y-83969600D01*
X165374537Y-83924618D01*
X165474195Y-83875688D01*
X165489912Y-83859943D01*
X165552193Y-83825863D01*
X165623013Y-83830865D01*
X165679887Y-83873361D01*
X165686230Y-83882657D01*
X165768957Y-84016342D01*
X165777993Y-84027743D01*
X165888598Y-84138155D01*
X165900009Y-84147167D01*
X166033049Y-84229173D01*
X166046230Y-84235320D01*
X166194983Y-84284660D01*
X166208359Y-84287527D01*
X166299266Y-84296841D01*
X166304295Y-84297098D01*
X166319293Y-84292694D01*
X166320498Y-84291304D01*
X166322169Y-84283621D01*
X166322169Y-84279054D01*
X166830169Y-84279054D01*
X166834644Y-84294293D01*
X166836034Y-84295498D01*
X166843717Y-84297169D01*
X166846607Y-84297169D01*
X166853122Y-84296832D01*
X166945226Y-84287275D01*
X166958625Y-84284381D01*
X167107276Y-84234788D01*
X167120455Y-84228614D01*
X167253342Y-84146381D01*
X167264743Y-84137345D01*
X167375155Y-84026740D01*
X167384167Y-84015329D01*
X167466173Y-83882289D01*
X167472320Y-83869108D01*
X167521660Y-83720355D01*
X167524527Y-83706979D01*
X167533841Y-83616072D01*
X167534169Y-83609656D01*
X167534169Y-83586284D01*
X167529694Y-83571045D01*
X167528304Y-83569840D01*
X167520621Y-83568169D01*
X166848284Y-83568169D01*
X166833045Y-83572644D01*
X166831840Y-83574034D01*
X166830169Y-83581717D01*
X166830169Y-84279054D01*
X166322169Y-84279054D01*
X166322169Y-83042054D01*
X166830169Y-83042054D01*
X166834644Y-83057293D01*
X166836034Y-83058498D01*
X166843717Y-83060169D01*
X167516054Y-83060169D01*
X167531293Y-83055694D01*
X167532498Y-83054304D01*
X167534169Y-83046621D01*
X167534169Y-83018731D01*
X167533832Y-83012216D01*
X167524275Y-82920112D01*
X167521381Y-82906713D01*
X167471788Y-82758062D01*
X167465614Y-82744883D01*
X167383381Y-82611996D01*
X167374345Y-82600595D01*
X167263740Y-82490183D01*
X167252329Y-82481171D01*
X167119289Y-82399165D01*
X167106108Y-82393018D01*
X166957355Y-82343678D01*
X166943979Y-82340811D01*
X166853072Y-82331497D01*
X166848043Y-82331240D01*
X166833045Y-82335644D01*
X166831840Y-82337034D01*
X166830169Y-82344717D01*
X166830169Y-83042054D01*
X166322169Y-83042054D01*
X166322169Y-82349284D01*
X166317694Y-82334045D01*
X166316304Y-82332840D01*
X166308621Y-82331169D01*
X166305731Y-82331169D01*
X166299216Y-82331506D01*
X166207112Y-82341063D01*
X166193713Y-82343957D01*
X166045062Y-82393550D01*
X166031883Y-82399724D01*
X165898996Y-82481957D01*
X165887595Y-82490993D01*
X165777183Y-82601598D01*
X165768171Y-82613009D01*
X165686408Y-82745654D01*
X165633636Y-82793147D01*
X165563564Y-82804571D01*
X165498441Y-82776297D01*
X165490131Y-82768712D01*
X165481022Y-82759619D01*
X165481021Y-82759619D01*
X165473651Y-82752261D01*
X165460135Y-82745654D01*
X165427683Y-82729791D01*
X165360623Y-82697012D01*
X165327251Y-82692143D01*
X165291510Y-82686929D01*
X165291506Y-82686929D01*
X165286984Y-82686269D01*
X165247049Y-82686269D01*
X164843470Y-82686270D01*
X164775349Y-82666268D01*
X164754375Y-82649365D01*
X159160642Y-77055632D01*
X159159350Y-77054136D01*
X159157137Y-77049608D01*
X159124058Y-77018923D01*
X159120653Y-77015643D01*
X159108397Y-77003387D01*
X159104632Y-77000804D01*
X159102650Y-76999064D01*
X159081238Y-76979202D01*
X159070433Y-76974891D01*
X159064279Y-76971001D01*
X159060965Y-76969231D01*
X159054301Y-76966278D01*
X159044708Y-76959697D01*
X159033387Y-76957010D01*
X159033386Y-76957010D01*
X159023209Y-76954595D01*
X159005615Y-76949031D01*
X158985082Y-76940839D01*
X158979268Y-76940269D01*
X158976179Y-76940269D01*
X158973116Y-76940119D01*
X158973134Y-76939747D01*
X158966920Y-76939020D01*
X158966919Y-76939047D01*
X158955301Y-76938479D01*
X158943980Y-76935792D01*
X158932451Y-76937361D01*
X158932450Y-76937361D01*
X158919541Y-76939118D01*
X158902550Y-76940269D01*
X156471981Y-76940269D01*
X156403860Y-76920267D01*
X156372018Y-76890973D01*
X156325525Y-76830382D01*
X156325524Y-76830381D01*
X156320502Y-76823836D01*
X156205005Y-76735212D01*
X156070505Y-76679500D01*
X155926169Y-76660498D01*
X155842267Y-76671544D01*
X155772120Y-76660605D01*
X155736727Y-76635717D01*
X153730805Y-74629795D01*
X153696779Y-74567483D01*
X153693900Y-74540700D01*
X153693900Y-66331812D01*
X153713902Y-66263691D01*
X153742880Y-66232193D01*
X166433637Y-66232193D01*
X166454233Y-66467601D01*
X166455657Y-66472915D01*
X166455657Y-66472916D01*
X166458124Y-66482121D01*
X166515393Y-66695856D01*
X166615261Y-66910022D01*
X166750801Y-67103594D01*
X166917895Y-67270688D01*
X167111467Y-67406228D01*
X167116445Y-67408549D01*
X167116448Y-67408551D01*
X167159338Y-67428551D01*
X167325633Y-67506096D01*
X167330941Y-67507518D01*
X167330943Y-67507519D01*
X167548573Y-67565832D01*
X167553888Y-67567256D01*
X167656978Y-67576275D01*
X167727606Y-67582455D01*
X167727613Y-67582455D01*
X167730330Y-67582693D01*
X167848262Y-67582693D01*
X167850979Y-67582455D01*
X167850986Y-67582455D01*
X167921614Y-67576275D01*
X168024704Y-67567256D01*
X168030019Y-67565832D01*
X168247649Y-67507519D01*
X168247651Y-67507518D01*
X168252959Y-67506096D01*
X168419254Y-67428551D01*
X168462144Y-67408551D01*
X168462147Y-67408549D01*
X168467125Y-67406228D01*
X168660697Y-67270688D01*
X168827791Y-67103594D01*
X168830951Y-67099082D01*
X168960174Y-66914532D01*
X168960177Y-66914527D01*
X168963331Y-66910023D01*
X168965654Y-66905041D01*
X168965657Y-66905036D01*
X169060876Y-66700838D01*
X169060877Y-66700837D01*
X169063199Y-66695856D01*
X169120469Y-66482121D01*
X169122935Y-66472916D01*
X169122935Y-66472915D01*
X169124359Y-66467601D01*
X169144955Y-66232193D01*
X169124359Y-65996785D01*
X169063199Y-65768530D01*
X169000484Y-65634038D01*
X168965654Y-65559345D01*
X168965652Y-65559342D01*
X168963331Y-65554364D01*
X168827791Y-65360792D01*
X168660697Y-65193698D01*
X168467125Y-65058158D01*
X168462147Y-65055837D01*
X168462144Y-65055835D01*
X168257941Y-64960613D01*
X168257939Y-64960612D01*
X168252959Y-64958290D01*
X168247651Y-64956868D01*
X168247649Y-64956867D01*
X168030019Y-64898554D01*
X168030018Y-64898554D01*
X168024704Y-64897130D01*
X167921614Y-64888111D01*
X167850986Y-64881931D01*
X167850979Y-64881931D01*
X167848262Y-64881693D01*
X167730330Y-64881693D01*
X167727613Y-64881931D01*
X167727606Y-64881931D01*
X167656978Y-64888111D01*
X167553888Y-64897130D01*
X167548574Y-64898554D01*
X167548573Y-64898554D01*
X167330943Y-64956867D01*
X167330941Y-64956868D01*
X167325633Y-64958290D01*
X167320653Y-64960612D01*
X167320651Y-64960613D01*
X167116448Y-65055835D01*
X167116445Y-65055837D01*
X167111467Y-65058158D01*
X166917895Y-65193698D01*
X166750801Y-65360792D01*
X166747644Y-65365300D01*
X166747642Y-65365303D01*
X166653880Y-65499209D01*
X166615261Y-65554363D01*
X166612938Y-65559345D01*
X166612935Y-65559350D01*
X166517716Y-65763548D01*
X166515393Y-65768530D01*
X166454233Y-65996785D01*
X166433637Y-66232193D01*
X153742880Y-66232193D01*
X153743196Y-66231849D01*
X153803787Y-66185356D01*
X153810333Y-66180333D01*
X153898957Y-66064835D01*
X153954669Y-65930336D01*
X153973671Y-65786000D01*
X153954669Y-65641664D01*
X153898957Y-65507165D01*
X153810333Y-65391667D01*
X153694836Y-65303043D01*
X153560336Y-65247331D01*
X153416000Y-65228329D01*
X153407812Y-65229407D01*
X153279850Y-65246253D01*
X153279848Y-65246254D01*
X153271664Y-65247331D01*
X153250142Y-65256246D01*
X153144793Y-65299883D01*
X153144791Y-65299884D01*
X153137165Y-65303043D01*
X153021667Y-65391667D01*
X152933043Y-65507165D01*
X152877331Y-65641664D01*
X152858329Y-65786000D01*
X152877331Y-65930336D01*
X152933043Y-66064835D01*
X153021667Y-66180333D01*
X153028213Y-66185356D01*
X153088804Y-66231849D01*
X153130671Y-66289187D01*
X153138100Y-66331812D01*
X153138100Y-74659968D01*
X153137956Y-74661934D01*
X153136319Y-74666700D01*
X153136754Y-74678289D01*
X153136754Y-74678290D01*
X153138011Y-74711767D01*
X153138100Y-74716494D01*
X153138100Y-74733848D01*
X153138935Y-74738329D01*
X153139109Y-74741013D01*
X153140203Y-74770153D01*
X153144795Y-74780842D01*
X153146395Y-74787943D01*
X153147490Y-74791548D01*
X153150111Y-74798340D01*
X153152241Y-74809776D01*
X153158345Y-74819679D01*
X153158346Y-74819681D01*
X153163840Y-74828594D01*
X153172344Y-74844964D01*
X153181069Y-74865273D01*
X153184777Y-74869787D01*
X153186960Y-74871970D01*
X153189017Y-74874238D01*
X153188741Y-74874488D01*
X153192627Y-74879403D01*
X153192647Y-74879385D01*
X153200460Y-74888001D01*
X153206564Y-74897905D01*
X153215822Y-74904945D01*
X153215823Y-74904946D01*
X153226203Y-74912839D01*
X153239030Y-74924040D01*
X154644165Y-76329175D01*
X154678191Y-76391487D01*
X154673126Y-76462302D01*
X154630579Y-76519138D01*
X154564059Y-76543949D01*
X154555079Y-76544270D01*
X154415355Y-76544270D01*
X154341074Y-76555203D01*
X154286026Y-76582231D01*
X154237491Y-76606060D01*
X154237490Y-76606061D01*
X154228143Y-76610650D01*
X154212426Y-76626395D01*
X154150145Y-76660475D01*
X154079325Y-76655473D01*
X154022451Y-76612977D01*
X154016108Y-76603681D01*
X153933381Y-76469996D01*
X153924345Y-76458595D01*
X153813740Y-76348183D01*
X153802329Y-76339171D01*
X153669289Y-76257165D01*
X153656108Y-76251018D01*
X153507355Y-76201678D01*
X153493979Y-76198811D01*
X153403072Y-76189497D01*
X153398043Y-76189240D01*
X153383045Y-76193644D01*
X153381840Y-76195034D01*
X153380169Y-76202717D01*
X153380169Y-78137054D01*
X153384644Y-78152293D01*
X153386034Y-78153498D01*
X153393717Y-78155169D01*
X153396607Y-78155169D01*
X153403122Y-78154832D01*
X153495226Y-78145275D01*
X153508625Y-78142381D01*
X153657276Y-78092788D01*
X153670455Y-78086614D01*
X153803342Y-78004381D01*
X153814743Y-77995345D01*
X153925155Y-77884740D01*
X153934167Y-77873329D01*
X154015930Y-77740684D01*
X154068702Y-77693191D01*
X154138774Y-77681767D01*
X154203897Y-77710041D01*
X154212207Y-77717626D01*
X154228687Y-77734077D01*
X154238043Y-77738650D01*
X154238044Y-77738651D01*
X154244906Y-77742005D01*
X154341715Y-77789326D01*
X154375087Y-77794195D01*
X154410828Y-77799409D01*
X154410832Y-77799409D01*
X154415354Y-77800069D01*
X154647069Y-77800069D01*
X154715190Y-77820071D01*
X154761683Y-77873727D01*
X154771787Y-77944001D01*
X154742293Y-78008581D01*
X154736164Y-78015164D01*
X153911110Y-78840218D01*
X153848798Y-78874244D01*
X153838467Y-78876044D01*
X153815900Y-78879015D01*
X153790019Y-78882422D01*
X153790017Y-78882423D01*
X153781833Y-78883500D01*
X153774206Y-78886659D01*
X153774207Y-78886659D01*
X153654962Y-78936052D01*
X153654960Y-78936053D01*
X153647334Y-78939212D01*
X153531836Y-79027836D01*
X153443212Y-79143334D01*
X153440053Y-79150960D01*
X153440052Y-79150962D01*
X153409699Y-79224241D01*
X153387500Y-79277833D01*
X153368498Y-79422169D01*
X153369576Y-79430357D01*
X153385280Y-79549640D01*
X153387500Y-79566505D01*
X153443212Y-79701004D01*
X153531836Y-79816502D01*
X153647333Y-79905126D01*
X153781833Y-79960838D01*
X153926169Y-79979840D01*
X153934357Y-79978762D01*
X154062317Y-79961916D01*
X154070505Y-79960838D01*
X154205005Y-79905126D01*
X154320502Y-79816502D01*
X154409126Y-79701004D01*
X154464838Y-79566505D01*
X154467059Y-79549640D01*
X154482762Y-79430357D01*
X154483840Y-79422169D01*
X154464838Y-79277833D01*
X154461678Y-79270205D01*
X154461677Y-79270200D01*
X154436919Y-79210430D01*
X154429329Y-79139840D01*
X154464232Y-79073116D01*
X155736727Y-77800621D01*
X155799039Y-77766595D01*
X155842266Y-77764794D01*
X155926169Y-77775840D01*
X155934357Y-77774762D01*
X156062317Y-77757916D01*
X156070505Y-77756838D01*
X156205005Y-77701126D01*
X156320502Y-77612502D01*
X156345729Y-77579625D01*
X156372018Y-77545365D01*
X156429356Y-77503498D01*
X156471981Y-77496069D01*
X158762869Y-77496069D01*
X158830990Y-77516071D01*
X158851964Y-77532974D01*
X164386364Y-83067374D01*
X164420390Y-83129686D01*
X164423269Y-83156469D01*
X164423270Y-83471868D01*
X164403268Y-83539988D01*
X164386365Y-83560963D01*
X159515264Y-88432064D01*
X159452952Y-88466090D01*
X159382137Y-88461025D01*
X159337074Y-88432064D01*
X155418974Y-84513964D01*
X155384948Y-84451652D01*
X155382069Y-84424869D01*
X155382069Y-83479981D01*
X155402071Y-83411860D01*
X155431365Y-83380018D01*
X155491956Y-83333525D01*
X155498502Y-83328502D01*
X155587126Y-83213004D01*
X155642838Y-83078505D01*
X155644304Y-83067374D01*
X155660762Y-82942357D01*
X155661840Y-82934169D01*
X155649593Y-82841143D01*
X155643916Y-82798019D01*
X155643915Y-82798017D01*
X155642838Y-82789833D01*
X155600213Y-82686929D01*
X155590286Y-82662962D01*
X155590285Y-82662960D01*
X155587126Y-82655334D01*
X155498502Y-82539836D01*
X155383005Y-82451212D01*
X155248505Y-82395500D01*
X155104169Y-82376498D01*
X155095981Y-82377576D01*
X154968019Y-82394422D01*
X154968017Y-82394423D01*
X154959833Y-82395500D01*
X154912718Y-82415016D01*
X154832962Y-82448052D01*
X154832960Y-82448053D01*
X154825334Y-82451212D01*
X154709836Y-82539836D01*
X154621212Y-82655334D01*
X154618053Y-82662960D01*
X154618052Y-82662962D01*
X154608125Y-82686929D01*
X154565500Y-82789833D01*
X154564423Y-82798017D01*
X154564422Y-82798019D01*
X154558745Y-82841143D01*
X154546498Y-82934169D01*
X154547576Y-82942357D01*
X154564035Y-83067374D01*
X154565500Y-83078505D01*
X154621212Y-83213004D01*
X154709836Y-83328502D01*
X154716382Y-83333525D01*
X154776973Y-83380018D01*
X154818840Y-83437356D01*
X154826269Y-83479981D01*
X154826269Y-84544137D01*
X154826125Y-84546103D01*
X154824488Y-84550869D01*
X154824923Y-84562458D01*
X154824923Y-84562459D01*
X154826180Y-84595936D01*
X154826269Y-84600663D01*
X154826269Y-84618017D01*
X154827104Y-84622498D01*
X154827278Y-84625182D01*
X154828372Y-84654322D01*
X154832964Y-84665011D01*
X154834564Y-84672112D01*
X154835659Y-84675717D01*
X154838280Y-84682509D01*
X154840410Y-84693945D01*
X154846514Y-84703848D01*
X154846515Y-84703850D01*
X154852009Y-84712763D01*
X154860513Y-84729133D01*
X154869238Y-84749442D01*
X154872946Y-84753956D01*
X154875129Y-84756139D01*
X154877186Y-84758407D01*
X154876910Y-84758657D01*
X154880796Y-84763572D01*
X154880816Y-84763554D01*
X154888629Y-84772170D01*
X154894733Y-84782074D01*
X154903991Y-84789114D01*
X154903992Y-84789115D01*
X154914372Y-84797008D01*
X154927199Y-84808209D01*
X159111364Y-88992374D01*
X159145390Y-89054686D01*
X159148269Y-89081469D01*
X159148269Y-109148617D01*
X159128267Y-109216738D01*
X159077802Y-109261720D01*
X158978143Y-109310650D01*
X158889261Y-109399687D01*
X158834012Y-109512715D01*
X158823269Y-109586354D01*
X158823270Y-110157983D01*
X158834203Y-110232264D01*
X158889650Y-110345195D01*
X158978687Y-110434077D01*
X159077603Y-110482428D01*
X159130018Y-110530312D01*
X159148269Y-110595627D01*
X159148269Y-110848617D01*
X159128267Y-110916738D01*
X159077802Y-110961720D01*
X158978143Y-111010650D01*
X158889261Y-111099687D01*
X158884688Y-111109043D01*
X158884687Y-111109044D01*
X158866791Y-111145655D01*
X158834012Y-111212715D01*
X158829143Y-111246087D01*
X158827259Y-111259007D01*
X158823269Y-111286354D01*
X158823270Y-111857983D01*
X158834203Y-111932264D01*
X158889650Y-112045195D01*
X158910727Y-112066235D01*
X158925902Y-112081384D01*
X158959981Y-112143667D01*
X158954978Y-112214487D01*
X158946003Y-112233557D01*
X158944236Y-112236617D01*
X158939212Y-112243165D01*
X158883500Y-112377664D01*
X158882423Y-112385848D01*
X158882422Y-112385850D01*
X158869157Y-112486614D01*
X158864498Y-112522000D01*
X158865576Y-112530188D01*
X158881682Y-112652523D01*
X158883500Y-112666336D01*
X158896261Y-112697143D01*
X158916278Y-112745467D01*
X158939212Y-112800835D01*
X158944239Y-112807386D01*
X158944241Y-112807390D01*
X159011436Y-112894962D01*
X159037036Y-112961183D01*
X159022771Y-113030731D01*
X159000568Y-113060760D01*
X153925632Y-118135696D01*
X153924136Y-118136988D01*
X153919608Y-118139201D01*
X153907315Y-118152453D01*
X153888923Y-118172280D01*
X153885643Y-118175685D01*
X153873387Y-118187941D01*
X153870804Y-118191706D01*
X153869064Y-118193688D01*
X153849202Y-118215100D01*
X153844891Y-118225905D01*
X153841001Y-118232059D01*
X153839231Y-118235373D01*
X153836278Y-118242037D01*
X153829697Y-118251630D01*
X153827010Y-118262951D01*
X153827010Y-118262952D01*
X153824595Y-118273129D01*
X153819031Y-118290723D01*
X153810839Y-118311256D01*
X153810269Y-118317070D01*
X153810269Y-118320159D01*
X153810119Y-118323222D01*
X153809747Y-118323204D01*
X153809020Y-118329418D01*
X153809047Y-118329419D01*
X153808479Y-118341037D01*
X153805792Y-118352358D01*
X153807361Y-118363887D01*
X153807361Y-118363888D01*
X153809118Y-118376797D01*
X153810269Y-118393788D01*
X153810269Y-118582357D01*
X153790267Y-118650478D01*
X153760973Y-118682320D01*
X153712742Y-118719329D01*
X153693836Y-118733836D01*
X153688814Y-118740381D01*
X153688813Y-118740382D01*
X153642320Y-118800973D01*
X153584982Y-118842840D01*
X153542357Y-118850269D01*
X153109981Y-118850269D01*
X153041860Y-118830267D01*
X153010018Y-118800973D01*
X152963525Y-118740382D01*
X152963524Y-118740381D01*
X152958502Y-118733836D01*
X152843005Y-118645212D01*
X152708505Y-118589500D01*
X152564169Y-118570498D01*
X152555981Y-118571576D01*
X152428019Y-118588422D01*
X152428017Y-118588423D01*
X152419833Y-118589500D01*
X152372718Y-118609016D01*
X152292962Y-118642052D01*
X152292960Y-118642053D01*
X152285334Y-118645212D01*
X152169836Y-118733836D01*
X152164814Y-118740381D01*
X152164813Y-118740382D01*
X152118320Y-118800973D01*
X152060982Y-118842840D01*
X152018357Y-118850269D01*
X150883365Y-118850269D01*
X150815244Y-118830267D01*
X150768751Y-118776611D01*
X150758647Y-118706337D01*
X150788141Y-118641757D01*
X150794192Y-118635252D01*
X150825085Y-118604305D01*
X150825088Y-118604301D01*
X150832443Y-118596933D01*
X150845365Y-118570498D01*
X150879743Y-118500170D01*
X150879743Y-118500169D01*
X150884038Y-118491383D01*
X150894069Y-118422621D01*
X150894069Y-117805717D01*
X150893400Y-117801169D01*
X150893399Y-117801162D01*
X150885285Y-117746042D01*
X150885284Y-117746040D01*
X150883859Y-117736357D01*
X150877792Y-117723999D01*
X150841423Y-117649927D01*
X150832080Y-117630897D01*
X150808912Y-117607770D01*
X150774833Y-117545489D01*
X150779835Y-117474669D01*
X150797967Y-117441893D01*
X150829190Y-117401203D01*
X150850957Y-117372835D01*
X150855140Y-117362738D01*
X150899573Y-117255467D01*
X150906669Y-117238336D01*
X150912104Y-117197057D01*
X150924593Y-117102188D01*
X150925671Y-117094000D01*
X150918040Y-117036039D01*
X150907747Y-116957850D01*
X150907746Y-116957848D01*
X150906669Y-116949664D01*
X150867685Y-116855550D01*
X150854117Y-116822793D01*
X150854116Y-116822791D01*
X150850957Y-116815165D01*
X150762333Y-116699667D01*
X150646836Y-116611043D01*
X150512336Y-116555331D01*
X150368000Y-116536329D01*
X150359812Y-116537407D01*
X150231850Y-116554253D01*
X150231848Y-116554254D01*
X150223664Y-116555331D01*
X150206258Y-116562541D01*
X150096793Y-116607883D01*
X150096791Y-116607884D01*
X150089165Y-116611043D01*
X149973667Y-116699667D01*
X149885043Y-116815165D01*
X149881884Y-116822791D01*
X149881883Y-116822793D01*
X149868315Y-116855550D01*
X149829331Y-116949664D01*
X149828254Y-116957848D01*
X149828253Y-116957850D01*
X149817960Y-117036039D01*
X149810329Y-117094000D01*
X149811407Y-117102188D01*
X149823897Y-117197057D01*
X149829331Y-117238336D01*
X149836427Y-117255467D01*
X149880861Y-117362738D01*
X149885043Y-117372835D01*
X149890070Y-117379386D01*
X149890072Y-117379390D01*
X149914738Y-117411536D01*
X149940338Y-117477756D01*
X149926073Y-117547305D01*
X149903949Y-117577256D01*
X149870551Y-117610713D01*
X149849895Y-117631405D01*
X149845322Y-117640760D01*
X149802889Y-117727568D01*
X149798300Y-117736955D01*
X149788269Y-117805717D01*
X149788269Y-118422621D01*
X149788938Y-118427169D01*
X149788939Y-118427176D01*
X149796966Y-118481705D01*
X149798479Y-118491981D01*
X149801074Y-118497265D01*
X149802154Y-118566113D01*
X149764712Y-118626434D01*
X149700602Y-118656937D01*
X149630178Y-118647937D01*
X149591621Y-118621611D01*
X149280974Y-118310964D01*
X149246948Y-118248652D01*
X149244069Y-118221869D01*
X149244069Y-117805717D01*
X149243400Y-117801169D01*
X149243399Y-117801162D01*
X149235285Y-117746042D01*
X149235284Y-117746040D01*
X149233859Y-117736357D01*
X149227792Y-117723999D01*
X149191423Y-117649927D01*
X149182080Y-117630897D01*
X149098933Y-117547895D01*
X149059702Y-117528718D01*
X149002170Y-117500595D01*
X149002169Y-117500595D01*
X148993383Y-117496300D01*
X148983706Y-117494888D01*
X148983705Y-117494888D01*
X148964805Y-117492131D01*
X148924621Y-117486269D01*
X148457717Y-117486269D01*
X148453169Y-117486938D01*
X148453162Y-117486939D01*
X148398042Y-117495053D01*
X148398040Y-117495054D01*
X148388357Y-117496479D01*
X148379569Y-117500794D01*
X148379568Y-117500794D01*
X148361291Y-117509768D01*
X148282897Y-117548258D01*
X148199895Y-117631405D01*
X148195322Y-117640760D01*
X148152889Y-117727568D01*
X148148300Y-117736955D01*
X148138269Y-117805717D01*
X148138269Y-118338119D01*
X148118267Y-118406240D01*
X148101364Y-118427214D01*
X144187663Y-122340915D01*
X144125351Y-122374941D01*
X144054536Y-122369876D01*
X144047320Y-122366927D01*
X143984373Y-122338901D01*
X143984365Y-122338898D01*
X143978338Y-122336215D01*
X143881668Y-122315667D01*
X143791455Y-122296491D01*
X143791450Y-122296491D01*
X143784998Y-122295119D01*
X143587340Y-122295119D01*
X143580888Y-122296491D01*
X143580883Y-122296491D01*
X143490670Y-122315667D01*
X143394000Y-122336215D01*
X143387970Y-122338900D01*
X143387969Y-122338900D01*
X143219460Y-122413925D01*
X143219458Y-122413926D01*
X143213430Y-122416610D01*
X143053520Y-122532791D01*
X143049107Y-122537693D01*
X143049105Y-122537694D01*
X142926309Y-122674072D01*
X142921260Y-122679680D01*
X142917960Y-122685396D01*
X142917957Y-122685400D01*
X142825735Y-122845135D01*
X142822431Y-122850858D01*
X142761351Y-123038843D01*
X142740690Y-123235419D01*
X119732418Y-123235419D01*
X119690697Y-123193698D01*
X119497125Y-123058158D01*
X119492147Y-123055837D01*
X119492144Y-123055835D01*
X119287941Y-122960613D01*
X119287939Y-122960612D01*
X119282959Y-122958290D01*
X119277651Y-122956868D01*
X119277649Y-122956867D01*
X119060019Y-122898554D01*
X119060018Y-122898554D01*
X119054704Y-122897130D01*
X118940406Y-122887130D01*
X118880986Y-122881931D01*
X118880979Y-122881931D01*
X118878262Y-122881693D01*
X118760330Y-122881693D01*
X118757613Y-122881931D01*
X118757606Y-122881931D01*
X118698186Y-122887130D01*
X118583888Y-122897130D01*
X118578574Y-122898554D01*
X118578573Y-122898554D01*
X118360943Y-122956867D01*
X118360941Y-122956868D01*
X118355633Y-122958290D01*
X118350653Y-122960612D01*
X118350651Y-122960613D01*
X118146448Y-123055835D01*
X118146445Y-123055837D01*
X118141467Y-123058158D01*
X117947895Y-123193698D01*
X117780801Y-123360792D01*
X117777644Y-123365300D01*
X117777642Y-123365303D01*
X117648771Y-123549350D01*
X117645261Y-123554363D01*
X117642938Y-123559345D01*
X117642935Y-123559350D01*
X117552379Y-123753548D01*
X117545393Y-123768530D01*
X117543971Y-123773838D01*
X117543970Y-123773840D01*
X117486912Y-123986785D01*
X117484233Y-123996785D01*
X117463637Y-124232193D01*
X107426169Y-124232193D01*
X107426169Y-120695419D01*
X142740690Y-120695419D01*
X142761351Y-120891995D01*
X142822431Y-121079980D01*
X142825734Y-121085702D01*
X142825735Y-121085703D01*
X142917957Y-121245438D01*
X142917960Y-121245442D01*
X142921260Y-121251158D01*
X142925678Y-121256065D01*
X142925679Y-121256066D01*
X143004332Y-121343418D01*
X143053520Y-121398047D01*
X143213429Y-121514228D01*
X143219457Y-121516912D01*
X143219459Y-121516913D01*
X143319415Y-121561416D01*
X143394000Y-121594623D01*
X143460307Y-121608717D01*
X143580883Y-121634347D01*
X143580888Y-121634347D01*
X143587340Y-121635719D01*
X143784998Y-121635719D01*
X143791450Y-121634347D01*
X143791455Y-121634347D01*
X143912031Y-121608717D01*
X143978338Y-121594623D01*
X144052923Y-121561416D01*
X144152879Y-121516913D01*
X144152881Y-121516912D01*
X144158909Y-121514228D01*
X144318818Y-121398047D01*
X144368007Y-121343418D01*
X144446659Y-121256066D01*
X144446660Y-121256065D01*
X144451078Y-121251158D01*
X144454378Y-121245442D01*
X144454381Y-121245438D01*
X144546603Y-121085703D01*
X144546604Y-121085702D01*
X144549907Y-121079980D01*
X144610987Y-120891995D01*
X144631648Y-120695419D01*
X144610987Y-120498843D01*
X144549907Y-120310858D01*
X144546306Y-120304621D01*
X144454381Y-120145400D01*
X144454378Y-120145396D01*
X144451078Y-120139680D01*
X144407954Y-120091786D01*
X144323233Y-119997694D01*
X144323231Y-119997693D01*
X144318818Y-119992791D01*
X144266448Y-119954742D01*
X144164251Y-119880491D01*
X144164250Y-119880490D01*
X144158909Y-119876610D01*
X144152881Y-119873926D01*
X144152879Y-119873925D01*
X143984369Y-119798900D01*
X143984368Y-119798900D01*
X143978338Y-119796215D01*
X143881668Y-119775667D01*
X143791455Y-119756491D01*
X143791450Y-119756491D01*
X143784998Y-119755119D01*
X143587340Y-119755119D01*
X143580888Y-119756491D01*
X143580883Y-119756491D01*
X143490670Y-119775667D01*
X143394000Y-119796215D01*
X143387970Y-119798900D01*
X143387969Y-119798900D01*
X143219460Y-119873925D01*
X143219458Y-119873926D01*
X143213430Y-119876610D01*
X143208089Y-119880490D01*
X143208088Y-119880491D01*
X143105256Y-119955203D01*
X143053520Y-119992791D01*
X143049107Y-119997693D01*
X143049105Y-119997694D01*
X142964384Y-120091786D01*
X142921260Y-120139680D01*
X142917960Y-120145396D01*
X142917957Y-120145400D01*
X142826032Y-120304621D01*
X142822431Y-120310858D01*
X142761351Y-120498843D01*
X142740690Y-120695419D01*
X107426169Y-120695419D01*
X107426169Y-119232434D01*
X142973708Y-119232434D01*
X142983004Y-119244449D01*
X143031490Y-119278399D01*
X143040980Y-119283877D01*
X143236439Y-119375021D01*
X143246735Y-119378769D01*
X143455055Y-119434589D01*
X143465844Y-119436491D01*
X143680694Y-119455288D01*
X143691644Y-119455288D01*
X143906494Y-119436491D01*
X143917283Y-119434589D01*
X144125603Y-119378769D01*
X144135899Y-119375021D01*
X144331358Y-119283877D01*
X144340848Y-119278399D01*
X144390172Y-119243862D01*
X144398546Y-119233386D01*
X144391478Y-119219939D01*
X143698980Y-118527440D01*
X143685037Y-118519827D01*
X143683203Y-118519958D01*
X143676589Y-118524209D01*
X142980135Y-119220664D01*
X142973708Y-119232434D01*
X107426169Y-119232434D01*
X107426169Y-115844814D01*
X107446171Y-115776693D01*
X107499827Y-115730200D01*
X107563088Y-115719985D01*
X107563117Y-115719447D01*
X107565589Y-115719581D01*
X107565774Y-115719551D01*
X107566507Y-115719631D01*
X107573328Y-115720000D01*
X108195885Y-115720000D01*
X108211124Y-115715525D01*
X108212329Y-115714135D01*
X108214000Y-115706452D01*
X108214000Y-115701884D01*
X108722000Y-115701884D01*
X108726475Y-115717123D01*
X108727865Y-115718328D01*
X108735548Y-115719999D01*
X109362669Y-115719999D01*
X109369490Y-115719629D01*
X109420352Y-115714105D01*
X109435604Y-115710479D01*
X109556054Y-115665324D01*
X109571649Y-115656786D01*
X109673724Y-115580285D01*
X109686285Y-115567724D01*
X109762786Y-115465649D01*
X109771324Y-115450054D01*
X109816478Y-115329606D01*
X109820105Y-115314351D01*
X109825631Y-115263486D01*
X109826000Y-115256672D01*
X109826000Y-114773023D01*
X109846002Y-114704902D01*
X109899658Y-114658409D01*
X109969932Y-114648305D01*
X110034512Y-114677799D01*
X110069153Y-114726642D01*
X110069316Y-114727053D01*
X110071015Y-114732979D01*
X110073830Y-114738456D01*
X110073831Y-114738459D01*
X110128131Y-114844116D01*
X110160916Y-114907908D01*
X110164739Y-114912732D01*
X110164742Y-114912736D01*
X110221063Y-114983795D01*
X110283083Y-115062044D01*
X110432862Y-115189516D01*
X110604547Y-115285467D01*
X110643038Y-115297974D01*
X110701642Y-115338047D01*
X110729279Y-115403444D01*
X110730100Y-115417806D01*
X110730100Y-117396665D01*
X110710098Y-117464786D01*
X110659631Y-117509768D01*
X110599076Y-117539499D01*
X110599075Y-117539500D01*
X110589728Y-117544089D01*
X110506726Y-117627236D01*
X110502153Y-117636591D01*
X110459720Y-117723399D01*
X110455131Y-117732786D01*
X110453719Y-117742463D01*
X110453719Y-117742464D01*
X110453197Y-117746042D01*
X110445100Y-117801548D01*
X110445100Y-118418452D01*
X110445769Y-118423000D01*
X110445770Y-118423007D01*
X110453797Y-118477536D01*
X110455310Y-118487812D01*
X110459625Y-118496600D01*
X110459625Y-118496601D01*
X110471029Y-118519827D01*
X110507089Y-118593272D01*
X110590236Y-118676274D01*
X110599591Y-118680847D01*
X110686999Y-118723574D01*
X110687000Y-118723574D01*
X110695786Y-118727869D01*
X110705463Y-118729281D01*
X110705464Y-118729281D01*
X110722342Y-118731743D01*
X110764548Y-118737900D01*
X111231452Y-118737900D01*
X111236000Y-118737231D01*
X111236007Y-118737230D01*
X111291127Y-118729116D01*
X111291129Y-118729115D01*
X111300812Y-118727690D01*
X111317842Y-118719329D01*
X111358233Y-118699497D01*
X111406272Y-118675911D01*
X111489274Y-118592764D01*
X111498882Y-118573108D01*
X111536574Y-118496001D01*
X111536574Y-118496000D01*
X111540869Y-118487214D01*
X111550900Y-118418452D01*
X112095100Y-118418452D01*
X112095769Y-118423000D01*
X112095770Y-118423007D01*
X112103797Y-118477536D01*
X112105310Y-118487812D01*
X112109625Y-118496600D01*
X112109625Y-118496601D01*
X112121029Y-118519827D01*
X112157089Y-118593272D01*
X112240236Y-118676274D01*
X112249591Y-118680847D01*
X112336999Y-118723574D01*
X112337000Y-118723574D01*
X112345786Y-118727869D01*
X112355463Y-118729281D01*
X112355464Y-118729281D01*
X112372342Y-118731743D01*
X112414548Y-118737900D01*
X112881452Y-118737900D01*
X112886000Y-118737231D01*
X112886007Y-118737230D01*
X112941127Y-118729116D01*
X112941129Y-118729115D01*
X112950812Y-118727690D01*
X112967842Y-118719329D01*
X113008233Y-118699497D01*
X113056272Y-118675911D01*
X113139274Y-118592764D01*
X113190869Y-118487214D01*
X113192282Y-118477531D01*
X113192540Y-118476695D01*
X113231765Y-118417518D01*
X113296757Y-118388941D01*
X113312922Y-118387900D01*
X116344368Y-118387900D01*
X116346334Y-118388044D01*
X116351100Y-118389681D01*
X116362689Y-118389246D01*
X116362690Y-118389246D01*
X116396167Y-118387989D01*
X116400894Y-118387900D01*
X116418248Y-118387900D01*
X116422729Y-118387065D01*
X116425413Y-118386891D01*
X116430910Y-118386684D01*
X116454553Y-118385797D01*
X116465242Y-118381205D01*
X116472343Y-118379605D01*
X116475948Y-118378510D01*
X116482740Y-118375889D01*
X116494176Y-118373759D01*
X116504079Y-118367655D01*
X116504081Y-118367654D01*
X116512994Y-118362160D01*
X116529364Y-118353656D01*
X116549673Y-118344931D01*
X116554187Y-118341223D01*
X116556370Y-118339040D01*
X116558638Y-118336983D01*
X116558888Y-118337259D01*
X116563803Y-118333373D01*
X116563785Y-118333353D01*
X116572401Y-118325540D01*
X116582305Y-118319436D01*
X116597239Y-118299797D01*
X116608440Y-118286970D01*
X116734516Y-118160894D01*
X142386300Y-118160894D01*
X142405097Y-118375744D01*
X142406999Y-118386533D01*
X142462819Y-118594853D01*
X142466567Y-118605149D01*
X142557711Y-118800608D01*
X142563189Y-118810098D01*
X142597726Y-118859422D01*
X142608202Y-118867796D01*
X142621649Y-118860728D01*
X143314148Y-118168230D01*
X143320525Y-118156551D01*
X144050577Y-118156551D01*
X144050708Y-118158385D01*
X144054959Y-118164999D01*
X144751414Y-118861453D01*
X144763184Y-118867880D01*
X144775199Y-118858584D01*
X144809149Y-118810098D01*
X144814627Y-118800608D01*
X144905771Y-118605149D01*
X144909519Y-118594853D01*
X144965339Y-118386533D01*
X144967241Y-118375744D01*
X144986038Y-118160894D01*
X144986038Y-118149944D01*
X144967241Y-117935094D01*
X144965339Y-117924305D01*
X144909519Y-117715985D01*
X144905771Y-117705689D01*
X144814627Y-117510230D01*
X144809149Y-117500740D01*
X144774612Y-117451416D01*
X144764136Y-117443042D01*
X144750689Y-117450110D01*
X144058190Y-118142608D01*
X144050577Y-118156551D01*
X143320525Y-118156551D01*
X143321761Y-118154287D01*
X143321630Y-118152453D01*
X143317379Y-118145839D01*
X142620924Y-117449385D01*
X142609154Y-117442958D01*
X142597139Y-117452254D01*
X142563189Y-117500740D01*
X142557711Y-117510230D01*
X142466567Y-117705689D01*
X142462819Y-117715985D01*
X142406999Y-117924305D01*
X142405097Y-117935094D01*
X142386300Y-118149944D01*
X142386300Y-118160894D01*
X116734516Y-118160894D01*
X117817958Y-117077452D01*
X142973792Y-117077452D01*
X142980860Y-117090899D01*
X143673358Y-117783398D01*
X143687301Y-117791011D01*
X143689135Y-117790880D01*
X143695749Y-117786629D01*
X144392203Y-117090174D01*
X144398630Y-117078404D01*
X144389334Y-117066389D01*
X144340848Y-117032439D01*
X144331358Y-117026961D01*
X144135899Y-116935817D01*
X144125603Y-116932069D01*
X143917283Y-116876249D01*
X143906494Y-116874347D01*
X143691644Y-116855550D01*
X143680694Y-116855550D01*
X143465844Y-116874347D01*
X143455055Y-116876249D01*
X143246735Y-116932069D01*
X143236439Y-116935817D01*
X143040980Y-117026961D01*
X143031490Y-117032439D01*
X142982166Y-117066976D01*
X142973792Y-117077452D01*
X117817958Y-117077452D01*
X119279991Y-115615419D01*
X122420690Y-115615419D01*
X122421380Y-115621984D01*
X122431380Y-115717123D01*
X122441351Y-115811995D01*
X122443391Y-115818272D01*
X122443391Y-115818274D01*
X122472513Y-115907903D01*
X122502431Y-115999980D01*
X122505734Y-116005702D01*
X122505735Y-116005703D01*
X122597957Y-116165438D01*
X122597960Y-116165442D01*
X122601260Y-116171158D01*
X122605678Y-116176065D01*
X122605679Y-116176066D01*
X122727900Y-116311805D01*
X122733520Y-116318047D01*
X122893429Y-116434228D01*
X122899457Y-116436912D01*
X122899459Y-116436913D01*
X123067969Y-116511938D01*
X123074000Y-116514623D01*
X123155912Y-116532034D01*
X123260883Y-116554347D01*
X123260888Y-116554347D01*
X123267340Y-116555719D01*
X123464998Y-116555719D01*
X123471450Y-116554347D01*
X123471455Y-116554347D01*
X123576426Y-116532034D01*
X123658338Y-116514623D01*
X123664369Y-116511938D01*
X123832879Y-116436913D01*
X123832881Y-116436912D01*
X123838909Y-116434228D01*
X123998818Y-116318047D01*
X124004439Y-116311805D01*
X124126659Y-116176066D01*
X124126660Y-116176065D01*
X124131078Y-116171158D01*
X124134378Y-116165442D01*
X124134381Y-116165438D01*
X124226603Y-116005703D01*
X124226604Y-116005702D01*
X124229907Y-115999980D01*
X124259825Y-115907903D01*
X124288947Y-115818274D01*
X124288947Y-115818272D01*
X124290987Y-115811995D01*
X124300959Y-115717123D01*
X124310958Y-115621984D01*
X124311648Y-115615419D01*
X142740690Y-115615419D01*
X142741380Y-115621984D01*
X142751380Y-115717123D01*
X142761351Y-115811995D01*
X142763391Y-115818272D01*
X142763391Y-115818274D01*
X142792513Y-115907903D01*
X142822431Y-115999980D01*
X142825734Y-116005702D01*
X142825735Y-116005703D01*
X142917957Y-116165438D01*
X142917960Y-116165442D01*
X142921260Y-116171158D01*
X142925678Y-116176065D01*
X142925679Y-116176066D01*
X143047900Y-116311805D01*
X143053520Y-116318047D01*
X143213429Y-116434228D01*
X143219457Y-116436912D01*
X143219459Y-116436913D01*
X143387969Y-116511938D01*
X143394000Y-116514623D01*
X143475912Y-116532034D01*
X143580883Y-116554347D01*
X143580888Y-116554347D01*
X143587340Y-116555719D01*
X143784998Y-116555719D01*
X143791450Y-116554347D01*
X143791455Y-116554347D01*
X143896426Y-116532034D01*
X143978338Y-116514623D01*
X143984369Y-116511938D01*
X144152879Y-116436913D01*
X144152881Y-116436912D01*
X144158909Y-116434228D01*
X144318818Y-116318047D01*
X144324439Y-116311805D01*
X144446659Y-116176066D01*
X144446660Y-116176065D01*
X144451078Y-116171158D01*
X144454378Y-116165442D01*
X144454381Y-116165438D01*
X144546603Y-116005703D01*
X144546604Y-116005702D01*
X144549907Y-115999980D01*
X144579825Y-115907903D01*
X144608947Y-115818274D01*
X144608947Y-115818272D01*
X144610987Y-115811995D01*
X144620959Y-115717123D01*
X144630958Y-115621984D01*
X144631648Y-115615419D01*
X144615405Y-115460876D01*
X144611677Y-115425407D01*
X144611677Y-115425406D01*
X144610987Y-115418843D01*
X144608771Y-115412021D01*
X144568269Y-115287370D01*
X144549907Y-115230858D01*
X144546603Y-115225135D01*
X144454381Y-115065400D01*
X144454378Y-115065396D01*
X144451078Y-115059680D01*
X144382751Y-114983795D01*
X144323233Y-114917694D01*
X144323231Y-114917693D01*
X144318818Y-114912791D01*
X144218912Y-114840205D01*
X144164251Y-114800491D01*
X144164250Y-114800490D01*
X144158909Y-114796610D01*
X144152881Y-114793926D01*
X144152879Y-114793925D01*
X143984369Y-114718900D01*
X143984368Y-114718900D01*
X143978338Y-114716215D01*
X143881668Y-114695667D01*
X143791455Y-114676491D01*
X143791450Y-114676491D01*
X143784998Y-114675119D01*
X143587340Y-114675119D01*
X143580888Y-114676491D01*
X143580883Y-114676491D01*
X143490670Y-114695667D01*
X143394000Y-114716215D01*
X143387970Y-114718900D01*
X143387969Y-114718900D01*
X143219460Y-114793925D01*
X143219458Y-114793926D01*
X143213430Y-114796610D01*
X143208089Y-114800490D01*
X143208088Y-114800491D01*
X143183498Y-114818357D01*
X143053520Y-114912791D01*
X143049107Y-114917693D01*
X143049105Y-114917694D01*
X142989587Y-114983795D01*
X142921260Y-115059680D01*
X142917960Y-115065396D01*
X142917957Y-115065400D01*
X142825735Y-115225135D01*
X142822431Y-115230858D01*
X142804069Y-115287370D01*
X142763568Y-115412021D01*
X142761351Y-115418843D01*
X142760661Y-115425406D01*
X142760661Y-115425407D01*
X142756933Y-115460876D01*
X142740690Y-115615419D01*
X124311648Y-115615419D01*
X124295405Y-115460876D01*
X124291677Y-115425407D01*
X124291677Y-115425406D01*
X124290987Y-115418843D01*
X124288771Y-115412021D01*
X124248269Y-115287370D01*
X124229907Y-115230858D01*
X124226603Y-115225135D01*
X124134381Y-115065400D01*
X124134378Y-115065396D01*
X124131078Y-115059680D01*
X124062751Y-114983795D01*
X124003233Y-114917694D01*
X124003231Y-114917693D01*
X123998818Y-114912791D01*
X123898912Y-114840205D01*
X123844251Y-114800491D01*
X123844250Y-114800490D01*
X123838909Y-114796610D01*
X123832881Y-114793926D01*
X123832879Y-114793925D01*
X123664369Y-114718900D01*
X123664368Y-114718900D01*
X123658338Y-114716215D01*
X123561668Y-114695667D01*
X123471455Y-114676491D01*
X123471450Y-114676491D01*
X123464998Y-114675119D01*
X123267340Y-114675119D01*
X123260888Y-114676491D01*
X123260883Y-114676491D01*
X123170670Y-114695667D01*
X123074000Y-114716215D01*
X123067970Y-114718900D01*
X123067969Y-114718900D01*
X122899460Y-114793925D01*
X122899458Y-114793926D01*
X122893430Y-114796610D01*
X122888089Y-114800490D01*
X122888088Y-114800491D01*
X122863498Y-114818357D01*
X122733520Y-114912791D01*
X122729107Y-114917693D01*
X122729105Y-114917694D01*
X122669587Y-114983795D01*
X122601260Y-115059680D01*
X122597960Y-115065396D01*
X122597957Y-115065400D01*
X122505735Y-115225135D01*
X122502431Y-115230858D01*
X122484069Y-115287370D01*
X122443568Y-115412021D01*
X122441351Y-115418843D01*
X122440661Y-115425406D01*
X122440661Y-115425407D01*
X122436933Y-115460876D01*
X122420690Y-115615419D01*
X119279991Y-115615419D01*
X122274694Y-112620716D01*
X122337006Y-112586690D01*
X122407821Y-112591755D01*
X122464657Y-112634302D01*
X122489468Y-112700822D01*
X122483622Y-112748746D01*
X122463745Y-112809922D01*
X122447094Y-112861169D01*
X122441351Y-112878843D01*
X122440661Y-112885406D01*
X122440661Y-112885407D01*
X122422546Y-113057764D01*
X122420690Y-113075419D01*
X122421380Y-113081984D01*
X122434020Y-113202241D01*
X122441351Y-113271995D01*
X122502431Y-113459980D01*
X122505734Y-113465702D01*
X122505735Y-113465703D01*
X122597957Y-113625438D01*
X122597960Y-113625442D01*
X122601260Y-113631158D01*
X122605678Y-113636065D01*
X122605679Y-113636066D01*
X122727900Y-113771805D01*
X122733520Y-113778047D01*
X122738859Y-113781926D01*
X122880066Y-113884519D01*
X122893429Y-113894228D01*
X122899457Y-113896912D01*
X122899459Y-113896913D01*
X123065577Y-113970873D01*
X123074000Y-113974623D01*
X123170670Y-113995171D01*
X123260883Y-114014347D01*
X123260888Y-114014347D01*
X123267340Y-114015719D01*
X123464998Y-114015719D01*
X123471450Y-114014347D01*
X123471455Y-114014347D01*
X123561668Y-113995171D01*
X123658338Y-113974623D01*
X123666761Y-113970873D01*
X123832879Y-113896913D01*
X123832881Y-113896912D01*
X123838909Y-113894228D01*
X123852273Y-113884519D01*
X123993479Y-113781926D01*
X123998818Y-113778047D01*
X124004439Y-113771805D01*
X124126659Y-113636066D01*
X124126660Y-113636065D01*
X124131078Y-113631158D01*
X124134378Y-113625442D01*
X124134381Y-113625438D01*
X124226603Y-113465703D01*
X124226604Y-113465702D01*
X124229907Y-113459980D01*
X124290987Y-113271995D01*
X124298319Y-113202241D01*
X124310958Y-113081984D01*
X124311648Y-113075419D01*
X142740690Y-113075419D01*
X142741380Y-113081984D01*
X142754020Y-113202241D01*
X142761351Y-113271995D01*
X142822431Y-113459980D01*
X142825734Y-113465702D01*
X142825735Y-113465703D01*
X142917957Y-113625438D01*
X142917960Y-113625442D01*
X142921260Y-113631158D01*
X142925678Y-113636065D01*
X142925679Y-113636066D01*
X143047900Y-113771805D01*
X143053520Y-113778047D01*
X143058859Y-113781926D01*
X143200066Y-113884519D01*
X143213429Y-113894228D01*
X143219457Y-113896912D01*
X143219459Y-113896913D01*
X143385577Y-113970873D01*
X143394000Y-113974623D01*
X143490670Y-113995171D01*
X143580883Y-114014347D01*
X143580888Y-114014347D01*
X143587340Y-114015719D01*
X143784998Y-114015719D01*
X143791450Y-114014347D01*
X143791455Y-114014347D01*
X143881668Y-113995171D01*
X143978338Y-113974623D01*
X143986761Y-113970873D01*
X144152879Y-113896913D01*
X144152881Y-113896912D01*
X144158909Y-113894228D01*
X144172273Y-113884519D01*
X144313479Y-113781926D01*
X144318818Y-113778047D01*
X144324439Y-113771805D01*
X144446659Y-113636066D01*
X144446660Y-113636065D01*
X144451078Y-113631158D01*
X144454378Y-113625442D01*
X144454381Y-113625438D01*
X144546603Y-113465703D01*
X144546604Y-113465702D01*
X144549907Y-113459980D01*
X144610987Y-113271995D01*
X144618319Y-113202241D01*
X144630958Y-113081984D01*
X144631648Y-113075419D01*
X144629792Y-113057764D01*
X144611677Y-112885407D01*
X144611677Y-112885406D01*
X144610987Y-112878843D01*
X144605245Y-112861169D01*
X144568269Y-112747371D01*
X144549907Y-112690858D01*
X144546603Y-112685135D01*
X144454381Y-112525400D01*
X144454378Y-112525396D01*
X144451078Y-112519680D01*
X144446659Y-112514772D01*
X144323233Y-112377694D01*
X144323231Y-112377693D01*
X144318818Y-112372791D01*
X144158909Y-112256610D01*
X144152881Y-112253926D01*
X144152879Y-112253925D01*
X143984369Y-112178900D01*
X143984368Y-112178900D01*
X143978338Y-112176215D01*
X143867310Y-112152615D01*
X143791455Y-112136491D01*
X143791450Y-112136491D01*
X143784998Y-112135119D01*
X143587340Y-112135119D01*
X143580888Y-112136491D01*
X143580883Y-112136491D01*
X143505028Y-112152615D01*
X143394000Y-112176215D01*
X143387970Y-112178900D01*
X143387969Y-112178900D01*
X143219460Y-112253925D01*
X143219458Y-112253926D01*
X143213430Y-112256610D01*
X143053520Y-112372791D01*
X143049107Y-112377693D01*
X143049105Y-112377694D01*
X142925679Y-112514772D01*
X142921260Y-112519680D01*
X142917960Y-112525396D01*
X142917957Y-112525400D01*
X142825735Y-112685135D01*
X142822431Y-112690858D01*
X142804069Y-112747371D01*
X142767094Y-112861169D01*
X142761351Y-112878843D01*
X142760661Y-112885406D01*
X142760661Y-112885407D01*
X142742546Y-113057764D01*
X142740690Y-113075419D01*
X124311648Y-113075419D01*
X124309792Y-113057764D01*
X124291677Y-112885407D01*
X124291677Y-112885406D01*
X124290987Y-112878843D01*
X124285245Y-112861169D01*
X124248269Y-112747371D01*
X124229907Y-112690858D01*
X124226603Y-112685135D01*
X124134381Y-112525400D01*
X124134378Y-112525396D01*
X124131078Y-112519680D01*
X124126659Y-112514772D01*
X124003233Y-112377694D01*
X124003231Y-112377693D01*
X123998818Y-112372791D01*
X123838909Y-112256610D01*
X123832881Y-112253926D01*
X123832879Y-112253925D01*
X123664369Y-112178900D01*
X123664368Y-112178900D01*
X123658338Y-112176215D01*
X123547310Y-112152615D01*
X123471455Y-112136491D01*
X123471450Y-112136491D01*
X123464998Y-112135119D01*
X123267340Y-112135119D01*
X123260888Y-112136491D01*
X123260883Y-112136491D01*
X123185028Y-112152615D01*
X123074000Y-112176215D01*
X123067970Y-112178900D01*
X123067969Y-112178900D01*
X122899460Y-112253925D01*
X122899458Y-112253926D01*
X122893430Y-112256610D01*
X122888089Y-112260490D01*
X122888088Y-112260491D01*
X122781246Y-112338116D01*
X122714378Y-112361975D01*
X122645226Y-112345894D01*
X122595746Y-112294980D01*
X122581336Y-112230023D01*
X122581549Y-112225672D01*
X122584235Y-112214352D01*
X122580909Y-112189911D01*
X122579758Y-112172922D01*
X122579758Y-111373621D01*
X122599760Y-111305500D01*
X122653416Y-111259007D01*
X122723690Y-111248903D01*
X122779818Y-111271685D01*
X122893429Y-111354228D01*
X122899457Y-111356912D01*
X122899459Y-111356913D01*
X123052395Y-111425004D01*
X123074000Y-111434623D01*
X123170670Y-111455171D01*
X123260883Y-111474347D01*
X123260888Y-111474347D01*
X123267340Y-111475719D01*
X123464998Y-111475719D01*
X123471450Y-111474347D01*
X123471455Y-111474347D01*
X123561668Y-111455171D01*
X123658338Y-111434623D01*
X123679943Y-111425004D01*
X123832879Y-111356913D01*
X123832881Y-111356912D01*
X123838909Y-111354228D01*
X123998818Y-111238047D01*
X124022205Y-111212074D01*
X124126659Y-111096066D01*
X124126660Y-111096065D01*
X124131078Y-111091158D01*
X124134378Y-111085442D01*
X124134381Y-111085438D01*
X124226603Y-110925703D01*
X124226604Y-110925702D01*
X124229907Y-110919980D01*
X124265252Y-110811200D01*
X124288947Y-110738274D01*
X124288947Y-110738272D01*
X124290987Y-110731995D01*
X124307664Y-110573329D01*
X124310958Y-110541984D01*
X124311648Y-110535419D01*
X142740690Y-110535419D01*
X142741380Y-110541984D01*
X142744675Y-110573329D01*
X142761351Y-110731995D01*
X142763391Y-110738272D01*
X142763391Y-110738274D01*
X142787086Y-110811200D01*
X142822431Y-110919980D01*
X142825734Y-110925702D01*
X142825735Y-110925703D01*
X142917957Y-111085438D01*
X142917960Y-111085442D01*
X142921260Y-111091158D01*
X142925678Y-111096065D01*
X142925679Y-111096066D01*
X143030134Y-111212074D01*
X143053520Y-111238047D01*
X143213429Y-111354228D01*
X143219457Y-111356912D01*
X143219459Y-111356913D01*
X143372395Y-111425004D01*
X143394000Y-111434623D01*
X143490670Y-111455171D01*
X143580883Y-111474347D01*
X143580888Y-111474347D01*
X143587340Y-111475719D01*
X143784998Y-111475719D01*
X143791450Y-111474347D01*
X143791455Y-111474347D01*
X143881668Y-111455171D01*
X143978338Y-111434623D01*
X143999943Y-111425004D01*
X144152879Y-111356913D01*
X144152881Y-111356912D01*
X144158909Y-111354228D01*
X144318818Y-111238047D01*
X144342205Y-111212074D01*
X144446659Y-111096066D01*
X144446660Y-111096065D01*
X144451078Y-111091158D01*
X144454378Y-111085442D01*
X144454381Y-111085438D01*
X144546603Y-110925703D01*
X144546604Y-110925702D01*
X144549907Y-110919980D01*
X144585252Y-110811200D01*
X144608947Y-110738274D01*
X144608947Y-110738272D01*
X144610987Y-110731995D01*
X144627664Y-110573329D01*
X144630958Y-110541984D01*
X144631648Y-110535419D01*
X144610987Y-110338843D01*
X144549907Y-110150858D01*
X144538237Y-110130644D01*
X144454381Y-109985400D01*
X144454378Y-109985396D01*
X144451078Y-109979680D01*
X144441167Y-109968673D01*
X144323233Y-109837694D01*
X144323231Y-109837693D01*
X144318818Y-109832791D01*
X144226740Y-109765892D01*
X144164251Y-109720491D01*
X144164250Y-109720490D01*
X144158909Y-109716610D01*
X144152881Y-109713926D01*
X144152879Y-109713925D01*
X143984369Y-109638900D01*
X143984368Y-109638900D01*
X143978338Y-109636215D01*
X143881668Y-109615667D01*
X143791455Y-109596491D01*
X143791450Y-109596491D01*
X143784998Y-109595119D01*
X143587340Y-109595119D01*
X143580888Y-109596491D01*
X143580883Y-109596491D01*
X143490670Y-109615667D01*
X143394000Y-109636215D01*
X143387970Y-109638900D01*
X143387969Y-109638900D01*
X143219460Y-109713925D01*
X143219458Y-109713926D01*
X143213430Y-109716610D01*
X143208089Y-109720490D01*
X143208088Y-109720491D01*
X143099819Y-109799153D01*
X143053520Y-109832791D01*
X143049107Y-109837693D01*
X143049105Y-109837694D01*
X142931171Y-109968673D01*
X142921260Y-109979680D01*
X142917960Y-109985396D01*
X142917957Y-109985400D01*
X142834101Y-110130644D01*
X142822431Y-110150858D01*
X142761351Y-110338843D01*
X142740690Y-110535419D01*
X124311648Y-110535419D01*
X124290987Y-110338843D01*
X124288947Y-110332564D01*
X124232636Y-110159255D01*
X124230609Y-110088287D01*
X124263374Y-110031224D01*
X126299179Y-107995419D01*
X142740690Y-107995419D01*
X142741380Y-108001984D01*
X142760042Y-108179536D01*
X142761351Y-108191995D01*
X142763391Y-108198272D01*
X142763391Y-108198274D01*
X142774813Y-108233426D01*
X142822431Y-108379980D01*
X142825734Y-108385702D01*
X142825735Y-108385703D01*
X142917957Y-108545438D01*
X142917960Y-108545442D01*
X142921260Y-108551158D01*
X143053520Y-108698047D01*
X143213429Y-108814228D01*
X143219457Y-108816912D01*
X143219459Y-108816913D01*
X143385503Y-108890840D01*
X143394000Y-108894623D01*
X143490670Y-108915171D01*
X143580883Y-108934347D01*
X143580888Y-108934347D01*
X143587340Y-108935719D01*
X143784998Y-108935719D01*
X143791450Y-108934347D01*
X143791455Y-108934347D01*
X143881668Y-108915171D01*
X143978338Y-108894623D01*
X143986835Y-108890840D01*
X144152879Y-108816913D01*
X144152881Y-108816912D01*
X144158909Y-108814228D01*
X144318818Y-108698047D01*
X144451078Y-108551158D01*
X144454378Y-108545442D01*
X144454381Y-108545438D01*
X144546603Y-108385703D01*
X144546604Y-108385702D01*
X144549907Y-108379980D01*
X144597525Y-108233426D01*
X144608947Y-108198274D01*
X144608947Y-108198272D01*
X144610987Y-108191995D01*
X144612297Y-108179536D01*
X144630958Y-108001984D01*
X144631648Y-107995419D01*
X144610987Y-107798843D01*
X144549907Y-107610858D01*
X144540103Y-107593877D01*
X144454381Y-107445400D01*
X144454378Y-107445396D01*
X144451078Y-107439680D01*
X144436078Y-107423021D01*
X144323233Y-107297694D01*
X144323231Y-107297693D01*
X144318818Y-107292791D01*
X144158909Y-107176610D01*
X144152881Y-107173926D01*
X144152879Y-107173925D01*
X143984369Y-107098900D01*
X143984368Y-107098900D01*
X143978338Y-107096215D01*
X143881668Y-107075667D01*
X143791455Y-107056491D01*
X143791450Y-107056491D01*
X143784998Y-107055119D01*
X143587340Y-107055119D01*
X143580888Y-107056491D01*
X143580883Y-107056491D01*
X143490670Y-107075667D01*
X143394000Y-107096215D01*
X143387970Y-107098900D01*
X143387969Y-107098900D01*
X143219460Y-107173925D01*
X143219458Y-107173926D01*
X143213430Y-107176610D01*
X143053520Y-107292791D01*
X143049107Y-107297693D01*
X143049105Y-107297694D01*
X142936260Y-107423021D01*
X142921260Y-107439680D01*
X142917960Y-107445396D01*
X142917957Y-107445400D01*
X142832235Y-107593877D01*
X142822431Y-107610858D01*
X142761351Y-107798843D01*
X142740690Y-107995419D01*
X126299179Y-107995419D01*
X128839179Y-105455419D01*
X142740690Y-105455419D01*
X142761351Y-105651995D01*
X142822431Y-105839980D01*
X142825734Y-105845702D01*
X142825735Y-105845703D01*
X142917957Y-106005438D01*
X142917960Y-106005442D01*
X142921260Y-106011158D01*
X143053520Y-106158047D01*
X143213429Y-106274228D01*
X143219457Y-106276912D01*
X143219459Y-106276913D01*
X143387967Y-106351937D01*
X143394000Y-106354623D01*
X143490670Y-106375171D01*
X143580883Y-106394347D01*
X143580888Y-106394347D01*
X143587340Y-106395719D01*
X143784998Y-106395719D01*
X143791450Y-106394347D01*
X143791455Y-106394347D01*
X143881668Y-106375171D01*
X143978338Y-106354623D01*
X143984371Y-106351937D01*
X144152879Y-106276913D01*
X144152881Y-106276912D01*
X144158909Y-106274228D01*
X144318818Y-106158047D01*
X144451078Y-106011158D01*
X144454378Y-106005442D01*
X144454381Y-106005438D01*
X144546603Y-105845703D01*
X144546604Y-105845702D01*
X144549907Y-105839980D01*
X144610987Y-105651995D01*
X144631648Y-105455419D01*
X144610987Y-105258843D01*
X144549907Y-105070858D01*
X144546603Y-105065135D01*
X144454381Y-104905400D01*
X144454378Y-104905396D01*
X144451078Y-104899680D01*
X144318818Y-104752791D01*
X144158909Y-104636610D01*
X144152881Y-104633926D01*
X144152879Y-104633925D01*
X143984369Y-104558900D01*
X143984368Y-104558900D01*
X143978338Y-104556215D01*
X143881668Y-104535667D01*
X143791455Y-104516491D01*
X143791450Y-104516491D01*
X143784998Y-104515119D01*
X143587340Y-104515119D01*
X143580888Y-104516491D01*
X143580883Y-104516491D01*
X143490670Y-104535667D01*
X143394000Y-104556215D01*
X143387970Y-104558900D01*
X143387969Y-104558900D01*
X143219460Y-104633925D01*
X143219458Y-104633926D01*
X143213430Y-104636610D01*
X143053520Y-104752791D01*
X142921260Y-104899680D01*
X142917960Y-104905396D01*
X142917957Y-104905400D01*
X142825735Y-105065135D01*
X142822431Y-105070858D01*
X142761351Y-105258843D01*
X142740690Y-105455419D01*
X128839179Y-105455419D01*
X131379179Y-102915419D01*
X142740690Y-102915419D01*
X142761351Y-103111995D01*
X142822431Y-103299980D01*
X142825734Y-103305702D01*
X142825735Y-103305703D01*
X142917957Y-103465438D01*
X142917960Y-103465442D01*
X142921260Y-103471158D01*
X143053520Y-103618047D01*
X143213429Y-103734228D01*
X143219457Y-103736912D01*
X143219459Y-103736913D01*
X143325017Y-103783910D01*
X143394000Y-103814623D01*
X143490670Y-103835171D01*
X143580883Y-103854347D01*
X143580888Y-103854347D01*
X143587340Y-103855719D01*
X143784998Y-103855719D01*
X143791450Y-103854347D01*
X143791455Y-103854347D01*
X143881668Y-103835171D01*
X143978338Y-103814623D01*
X144047321Y-103783910D01*
X144152879Y-103736913D01*
X144152881Y-103736912D01*
X144158909Y-103734228D01*
X144318818Y-103618047D01*
X144451078Y-103471158D01*
X144454378Y-103465442D01*
X144454381Y-103465438D01*
X144546603Y-103305703D01*
X144546604Y-103305702D01*
X144549907Y-103299980D01*
X144610987Y-103111995D01*
X144631648Y-102915419D01*
X144610987Y-102718843D01*
X144549907Y-102530858D01*
X144546603Y-102525135D01*
X144454381Y-102365400D01*
X144454378Y-102365396D01*
X144451078Y-102359680D01*
X144318818Y-102212791D01*
X144158909Y-102096610D01*
X144152881Y-102093926D01*
X144152879Y-102093925D01*
X143984369Y-102018900D01*
X143984368Y-102018900D01*
X143978338Y-102016215D01*
X143881668Y-101995667D01*
X143791455Y-101976491D01*
X143791450Y-101976491D01*
X143784998Y-101975119D01*
X143587340Y-101975119D01*
X143580888Y-101976491D01*
X143580883Y-101976491D01*
X143490670Y-101995667D01*
X143394000Y-102016215D01*
X143387970Y-102018900D01*
X143387969Y-102018900D01*
X143219460Y-102093925D01*
X143219458Y-102093926D01*
X143213430Y-102096610D01*
X143053520Y-102212791D01*
X142921260Y-102359680D01*
X142917960Y-102365396D01*
X142917957Y-102365400D01*
X142825735Y-102525135D01*
X142822431Y-102530858D01*
X142761351Y-102718843D01*
X142740690Y-102915419D01*
X131379179Y-102915419D01*
X133919179Y-100375419D01*
X142740690Y-100375419D01*
X142761351Y-100571995D01*
X142822431Y-100759980D01*
X142825734Y-100765702D01*
X142825735Y-100765703D01*
X142917957Y-100925438D01*
X142917960Y-100925442D01*
X142921260Y-100931158D01*
X143053520Y-101078047D01*
X143213429Y-101194228D01*
X143219457Y-101196912D01*
X143219459Y-101196913D01*
X143387967Y-101271937D01*
X143394000Y-101274623D01*
X143490670Y-101295171D01*
X143580883Y-101314347D01*
X143580888Y-101314347D01*
X143587340Y-101315719D01*
X143784998Y-101315719D01*
X143791450Y-101314347D01*
X143791455Y-101314347D01*
X143881668Y-101295171D01*
X143978338Y-101274623D01*
X143984371Y-101271937D01*
X144152879Y-101196913D01*
X144152881Y-101196912D01*
X144158909Y-101194228D01*
X144318818Y-101078047D01*
X144451078Y-100931158D01*
X144454378Y-100925442D01*
X144454381Y-100925438D01*
X144546603Y-100765703D01*
X144546604Y-100765702D01*
X144549907Y-100759980D01*
X144610987Y-100571995D01*
X144631648Y-100375419D01*
X144610987Y-100178843D01*
X144549907Y-99990858D01*
X144546603Y-99985135D01*
X144454381Y-99825400D01*
X144454378Y-99825396D01*
X144451078Y-99819680D01*
X144318818Y-99672791D01*
X144158909Y-99556610D01*
X144152881Y-99553926D01*
X144152879Y-99553925D01*
X143984369Y-99478900D01*
X143984368Y-99478900D01*
X143978338Y-99476215D01*
X143881668Y-99455667D01*
X143791455Y-99436491D01*
X143791450Y-99436491D01*
X143784998Y-99435119D01*
X143587340Y-99435119D01*
X143580888Y-99436491D01*
X143580883Y-99436491D01*
X143490670Y-99455667D01*
X143394000Y-99476215D01*
X143387970Y-99478900D01*
X143387969Y-99478900D01*
X143219460Y-99553925D01*
X143219458Y-99553926D01*
X143213430Y-99556610D01*
X143053520Y-99672791D01*
X142921260Y-99819680D01*
X142917960Y-99825396D01*
X142917957Y-99825400D01*
X142825735Y-99985135D01*
X142822431Y-99990858D01*
X142761351Y-100178843D01*
X142740690Y-100375419D01*
X133919179Y-100375419D01*
X136459179Y-97835419D01*
X142740690Y-97835419D01*
X142761351Y-98031995D01*
X142822431Y-98219980D01*
X142825734Y-98225702D01*
X142825735Y-98225703D01*
X142917957Y-98385438D01*
X142917960Y-98385442D01*
X142921260Y-98391158D01*
X143053520Y-98538047D01*
X143213429Y-98654228D01*
X143219457Y-98656912D01*
X143219459Y-98656913D01*
X143387967Y-98731937D01*
X143394000Y-98734623D01*
X143490670Y-98755171D01*
X143580883Y-98774347D01*
X143580888Y-98774347D01*
X143587340Y-98775719D01*
X143784998Y-98775719D01*
X143791450Y-98774347D01*
X143791455Y-98774347D01*
X143881668Y-98755171D01*
X143978338Y-98734623D01*
X143984371Y-98731937D01*
X144152879Y-98656913D01*
X144152881Y-98656912D01*
X144158909Y-98654228D01*
X144318818Y-98538047D01*
X144451078Y-98391158D01*
X144454378Y-98385442D01*
X144454381Y-98385438D01*
X144546603Y-98225703D01*
X144546604Y-98225702D01*
X144549907Y-98219980D01*
X144610987Y-98031995D01*
X144631648Y-97835419D01*
X144610987Y-97638843D01*
X144549907Y-97450858D01*
X144546603Y-97445135D01*
X144454381Y-97285400D01*
X144454378Y-97285396D01*
X144451078Y-97279680D01*
X144318818Y-97132791D01*
X144195960Y-97043529D01*
X144164251Y-97020491D01*
X144164250Y-97020490D01*
X144158909Y-97016610D01*
X144152881Y-97013926D01*
X144152879Y-97013925D01*
X143984369Y-96938900D01*
X143984368Y-96938900D01*
X143978338Y-96936215D01*
X143863005Y-96911700D01*
X143791455Y-96896491D01*
X143791450Y-96896491D01*
X143784998Y-96895119D01*
X143587340Y-96895119D01*
X143580888Y-96896491D01*
X143580883Y-96896491D01*
X143509333Y-96911700D01*
X143394000Y-96936215D01*
X143387970Y-96938900D01*
X143387969Y-96938900D01*
X143219460Y-97013925D01*
X143219458Y-97013926D01*
X143213430Y-97016610D01*
X143208089Y-97020490D01*
X143208088Y-97020491D01*
X143098787Y-97099903D01*
X143053520Y-97132791D01*
X142921260Y-97279680D01*
X142917960Y-97285396D01*
X142917957Y-97285400D01*
X142825735Y-97445135D01*
X142822431Y-97450858D01*
X142761351Y-97638843D01*
X142740690Y-97835419D01*
X136459179Y-97835419D01*
X137154706Y-97139892D01*
X137156202Y-97138600D01*
X137160730Y-97136387D01*
X137191415Y-97103308D01*
X137194695Y-97099903D01*
X137206951Y-97087647D01*
X137209534Y-97083882D01*
X137211274Y-97081900D01*
X137231136Y-97060488D01*
X137235447Y-97049683D01*
X137239337Y-97043529D01*
X137241107Y-97040215D01*
X137244060Y-97033551D01*
X137250641Y-97023958D01*
X137255743Y-97002459D01*
X137261307Y-96984865D01*
X137269499Y-96964332D01*
X137270069Y-96958518D01*
X137270069Y-96955429D01*
X137270219Y-96952366D01*
X137270591Y-96952384D01*
X137271318Y-96946170D01*
X137271291Y-96946169D01*
X137271859Y-96934551D01*
X137274546Y-96923230D01*
X137271220Y-96898791D01*
X137270069Y-96881800D01*
X137270069Y-95295419D01*
X142740690Y-95295419D01*
X142761351Y-95491995D01*
X142822431Y-95679980D01*
X142825734Y-95685702D01*
X142825735Y-95685703D01*
X142917957Y-95845438D01*
X142917960Y-95845442D01*
X142921260Y-95851158D01*
X143053520Y-95998047D01*
X143213429Y-96114228D01*
X143219457Y-96116912D01*
X143219459Y-96116913D01*
X143387967Y-96191937D01*
X143394000Y-96194623D01*
X143490670Y-96215171D01*
X143580883Y-96234347D01*
X143580888Y-96234347D01*
X143587340Y-96235719D01*
X143784998Y-96235719D01*
X143791450Y-96234347D01*
X143791455Y-96234347D01*
X143881668Y-96215171D01*
X143978338Y-96194623D01*
X143984371Y-96191937D01*
X144152879Y-96116913D01*
X144152881Y-96116912D01*
X144158909Y-96114228D01*
X144318818Y-95998047D01*
X144451078Y-95851158D01*
X144454378Y-95845442D01*
X144454381Y-95845438D01*
X144546603Y-95685703D01*
X144546604Y-95685702D01*
X144549907Y-95679980D01*
X144610987Y-95491995D01*
X144631648Y-95295419D01*
X144610987Y-95098843D01*
X144549907Y-94910858D01*
X144546603Y-94905135D01*
X144454381Y-94745400D01*
X144454378Y-94745396D01*
X144451078Y-94739680D01*
X144318818Y-94592791D01*
X144158909Y-94476610D01*
X144152881Y-94473926D01*
X144152879Y-94473925D01*
X143984369Y-94398900D01*
X143984368Y-94398900D01*
X143978338Y-94396215D01*
X143881668Y-94375667D01*
X143791455Y-94356491D01*
X143791450Y-94356491D01*
X143784998Y-94355119D01*
X143587340Y-94355119D01*
X143580888Y-94356491D01*
X143580883Y-94356491D01*
X143490670Y-94375667D01*
X143394000Y-94396215D01*
X143387970Y-94398900D01*
X143387969Y-94398900D01*
X143219460Y-94473925D01*
X143219458Y-94473926D01*
X143213430Y-94476610D01*
X143053520Y-94592791D01*
X142921260Y-94739680D01*
X142917960Y-94745396D01*
X142917957Y-94745400D01*
X142825735Y-94905135D01*
X142822431Y-94910858D01*
X142761351Y-95098843D01*
X142740690Y-95295419D01*
X137270069Y-95295419D01*
X137270069Y-92755419D01*
X142740690Y-92755419D01*
X142761351Y-92951995D01*
X142822431Y-93139980D01*
X142825734Y-93145702D01*
X142825735Y-93145703D01*
X142917957Y-93305438D01*
X142917960Y-93305442D01*
X142921260Y-93311158D01*
X143053520Y-93458047D01*
X143213429Y-93574228D01*
X143219457Y-93576912D01*
X143219459Y-93576913D01*
X143387969Y-93651938D01*
X143394000Y-93654623D01*
X143490670Y-93675171D01*
X143580883Y-93694347D01*
X143580888Y-93694347D01*
X143587340Y-93695719D01*
X143784998Y-93695719D01*
X143791450Y-93694347D01*
X143791455Y-93694347D01*
X143881668Y-93675171D01*
X143978338Y-93654623D01*
X143984369Y-93651938D01*
X144152879Y-93576913D01*
X144152881Y-93576912D01*
X144158909Y-93574228D01*
X144318818Y-93458047D01*
X144451078Y-93311158D01*
X144454378Y-93305442D01*
X144454381Y-93305438D01*
X144546603Y-93145703D01*
X144546604Y-93145702D01*
X144549907Y-93139980D01*
X144610987Y-92951995D01*
X144631648Y-92755419D01*
X144610987Y-92558843D01*
X144549907Y-92370858D01*
X144546603Y-92365135D01*
X144454381Y-92205400D01*
X144454378Y-92205396D01*
X144451078Y-92199680D01*
X144318818Y-92052791D01*
X144158909Y-91936610D01*
X144152881Y-91933926D01*
X144152879Y-91933925D01*
X143984369Y-91858900D01*
X143984368Y-91858900D01*
X143978338Y-91856215D01*
X143881668Y-91835667D01*
X143791455Y-91816491D01*
X143791450Y-91816491D01*
X143784998Y-91815119D01*
X143587340Y-91815119D01*
X143580888Y-91816491D01*
X143580883Y-91816491D01*
X143490670Y-91835667D01*
X143394000Y-91856215D01*
X143387970Y-91858900D01*
X143387969Y-91858900D01*
X143219460Y-91933925D01*
X143219458Y-91933926D01*
X143213430Y-91936610D01*
X143053520Y-92052791D01*
X142921260Y-92199680D01*
X142917960Y-92205396D01*
X142917957Y-92205400D01*
X142825735Y-92365135D01*
X142822431Y-92370858D01*
X142761351Y-92558843D01*
X142740690Y-92755419D01*
X137270069Y-92755419D01*
X137270069Y-90215419D01*
X142740690Y-90215419D01*
X142761351Y-90411995D01*
X142822431Y-90599980D01*
X142825734Y-90605702D01*
X142825735Y-90605703D01*
X142917957Y-90765438D01*
X142917960Y-90765442D01*
X142921260Y-90771158D01*
X143053520Y-90918047D01*
X143213429Y-91034228D01*
X143219457Y-91036912D01*
X143219459Y-91036913D01*
X143387969Y-91111938D01*
X143394000Y-91114623D01*
X143490670Y-91135171D01*
X143580883Y-91154347D01*
X143580888Y-91154347D01*
X143587340Y-91155719D01*
X143784998Y-91155719D01*
X143791450Y-91154347D01*
X143791455Y-91154347D01*
X143881668Y-91135171D01*
X143978338Y-91114623D01*
X143984369Y-91111938D01*
X144152879Y-91036913D01*
X144152881Y-91036912D01*
X144158909Y-91034228D01*
X144318818Y-90918047D01*
X144451078Y-90771158D01*
X144454378Y-90765442D01*
X144454381Y-90765438D01*
X144546603Y-90605703D01*
X144546604Y-90605702D01*
X144549907Y-90599980D01*
X144610987Y-90411995D01*
X144631648Y-90215419D01*
X144610987Y-90018843D01*
X144549907Y-89830858D01*
X144546603Y-89825135D01*
X144454381Y-89665400D01*
X144454378Y-89665396D01*
X144451078Y-89659680D01*
X144318818Y-89512791D01*
X144158909Y-89396610D01*
X144152881Y-89393926D01*
X144152879Y-89393925D01*
X143984369Y-89318900D01*
X143984368Y-89318900D01*
X143978338Y-89316215D01*
X143881668Y-89295667D01*
X143791455Y-89276491D01*
X143791450Y-89276491D01*
X143784998Y-89275119D01*
X143587340Y-89275119D01*
X143580888Y-89276491D01*
X143580883Y-89276491D01*
X143490670Y-89295667D01*
X143394000Y-89316215D01*
X143387970Y-89318900D01*
X143387969Y-89318900D01*
X143219460Y-89393925D01*
X143219458Y-89393926D01*
X143213430Y-89396610D01*
X143053520Y-89512791D01*
X142921260Y-89659680D01*
X142917960Y-89665396D01*
X142917957Y-89665400D01*
X142825735Y-89825135D01*
X142822431Y-89830858D01*
X142761351Y-90018843D01*
X142740690Y-90215419D01*
X137270069Y-90215419D01*
X137270069Y-87675419D01*
X142740690Y-87675419D01*
X142761351Y-87871995D01*
X142822431Y-88059980D01*
X142825734Y-88065702D01*
X142825735Y-88065703D01*
X142917957Y-88225438D01*
X142917960Y-88225442D01*
X142921260Y-88231158D01*
X143053520Y-88378047D01*
X143213429Y-88494228D01*
X143219457Y-88496912D01*
X143219459Y-88496913D01*
X143273917Y-88521159D01*
X143394000Y-88574623D01*
X143490670Y-88595171D01*
X143580883Y-88614347D01*
X143580888Y-88614347D01*
X143587340Y-88615719D01*
X143784998Y-88615719D01*
X143791450Y-88614347D01*
X143791455Y-88614347D01*
X143881668Y-88595171D01*
X143978338Y-88574623D01*
X144098421Y-88521159D01*
X144152879Y-88496913D01*
X144152881Y-88496912D01*
X144158909Y-88494228D01*
X144318818Y-88378047D01*
X144451078Y-88231158D01*
X144454378Y-88225442D01*
X144454381Y-88225438D01*
X144546603Y-88065703D01*
X144546604Y-88065702D01*
X144549907Y-88059980D01*
X144610987Y-87871995D01*
X144631648Y-87675419D01*
X144610987Y-87478843D01*
X144549907Y-87290858D01*
X144546603Y-87285135D01*
X144454381Y-87125400D01*
X144454378Y-87125396D01*
X144451078Y-87119680D01*
X144318818Y-86972791D01*
X144158909Y-86856610D01*
X144152881Y-86853926D01*
X144152879Y-86853925D01*
X143984369Y-86778900D01*
X143984368Y-86778900D01*
X143978338Y-86776215D01*
X143881668Y-86755667D01*
X143791455Y-86736491D01*
X143791450Y-86736491D01*
X143784998Y-86735119D01*
X143587340Y-86735119D01*
X143580888Y-86736491D01*
X143580883Y-86736491D01*
X143490670Y-86755667D01*
X143394000Y-86776215D01*
X143387970Y-86778900D01*
X143387969Y-86778900D01*
X143219460Y-86853925D01*
X143219458Y-86853926D01*
X143213430Y-86856610D01*
X143053520Y-86972791D01*
X142921260Y-87119680D01*
X142917960Y-87125396D01*
X142917957Y-87125400D01*
X142825735Y-87285135D01*
X142822431Y-87290858D01*
X142761351Y-87478843D01*
X142740690Y-87675419D01*
X137270069Y-87675419D01*
X137270069Y-77467607D01*
X152168169Y-77467607D01*
X152168506Y-77474122D01*
X152178063Y-77566226D01*
X152180957Y-77579625D01*
X152230550Y-77728276D01*
X152236724Y-77741455D01*
X152318957Y-77874342D01*
X152327993Y-77885743D01*
X152438598Y-77996155D01*
X152450009Y-78005167D01*
X152583049Y-78087173D01*
X152596230Y-78093320D01*
X152744983Y-78142660D01*
X152758359Y-78145527D01*
X152849266Y-78154841D01*
X152854295Y-78155098D01*
X152869293Y-78150694D01*
X152870498Y-78149304D01*
X152872169Y-78141621D01*
X152872169Y-77444284D01*
X152867694Y-77429045D01*
X152866304Y-77427840D01*
X152858621Y-77426169D01*
X152186284Y-77426169D01*
X152171045Y-77430644D01*
X152169840Y-77432034D01*
X152168169Y-77439717D01*
X152168169Y-77467607D01*
X137270069Y-77467607D01*
X137270069Y-76900054D01*
X152168169Y-76900054D01*
X152172644Y-76915293D01*
X152174034Y-76916498D01*
X152181717Y-76918169D01*
X152854054Y-76918169D01*
X152869293Y-76913694D01*
X152870498Y-76912304D01*
X152872169Y-76904621D01*
X152872169Y-76207284D01*
X152867694Y-76192045D01*
X152866304Y-76190840D01*
X152858621Y-76189169D01*
X152855731Y-76189169D01*
X152849216Y-76189506D01*
X152757112Y-76199063D01*
X152743713Y-76201957D01*
X152595062Y-76251550D01*
X152581883Y-76257724D01*
X152448996Y-76339957D01*
X152437595Y-76348993D01*
X152327183Y-76459598D01*
X152318171Y-76471009D01*
X152236165Y-76604049D01*
X152230018Y-76617230D01*
X152180678Y-76765983D01*
X152177811Y-76779359D01*
X152168497Y-76870266D01*
X152168169Y-76876683D01*
X152168169Y-76900054D01*
X137270069Y-76900054D01*
X137270069Y-75901299D01*
X137270213Y-75899333D01*
X137271850Y-75894567D01*
X137270158Y-75849499D01*
X137270069Y-75844773D01*
X137270069Y-75827419D01*
X137269234Y-75822938D01*
X137269060Y-75820254D01*
X137268402Y-75802739D01*
X137267966Y-75791114D01*
X137263374Y-75780425D01*
X137261774Y-75773324D01*
X137260679Y-75769719D01*
X137258058Y-75762927D01*
X137255928Y-75751491D01*
X137249824Y-75741588D01*
X137249823Y-75741586D01*
X137244329Y-75732673D01*
X137235825Y-75716303D01*
X137227100Y-75695994D01*
X137223392Y-75691480D01*
X137221209Y-75689297D01*
X137219152Y-75687029D01*
X137219428Y-75686779D01*
X137215542Y-75681864D01*
X137215522Y-75681882D01*
X137207709Y-75673266D01*
X137201605Y-75663362D01*
X137181966Y-75648428D01*
X137169139Y-75637227D01*
X136433634Y-74901722D01*
X136399608Y-74839410D01*
X136397807Y-74796180D01*
X136398892Y-74787943D01*
X136408853Y-74712280D01*
X136402852Y-74666700D01*
X136390929Y-74576130D01*
X136390928Y-74576128D01*
X136389851Y-74567944D01*
X136334139Y-74433445D01*
X136245515Y-74317947D01*
X136130018Y-74229323D01*
X135995518Y-74173611D01*
X135851182Y-74154609D01*
X135842994Y-74155687D01*
X135715032Y-74172533D01*
X135715030Y-74172534D01*
X135706846Y-74173611D01*
X135659731Y-74193127D01*
X135579975Y-74226163D01*
X135579973Y-74226164D01*
X135572347Y-74229323D01*
X135456849Y-74317947D01*
X135368225Y-74433445D01*
X135312513Y-74567944D01*
X135311436Y-74576128D01*
X135311435Y-74576130D01*
X135299512Y-74666700D01*
X135293511Y-74712280D01*
X135294589Y-74720467D01*
X135294589Y-74720468D01*
X135310980Y-74844970D01*
X135312513Y-74856616D01*
X135368225Y-74991115D01*
X135456849Y-75106613D01*
X135572346Y-75195237D01*
X135706846Y-75250949D01*
X135851182Y-75269951D01*
X135935084Y-75258905D01*
X136005231Y-75269844D01*
X136040624Y-75294732D01*
X136677364Y-75931472D01*
X136711390Y-75993784D01*
X136714269Y-76020567D01*
X136714269Y-96742119D01*
X136694267Y-96810240D01*
X136677364Y-96831214D01*
X123867663Y-109640915D01*
X123805351Y-109674941D01*
X123734536Y-109669876D01*
X123727320Y-109666927D01*
X123664373Y-109638901D01*
X123664365Y-109638898D01*
X123658338Y-109636215D01*
X123561668Y-109615667D01*
X123471455Y-109596491D01*
X123471450Y-109596491D01*
X123464998Y-109595119D01*
X123267340Y-109595119D01*
X123260888Y-109596491D01*
X123260883Y-109596491D01*
X123170670Y-109615667D01*
X123074000Y-109636215D01*
X123067970Y-109638900D01*
X123067969Y-109638900D01*
X122899460Y-109713925D01*
X122899458Y-109713926D01*
X122893430Y-109716610D01*
X122888089Y-109720490D01*
X122888088Y-109720491D01*
X122779819Y-109799153D01*
X122712951Y-109823012D01*
X122643800Y-109806931D01*
X122594319Y-109756017D01*
X122579758Y-109697217D01*
X122579758Y-109227030D01*
X122599760Y-109158909D01*
X122616663Y-109137935D01*
X122864675Y-108889923D01*
X122926987Y-108855897D01*
X122997802Y-108860962D01*
X123005018Y-108863911D01*
X123067965Y-108891937D01*
X123067973Y-108891940D01*
X123074000Y-108894623D01*
X123170670Y-108915171D01*
X123260883Y-108934347D01*
X123260888Y-108934347D01*
X123267340Y-108935719D01*
X123464998Y-108935719D01*
X123471450Y-108934347D01*
X123471455Y-108934347D01*
X123561668Y-108915171D01*
X123658338Y-108894623D01*
X123666835Y-108890840D01*
X123832879Y-108816913D01*
X123832881Y-108816912D01*
X123838909Y-108814228D01*
X123998818Y-108698047D01*
X124131078Y-108551158D01*
X124134378Y-108545442D01*
X124134381Y-108545438D01*
X124226603Y-108385703D01*
X124226604Y-108385702D01*
X124229907Y-108379980D01*
X124277525Y-108233426D01*
X124288947Y-108198274D01*
X124288947Y-108198272D01*
X124290987Y-108191995D01*
X124292297Y-108179536D01*
X124310958Y-108001984D01*
X124311648Y-107995419D01*
X124290987Y-107798843D01*
X124229907Y-107610858D01*
X124220103Y-107593877D01*
X124134381Y-107445400D01*
X124134378Y-107445396D01*
X124131078Y-107439680D01*
X124116078Y-107423021D01*
X124003233Y-107297694D01*
X124003231Y-107297693D01*
X123998818Y-107292791D01*
X123838909Y-107176610D01*
X123832881Y-107173926D01*
X123832879Y-107173925D01*
X123664369Y-107098900D01*
X123664368Y-107098900D01*
X123658338Y-107096215D01*
X123561668Y-107075667D01*
X123471455Y-107056491D01*
X123471450Y-107056491D01*
X123464998Y-107055119D01*
X123267340Y-107055119D01*
X123260888Y-107056491D01*
X123260883Y-107056491D01*
X123170670Y-107075667D01*
X123074000Y-107096215D01*
X123067970Y-107098900D01*
X123067969Y-107098900D01*
X122899460Y-107173925D01*
X122899458Y-107173926D01*
X122893430Y-107176610D01*
X122733520Y-107292791D01*
X122729107Y-107297693D01*
X122729105Y-107297694D01*
X122616260Y-107423021D01*
X122601260Y-107439680D01*
X122597960Y-107445396D01*
X122597957Y-107445400D01*
X122512235Y-107593877D01*
X122502431Y-107610858D01*
X122441351Y-107798843D01*
X122420690Y-107995419D01*
X122421380Y-108001984D01*
X122440042Y-108179536D01*
X122441351Y-108191995D01*
X122443391Y-108198272D01*
X122443391Y-108198274D01*
X122499702Y-108371583D01*
X122501729Y-108442551D01*
X122468964Y-108499614D01*
X122139321Y-108829257D01*
X122137825Y-108830549D01*
X122133297Y-108832762D01*
X122125402Y-108841272D01*
X122125403Y-108841272D01*
X122102612Y-108865841D01*
X122099332Y-108869246D01*
X122087076Y-108881502D01*
X122084493Y-108885267D01*
X122082753Y-108887249D01*
X122062891Y-108908661D01*
X122058580Y-108919466D01*
X122054690Y-108925620D01*
X122052920Y-108928934D01*
X122049967Y-108935598D01*
X122043386Y-108945191D01*
X122040699Y-108956512D01*
X122040699Y-108956513D01*
X122038284Y-108966690D01*
X122032720Y-108984284D01*
X122024528Y-109004817D01*
X122023958Y-109010631D01*
X122023958Y-109013720D01*
X122023808Y-109016783D01*
X122023436Y-109016765D01*
X122022709Y-109022979D01*
X122022736Y-109022980D01*
X122022168Y-109034598D01*
X122019481Y-109045919D01*
X122021050Y-109057448D01*
X122021050Y-109057449D01*
X122022807Y-109070358D01*
X122023958Y-109087349D01*
X122023958Y-112033243D01*
X122003956Y-112101364D01*
X121987053Y-112122338D01*
X119364995Y-114744395D01*
X119302683Y-114778421D01*
X119231867Y-114773356D01*
X119175032Y-114730809D01*
X119150221Y-114664289D01*
X119149900Y-114655300D01*
X119149900Y-110116888D01*
X119169902Y-110048767D01*
X119186805Y-110027793D01*
X122864675Y-106349923D01*
X122926987Y-106315897D01*
X122997802Y-106320962D01*
X123005018Y-106323911D01*
X123067965Y-106351937D01*
X123067973Y-106351940D01*
X123074000Y-106354623D01*
X123170670Y-106375171D01*
X123260883Y-106394347D01*
X123260888Y-106394347D01*
X123267340Y-106395719D01*
X123464998Y-106395719D01*
X123471450Y-106394347D01*
X123471455Y-106394347D01*
X123561668Y-106375171D01*
X123658338Y-106354623D01*
X123664371Y-106351937D01*
X123832879Y-106276913D01*
X123832881Y-106276912D01*
X123838909Y-106274228D01*
X123998818Y-106158047D01*
X124131078Y-106011158D01*
X124134378Y-106005442D01*
X124134381Y-106005438D01*
X124226603Y-105845703D01*
X124226604Y-105845702D01*
X124229907Y-105839980D01*
X124290987Y-105651995D01*
X124311648Y-105455419D01*
X124290987Y-105258843D01*
X124229907Y-105070858D01*
X124226603Y-105065135D01*
X124134381Y-104905400D01*
X124134378Y-104905396D01*
X124131078Y-104899680D01*
X123998818Y-104752791D01*
X123838909Y-104636610D01*
X123832881Y-104633926D01*
X123832879Y-104633925D01*
X123664369Y-104558900D01*
X123664368Y-104558900D01*
X123658338Y-104556215D01*
X123561668Y-104535667D01*
X123471455Y-104516491D01*
X123471450Y-104516491D01*
X123464998Y-104515119D01*
X123267340Y-104515119D01*
X123260888Y-104516491D01*
X123260883Y-104516491D01*
X123170670Y-104535667D01*
X123074000Y-104556215D01*
X123067970Y-104558900D01*
X123067969Y-104558900D01*
X122899460Y-104633925D01*
X122899458Y-104633926D01*
X122893430Y-104636610D01*
X122733520Y-104752791D01*
X122601260Y-104899680D01*
X122597960Y-104905396D01*
X122597957Y-104905400D01*
X122505735Y-105065135D01*
X122502431Y-105070858D01*
X122441351Y-105258843D01*
X122420690Y-105455419D01*
X122441351Y-105651995D01*
X122443391Y-105658272D01*
X122443391Y-105658274D01*
X122499702Y-105831583D01*
X122501729Y-105902551D01*
X122468964Y-105959614D01*
X118709463Y-109719115D01*
X118707967Y-109720407D01*
X118703439Y-109722620D01*
X118695544Y-109731130D01*
X118695545Y-109731130D01*
X118672754Y-109755699D01*
X118669474Y-109759104D01*
X118657218Y-109771360D01*
X118654635Y-109775125D01*
X118652895Y-109777107D01*
X118633033Y-109798519D01*
X118628722Y-109809324D01*
X118624832Y-109815478D01*
X118623062Y-109818792D01*
X118620109Y-109825456D01*
X118613528Y-109835049D01*
X118610841Y-109846370D01*
X118610841Y-109846371D01*
X118608426Y-109856548D01*
X118602862Y-109874142D01*
X118594670Y-109894675D01*
X118594100Y-109900489D01*
X118594100Y-109903578D01*
X118593950Y-109906641D01*
X118593578Y-109906623D01*
X118592851Y-109912837D01*
X118592878Y-109912838D01*
X118592310Y-109924456D01*
X118589623Y-109935777D01*
X118591192Y-109947306D01*
X118591192Y-109947307D01*
X118592949Y-109960216D01*
X118594100Y-109977207D01*
X118594100Y-112109801D01*
X118574098Y-112177922D01*
X118520442Y-112224415D01*
X118450168Y-112234519D01*
X118385588Y-112205025D01*
X118379082Y-112198974D01*
X118346132Y-112166081D01*
X118346131Y-112166081D01*
X118338764Y-112158726D01*
X118326263Y-112152615D01*
X118290470Y-112135119D01*
X118233214Y-112107131D01*
X118223531Y-112105718D01*
X118222695Y-112105460D01*
X118163518Y-112066235D01*
X118134941Y-112001243D01*
X118133900Y-111985078D01*
X118133900Y-108592888D01*
X118153902Y-108524767D01*
X118170805Y-108503793D01*
X120516551Y-106158047D01*
X122864675Y-103809922D01*
X122926987Y-103775896D01*
X122997802Y-103780961D01*
X123004990Y-103783898D01*
X123074000Y-103814623D01*
X123117447Y-103823858D01*
X123260883Y-103854347D01*
X123260888Y-103854347D01*
X123267340Y-103855719D01*
X123464998Y-103855719D01*
X123471450Y-103854347D01*
X123471455Y-103854347D01*
X123561668Y-103835171D01*
X123658338Y-103814623D01*
X123727321Y-103783910D01*
X123832879Y-103736913D01*
X123832881Y-103736912D01*
X123838909Y-103734228D01*
X123998818Y-103618047D01*
X124131078Y-103471158D01*
X124134378Y-103465442D01*
X124134381Y-103465438D01*
X124226603Y-103305703D01*
X124226604Y-103305702D01*
X124229907Y-103299980D01*
X124290987Y-103111995D01*
X124311648Y-102915419D01*
X124290987Y-102718843D01*
X124229907Y-102530858D01*
X124226603Y-102525135D01*
X124134381Y-102365400D01*
X124134378Y-102365396D01*
X124131078Y-102359680D01*
X123998818Y-102212791D01*
X123838909Y-102096610D01*
X123832881Y-102093926D01*
X123832879Y-102093925D01*
X123664369Y-102018900D01*
X123664368Y-102018900D01*
X123658338Y-102016215D01*
X123561668Y-101995667D01*
X123471455Y-101976491D01*
X123471450Y-101976491D01*
X123464998Y-101975119D01*
X123267340Y-101975119D01*
X123260888Y-101976491D01*
X123260883Y-101976491D01*
X123170670Y-101995667D01*
X123074000Y-102016215D01*
X123067970Y-102018900D01*
X123067969Y-102018900D01*
X122899460Y-102093925D01*
X122899458Y-102093926D01*
X122893430Y-102096610D01*
X122733520Y-102212791D01*
X122601260Y-102359680D01*
X122597960Y-102365396D01*
X122597957Y-102365400D01*
X122505735Y-102525135D01*
X122502431Y-102530858D01*
X122441351Y-102718843D01*
X122420690Y-102915419D01*
X122441351Y-103111995D01*
X122443391Y-103118272D01*
X122443391Y-103118274D01*
X122499702Y-103291583D01*
X122501729Y-103362551D01*
X122468964Y-103419614D01*
X117693463Y-108195115D01*
X117691967Y-108196407D01*
X117687439Y-108198620D01*
X117679544Y-108207130D01*
X117679545Y-108207130D01*
X117656754Y-108231699D01*
X117653474Y-108235104D01*
X117641218Y-108247360D01*
X117638635Y-108251125D01*
X117636895Y-108253107D01*
X117617033Y-108274519D01*
X117612722Y-108285324D01*
X117608832Y-108291478D01*
X117607062Y-108294792D01*
X117604109Y-108301456D01*
X117597528Y-108311049D01*
X117594841Y-108322370D01*
X117594841Y-108322371D01*
X117592426Y-108332548D01*
X117586862Y-108350142D01*
X117578670Y-108370675D01*
X117578100Y-108376489D01*
X117578100Y-108379578D01*
X117577950Y-108382641D01*
X117577578Y-108382623D01*
X117576851Y-108388837D01*
X117576878Y-108388838D01*
X117576310Y-108400456D01*
X117573623Y-108411777D01*
X117575192Y-108423306D01*
X117575192Y-108423307D01*
X117576949Y-108436216D01*
X117578100Y-108453207D01*
X117578100Y-111985058D01*
X117558098Y-112053179D01*
X117504442Y-112099672D01*
X117489489Y-112105383D01*
X117487878Y-112105884D01*
X117478188Y-112107310D01*
X117469398Y-112111626D01*
X117469397Y-112111626D01*
X117447580Y-112122338D01*
X117372728Y-112159089D01*
X117289726Y-112242236D01*
X117285153Y-112251591D01*
X117252363Y-112318672D01*
X117238131Y-112347786D01*
X117236719Y-112357463D01*
X117236719Y-112357464D01*
X117235196Y-112367908D01*
X117228100Y-112416548D01*
X117228100Y-112883452D01*
X117228769Y-112888000D01*
X117228770Y-112888007D01*
X117236884Y-112943127D01*
X117238310Y-112952812D01*
X117290089Y-113058272D01*
X117373236Y-113141274D01*
X117382591Y-113145847D01*
X117469999Y-113188574D01*
X117470000Y-113188574D01*
X117478786Y-113192869D01*
X117488463Y-113194281D01*
X117488464Y-113194281D01*
X117506482Y-113196909D01*
X117547548Y-113202900D01*
X118164452Y-113202900D01*
X118169000Y-113202231D01*
X118169007Y-113202230D01*
X118224127Y-113194116D01*
X118224129Y-113194115D01*
X118233812Y-113192690D01*
X118257404Y-113181107D01*
X118291233Y-113164497D01*
X118339272Y-113140911D01*
X118378926Y-113101187D01*
X118441210Y-113067108D01*
X118512030Y-113072111D01*
X118568903Y-113114608D01*
X118593771Y-113181107D01*
X118594100Y-113190205D01*
X118594100Y-113759801D01*
X118574098Y-113827922D01*
X118520442Y-113874415D01*
X118450168Y-113884519D01*
X118385588Y-113855025D01*
X118379082Y-113848974D01*
X118346132Y-113816081D01*
X118346131Y-113816081D01*
X118338764Y-113808726D01*
X118296231Y-113787935D01*
X118242001Y-113761426D01*
X118242000Y-113761426D01*
X118233214Y-113757131D01*
X118223537Y-113755719D01*
X118223536Y-113755719D01*
X118205518Y-113753091D01*
X118164452Y-113747100D01*
X117547548Y-113747100D01*
X117543000Y-113747769D01*
X117542993Y-113747770D01*
X117487873Y-113755884D01*
X117487871Y-113755885D01*
X117478188Y-113757310D01*
X117469400Y-113761625D01*
X117469399Y-113761625D01*
X117435952Y-113778047D01*
X117372728Y-113809089D01*
X117289726Y-113892236D01*
X117260787Y-113951437D01*
X117212904Y-114003850D01*
X117147590Y-114022100D01*
X117118884Y-114022100D01*
X117050763Y-114002098D01*
X117007633Y-113955254D01*
X116979098Y-113901587D01*
X116927379Y-113804318D01*
X116923489Y-113799548D01*
X116923486Y-113799544D01*
X116806967Y-113656678D01*
X116806964Y-113656675D01*
X116803072Y-113651903D01*
X116786422Y-113638129D01*
X116656278Y-113530464D01*
X116656274Y-113530462D01*
X116651528Y-113526535D01*
X116478520Y-113432990D01*
X116290637Y-113374830D01*
X116284519Y-113374187D01*
X116284514Y-113374186D01*
X116101164Y-113354916D01*
X116101162Y-113354916D01*
X116095035Y-113354272D01*
X116012199Y-113361810D01*
X115905305Y-113371538D01*
X115905302Y-113371539D01*
X115899166Y-113372097D01*
X115710489Y-113427628D01*
X115536192Y-113518748D01*
X115382912Y-113641988D01*
X115378954Y-113646705D01*
X115378952Y-113646707D01*
X115296638Y-113744805D01*
X115256489Y-113792653D01*
X115161739Y-113965004D01*
X115159878Y-113970871D01*
X115159877Y-113970873D01*
X115151340Y-113997786D01*
X115102269Y-114152476D01*
X115096125Y-114207253D01*
X115082084Y-114332431D01*
X115080345Y-114347930D01*
X115096803Y-114543919D01*
X115098502Y-114549844D01*
X115147899Y-114722111D01*
X115151015Y-114732979D01*
X115153830Y-114738456D01*
X115153831Y-114738459D01*
X115208131Y-114844116D01*
X115240916Y-114907908D01*
X115244739Y-114912732D01*
X115244742Y-114912736D01*
X115301063Y-114983795D01*
X115363083Y-115062044D01*
X115512862Y-115189516D01*
X115684547Y-115285467D01*
X115871600Y-115346244D01*
X116066895Y-115369532D01*
X116073030Y-115369060D01*
X116073032Y-115369060D01*
X116256852Y-115354916D01*
X116256856Y-115354915D01*
X116262994Y-115354443D01*
X116452428Y-115301552D01*
X116457932Y-115298772D01*
X116457934Y-115298771D01*
X116622480Y-115215653D01*
X116622482Y-115215652D01*
X116627981Y-115212874D01*
X116782966Y-115091786D01*
X116786992Y-115087122D01*
X116786995Y-115087119D01*
X116907451Y-114947569D01*
X116907452Y-114947567D01*
X116911480Y-114942901D01*
X117008628Y-114771890D01*
X117037828Y-114684112D01*
X117078309Y-114625788D01*
X117143898Y-114598608D01*
X117213768Y-114611203D01*
X117265738Y-114659573D01*
X117270488Y-114668351D01*
X117290089Y-114708272D01*
X117373236Y-114791274D01*
X117382591Y-114795847D01*
X117469999Y-114838574D01*
X117470000Y-114838574D01*
X117478786Y-114842869D01*
X117488463Y-114844281D01*
X117488464Y-114844281D01*
X117506482Y-114846909D01*
X117547548Y-114852900D01*
X118164452Y-114852900D01*
X118169000Y-114852231D01*
X118169007Y-114852230D01*
X118224127Y-114844116D01*
X118224129Y-114844115D01*
X118233812Y-114842690D01*
X118257404Y-114831107D01*
X118321713Y-114799532D01*
X118339272Y-114790911D01*
X118378926Y-114751187D01*
X118441210Y-114717108D01*
X118512030Y-114722111D01*
X118568903Y-114764608D01*
X118593771Y-114831107D01*
X118594100Y-114840205D01*
X118594100Y-114894700D01*
X118574098Y-114962821D01*
X118557195Y-114983795D01*
X117523795Y-116017195D01*
X117461483Y-116051221D01*
X117434700Y-116054100D01*
X115852942Y-116054100D01*
X115784821Y-116034098D01*
X115738328Y-115980442D01*
X115732617Y-115965489D01*
X115732116Y-115963878D01*
X115730690Y-115954188D01*
X115710328Y-115912715D01*
X115686759Y-115864713D01*
X115678911Y-115848728D01*
X115595764Y-115765726D01*
X115546566Y-115741677D01*
X115499001Y-115718426D01*
X115499000Y-115718426D01*
X115490214Y-115714131D01*
X115480537Y-115712719D01*
X115480536Y-115712719D01*
X115456213Y-115709171D01*
X115421452Y-115704100D01*
X114954548Y-115704100D01*
X114950000Y-115704769D01*
X114949993Y-115704770D01*
X114894873Y-115712884D01*
X114894871Y-115712885D01*
X114885188Y-115714310D01*
X114876400Y-115718625D01*
X114876399Y-115718625D01*
X114844480Y-115734297D01*
X114779728Y-115766089D01*
X114696726Y-115849236D01*
X114692153Y-115858591D01*
X114649720Y-115945399D01*
X114645131Y-115954786D01*
X114643719Y-115964463D01*
X114643719Y-115964464D01*
X114642880Y-115970216D01*
X114635100Y-116023548D01*
X114635100Y-116640452D01*
X114635769Y-116645000D01*
X114635770Y-116645007D01*
X114643884Y-116700127D01*
X114645310Y-116709812D01*
X114697089Y-116815272D01*
X114780236Y-116898274D01*
X114789591Y-116902847D01*
X114876999Y-116945574D01*
X114877000Y-116945574D01*
X114885786Y-116949869D01*
X114895463Y-116951281D01*
X114895464Y-116951281D01*
X114913482Y-116953909D01*
X114954548Y-116959900D01*
X115421452Y-116959900D01*
X115426000Y-116959231D01*
X115426007Y-116959230D01*
X115481127Y-116951116D01*
X115481129Y-116951115D01*
X115490812Y-116949690D01*
X115506398Y-116942038D01*
X115576658Y-116907541D01*
X115596272Y-116897911D01*
X115679274Y-116814764D01*
X115730869Y-116709214D01*
X115732282Y-116699531D01*
X115732540Y-116698695D01*
X115771765Y-116639518D01*
X115836757Y-116610941D01*
X115852922Y-116609900D01*
X117195300Y-116609900D01*
X117263421Y-116629902D01*
X117309914Y-116683558D01*
X117320018Y-116753832D01*
X117290524Y-116818412D01*
X117284395Y-116824995D01*
X116314195Y-117795195D01*
X116251883Y-117829221D01*
X116225100Y-117832100D01*
X113312942Y-117832100D01*
X113244821Y-117812098D01*
X113198328Y-117758442D01*
X113192617Y-117743489D01*
X113192116Y-117741878D01*
X113190690Y-117732188D01*
X113177680Y-117705689D01*
X113145548Y-117640246D01*
X113138911Y-117626728D01*
X113055764Y-117543726D01*
X113006566Y-117519677D01*
X112959001Y-117496426D01*
X112959000Y-117496426D01*
X112950214Y-117492131D01*
X112940537Y-117490719D01*
X112940536Y-117490719D01*
X112914623Y-117486939D01*
X112881452Y-117482100D01*
X112414548Y-117482100D01*
X112410000Y-117482769D01*
X112409993Y-117482770D01*
X112354873Y-117490884D01*
X112354871Y-117490885D01*
X112345188Y-117492310D01*
X112336400Y-117496625D01*
X112336399Y-117496625D01*
X112308690Y-117510230D01*
X112239728Y-117544089D01*
X112156726Y-117627236D01*
X112152153Y-117636591D01*
X112109720Y-117723399D01*
X112105131Y-117732786D01*
X112103719Y-117742463D01*
X112103719Y-117742464D01*
X112103197Y-117746042D01*
X112095100Y-117801548D01*
X112095100Y-118418452D01*
X111550900Y-118418452D01*
X111550900Y-117801548D01*
X111550231Y-117797000D01*
X111550230Y-117796993D01*
X111542116Y-117741873D01*
X111542115Y-117741871D01*
X111540690Y-117732188D01*
X111527680Y-117705689D01*
X111495548Y-117640246D01*
X111488911Y-117626728D01*
X111405764Y-117543726D01*
X111356566Y-117519677D01*
X111304150Y-117471792D01*
X111285900Y-117406478D01*
X111285900Y-115420743D01*
X111305902Y-115352622D01*
X111359558Y-115306129D01*
X111366335Y-115303270D01*
X111366490Y-115303210D01*
X111372428Y-115301552D01*
X111462570Y-115256018D01*
X111542480Y-115215653D01*
X111542482Y-115215652D01*
X111547981Y-115212874D01*
X111702966Y-115091786D01*
X111706992Y-115087122D01*
X111706995Y-115087119D01*
X111827451Y-114947569D01*
X111827452Y-114947567D01*
X111831480Y-114942901D01*
X111928628Y-114771890D01*
X111990710Y-114585266D01*
X112015360Y-114390138D01*
X112015753Y-114362000D01*
X112014373Y-114347930D01*
X112540345Y-114347930D01*
X112556803Y-114543919D01*
X112558502Y-114549844D01*
X112607899Y-114722111D01*
X112611015Y-114732979D01*
X112613830Y-114738456D01*
X112613831Y-114738459D01*
X112668131Y-114844116D01*
X112700916Y-114907908D01*
X112704739Y-114912732D01*
X112704742Y-114912736D01*
X112761063Y-114983795D01*
X112823083Y-115062044D01*
X112972862Y-115189516D01*
X113144547Y-115285467D01*
X113183038Y-115297974D01*
X113241642Y-115338047D01*
X113269279Y-115403444D01*
X113270100Y-115417806D01*
X113270100Y-115618665D01*
X113250098Y-115686786D01*
X113199631Y-115731768D01*
X113139076Y-115761499D01*
X113139075Y-115761500D01*
X113129728Y-115766089D01*
X113046726Y-115849236D01*
X113042153Y-115858591D01*
X112999720Y-115945399D01*
X112995131Y-115954786D01*
X112993719Y-115964463D01*
X112993719Y-115964464D01*
X112992880Y-115970216D01*
X112985100Y-116023548D01*
X112985100Y-116640452D01*
X112985769Y-116645000D01*
X112985770Y-116645007D01*
X112993884Y-116700127D01*
X112995310Y-116709812D01*
X113047089Y-116815272D01*
X113130236Y-116898274D01*
X113139591Y-116902847D01*
X113226999Y-116945574D01*
X113227000Y-116945574D01*
X113235786Y-116949869D01*
X113245463Y-116951281D01*
X113245464Y-116951281D01*
X113263482Y-116953909D01*
X113304548Y-116959900D01*
X113771452Y-116959900D01*
X113776000Y-116959231D01*
X113776007Y-116959230D01*
X113831127Y-116951116D01*
X113831129Y-116951115D01*
X113840812Y-116949690D01*
X113856398Y-116942038D01*
X113926658Y-116907541D01*
X113946272Y-116897911D01*
X114029274Y-116814764D01*
X114044379Y-116783863D01*
X114076574Y-116718001D01*
X114076574Y-116718000D01*
X114080869Y-116709214D01*
X114082995Y-116694644D01*
X114087322Y-116664979D01*
X114090900Y-116640452D01*
X114090900Y-116023548D01*
X114090231Y-116019000D01*
X114090230Y-116018993D01*
X114082116Y-115963873D01*
X114082115Y-115963871D01*
X114080690Y-115954188D01*
X114060328Y-115912715D01*
X114036759Y-115864713D01*
X114028911Y-115848728D01*
X113945764Y-115765726D01*
X113896566Y-115741677D01*
X113844150Y-115693792D01*
X113825900Y-115628478D01*
X113825900Y-115420743D01*
X113845902Y-115352622D01*
X113899558Y-115306129D01*
X113906335Y-115303270D01*
X113906490Y-115303210D01*
X113912428Y-115301552D01*
X114002570Y-115256018D01*
X114082480Y-115215653D01*
X114082482Y-115215652D01*
X114087981Y-115212874D01*
X114242966Y-115091786D01*
X114246992Y-115087122D01*
X114246995Y-115087119D01*
X114367451Y-114947569D01*
X114367452Y-114947567D01*
X114371480Y-114942901D01*
X114468628Y-114771890D01*
X114530710Y-114585266D01*
X114555360Y-114390138D01*
X114555753Y-114362000D01*
X114536561Y-114166260D01*
X114479714Y-113977975D01*
X114424650Y-113874415D01*
X114390273Y-113809760D01*
X114390270Y-113809756D01*
X114387379Y-113804318D01*
X114383489Y-113799548D01*
X114383486Y-113799544D01*
X114266967Y-113656678D01*
X114266964Y-113656675D01*
X114263072Y-113651903D01*
X114246422Y-113638129D01*
X114116278Y-113530464D01*
X114116274Y-113530462D01*
X114111528Y-113526535D01*
X113938520Y-113432990D01*
X113750637Y-113374830D01*
X113744519Y-113374187D01*
X113744514Y-113374186D01*
X113561164Y-113354916D01*
X113561162Y-113354916D01*
X113555035Y-113354272D01*
X113472199Y-113361810D01*
X113365305Y-113371538D01*
X113365302Y-113371539D01*
X113359166Y-113372097D01*
X113170489Y-113427628D01*
X112996192Y-113518748D01*
X112842912Y-113641988D01*
X112838954Y-113646705D01*
X112838952Y-113646707D01*
X112756638Y-113744805D01*
X112716489Y-113792653D01*
X112621739Y-113965004D01*
X112619878Y-113970871D01*
X112619877Y-113970873D01*
X112611340Y-113997786D01*
X112562269Y-114152476D01*
X112556125Y-114207253D01*
X112542084Y-114332431D01*
X112540345Y-114347930D01*
X112014373Y-114347930D01*
X111996561Y-114166260D01*
X111939714Y-113977975D01*
X111884650Y-113874415D01*
X111850273Y-113809760D01*
X111850270Y-113809756D01*
X111847379Y-113804318D01*
X111843489Y-113799548D01*
X111843486Y-113799544D01*
X111726967Y-113656678D01*
X111726964Y-113656675D01*
X111723072Y-113651903D01*
X111706422Y-113638129D01*
X111576278Y-113530464D01*
X111576274Y-113530462D01*
X111571528Y-113526535D01*
X111398520Y-113432990D01*
X111210637Y-113374830D01*
X111204519Y-113374187D01*
X111204514Y-113374186D01*
X111021164Y-113354916D01*
X111021162Y-113354916D01*
X111015035Y-113354272D01*
X110932199Y-113361810D01*
X110825305Y-113371538D01*
X110825302Y-113371539D01*
X110819166Y-113372097D01*
X110630489Y-113427628D01*
X110456192Y-113518748D01*
X110302912Y-113641988D01*
X110298954Y-113646705D01*
X110298952Y-113646707D01*
X110216638Y-113744805D01*
X110176489Y-113792653D01*
X110081739Y-113965004D01*
X110075753Y-113983875D01*
X110072101Y-113995387D01*
X110032437Y-114054270D01*
X109967234Y-114082362D01*
X109897195Y-114070744D01*
X109844555Y-114023104D01*
X109825999Y-113957287D01*
X109825999Y-113467331D01*
X109825629Y-113460510D01*
X109820105Y-113409648D01*
X109816479Y-113394396D01*
X109771324Y-113273946D01*
X109762786Y-113258351D01*
X109686285Y-113156276D01*
X109673724Y-113143715D01*
X109571649Y-113067214D01*
X109556054Y-113058676D01*
X109445297Y-113017155D01*
X109388533Y-112974513D01*
X109363833Y-112907952D01*
X109379040Y-112838603D01*
X109400587Y-112809922D01*
X109502057Y-112708805D01*
X109508730Y-112700965D01*
X109633003Y-112528020D01*
X109638313Y-112519183D01*
X109732670Y-112328267D01*
X109736469Y-112318672D01*
X109798377Y-112114911D01*
X109799950Y-112107636D01*
X109833899Y-112045282D01*
X109896170Y-112011181D01*
X109966992Y-112016160D01*
X110023879Y-112058637D01*
X110044221Y-112099537D01*
X110050759Y-112122338D01*
X110065815Y-112174843D01*
X110071015Y-112192979D01*
X110073830Y-112198456D01*
X110073831Y-112198459D01*
X110157867Y-112361975D01*
X110160916Y-112367908D01*
X110164739Y-112372732D01*
X110164742Y-112372736D01*
X110276558Y-112513812D01*
X110283083Y-112522044D01*
X110287777Y-112526038D01*
X110287777Y-112526039D01*
X110414986Y-112634302D01*
X110432862Y-112649516D01*
X110438240Y-112652522D01*
X110438242Y-112652523D01*
X110462958Y-112666336D01*
X110604547Y-112745467D01*
X110791600Y-112806244D01*
X110986895Y-112829532D01*
X110993030Y-112829060D01*
X110993032Y-112829060D01*
X111176852Y-112814916D01*
X111176856Y-112814915D01*
X111182994Y-112814443D01*
X111372428Y-112761552D01*
X111377932Y-112758772D01*
X111377934Y-112758771D01*
X111542480Y-112675653D01*
X111542482Y-112675652D01*
X111547981Y-112672874D01*
X111702966Y-112551786D01*
X111706992Y-112547122D01*
X111706995Y-112547119D01*
X111827451Y-112407569D01*
X111827452Y-112407567D01*
X111831480Y-112402901D01*
X111928628Y-112231890D01*
X111990710Y-112045266D01*
X112015360Y-111850138D01*
X112015655Y-111829045D01*
X112015704Y-111825523D01*
X112015704Y-111825519D01*
X112015753Y-111822000D01*
X112014373Y-111807930D01*
X112540345Y-111807930D01*
X112556803Y-112003919D01*
X112558502Y-112009844D01*
X112605815Y-112174843D01*
X112611015Y-112192979D01*
X112613830Y-112198456D01*
X112613831Y-112198459D01*
X112697867Y-112361975D01*
X112700916Y-112367908D01*
X112704739Y-112372732D01*
X112704742Y-112372736D01*
X112816558Y-112513812D01*
X112823083Y-112522044D01*
X112827777Y-112526038D01*
X112827777Y-112526039D01*
X112954986Y-112634302D01*
X112972862Y-112649516D01*
X112978240Y-112652522D01*
X112978242Y-112652523D01*
X113002958Y-112666336D01*
X113144547Y-112745467D01*
X113331600Y-112806244D01*
X113526895Y-112829532D01*
X113533030Y-112829060D01*
X113533032Y-112829060D01*
X113716852Y-112814916D01*
X113716856Y-112814915D01*
X113722994Y-112814443D01*
X113912428Y-112761552D01*
X113917932Y-112758772D01*
X113917934Y-112758771D01*
X114082480Y-112675653D01*
X114082482Y-112675652D01*
X114087981Y-112672874D01*
X114242966Y-112551786D01*
X114246992Y-112547122D01*
X114246995Y-112547119D01*
X114367451Y-112407569D01*
X114367452Y-112407567D01*
X114371480Y-112402901D01*
X114468628Y-112231890D01*
X114530710Y-112045266D01*
X114555360Y-111850138D01*
X114555655Y-111829045D01*
X114555704Y-111825523D01*
X114555704Y-111825519D01*
X114555753Y-111822000D01*
X114554373Y-111807930D01*
X115080345Y-111807930D01*
X115096803Y-112003919D01*
X115098502Y-112009844D01*
X115145815Y-112174843D01*
X115151015Y-112192979D01*
X115153830Y-112198456D01*
X115153831Y-112198459D01*
X115237867Y-112361975D01*
X115240916Y-112367908D01*
X115244739Y-112372732D01*
X115244742Y-112372736D01*
X115356558Y-112513812D01*
X115363083Y-112522044D01*
X115367777Y-112526038D01*
X115367777Y-112526039D01*
X115494986Y-112634302D01*
X115512862Y-112649516D01*
X115518240Y-112652522D01*
X115518242Y-112652523D01*
X115542958Y-112666336D01*
X115684547Y-112745467D01*
X115871600Y-112806244D01*
X116066895Y-112829532D01*
X116073030Y-112829060D01*
X116073032Y-112829060D01*
X116256852Y-112814916D01*
X116256856Y-112814915D01*
X116262994Y-112814443D01*
X116452428Y-112761552D01*
X116457932Y-112758772D01*
X116457934Y-112758771D01*
X116622480Y-112675653D01*
X116622482Y-112675652D01*
X116627981Y-112672874D01*
X116782966Y-112551786D01*
X116786992Y-112547122D01*
X116786995Y-112547119D01*
X116907451Y-112407569D01*
X116907452Y-112407567D01*
X116911480Y-112402901D01*
X117008628Y-112231890D01*
X117070710Y-112045266D01*
X117095360Y-111850138D01*
X117095655Y-111829045D01*
X117095704Y-111825523D01*
X117095704Y-111825519D01*
X117095753Y-111822000D01*
X117076561Y-111626260D01*
X117019714Y-111437975D01*
X116949276Y-111305500D01*
X116930273Y-111269760D01*
X116930271Y-111269757D01*
X116927379Y-111264318D01*
X116923489Y-111259548D01*
X116923486Y-111259544D01*
X116806967Y-111116678D01*
X116806964Y-111116675D01*
X116803072Y-111111903D01*
X116791087Y-111101988D01*
X116656278Y-110990464D01*
X116656274Y-110990462D01*
X116651528Y-110986535D01*
X116478520Y-110892990D01*
X116460743Y-110887487D01*
X116444640Y-110882502D01*
X116385480Y-110843250D01*
X116356934Y-110778245D01*
X116355900Y-110762137D01*
X116355900Y-110201942D01*
X116375902Y-110133821D01*
X116429558Y-110087328D01*
X116444511Y-110081617D01*
X116446122Y-110081116D01*
X116455812Y-110079690D01*
X116561272Y-110027911D01*
X116644274Y-109944764D01*
X116687396Y-109856548D01*
X116691574Y-109848001D01*
X116691574Y-109848000D01*
X116695869Y-109839214D01*
X116705900Y-109770452D01*
X116705900Y-109303548D01*
X116705231Y-109299000D01*
X116705230Y-109298993D01*
X116697116Y-109243873D01*
X116697115Y-109243871D01*
X116695690Y-109234188D01*
X116687123Y-109216738D01*
X116653676Y-109148617D01*
X116643911Y-109128728D01*
X116560764Y-109045726D01*
X116514230Y-109022979D01*
X116464001Y-108998426D01*
X116464000Y-108998426D01*
X116455214Y-108994131D01*
X116445537Y-108992719D01*
X116445536Y-108992719D01*
X116427518Y-108990091D01*
X116386452Y-108984100D01*
X115769548Y-108984100D01*
X115765000Y-108984769D01*
X115764993Y-108984770D01*
X115709873Y-108992884D01*
X115709871Y-108992885D01*
X115700188Y-108994310D01*
X115691400Y-108998625D01*
X115691399Y-108998625D01*
X115654453Y-109016765D01*
X115594728Y-109046089D01*
X115511726Y-109129236D01*
X115507153Y-109138591D01*
X115464720Y-109225399D01*
X115460131Y-109234786D01*
X115458719Y-109244463D01*
X115458719Y-109244464D01*
X115456202Y-109261720D01*
X115450100Y-109303548D01*
X115450100Y-109770452D01*
X115450769Y-109775000D01*
X115450770Y-109775007D01*
X115457837Y-109823012D01*
X115460310Y-109839812D01*
X115512089Y-109945272D01*
X115595236Y-110028274D01*
X115700786Y-110079869D01*
X115710469Y-110081282D01*
X115711305Y-110081540D01*
X115770482Y-110120765D01*
X115799059Y-110185757D01*
X115800100Y-110201922D01*
X115800100Y-110767083D01*
X115780098Y-110835204D01*
X115721301Y-110883908D01*
X115716398Y-110885889D01*
X115710489Y-110887628D01*
X115705032Y-110890481D01*
X115705029Y-110890482D01*
X115648605Y-110919980D01*
X115536192Y-110978748D01*
X115382912Y-111101988D01*
X115378954Y-111106705D01*
X115378952Y-111106707D01*
X115330279Y-111164713D01*
X115256489Y-111252653D01*
X115161739Y-111425004D01*
X115159878Y-111430871D01*
X115159877Y-111430873D01*
X115158252Y-111435995D01*
X115102269Y-111612476D01*
X115080345Y-111807930D01*
X114554373Y-111807930D01*
X114536561Y-111626260D01*
X114479714Y-111437975D01*
X114409276Y-111305500D01*
X114390273Y-111269760D01*
X114390271Y-111269757D01*
X114387379Y-111264318D01*
X114383489Y-111259548D01*
X114383486Y-111259544D01*
X114266967Y-111116678D01*
X114266964Y-111116675D01*
X114263072Y-111111903D01*
X114251087Y-111101988D01*
X114116278Y-110990464D01*
X114116274Y-110990462D01*
X114111528Y-110986535D01*
X113938520Y-110892990D01*
X113920743Y-110887487D01*
X113904640Y-110882502D01*
X113845480Y-110843250D01*
X113816934Y-110778245D01*
X113815900Y-110762137D01*
X113815900Y-110201942D01*
X113835902Y-110133821D01*
X113889558Y-110087328D01*
X113904511Y-110081617D01*
X113906122Y-110081116D01*
X113915812Y-110079690D01*
X114021272Y-110027911D01*
X114104274Y-109944764D01*
X114147396Y-109856548D01*
X114151574Y-109848001D01*
X114151574Y-109848000D01*
X114155869Y-109839214D01*
X114165900Y-109770452D01*
X114165900Y-109303548D01*
X114165231Y-109299000D01*
X114165230Y-109298993D01*
X114157116Y-109243873D01*
X114157115Y-109243871D01*
X114155690Y-109234188D01*
X114147123Y-109216738D01*
X114113676Y-109148617D01*
X114103911Y-109128728D01*
X114020764Y-109045726D01*
X113974230Y-109022979D01*
X113924001Y-108998426D01*
X113924000Y-108998426D01*
X113915214Y-108994131D01*
X113905537Y-108992719D01*
X113905536Y-108992719D01*
X113887518Y-108990091D01*
X113846452Y-108984100D01*
X113229548Y-108984100D01*
X113225000Y-108984769D01*
X113224993Y-108984770D01*
X113169873Y-108992884D01*
X113169871Y-108992885D01*
X113160188Y-108994310D01*
X113151400Y-108998625D01*
X113151399Y-108998625D01*
X113114453Y-109016765D01*
X113054728Y-109046089D01*
X112971726Y-109129236D01*
X112967153Y-109138591D01*
X112924720Y-109225399D01*
X112920131Y-109234786D01*
X112918719Y-109244463D01*
X112918719Y-109244464D01*
X112916202Y-109261720D01*
X112910100Y-109303548D01*
X112910100Y-109770452D01*
X112910769Y-109775000D01*
X112910770Y-109775007D01*
X112917837Y-109823012D01*
X112920310Y-109839812D01*
X112972089Y-109945272D01*
X113055236Y-110028274D01*
X113160786Y-110079869D01*
X113170469Y-110081282D01*
X113171305Y-110081540D01*
X113230482Y-110120765D01*
X113259059Y-110185757D01*
X113260100Y-110201922D01*
X113260100Y-110767083D01*
X113240098Y-110835204D01*
X113181301Y-110883908D01*
X113176398Y-110885889D01*
X113170489Y-110887628D01*
X113165032Y-110890481D01*
X113165029Y-110890482D01*
X113108605Y-110919980D01*
X112996192Y-110978748D01*
X112842912Y-111101988D01*
X112838954Y-111106705D01*
X112838952Y-111106707D01*
X112790279Y-111164713D01*
X112716489Y-111252653D01*
X112621739Y-111425004D01*
X112619878Y-111430871D01*
X112619877Y-111430873D01*
X112618252Y-111435995D01*
X112562269Y-111612476D01*
X112540345Y-111807930D01*
X112014373Y-111807930D01*
X111996561Y-111626260D01*
X111939714Y-111437975D01*
X111869276Y-111305500D01*
X111850273Y-111269760D01*
X111850271Y-111269757D01*
X111847379Y-111264318D01*
X111843489Y-111259548D01*
X111843486Y-111259544D01*
X111726967Y-111116678D01*
X111726964Y-111116675D01*
X111723072Y-111111903D01*
X111711087Y-111101988D01*
X111576278Y-110990464D01*
X111576274Y-110990462D01*
X111571528Y-110986535D01*
X111398520Y-110892990D01*
X111380743Y-110887487D01*
X111364640Y-110882502D01*
X111305480Y-110843250D01*
X111276934Y-110778245D01*
X111275900Y-110762137D01*
X111275900Y-110201942D01*
X111295902Y-110133821D01*
X111349558Y-110087328D01*
X111364511Y-110081617D01*
X111366122Y-110081116D01*
X111375812Y-110079690D01*
X111481272Y-110027911D01*
X111564274Y-109944764D01*
X111607396Y-109856548D01*
X111611574Y-109848001D01*
X111611574Y-109848000D01*
X111615869Y-109839214D01*
X111625900Y-109770452D01*
X111625900Y-109303548D01*
X111625231Y-109299000D01*
X111625230Y-109298993D01*
X111617116Y-109243873D01*
X111617115Y-109243871D01*
X111615690Y-109234188D01*
X111607123Y-109216738D01*
X111573676Y-109148617D01*
X111563911Y-109128728D01*
X111480764Y-109045726D01*
X111434230Y-109022979D01*
X111384001Y-108998426D01*
X111384000Y-108998426D01*
X111375214Y-108994131D01*
X111365537Y-108992719D01*
X111365536Y-108992719D01*
X111347518Y-108990091D01*
X111306452Y-108984100D01*
X110689548Y-108984100D01*
X110685000Y-108984769D01*
X110684993Y-108984770D01*
X110629873Y-108992884D01*
X110629871Y-108992885D01*
X110620188Y-108994310D01*
X110611400Y-108998625D01*
X110611399Y-108998625D01*
X110574453Y-109016765D01*
X110514728Y-109046089D01*
X110431726Y-109129236D01*
X110427153Y-109138591D01*
X110384720Y-109225399D01*
X110380131Y-109234786D01*
X110378719Y-109244463D01*
X110378719Y-109244464D01*
X110376202Y-109261720D01*
X110370100Y-109303548D01*
X110370100Y-109770452D01*
X110370769Y-109775000D01*
X110370770Y-109775007D01*
X110377837Y-109823012D01*
X110380310Y-109839812D01*
X110432089Y-109945272D01*
X110515236Y-110028274D01*
X110620786Y-110079869D01*
X110630469Y-110081282D01*
X110631305Y-110081540D01*
X110690482Y-110120765D01*
X110719059Y-110185757D01*
X110720100Y-110201922D01*
X110720100Y-110767083D01*
X110700098Y-110835204D01*
X110641301Y-110883908D01*
X110636398Y-110885889D01*
X110630489Y-110887628D01*
X110625032Y-110890481D01*
X110625029Y-110890482D01*
X110568605Y-110919980D01*
X110456192Y-110978748D01*
X110302912Y-111101988D01*
X110298954Y-111106705D01*
X110298952Y-111106707D01*
X110250279Y-111164713D01*
X110176489Y-111252653D01*
X110081739Y-111425004D01*
X110079878Y-111430871D01*
X110079877Y-111430873D01*
X110041137Y-111552997D01*
X110001473Y-111611881D01*
X109936271Y-111639973D01*
X109866232Y-111628355D01*
X109813592Y-111580716D01*
X109798831Y-111545594D01*
X109759214Y-111387875D01*
X109755894Y-111378124D01*
X109670972Y-111182814D01*
X109666105Y-111173739D01*
X109550426Y-110994926D01*
X109544136Y-110986757D01*
X109400806Y-110829240D01*
X109393273Y-110822215D01*
X109226139Y-110690222D01*
X109217552Y-110684517D01*
X109031117Y-110581599D01*
X109021705Y-110577369D01*
X108820959Y-110506280D01*
X108810988Y-110503646D01*
X108739837Y-110490972D01*
X108726540Y-110492432D01*
X108722000Y-110506989D01*
X108722000Y-115701884D01*
X108214000Y-115701884D01*
X108214000Y-110505102D01*
X108210082Y-110491758D01*
X108195806Y-110489771D01*
X108157324Y-110495660D01*
X108147288Y-110498051D01*
X107944868Y-110564212D01*
X107935359Y-110568209D01*
X107746463Y-110666542D01*
X107737738Y-110672036D01*
X107627822Y-110754564D01*
X107561337Y-110779470D01*
X107491942Y-110764478D01*
X107441668Y-110714347D01*
X107426169Y-110653804D01*
X107426169Y-108120452D01*
X110370100Y-108120452D01*
X110370769Y-108125000D01*
X110370770Y-108125007D01*
X110378797Y-108179536D01*
X110380310Y-108189812D01*
X110384625Y-108198600D01*
X110384625Y-108198601D01*
X110388813Y-108207130D01*
X110432089Y-108295272D01*
X110515236Y-108378274D01*
X110524591Y-108382847D01*
X110611999Y-108425574D01*
X110612000Y-108425574D01*
X110620786Y-108429869D01*
X110630463Y-108431281D01*
X110630464Y-108431281D01*
X110648482Y-108433909D01*
X110689548Y-108439900D01*
X111306452Y-108439900D01*
X111311000Y-108439231D01*
X111311007Y-108439230D01*
X111366127Y-108431116D01*
X111366129Y-108431115D01*
X111375812Y-108429690D01*
X111388813Y-108423307D01*
X111450719Y-108392912D01*
X111481272Y-108377911D01*
X111564274Y-108294764D01*
X111585406Y-108251533D01*
X111611574Y-108198001D01*
X111611574Y-108198000D01*
X111615869Y-108189214D01*
X111625900Y-108120452D01*
X112910100Y-108120452D01*
X112910769Y-108125000D01*
X112910770Y-108125007D01*
X112918797Y-108179536D01*
X112920310Y-108189812D01*
X112924625Y-108198600D01*
X112924625Y-108198601D01*
X112928813Y-108207130D01*
X112972089Y-108295272D01*
X113055236Y-108378274D01*
X113064591Y-108382847D01*
X113151999Y-108425574D01*
X113152000Y-108425574D01*
X113160786Y-108429869D01*
X113170463Y-108431281D01*
X113170464Y-108431281D01*
X113188482Y-108433909D01*
X113229548Y-108439900D01*
X113846452Y-108439900D01*
X113851000Y-108439231D01*
X113851007Y-108439230D01*
X113906127Y-108431116D01*
X113906129Y-108431115D01*
X113915812Y-108429690D01*
X113928813Y-108423307D01*
X113990719Y-108392912D01*
X114021272Y-108377911D01*
X114104274Y-108294764D01*
X114125406Y-108251533D01*
X114151574Y-108198001D01*
X114151574Y-108198000D01*
X114155869Y-108189214D01*
X114165900Y-108120452D01*
X115450100Y-108120452D01*
X115450769Y-108125000D01*
X115450770Y-108125007D01*
X115458797Y-108179536D01*
X115460310Y-108189812D01*
X115464625Y-108198600D01*
X115464625Y-108198601D01*
X115468813Y-108207130D01*
X115512089Y-108295272D01*
X115595236Y-108378274D01*
X115604591Y-108382847D01*
X115691999Y-108425574D01*
X115692000Y-108425574D01*
X115700786Y-108429869D01*
X115710463Y-108431281D01*
X115710464Y-108431281D01*
X115728482Y-108433909D01*
X115769548Y-108439900D01*
X116386452Y-108439900D01*
X116391000Y-108439231D01*
X116391007Y-108439230D01*
X116446127Y-108431116D01*
X116446129Y-108431115D01*
X116455812Y-108429690D01*
X116468813Y-108423307D01*
X116530719Y-108392912D01*
X116561272Y-108377911D01*
X116644274Y-108294764D01*
X116665406Y-108251533D01*
X116691574Y-108198001D01*
X116691574Y-108198000D01*
X116695869Y-108189214D01*
X116705900Y-108120452D01*
X116705900Y-107653548D01*
X116705231Y-107649000D01*
X116705230Y-107648993D01*
X116698773Y-107605135D01*
X116695690Y-107584188D01*
X116691373Y-107575396D01*
X116691372Y-107575392D01*
X116687570Y-107567648D01*
X116675501Y-107497685D01*
X116703174Y-107432303D01*
X116711577Y-107423021D01*
X122864675Y-101269923D01*
X122926987Y-101235897D01*
X122997802Y-101240962D01*
X123005018Y-101243911D01*
X123067965Y-101271937D01*
X123067973Y-101271940D01*
X123074000Y-101274623D01*
X123170670Y-101295171D01*
X123260883Y-101314347D01*
X123260888Y-101314347D01*
X123267340Y-101315719D01*
X123464998Y-101315719D01*
X123471450Y-101314347D01*
X123471455Y-101314347D01*
X123561668Y-101295171D01*
X123658338Y-101274623D01*
X123664371Y-101271937D01*
X123832879Y-101196913D01*
X123832881Y-101196912D01*
X123838909Y-101194228D01*
X123998818Y-101078047D01*
X124131078Y-100931158D01*
X124134378Y-100925442D01*
X124134381Y-100925438D01*
X124226603Y-100765703D01*
X124226604Y-100765702D01*
X124229907Y-100759980D01*
X124290987Y-100571995D01*
X124311648Y-100375419D01*
X124290987Y-100178843D01*
X124229907Y-99990858D01*
X124226603Y-99985135D01*
X124134381Y-99825400D01*
X124134378Y-99825396D01*
X124131078Y-99819680D01*
X123998818Y-99672791D01*
X123838909Y-99556610D01*
X123832881Y-99553926D01*
X123832879Y-99553925D01*
X123664369Y-99478900D01*
X123664368Y-99478900D01*
X123658338Y-99476215D01*
X123561668Y-99455667D01*
X123471455Y-99436491D01*
X123471450Y-99436491D01*
X123464998Y-99435119D01*
X123267340Y-99435119D01*
X123260888Y-99436491D01*
X123260883Y-99436491D01*
X123170670Y-99455667D01*
X123074000Y-99476215D01*
X123067970Y-99478900D01*
X123067969Y-99478900D01*
X122899460Y-99553925D01*
X122899458Y-99553926D01*
X122893430Y-99556610D01*
X122733520Y-99672791D01*
X122601260Y-99819680D01*
X122597960Y-99825396D01*
X122597957Y-99825400D01*
X122505735Y-99985135D01*
X122502431Y-99990858D01*
X122441351Y-100178843D01*
X122420690Y-100375419D01*
X122441351Y-100571995D01*
X122443391Y-100578272D01*
X122443391Y-100578274D01*
X122499702Y-100751583D01*
X122501729Y-100822551D01*
X122468964Y-100879614D01*
X116051383Y-107297195D01*
X115989071Y-107331221D01*
X115962288Y-107334100D01*
X115769548Y-107334100D01*
X115765000Y-107334769D01*
X115764993Y-107334770D01*
X115709873Y-107342884D01*
X115709871Y-107342885D01*
X115700188Y-107344310D01*
X115594728Y-107396089D01*
X115511726Y-107479236D01*
X115460131Y-107584786D01*
X115450100Y-107653548D01*
X115450100Y-108120452D01*
X114165900Y-108120452D01*
X114165900Y-107653548D01*
X114165231Y-107649000D01*
X114165230Y-107648993D01*
X114158773Y-107605135D01*
X114155690Y-107584188D01*
X114151373Y-107575396D01*
X114151372Y-107575392D01*
X114147570Y-107567648D01*
X114135501Y-107497685D01*
X114163174Y-107432303D01*
X114171577Y-107423021D01*
X122864675Y-98729923D01*
X122926987Y-98695897D01*
X122997802Y-98700962D01*
X123005018Y-98703911D01*
X123067965Y-98731937D01*
X123067973Y-98731940D01*
X123074000Y-98734623D01*
X123170670Y-98755171D01*
X123260883Y-98774347D01*
X123260888Y-98774347D01*
X123267340Y-98775719D01*
X123464998Y-98775719D01*
X123471450Y-98774347D01*
X123471455Y-98774347D01*
X123561668Y-98755171D01*
X123658338Y-98734623D01*
X123664371Y-98731937D01*
X123832879Y-98656913D01*
X123832881Y-98656912D01*
X123838909Y-98654228D01*
X123998818Y-98538047D01*
X124131078Y-98391158D01*
X124134378Y-98385442D01*
X124134381Y-98385438D01*
X124226603Y-98225703D01*
X124226604Y-98225702D01*
X124229907Y-98219980D01*
X124290987Y-98031995D01*
X124311648Y-97835419D01*
X124290987Y-97638843D01*
X124229907Y-97450858D01*
X124226603Y-97445135D01*
X124134381Y-97285400D01*
X124134378Y-97285396D01*
X124131078Y-97279680D01*
X123998818Y-97132791D01*
X123875960Y-97043529D01*
X123844251Y-97020491D01*
X123844250Y-97020490D01*
X123838909Y-97016610D01*
X123832881Y-97013926D01*
X123832879Y-97013925D01*
X123664369Y-96938900D01*
X123664368Y-96938900D01*
X123658338Y-96936215D01*
X123543005Y-96911700D01*
X123471455Y-96896491D01*
X123471450Y-96896491D01*
X123464998Y-96895119D01*
X123267340Y-96895119D01*
X123260888Y-96896491D01*
X123260883Y-96896491D01*
X123189333Y-96911700D01*
X123074000Y-96936215D01*
X123067970Y-96938900D01*
X123067969Y-96938900D01*
X122899460Y-97013925D01*
X122899458Y-97013926D01*
X122893430Y-97016610D01*
X122888089Y-97020490D01*
X122888088Y-97020491D01*
X122778787Y-97099903D01*
X122733520Y-97132791D01*
X122601260Y-97279680D01*
X122597960Y-97285396D01*
X122597957Y-97285400D01*
X122505735Y-97445135D01*
X122502431Y-97450858D01*
X122441351Y-97638843D01*
X122420690Y-97835419D01*
X122441351Y-98031995D01*
X122443391Y-98038272D01*
X122443391Y-98038274D01*
X122499702Y-98211583D01*
X122501729Y-98282551D01*
X122468964Y-98339614D01*
X113511383Y-107297195D01*
X113449071Y-107331221D01*
X113422288Y-107334100D01*
X113229548Y-107334100D01*
X113225000Y-107334769D01*
X113224993Y-107334770D01*
X113169873Y-107342884D01*
X113169871Y-107342885D01*
X113160188Y-107344310D01*
X113054728Y-107396089D01*
X112971726Y-107479236D01*
X112920131Y-107584786D01*
X112910100Y-107653548D01*
X112910100Y-108120452D01*
X111625900Y-108120452D01*
X111625900Y-107653548D01*
X111625231Y-107649000D01*
X111625230Y-107648993D01*
X111618773Y-107605135D01*
X111615690Y-107584188D01*
X111611373Y-107575396D01*
X111611372Y-107575392D01*
X111607570Y-107567648D01*
X111595501Y-107497685D01*
X111623174Y-107432303D01*
X111631577Y-107423021D01*
X122864675Y-96189923D01*
X122926987Y-96155897D01*
X122997802Y-96160962D01*
X123005018Y-96163911D01*
X123067965Y-96191937D01*
X123067973Y-96191940D01*
X123074000Y-96194623D01*
X123170670Y-96215171D01*
X123260883Y-96234347D01*
X123260888Y-96234347D01*
X123267340Y-96235719D01*
X123464998Y-96235719D01*
X123471450Y-96234347D01*
X123471455Y-96234347D01*
X123561668Y-96215171D01*
X123658338Y-96194623D01*
X123664371Y-96191937D01*
X123832879Y-96116913D01*
X123832881Y-96116912D01*
X123838909Y-96114228D01*
X123998818Y-95998047D01*
X124131078Y-95851158D01*
X124134378Y-95845442D01*
X124134381Y-95845438D01*
X124226603Y-95685703D01*
X124226604Y-95685702D01*
X124229907Y-95679980D01*
X124290987Y-95491995D01*
X124311648Y-95295419D01*
X124290987Y-95098843D01*
X124229907Y-94910858D01*
X124226603Y-94905135D01*
X124134381Y-94745400D01*
X124134378Y-94745396D01*
X124131078Y-94739680D01*
X123998818Y-94592791D01*
X123838909Y-94476610D01*
X123832881Y-94473926D01*
X123832879Y-94473925D01*
X123664369Y-94398900D01*
X123664368Y-94398900D01*
X123658338Y-94396215D01*
X123561668Y-94375667D01*
X123471455Y-94356491D01*
X123471450Y-94356491D01*
X123464998Y-94355119D01*
X123267340Y-94355119D01*
X123260888Y-94356491D01*
X123260883Y-94356491D01*
X123170670Y-94375667D01*
X123074000Y-94396215D01*
X123067970Y-94398900D01*
X123067969Y-94398900D01*
X122899460Y-94473925D01*
X122899458Y-94473926D01*
X122893430Y-94476610D01*
X122733520Y-94592791D01*
X122601260Y-94739680D01*
X122597960Y-94745396D01*
X122597957Y-94745400D01*
X122505735Y-94905135D01*
X122502431Y-94910858D01*
X122441351Y-95098843D01*
X122420690Y-95295419D01*
X122441351Y-95491995D01*
X122443391Y-95498272D01*
X122443391Y-95498274D01*
X122499702Y-95671583D01*
X122501729Y-95742551D01*
X122468964Y-95799614D01*
X110971383Y-107297195D01*
X110909071Y-107331221D01*
X110882288Y-107334100D01*
X110689548Y-107334100D01*
X110685000Y-107334769D01*
X110684993Y-107334770D01*
X110629873Y-107342884D01*
X110629871Y-107342885D01*
X110620188Y-107344310D01*
X110514728Y-107396089D01*
X110431726Y-107479236D01*
X110380131Y-107584786D01*
X110370100Y-107653548D01*
X110370100Y-108120452D01*
X107426169Y-108120452D01*
X107426169Y-92755419D01*
X122420690Y-92755419D01*
X122441351Y-92951995D01*
X122502431Y-93139980D01*
X122505734Y-93145702D01*
X122505735Y-93145703D01*
X122597957Y-93305438D01*
X122597960Y-93305442D01*
X122601260Y-93311158D01*
X122733520Y-93458047D01*
X122893429Y-93574228D01*
X122899457Y-93576912D01*
X122899459Y-93576913D01*
X123067969Y-93651938D01*
X123074000Y-93654623D01*
X123170670Y-93675171D01*
X123260883Y-93694347D01*
X123260888Y-93694347D01*
X123267340Y-93695719D01*
X123464998Y-93695719D01*
X123471450Y-93694347D01*
X123471455Y-93694347D01*
X123561668Y-93675171D01*
X123658338Y-93654623D01*
X123664369Y-93651938D01*
X123832879Y-93576913D01*
X123832881Y-93576912D01*
X123838909Y-93574228D01*
X123998818Y-93458047D01*
X124131078Y-93311158D01*
X124134378Y-93305442D01*
X124134381Y-93305438D01*
X124226603Y-93145703D01*
X124226604Y-93145702D01*
X124229907Y-93139980D01*
X124290987Y-92951995D01*
X124311648Y-92755419D01*
X124290987Y-92558843D01*
X124229907Y-92370858D01*
X124226603Y-92365135D01*
X124134381Y-92205400D01*
X124134378Y-92205396D01*
X124131078Y-92199680D01*
X123998818Y-92052791D01*
X123838909Y-91936610D01*
X123832881Y-91933926D01*
X123832879Y-91933925D01*
X123664369Y-91858900D01*
X123664368Y-91858900D01*
X123658338Y-91856215D01*
X123561668Y-91835667D01*
X123471455Y-91816491D01*
X123471450Y-91816491D01*
X123464998Y-91815119D01*
X123267340Y-91815119D01*
X123260888Y-91816491D01*
X123260883Y-91816491D01*
X123170670Y-91835667D01*
X123074000Y-91856215D01*
X123067970Y-91858900D01*
X123067969Y-91858900D01*
X122899460Y-91933925D01*
X122899458Y-91933926D01*
X122893430Y-91936610D01*
X122733520Y-92052791D01*
X122601260Y-92199680D01*
X122597960Y-92205396D01*
X122597957Y-92205400D01*
X122505735Y-92365135D01*
X122502431Y-92370858D01*
X122441351Y-92558843D01*
X122420690Y-92755419D01*
X107426169Y-92755419D01*
X107426169Y-90215419D01*
X122420690Y-90215419D01*
X122441351Y-90411995D01*
X122502431Y-90599980D01*
X122505734Y-90605702D01*
X122505735Y-90605703D01*
X122597957Y-90765438D01*
X122597960Y-90765442D01*
X122601260Y-90771158D01*
X122733520Y-90918047D01*
X122893429Y-91034228D01*
X122899457Y-91036912D01*
X122899459Y-91036913D01*
X123067969Y-91111938D01*
X123074000Y-91114623D01*
X123170670Y-91135171D01*
X123260883Y-91154347D01*
X123260888Y-91154347D01*
X123267340Y-91155719D01*
X123464998Y-91155719D01*
X123471450Y-91154347D01*
X123471455Y-91154347D01*
X123561668Y-91135171D01*
X123658338Y-91114623D01*
X123664369Y-91111938D01*
X123832879Y-91036913D01*
X123832881Y-91036912D01*
X123838909Y-91034228D01*
X123998818Y-90918047D01*
X124131078Y-90771158D01*
X124134378Y-90765442D01*
X124134381Y-90765438D01*
X124226603Y-90605703D01*
X124226604Y-90605702D01*
X124229907Y-90599980D01*
X124290987Y-90411995D01*
X124311648Y-90215419D01*
X124290987Y-90018843D01*
X124229907Y-89830858D01*
X124226603Y-89825135D01*
X124134381Y-89665400D01*
X124134378Y-89665396D01*
X124131078Y-89659680D01*
X123998818Y-89512791D01*
X123838909Y-89396610D01*
X123832881Y-89393926D01*
X123832879Y-89393925D01*
X123664369Y-89318900D01*
X123664368Y-89318900D01*
X123658338Y-89316215D01*
X123561668Y-89295667D01*
X123471455Y-89276491D01*
X123471450Y-89276491D01*
X123464998Y-89275119D01*
X123267340Y-89275119D01*
X123260888Y-89276491D01*
X123260883Y-89276491D01*
X123170670Y-89295667D01*
X123074000Y-89316215D01*
X123067970Y-89318900D01*
X123067969Y-89318900D01*
X122899460Y-89393925D01*
X122899458Y-89393926D01*
X122893430Y-89396610D01*
X122733520Y-89512791D01*
X122601260Y-89659680D01*
X122597960Y-89665396D01*
X122597957Y-89665400D01*
X122505735Y-89825135D01*
X122502431Y-89830858D01*
X122441351Y-90018843D01*
X122420690Y-90215419D01*
X107426169Y-90215419D01*
X107426169Y-87675419D01*
X122420690Y-87675419D01*
X122441351Y-87871995D01*
X122502431Y-88059980D01*
X122505734Y-88065702D01*
X122505735Y-88065703D01*
X122597957Y-88225438D01*
X122597960Y-88225442D01*
X122601260Y-88231158D01*
X122733520Y-88378047D01*
X122893429Y-88494228D01*
X122899457Y-88496912D01*
X122899459Y-88496913D01*
X122953917Y-88521159D01*
X123074000Y-88574623D01*
X123170670Y-88595171D01*
X123260883Y-88614347D01*
X123260888Y-88614347D01*
X123267340Y-88615719D01*
X123464998Y-88615719D01*
X123471450Y-88614347D01*
X123471455Y-88614347D01*
X123561668Y-88595171D01*
X123658338Y-88574623D01*
X123778421Y-88521159D01*
X123832879Y-88496913D01*
X123832881Y-88496912D01*
X123838909Y-88494228D01*
X123998818Y-88378047D01*
X124131078Y-88231158D01*
X124134378Y-88225442D01*
X124134381Y-88225438D01*
X124226603Y-88065703D01*
X124226604Y-88065702D01*
X124229907Y-88059980D01*
X124290987Y-87871995D01*
X124311648Y-87675419D01*
X124290987Y-87478843D01*
X124229907Y-87290858D01*
X124226603Y-87285135D01*
X124134381Y-87125400D01*
X124134378Y-87125396D01*
X124131078Y-87119680D01*
X123998818Y-86972791D01*
X123838909Y-86856610D01*
X123832881Y-86853926D01*
X123832879Y-86853925D01*
X123664369Y-86778900D01*
X123664368Y-86778900D01*
X123658338Y-86776215D01*
X123561668Y-86755667D01*
X123471455Y-86736491D01*
X123471450Y-86736491D01*
X123464998Y-86735119D01*
X123267340Y-86735119D01*
X123260888Y-86736491D01*
X123260883Y-86736491D01*
X123170670Y-86755667D01*
X123074000Y-86776215D01*
X123067970Y-86778900D01*
X123067969Y-86778900D01*
X122899460Y-86853925D01*
X122899458Y-86853926D01*
X122893430Y-86856610D01*
X122733520Y-86972791D01*
X122601260Y-87119680D01*
X122597960Y-87125396D01*
X122597957Y-87125400D01*
X122505735Y-87285135D01*
X122502431Y-87290858D01*
X122441351Y-87478843D01*
X122420690Y-87675419D01*
X107426169Y-87675419D01*
X107426169Y-85724359D01*
X107446171Y-85656238D01*
X107463074Y-85635264D01*
X108426169Y-84672169D01*
X108426169Y-77748999D01*
X129518281Y-77748999D01*
X129535858Y-77928268D01*
X129592716Y-78099189D01*
X129596365Y-78105214D01*
X129681635Y-78246011D01*
X129686028Y-78253265D01*
X129690919Y-78258330D01*
X129690920Y-78258331D01*
X129728193Y-78296928D01*
X129811156Y-78382839D01*
X129961882Y-78481471D01*
X130007055Y-78498271D01*
X130124112Y-78541805D01*
X130124114Y-78541806D01*
X130130714Y-78544260D01*
X130137692Y-78545191D01*
X130137696Y-78545192D01*
X130206021Y-78554308D01*
X130309261Y-78568083D01*
X130316272Y-78567445D01*
X130316276Y-78567445D01*
X130481628Y-78552396D01*
X130488649Y-78551757D01*
X130495351Y-78549579D01*
X130495353Y-78549579D01*
X130653263Y-78498271D01*
X130653266Y-78498270D01*
X130659962Y-78496094D01*
X130680376Y-78483925D01*
X130726657Y-78456336D01*
X130795412Y-78438636D01*
X130862821Y-78460918D01*
X130907483Y-78516107D01*
X130915218Y-78586681D01*
X130897085Y-78632821D01*
X130872465Y-78671024D01*
X130810857Y-78840290D01*
X130809974Y-78847278D01*
X130809974Y-78847279D01*
X130808586Y-78858270D01*
X130788281Y-79018999D01*
X130805858Y-79198268D01*
X130862716Y-79369189D01*
X130956028Y-79523265D01*
X131081156Y-79652839D01*
X131231882Y-79751471D01*
X131277055Y-79768271D01*
X131394112Y-79811805D01*
X131394114Y-79811806D01*
X131400714Y-79814260D01*
X131407692Y-79815191D01*
X131407696Y-79815192D01*
X131478527Y-79824642D01*
X131579261Y-79838083D01*
X131586272Y-79837445D01*
X131586276Y-79837445D01*
X131751628Y-79822396D01*
X131758649Y-79821757D01*
X131765351Y-79819579D01*
X131765353Y-79819579D01*
X131923263Y-79768271D01*
X131923266Y-79768270D01*
X131929962Y-79766094D01*
X132084686Y-79673860D01*
X132215131Y-79549640D01*
X132299822Y-79422169D01*
X132310912Y-79405478D01*
X132310913Y-79405476D01*
X132314813Y-79399606D01*
X132378778Y-79231216D01*
X132392331Y-79134783D01*
X132403296Y-79056763D01*
X132403296Y-79056758D01*
X132403847Y-79052840D01*
X132404162Y-79030280D01*
X132386660Y-78874244D01*
X132384868Y-78858270D01*
X132384868Y-78858269D01*
X132384083Y-78851273D01*
X132381768Y-78844626D01*
X132381766Y-78844616D01*
X132342067Y-78730617D01*
X132338553Y-78659708D01*
X132373934Y-78598155D01*
X132436977Y-78565503D01*
X132461058Y-78563180D01*
X133494580Y-78563179D01*
X133531238Y-78563179D01*
X133547892Y-78559867D01*
X133563665Y-78556730D01*
X133563667Y-78556729D01*
X133575840Y-78554308D01*
X133626416Y-78520514D01*
X133633309Y-78510198D01*
X133653317Y-78480255D01*
X133653318Y-78480252D01*
X133660210Y-78469938D01*
X133669082Y-78425337D01*
X133669081Y-77095224D01*
X133660210Y-77050622D01*
X133651676Y-77037849D01*
X133633309Y-77010362D01*
X133626416Y-77000046D01*
X133607061Y-76987113D01*
X133586157Y-76973145D01*
X133586154Y-76973144D01*
X133575840Y-76966252D01*
X133563673Y-76963832D01*
X133563671Y-76963831D01*
X133542887Y-76959697D01*
X133531239Y-76957380D01*
X132866290Y-76957380D01*
X132201126Y-76957381D01*
X132189482Y-76959697D01*
X132168699Y-76963830D01*
X132168697Y-76963831D01*
X132156524Y-76966252D01*
X132105948Y-77000046D01*
X132099055Y-77010362D01*
X132079047Y-77040305D01*
X132079046Y-77040308D01*
X132072154Y-77050622D01*
X132063282Y-77095223D01*
X132063283Y-77734077D01*
X132063283Y-78165660D01*
X132043281Y-78233781D01*
X131989625Y-78280274D01*
X131919351Y-78290378D01*
X131895017Y-78284359D01*
X131787323Y-78246011D01*
X131787318Y-78246010D01*
X131780685Y-78243648D01*
X131773697Y-78242815D01*
X131773694Y-78242814D01*
X131652639Y-78228379D01*
X131601823Y-78222320D01*
X131594820Y-78223056D01*
X131594819Y-78223056D01*
X131550269Y-78227738D01*
X131422680Y-78241148D01*
X131416012Y-78243418D01*
X131258828Y-78296928D01*
X131258825Y-78296929D01*
X131252161Y-78299198D01*
X131203739Y-78328987D01*
X131199011Y-78331896D01*
X131130510Y-78350555D01*
X131062796Y-78329217D01*
X131017367Y-78274657D01*
X131008647Y-78204198D01*
X131028039Y-78154853D01*
X131040913Y-78135476D01*
X131044813Y-78129606D01*
X131108778Y-77961216D01*
X131131426Y-77800068D01*
X131133296Y-77786763D01*
X131133296Y-77786758D01*
X131133847Y-77782840D01*
X131134162Y-77760280D01*
X131114083Y-77581273D01*
X131097264Y-77532974D01*
X131057160Y-77417810D01*
X131057159Y-77417808D01*
X131054845Y-77411163D01*
X131051114Y-77405192D01*
X130963123Y-77264377D01*
X130963122Y-77264375D01*
X130959391Y-77258405D01*
X130950031Y-77248979D01*
X130837430Y-77135591D01*
X130832465Y-77130591D01*
X130826522Y-77126819D01*
X130826519Y-77126817D01*
X130725630Y-77062791D01*
X130680377Y-77034072D01*
X130673738Y-77031708D01*
X130673736Y-77031707D01*
X130517320Y-76976010D01*
X130517315Y-76976009D01*
X130510685Y-76973648D01*
X130503697Y-76972815D01*
X130503694Y-76972814D01*
X130374257Y-76957380D01*
X130331823Y-76952320D01*
X130324820Y-76953056D01*
X130324819Y-76953056D01*
X130283669Y-76957381D01*
X130152680Y-76971148D01*
X130146012Y-76973418D01*
X129988828Y-77026928D01*
X129988825Y-77026929D01*
X129982161Y-77029198D01*
X129828740Y-77123583D01*
X129823709Y-77128509D01*
X129823706Y-77128512D01*
X129801448Y-77150309D01*
X129700042Y-77249613D01*
X129602465Y-77401024D01*
X129600056Y-77407644D01*
X129600055Y-77407645D01*
X129581733Y-77457984D01*
X129540857Y-77570290D01*
X129539974Y-77577278D01*
X129539974Y-77577279D01*
X129538586Y-77588270D01*
X129518281Y-77748999D01*
X108426169Y-77748999D01*
X108426169Y-77514946D01*
X113555946Y-77514946D01*
X113565243Y-77526962D01*
X113608238Y-77557067D01*
X113617724Y-77562545D01*
X113809162Y-77651814D01*
X113819454Y-77655560D01*
X114023478Y-77710228D01*
X114034273Y-77712131D01*
X114244694Y-77730541D01*
X114255644Y-77730541D01*
X114466065Y-77712131D01*
X114476860Y-77710228D01*
X114680884Y-77655560D01*
X114691176Y-77651814D01*
X114882614Y-77562545D01*
X114892100Y-77557067D01*
X114935933Y-77526376D01*
X114944308Y-77515898D01*
X114937240Y-77502450D01*
X114262981Y-76828191D01*
X114249037Y-76820577D01*
X114247204Y-76820708D01*
X114240589Y-76824959D01*
X113562376Y-77503172D01*
X113555946Y-77514946D01*
X108426169Y-77514946D01*
X108426169Y-76461644D01*
X112975797Y-76461644D01*
X112994207Y-76672065D01*
X112996110Y-76682860D01*
X113050778Y-76886884D01*
X113054524Y-76897176D01*
X113143792Y-77088610D01*
X113149272Y-77098101D01*
X113179963Y-77141934D01*
X113190440Y-77150309D01*
X113203887Y-77143241D01*
X113878147Y-76468981D01*
X113884525Y-76457301D01*
X114614577Y-76457301D01*
X114614708Y-76459134D01*
X114618959Y-76465749D01*
X115297172Y-77143962D01*
X115308946Y-77150392D01*
X115320962Y-77141095D01*
X115351066Y-77098101D01*
X115356546Y-77088610D01*
X115445814Y-76897176D01*
X115449560Y-76886884D01*
X115504228Y-76682860D01*
X115506131Y-76672065D01*
X115524541Y-76461644D01*
X115524541Y-76456169D01*
X118330229Y-76456169D01*
X118350332Y-76647435D01*
X118352372Y-76653713D01*
X118352372Y-76653714D01*
X118361777Y-76682660D01*
X118409762Y-76830342D01*
X118505922Y-76996896D01*
X118510340Y-77001803D01*
X118510341Y-77001804D01*
X118619991Y-77123583D01*
X118634609Y-77139818D01*
X118639951Y-77143699D01*
X118639953Y-77143701D01*
X118784857Y-77248979D01*
X118790199Y-77252860D01*
X118796227Y-77255544D01*
X118796229Y-77255545D01*
X118802653Y-77258405D01*
X118965892Y-77331084D01*
X119059951Y-77351077D01*
X119147552Y-77369697D01*
X119147556Y-77369697D01*
X119154009Y-77371069D01*
X119346329Y-77371069D01*
X119352782Y-77369697D01*
X119352786Y-77369697D01*
X119440387Y-77351077D01*
X119534446Y-77331084D01*
X119697685Y-77258405D01*
X119704109Y-77255545D01*
X119704111Y-77255544D01*
X119710139Y-77252860D01*
X119715481Y-77248979D01*
X119860385Y-77143701D01*
X119860387Y-77143699D01*
X119865729Y-77139818D01*
X119880347Y-77123583D01*
X119989997Y-77001804D01*
X119989998Y-77001803D01*
X119994416Y-76996896D01*
X120090576Y-76830342D01*
X120138561Y-76682660D01*
X120147966Y-76653714D01*
X120147966Y-76653713D01*
X120150006Y-76647435D01*
X120170109Y-76456169D01*
X120150006Y-76264903D01*
X120147674Y-76257724D01*
X120092618Y-76088281D01*
X120090576Y-76081996D01*
X119994416Y-75915442D01*
X119920383Y-75833219D01*
X119870151Y-75777431D01*
X119870150Y-75777430D01*
X119865729Y-75772520D01*
X119860387Y-75768639D01*
X119860385Y-75768637D01*
X119715481Y-75663359D01*
X119715480Y-75663358D01*
X119710139Y-75659478D01*
X119704111Y-75656794D01*
X119704109Y-75656793D01*
X119540477Y-75583939D01*
X119540475Y-75583938D01*
X119534446Y-75581254D01*
X119440387Y-75561261D01*
X119352786Y-75542641D01*
X119352782Y-75542641D01*
X119346329Y-75541269D01*
X119154009Y-75541269D01*
X119147556Y-75542641D01*
X119147552Y-75542641D01*
X119059951Y-75561261D01*
X118965892Y-75581254D01*
X118959863Y-75583938D01*
X118959861Y-75583939D01*
X118796229Y-75656793D01*
X118796227Y-75656794D01*
X118790199Y-75659478D01*
X118784858Y-75663358D01*
X118784857Y-75663359D01*
X118639953Y-75768637D01*
X118639951Y-75768639D01*
X118634609Y-75772520D01*
X118630188Y-75777430D01*
X118630187Y-75777431D01*
X118579956Y-75833219D01*
X118505922Y-75915442D01*
X118409762Y-76081996D01*
X118407720Y-76088281D01*
X118352665Y-76257724D01*
X118350332Y-76264903D01*
X118330229Y-76456169D01*
X115524541Y-76456169D01*
X115524541Y-76450694D01*
X115506131Y-76240273D01*
X115504228Y-76229478D01*
X115449560Y-76025454D01*
X115445814Y-76015162D01*
X115356546Y-75823728D01*
X115351066Y-75814237D01*
X115320375Y-75770404D01*
X115309898Y-75762029D01*
X115296451Y-75769097D01*
X114622191Y-76443357D01*
X114614577Y-76457301D01*
X113884525Y-76457301D01*
X113885761Y-76455037D01*
X113885630Y-76453204D01*
X113881379Y-76446589D01*
X113203166Y-75768376D01*
X113191392Y-75761946D01*
X113179376Y-75771243D01*
X113149272Y-75814237D01*
X113143792Y-75823728D01*
X113054524Y-76015162D01*
X113050778Y-76025454D01*
X112996110Y-76229478D01*
X112994207Y-76240273D01*
X112975797Y-76450694D01*
X112975797Y-76461644D01*
X108426169Y-76461644D01*
X108426169Y-75396440D01*
X113556029Y-75396440D01*
X113563097Y-75409887D01*
X114237357Y-76084147D01*
X114251301Y-76091761D01*
X114253134Y-76091630D01*
X114259749Y-76087379D01*
X114937962Y-75409166D01*
X114944392Y-75397392D01*
X114935095Y-75385376D01*
X114892100Y-75355271D01*
X114882614Y-75349793D01*
X114691176Y-75260524D01*
X114680884Y-75256778D01*
X114476860Y-75202110D01*
X114466065Y-75200207D01*
X114255644Y-75181797D01*
X114244694Y-75181797D01*
X114034273Y-75200207D01*
X114023478Y-75202110D01*
X113819454Y-75256778D01*
X113809162Y-75260524D01*
X113617728Y-75349792D01*
X113608237Y-75355272D01*
X113564404Y-75385963D01*
X113556029Y-75396440D01*
X108426169Y-75396440D01*
X108426169Y-66252193D01*
X117423637Y-66252193D01*
X117444233Y-66487601D01*
X117505393Y-66715856D01*
X117507715Y-66720836D01*
X117507716Y-66720838D01*
X117598036Y-66914527D01*
X117605261Y-66930022D01*
X117740801Y-67123594D01*
X117907895Y-67290688D01*
X118101467Y-67426228D01*
X118106445Y-67428549D01*
X118106448Y-67428551D01*
X118310651Y-67523773D01*
X118315633Y-67526096D01*
X118320941Y-67527518D01*
X118320943Y-67527519D01*
X118525970Y-67582455D01*
X118543888Y-67587256D01*
X118646978Y-67596275D01*
X118717606Y-67602455D01*
X118717613Y-67602455D01*
X118720330Y-67602693D01*
X118838262Y-67602693D01*
X118840979Y-67602455D01*
X118840986Y-67602455D01*
X118911614Y-67596275D01*
X119014704Y-67587256D01*
X119032622Y-67582455D01*
X119237649Y-67527519D01*
X119237651Y-67527518D01*
X119242959Y-67526096D01*
X119247941Y-67523773D01*
X119452144Y-67428551D01*
X119452147Y-67428549D01*
X119457125Y-67426228D01*
X119650697Y-67290688D01*
X119817791Y-67123594D01*
X119820951Y-67119082D01*
X119950174Y-66934532D01*
X119950177Y-66934527D01*
X119953331Y-66930023D01*
X119955654Y-66925041D01*
X119955657Y-66925036D01*
X120050876Y-66720838D01*
X120050877Y-66720837D01*
X120053199Y-66715856D01*
X120114359Y-66487601D01*
X120134955Y-66252193D01*
X120114359Y-66016785D01*
X120112935Y-66011470D01*
X120054622Y-65793840D01*
X120054621Y-65793838D01*
X120053199Y-65788530D01*
X119984671Y-65641572D01*
X119955654Y-65579345D01*
X119955652Y-65579342D01*
X119953331Y-65574364D01*
X119817791Y-65380792D01*
X119650697Y-65213698D01*
X119457125Y-65078158D01*
X119452147Y-65075837D01*
X119452144Y-65075835D01*
X119247941Y-64980613D01*
X119247939Y-64980612D01*
X119242959Y-64978290D01*
X119237651Y-64976868D01*
X119237649Y-64976867D01*
X119020019Y-64918554D01*
X119020018Y-64918554D01*
X119014704Y-64917130D01*
X118911614Y-64908111D01*
X118840986Y-64901931D01*
X118840979Y-64901931D01*
X118838262Y-64901693D01*
X118720330Y-64901693D01*
X118717613Y-64901931D01*
X118717606Y-64901931D01*
X118646978Y-64908111D01*
X118543888Y-64917130D01*
X118538574Y-64918554D01*
X118538573Y-64918554D01*
X118320943Y-64976867D01*
X118320941Y-64976868D01*
X118315633Y-64978290D01*
X118310653Y-64980612D01*
X118310651Y-64980613D01*
X118106448Y-65075835D01*
X118106445Y-65075837D01*
X118101467Y-65078158D01*
X117907895Y-65213698D01*
X117740801Y-65380792D01*
X117737644Y-65385300D01*
X117737642Y-65385303D01*
X117615773Y-65559350D01*
X117605261Y-65574363D01*
X117602938Y-65579345D01*
X117602935Y-65579350D01*
X117517042Y-65763548D01*
X117505393Y-65788530D01*
X117503971Y-65793838D01*
X117503970Y-65793840D01*
X117445657Y-66011470D01*
X117444233Y-66016785D01*
X117423637Y-66252193D01*
X108426169Y-66252193D01*
X108426169Y-62723930D01*
X127262345Y-62723930D01*
X127278803Y-62919919D01*
X127333015Y-63108979D01*
X127335830Y-63114456D01*
X127335831Y-63114459D01*
X127420101Y-63278431D01*
X127422916Y-63283908D01*
X127426739Y-63288732D01*
X127426742Y-63288736D01*
X127447873Y-63315396D01*
X127545083Y-63438044D01*
X127694862Y-63565516D01*
X127866547Y-63661467D01*
X128053600Y-63722244D01*
X128248895Y-63745532D01*
X128255030Y-63745060D01*
X128255032Y-63745060D01*
X128438852Y-63730916D01*
X128438856Y-63730915D01*
X128444994Y-63730443D01*
X128634428Y-63677552D01*
X128639932Y-63674772D01*
X128639934Y-63674771D01*
X128804480Y-63591653D01*
X128804482Y-63591652D01*
X128809981Y-63588874D01*
X128964966Y-63467786D01*
X128968992Y-63463122D01*
X128968995Y-63463119D01*
X129089451Y-63323569D01*
X129089452Y-63323567D01*
X129093480Y-63318901D01*
X129190628Y-63147890D01*
X129252710Y-62961266D01*
X129277360Y-62766138D01*
X129277753Y-62738000D01*
X129258561Y-62542260D01*
X129201714Y-62353975D01*
X129109379Y-62180318D01*
X129105489Y-62175548D01*
X129105486Y-62175544D01*
X128988967Y-62032678D01*
X128988964Y-62032675D01*
X128985072Y-62027903D01*
X128968422Y-62014129D01*
X128838278Y-61906464D01*
X128838274Y-61906462D01*
X128833528Y-61902535D01*
X128660520Y-61808990D01*
X128472637Y-61750830D01*
X128466519Y-61750187D01*
X128466514Y-61750186D01*
X128283164Y-61730916D01*
X128283162Y-61730916D01*
X128277035Y-61730272D01*
X128194199Y-61737810D01*
X128087305Y-61747538D01*
X128087302Y-61747539D01*
X128081166Y-61748097D01*
X127892489Y-61803628D01*
X127718192Y-61894748D01*
X127564912Y-62017988D01*
X127560954Y-62022705D01*
X127560952Y-62022707D01*
X127478638Y-62120805D01*
X127438489Y-62168653D01*
X127343739Y-62341004D01*
X127341878Y-62346871D01*
X127341877Y-62346873D01*
X127339624Y-62353975D01*
X127284269Y-62528476D01*
X127262345Y-62723930D01*
X108426169Y-62723930D01*
X108426169Y-62714169D01*
X108446171Y-62646048D01*
X108451369Y-62638569D01*
X110930589Y-59332943D01*
X127267100Y-59332943D01*
X127267101Y-61063056D01*
X127275972Y-61107658D01*
X127309766Y-61158234D01*
X127320082Y-61165127D01*
X127350025Y-61185135D01*
X127350028Y-61185136D01*
X127360342Y-61192028D01*
X127372509Y-61194448D01*
X127372511Y-61194449D01*
X127390743Y-61198075D01*
X127404943Y-61200900D01*
X128269860Y-61200900D01*
X129135056Y-61200899D01*
X129151710Y-61197587D01*
X129167483Y-61194450D01*
X129167485Y-61194449D01*
X129179658Y-61192028D01*
X129230234Y-61158234D01*
X129257132Y-61117979D01*
X129257135Y-61117975D01*
X129257136Y-61117972D01*
X129264028Y-61107658D01*
X129272900Y-61063057D01*
X129272899Y-59332944D01*
X129264028Y-59288342D01*
X129230234Y-59237766D01*
X129189979Y-59210868D01*
X129189975Y-59210865D01*
X129189972Y-59210864D01*
X129179658Y-59203972D01*
X129167491Y-59201552D01*
X129167489Y-59201551D01*
X129149257Y-59197925D01*
X129135057Y-59195100D01*
X128270140Y-59195100D01*
X127404944Y-59195101D01*
X127388290Y-59198413D01*
X127372517Y-59201550D01*
X127372515Y-59201551D01*
X127360342Y-59203972D01*
X127309766Y-59237766D01*
X127302873Y-59248082D01*
X127282865Y-59278025D01*
X127282864Y-59278028D01*
X127275972Y-59288342D01*
X127267100Y-59332943D01*
X110930589Y-59332943D01*
X111173612Y-59008913D01*
X111232572Y-58965663D01*
X111349714Y-58924424D01*
X111358687Y-58921637D01*
X111828858Y-58794647D01*
X111838012Y-58792537D01*
X112058517Y-58750332D01*
X112316370Y-58700979D01*
X112325671Y-58699557D01*
X112556803Y-58672993D01*
X112571189Y-58672169D01*
X173373979Y-58672169D01*
X173442100Y-58692171D01*
G37*
G04 #@! TD.AperFunction*
M02*
