%TF.GenerationSoftware,KiCad,Pcbnew,(6.0.4-0)*%
%TF.CreationDate,2022-04-21T19:59:26-07:00*%
%TF.ProjectId,Labpass RFID Reader,4c616270-6173-4732-9052-464944205265,0.1.0*%
%TF.SameCoordinates,Original*%
%TF.FileFunction,Soldermask,Top*%
%TF.FilePolarity,Negative*%
%FSLAX46Y46*%
G04 Gerber Fmt 4.6, Leading zero omitted, Abs format (unit mm)*
G04 Created by KiCad (PCBNEW (6.0.4-0)) date 2022-04-21 19:59:26*
%MOMM*%
%LPD*%
G01*
G04 APERTURE LIST*
G04 Aperture macros list*
%AMRoundRect*
0 Rectangle with rounded corners*
0 $1 Rounding radius*
0 $2 $3 $4 $5 $6 $7 $8 $9 X,Y pos of 4 corners*
0 Add a 4 corners polygon primitive as box body*
4,1,4,$2,$3,$4,$5,$6,$7,$8,$9,$2,$3,0*
0 Add four circle primitives for the rounded corners*
1,1,$1+$1,$2,$3*
1,1,$1+$1,$4,$5*
1,1,$1+$1,$6,$7*
1,1,$1+$1,$8,$9*
0 Add four rect primitives between the rounded corners*
20,1,$1+$1,$2,$3,$4,$5,0*
20,1,$1+$1,$4,$5,$6,$7,0*
20,1,$1+$1,$6,$7,$8,$9,0*
20,1,$1+$1,$8,$9,$2,$3,0*%
G04 Aperture macros list end*
%ADD10RoundRect,0.250800X0.200000X0.275000X-0.200000X0.275000X-0.200000X-0.275000X0.200000X-0.275000X0*%
%ADD11RoundRect,0.275800X0.225000X0.250000X-0.225000X0.250000X-0.225000X-0.250000X0.225000X-0.250000X0*%
%ADD12RoundRect,0.050800X0.250000X-0.250000X0.250000X0.250000X-0.250000X0.250000X-0.250000X-0.250000X0*%
%ADD13RoundRect,0.050800X1.000000X1.200000X-1.000000X1.200000X-1.000000X-1.200000X1.000000X-1.200000X0*%
%ADD14C,1.625600*%
%ADD15RoundRect,0.300800X-0.375000X-1.075000X0.375000X-1.075000X0.375000X1.075000X-0.375000X1.075000X0*%
%ADD16RoundRect,0.275800X-0.225000X-0.250000X0.225000X-0.250000X0.225000X0.250000X-0.225000X0.250000X0*%
%ADD17RoundRect,0.050800X1.255000X0.500000X-1.255000X0.500000X-1.255000X-0.500000X1.255000X-0.500000X0*%
%ADD18C,2.301600*%
%ADD19RoundRect,0.250800X-0.200000X-0.275000X0.200000X-0.275000X0.200000X0.275000X-0.200000X0.275000X0*%
%ADD20RoundRect,0.050800X0.650000X0.650000X-0.650000X0.650000X-0.650000X-0.650000X0.650000X-0.650000X0*%
%ADD21C,1.401600*%
%ADD22RoundRect,0.250800X-0.275000X0.200000X-0.275000X-0.200000X0.275000X-0.200000X0.275000X0.200000X0*%
%ADD23RoundRect,0.050800X-1.255000X-0.500000X1.255000X-0.500000X1.255000X0.500000X-1.255000X0.500000X0*%
%ADD24RoundRect,0.250800X0.275000X-0.200000X0.275000X0.200000X-0.275000X0.200000X-0.275000X-0.200000X0*%
%ADD25RoundRect,0.275800X-0.250000X0.225000X-0.250000X-0.225000X0.250000X-0.225000X0.250000X0.225000X0*%
%ADD26RoundRect,0.275800X0.250000X-0.225000X0.250000X0.225000X-0.250000X0.225000X-0.250000X-0.225000X0*%
%ADD27RoundRect,0.200800X-0.825000X-0.150000X0.825000X-0.150000X0.825000X0.150000X-0.825000X0.150000X0*%
%ADD28C,1.676400*%
%ADD29RoundRect,0.125800X0.075000X-0.675000X0.075000X0.675000X-0.075000X0.675000X-0.075000X-0.675000X0*%
%ADD30RoundRect,0.125800X0.675000X-0.075000X0.675000X0.075000X-0.675000X0.075000X-0.675000X-0.075000X0*%
%ADD31RoundRect,0.300800X0.375000X1.075000X-0.375000X1.075000X-0.375000X-1.075000X0.375000X-1.075000X0*%
G04 APERTURE END LIST*
D10*
%TO.C,R15*%
X121091182Y-100360280D03*
X119441182Y-100360280D03*
%TD*%
D11*
%TO.C,C4*%
X149516169Y-65882169D03*
X147966169Y-65882169D03*
%TD*%
D12*
%TO.C,D1*%
X132483169Y-68110169D03*
X132483169Y-65910169D03*
%TD*%
D13*
%TO.C,Y1*%
X155775169Y-105922169D03*
X152075169Y-105922169D03*
%TD*%
D14*
%TO.C,BZ1*%
X119250169Y-76456169D03*
X114250169Y-76456169D03*
%TD*%
D15*
%TO.C,L2*%
X165733169Y-111510169D03*
X168533169Y-111510169D03*
%TD*%
D16*
%TO.C,C19*%
X160184169Y-110238169D03*
X161734169Y-110238169D03*
%TD*%
%TO.C,C8*%
X135234865Y-70228169D03*
X136784865Y-70228169D03*
%TD*%
D17*
%TO.C,L1*%
X132055000Y-73070000D03*
X128745000Y-70530000D03*
%TD*%
D10*
%TO.C,R20*%
X121091182Y-107960280D03*
X119441182Y-107960280D03*
%TD*%
D18*
%TO.C,REF\u002A\u002A*%
X118779296Y-66252193D03*
%TD*%
%TO.C,REF\u002A\u002A*%
X118819296Y-124232193D03*
%TD*%
%TO.C,REF\u002A\u002A*%
X167829296Y-124222193D03*
%TD*%
D19*
%TO.C,R14*%
X166916169Y-108460169D03*
X168566169Y-108460169D03*
%TD*%
%TO.C,R5*%
X157644169Y-67566169D03*
X159294169Y-67566169D03*
%TD*%
D20*
%TO.C,Q1*%
X132866182Y-77760280D03*
D21*
X131596182Y-79030280D03*
X130326182Y-77760280D03*
%TD*%
D22*
%TO.C,R4*%
X157644169Y-69789169D03*
X157644169Y-71439169D03*
%TD*%
D10*
%TO.C,R10*%
X137091182Y-79760280D03*
X135441182Y-79760280D03*
%TD*%
D22*
%TO.C,R3*%
X155104169Y-87252169D03*
X155104169Y-88902169D03*
%TD*%
D10*
%TO.C,R16*%
X121091182Y-95360280D03*
X119441182Y-95360280D03*
%TD*%
D23*
%TO.C,J2*%
X111800000Y-93910000D03*
X108490000Y-96450000D03*
X111800000Y-98990000D03*
X108490000Y-101530000D03*
X111800000Y-104070000D03*
X108490000Y-106610000D03*
X111800000Y-109150000D03*
X108490000Y-111690000D03*
%TD*%
D24*
%TO.C,R9*%
X138086169Y-67532169D03*
X138086169Y-65882169D03*
%TD*%
D11*
%TO.C,C3*%
X162476169Y-67566169D03*
X160926169Y-67566169D03*
%TD*%
D25*
%TO.C,C17*%
X155703169Y-101322169D03*
X155703169Y-102872169D03*
%TD*%
D10*
%TO.C,R18*%
X121091182Y-102960280D03*
X119441182Y-102960280D03*
%TD*%
D22*
%TO.C,R7*%
X151294169Y-67280169D03*
X151294169Y-68930169D03*
%TD*%
D26*
%TO.C,C18*%
X152147169Y-102872169D03*
X152147169Y-101322169D03*
%TD*%
D17*
%TO.C,J1*%
X178055000Y-116940000D03*
X174745000Y-114400000D03*
X178055000Y-111860000D03*
%TD*%
D10*
%TO.C,R8*%
X144690169Y-65882169D03*
X143040169Y-65882169D03*
%TD*%
D16*
%TO.C,C6*%
X139838169Y-65882169D03*
X141388169Y-65882169D03*
%TD*%
D27*
%TO.C,U3*%
X157709169Y-73408169D03*
X157709169Y-74678169D03*
X157709169Y-75948169D03*
X157709169Y-77218169D03*
X157709169Y-78488169D03*
X157709169Y-79758169D03*
X157709169Y-81028169D03*
X162659169Y-81028169D03*
X162659169Y-79758169D03*
X162659169Y-78488169D03*
X162659169Y-77218169D03*
X162659169Y-75948169D03*
X162659169Y-74678169D03*
X162659169Y-73408169D03*
%TD*%
D10*
%TO.C,R17*%
X121091182Y-97760280D03*
X119441182Y-97760280D03*
%TD*%
D28*
%TO.C,U1*%
X143686169Y-123235419D03*
X123366169Y-105455419D03*
X123366169Y-107995419D03*
X123366169Y-92755419D03*
X123366169Y-97835419D03*
X143686169Y-87675419D03*
X123366169Y-102915419D03*
X123366169Y-95295419D03*
X123366169Y-100375419D03*
X143686169Y-115615419D03*
X143686169Y-113075419D03*
X143686169Y-110535419D03*
X143686169Y-107995419D03*
X143686169Y-105455419D03*
X143686169Y-102915419D03*
X123366169Y-115615419D03*
X123366169Y-113075419D03*
X143686169Y-118155419D03*
X143686169Y-95295419D03*
X143686169Y-97835419D03*
X143686169Y-120695419D03*
X143686169Y-125775419D03*
X143686169Y-92755419D03*
X143686169Y-100375419D03*
X123366169Y-90215419D03*
X123366169Y-87675419D03*
X143686169Y-90215419D03*
X123366169Y-110535419D03*
%TD*%
D26*
%TO.C,C20*%
X171526169Y-111172169D03*
X171526169Y-109622169D03*
%TD*%
D27*
%TO.C,U2*%
X157709169Y-84457169D03*
X157709169Y-85727169D03*
X157709169Y-86997169D03*
X157709169Y-88267169D03*
X162659169Y-88267169D03*
X162659169Y-86997169D03*
X162659169Y-85727169D03*
X162659169Y-84457169D03*
%TD*%
D18*
%TO.C,REF\u002A\u002A*%
X167789296Y-66232193D03*
%TD*%
D10*
%TO.C,R19*%
X121091182Y-105560280D03*
X119441182Y-105560280D03*
%TD*%
D26*
%TO.C,C21*%
X171626169Y-119322169D03*
X171626169Y-117772169D03*
%TD*%
D24*
%TO.C,R11*%
X135851182Y-77760280D03*
X135851182Y-76110280D03*
%TD*%
D29*
%TO.C,U4*%
X152683169Y-117575169D03*
X153183169Y-117575169D03*
X153683169Y-117575169D03*
X154183169Y-117575169D03*
X154683169Y-117575169D03*
X155183169Y-117575169D03*
X155683169Y-117575169D03*
X156183169Y-117575169D03*
D30*
X157608169Y-116150169D03*
X157608169Y-115650169D03*
X157608169Y-115150169D03*
X157608169Y-114650169D03*
X157608169Y-114150169D03*
X157608169Y-113650169D03*
X157608169Y-113150169D03*
X157608169Y-112650169D03*
D29*
X156183169Y-111225169D03*
X155683169Y-111225169D03*
X155183169Y-111225169D03*
X154683169Y-111225169D03*
X154183169Y-111225169D03*
X153683169Y-111225169D03*
X153183169Y-111225169D03*
X152683169Y-111225169D03*
D30*
X151258169Y-112650169D03*
X151258169Y-113150169D03*
X151258169Y-113650169D03*
X151258169Y-114150169D03*
X151258169Y-114650169D03*
X151258169Y-115150169D03*
X151258169Y-115650169D03*
X151258169Y-116150169D03*
%TD*%
D22*
%TO.C,R1*%
X155358169Y-79504169D03*
X155358169Y-81154169D03*
%TD*%
D31*
%TO.C,L3*%
X168533169Y-117604169D03*
X165733169Y-117604169D03*
%TD*%
D25*
%TO.C,C5*%
X146214169Y-65882169D03*
X146214169Y-67432169D03*
%TD*%
D22*
%TO.C,R2*%
X155104169Y-84204169D03*
X155104169Y-85854169D03*
%TD*%
D25*
%TO.C,C7*%
X134530169Y-65910169D03*
X134530169Y-67460169D03*
%TD*%
D22*
%TO.C,R6*%
X151294169Y-64232169D03*
X151294169Y-65882169D03*
%TD*%
%TO.C,R13*%
X158406169Y-108588169D03*
X158406169Y-110238169D03*
%TD*%
G36*
X152885632Y-116902875D02*
G01*
X152906313Y-116933829D01*
X152942597Y-116941047D01*
X152973540Y-116920372D01*
X152980521Y-116903520D01*
X152982108Y-116902302D01*
X152983956Y-116903068D01*
X152984369Y-116904285D01*
X152984369Y-118246352D01*
X152983369Y-118248084D01*
X152981369Y-118248084D01*
X152980706Y-118247463D01*
X152960025Y-118216509D01*
X152923741Y-118209291D01*
X152892798Y-118229966D01*
X152885817Y-118246818D01*
X152884230Y-118248036D01*
X152882382Y-118247270D01*
X152881969Y-118246053D01*
X152881969Y-116903986D01*
X152882969Y-116902254D01*
X152884969Y-116902254D01*
X152885632Y-116902875D01*
G37*
G36*
X155885632Y-116902875D02*
G01*
X155906313Y-116933829D01*
X155942597Y-116941047D01*
X155973540Y-116920372D01*
X155980521Y-116903520D01*
X155982108Y-116902302D01*
X155983956Y-116903068D01*
X155984369Y-116904285D01*
X155984369Y-118246352D01*
X155983369Y-118248084D01*
X155981369Y-118248084D01*
X155980706Y-118247463D01*
X155960025Y-118216509D01*
X155923741Y-118209291D01*
X155892798Y-118229966D01*
X155885817Y-118246818D01*
X155884230Y-118248036D01*
X155882382Y-118247270D01*
X155881969Y-118246053D01*
X155881969Y-116903986D01*
X155882969Y-116902254D01*
X155884969Y-116902254D01*
X155885632Y-116902875D01*
G37*
G36*
X155385632Y-116902875D02*
G01*
X155406313Y-116933829D01*
X155442597Y-116941047D01*
X155473540Y-116920372D01*
X155480521Y-116903520D01*
X155482108Y-116902302D01*
X155483956Y-116903068D01*
X155484369Y-116904285D01*
X155484369Y-118246352D01*
X155483369Y-118248084D01*
X155481369Y-118248084D01*
X155480706Y-118247463D01*
X155460025Y-118216509D01*
X155423741Y-118209291D01*
X155392798Y-118229966D01*
X155385817Y-118246818D01*
X155384230Y-118248036D01*
X155382382Y-118247270D01*
X155381969Y-118246053D01*
X155381969Y-116903986D01*
X155382969Y-116902254D01*
X155384969Y-116902254D01*
X155385632Y-116902875D01*
G37*
G36*
X154885632Y-116902875D02*
G01*
X154906313Y-116933829D01*
X154942597Y-116941047D01*
X154973540Y-116920372D01*
X154980521Y-116903520D01*
X154982108Y-116902302D01*
X154983956Y-116903068D01*
X154984369Y-116904285D01*
X154984369Y-118246352D01*
X154983369Y-118248084D01*
X154981369Y-118248084D01*
X154980706Y-118247463D01*
X154960025Y-118216509D01*
X154923741Y-118209291D01*
X154892798Y-118229966D01*
X154885817Y-118246818D01*
X154884230Y-118248036D01*
X154882382Y-118247270D01*
X154881969Y-118246053D01*
X154881969Y-116903986D01*
X154882969Y-116902254D01*
X154884969Y-116902254D01*
X154885632Y-116902875D01*
G37*
G36*
X154385632Y-116902875D02*
G01*
X154406313Y-116933829D01*
X154442597Y-116941047D01*
X154473540Y-116920372D01*
X154480521Y-116903520D01*
X154482108Y-116902302D01*
X154483956Y-116903068D01*
X154484369Y-116904285D01*
X154484369Y-118246352D01*
X154483369Y-118248084D01*
X154481369Y-118248084D01*
X154480706Y-118247463D01*
X154460025Y-118216509D01*
X154423741Y-118209291D01*
X154392798Y-118229966D01*
X154385817Y-118246818D01*
X154384230Y-118248036D01*
X154382382Y-118247270D01*
X154381969Y-118246053D01*
X154381969Y-116903986D01*
X154382969Y-116902254D01*
X154384969Y-116902254D01*
X154385632Y-116902875D01*
G37*
G36*
X153385632Y-116902875D02*
G01*
X153406313Y-116933829D01*
X153442597Y-116941047D01*
X153473540Y-116920372D01*
X153480521Y-116903520D01*
X153482108Y-116902302D01*
X153483956Y-116903068D01*
X153484369Y-116904285D01*
X153484369Y-118246352D01*
X153483369Y-118248084D01*
X153481369Y-118248084D01*
X153480706Y-118247463D01*
X153460025Y-118216509D01*
X153423741Y-118209291D01*
X153392798Y-118229966D01*
X153385817Y-118246818D01*
X153384230Y-118248036D01*
X153382382Y-118247270D01*
X153381969Y-118246053D01*
X153381969Y-116903986D01*
X153382969Y-116902254D01*
X153384969Y-116902254D01*
X153385632Y-116902875D01*
G37*
G36*
X153885632Y-116902875D02*
G01*
X153906313Y-116933829D01*
X153942597Y-116941047D01*
X153973540Y-116920372D01*
X153980521Y-116903520D01*
X153982108Y-116902302D01*
X153983956Y-116903068D01*
X153984369Y-116904285D01*
X153984369Y-118246352D01*
X153983369Y-118248084D01*
X153981369Y-118248084D01*
X153980706Y-118247463D01*
X153960025Y-118216509D01*
X153923741Y-118209291D01*
X153892798Y-118229966D01*
X153885817Y-118246818D01*
X153884230Y-118248036D01*
X153882382Y-118247270D01*
X153881969Y-118246053D01*
X153881969Y-116903986D01*
X153882969Y-116902254D01*
X153884969Y-116902254D01*
X153885632Y-116902875D01*
G37*
G36*
X158281084Y-115849969D02*
G01*
X158281084Y-115851969D01*
X158280463Y-115852632D01*
X158249509Y-115873313D01*
X158242291Y-115909597D01*
X158262966Y-115940540D01*
X158279818Y-115947521D01*
X158281036Y-115949108D01*
X158280270Y-115950956D01*
X158279053Y-115951369D01*
X156936986Y-115951369D01*
X156935254Y-115950369D01*
X156935254Y-115948369D01*
X156935875Y-115947706D01*
X156966829Y-115927025D01*
X156974047Y-115890741D01*
X156953372Y-115859798D01*
X156936520Y-115852817D01*
X156935302Y-115851230D01*
X156936068Y-115849382D01*
X156937285Y-115848969D01*
X158279352Y-115848969D01*
X158281084Y-115849969D01*
G37*
G36*
X151931084Y-115849969D02*
G01*
X151931084Y-115851969D01*
X151930463Y-115852632D01*
X151899509Y-115873313D01*
X151892291Y-115909597D01*
X151912966Y-115940540D01*
X151929818Y-115947521D01*
X151931036Y-115949108D01*
X151930270Y-115950956D01*
X151929053Y-115951369D01*
X150586986Y-115951369D01*
X150585254Y-115950369D01*
X150585254Y-115948369D01*
X150585875Y-115947706D01*
X150616829Y-115927025D01*
X150624047Y-115890741D01*
X150603372Y-115859798D01*
X150586520Y-115852817D01*
X150585302Y-115851230D01*
X150586068Y-115849382D01*
X150587285Y-115848969D01*
X151929352Y-115848969D01*
X151931084Y-115849969D01*
G37*
G36*
X158281084Y-115349969D02*
G01*
X158281084Y-115351969D01*
X158280463Y-115352632D01*
X158249509Y-115373313D01*
X158242291Y-115409597D01*
X158262966Y-115440540D01*
X158279818Y-115447521D01*
X158281036Y-115449108D01*
X158280270Y-115450956D01*
X158279053Y-115451369D01*
X156936986Y-115451369D01*
X156935254Y-115450369D01*
X156935254Y-115448369D01*
X156935875Y-115447706D01*
X156966829Y-115427025D01*
X156974047Y-115390741D01*
X156953372Y-115359798D01*
X156936520Y-115352817D01*
X156935302Y-115351230D01*
X156936068Y-115349382D01*
X156937285Y-115348969D01*
X158279352Y-115348969D01*
X158281084Y-115349969D01*
G37*
G36*
X151931084Y-115349969D02*
G01*
X151931084Y-115351969D01*
X151930463Y-115352632D01*
X151899509Y-115373313D01*
X151892291Y-115409597D01*
X151912966Y-115440540D01*
X151929818Y-115447521D01*
X151931036Y-115449108D01*
X151930270Y-115450956D01*
X151929053Y-115451369D01*
X150586986Y-115451369D01*
X150585254Y-115450369D01*
X150585254Y-115448369D01*
X150585875Y-115447706D01*
X150616829Y-115427025D01*
X150624047Y-115390741D01*
X150603372Y-115359798D01*
X150586520Y-115352817D01*
X150585302Y-115351230D01*
X150586068Y-115349382D01*
X150587285Y-115348969D01*
X151929352Y-115348969D01*
X151931084Y-115349969D01*
G37*
G36*
X158281084Y-114849969D02*
G01*
X158281084Y-114851969D01*
X158280463Y-114852632D01*
X158249509Y-114873313D01*
X158242291Y-114909597D01*
X158262966Y-114940540D01*
X158279818Y-114947521D01*
X158281036Y-114949108D01*
X158280270Y-114950956D01*
X158279053Y-114951369D01*
X156936986Y-114951369D01*
X156935254Y-114950369D01*
X156935254Y-114948369D01*
X156935875Y-114947706D01*
X156966829Y-114927025D01*
X156974047Y-114890741D01*
X156953372Y-114859798D01*
X156936520Y-114852817D01*
X156935302Y-114851230D01*
X156936068Y-114849382D01*
X156937285Y-114848969D01*
X158279352Y-114848969D01*
X158281084Y-114849969D01*
G37*
G36*
X151931084Y-114849969D02*
G01*
X151931084Y-114851969D01*
X151930463Y-114852632D01*
X151899509Y-114873313D01*
X151892291Y-114909597D01*
X151912966Y-114940540D01*
X151929818Y-114947521D01*
X151931036Y-114949108D01*
X151930270Y-114950956D01*
X151929053Y-114951369D01*
X150586986Y-114951369D01*
X150585254Y-114950369D01*
X150585254Y-114948369D01*
X150585875Y-114947706D01*
X150616829Y-114927025D01*
X150624047Y-114890741D01*
X150603372Y-114859798D01*
X150586520Y-114852817D01*
X150585302Y-114851230D01*
X150586068Y-114849382D01*
X150587285Y-114848969D01*
X151929352Y-114848969D01*
X151931084Y-114849969D01*
G37*
G36*
X158281084Y-114349969D02*
G01*
X158281084Y-114351969D01*
X158280463Y-114352632D01*
X158249509Y-114373313D01*
X158242291Y-114409597D01*
X158262966Y-114440540D01*
X158279818Y-114447521D01*
X158281036Y-114449108D01*
X158280270Y-114450956D01*
X158279053Y-114451369D01*
X156936986Y-114451369D01*
X156935254Y-114450369D01*
X156935254Y-114448369D01*
X156935875Y-114447706D01*
X156966829Y-114427025D01*
X156974047Y-114390741D01*
X156953372Y-114359798D01*
X156936520Y-114352817D01*
X156935302Y-114351230D01*
X156936068Y-114349382D01*
X156937285Y-114348969D01*
X158279352Y-114348969D01*
X158281084Y-114349969D01*
G37*
G36*
X151931084Y-114349969D02*
G01*
X151931084Y-114351969D01*
X151930463Y-114352632D01*
X151899509Y-114373313D01*
X151892291Y-114409597D01*
X151912966Y-114440540D01*
X151929818Y-114447521D01*
X151931036Y-114449108D01*
X151930270Y-114450956D01*
X151929053Y-114451369D01*
X150586986Y-114451369D01*
X150585254Y-114450369D01*
X150585254Y-114448369D01*
X150585875Y-114447706D01*
X150616829Y-114427025D01*
X150624047Y-114390741D01*
X150603372Y-114359798D01*
X150586520Y-114352817D01*
X150585302Y-114351230D01*
X150586068Y-114349382D01*
X150587285Y-114348969D01*
X151929352Y-114348969D01*
X151931084Y-114349969D01*
G37*
G36*
X158281084Y-113849969D02*
G01*
X158281084Y-113851969D01*
X158280463Y-113852632D01*
X158249509Y-113873313D01*
X158242291Y-113909597D01*
X158262966Y-113940540D01*
X158279818Y-113947521D01*
X158281036Y-113949108D01*
X158280270Y-113950956D01*
X158279053Y-113951369D01*
X156936986Y-113951369D01*
X156935254Y-113950369D01*
X156935254Y-113948369D01*
X156935875Y-113947706D01*
X156966829Y-113927025D01*
X156974047Y-113890741D01*
X156953372Y-113859798D01*
X156936520Y-113852817D01*
X156935302Y-113851230D01*
X156936068Y-113849382D01*
X156937285Y-113848969D01*
X158279352Y-113848969D01*
X158281084Y-113849969D01*
G37*
G36*
X151931084Y-113849969D02*
G01*
X151931084Y-113851969D01*
X151930463Y-113852632D01*
X151899509Y-113873313D01*
X151892291Y-113909597D01*
X151912966Y-113940540D01*
X151929818Y-113947521D01*
X151931036Y-113949108D01*
X151930270Y-113950956D01*
X151929053Y-113951369D01*
X150586986Y-113951369D01*
X150585254Y-113950369D01*
X150585254Y-113948369D01*
X150585875Y-113947706D01*
X150616829Y-113927025D01*
X150624047Y-113890741D01*
X150603372Y-113859798D01*
X150586520Y-113852817D01*
X150585302Y-113851230D01*
X150586068Y-113849382D01*
X150587285Y-113848969D01*
X151929352Y-113848969D01*
X151931084Y-113849969D01*
G37*
G36*
X158281084Y-113349969D02*
G01*
X158281084Y-113351969D01*
X158280463Y-113352632D01*
X158249509Y-113373313D01*
X158242291Y-113409597D01*
X158262966Y-113440540D01*
X158279818Y-113447521D01*
X158281036Y-113449108D01*
X158280270Y-113450956D01*
X158279053Y-113451369D01*
X156936986Y-113451369D01*
X156935254Y-113450369D01*
X156935254Y-113448369D01*
X156935875Y-113447706D01*
X156966829Y-113427025D01*
X156974047Y-113390741D01*
X156953372Y-113359798D01*
X156936520Y-113352817D01*
X156935302Y-113351230D01*
X156936068Y-113349382D01*
X156937285Y-113348969D01*
X158279352Y-113348969D01*
X158281084Y-113349969D01*
G37*
G36*
X151931084Y-113349969D02*
G01*
X151931084Y-113351969D01*
X151930463Y-113352632D01*
X151899509Y-113373313D01*
X151892291Y-113409597D01*
X151912966Y-113440540D01*
X151929818Y-113447521D01*
X151931036Y-113449108D01*
X151930270Y-113450956D01*
X151929053Y-113451369D01*
X150586986Y-113451369D01*
X150585254Y-113450369D01*
X150585254Y-113448369D01*
X150585875Y-113447706D01*
X150616829Y-113427025D01*
X150624047Y-113390741D01*
X150603372Y-113359798D01*
X150586520Y-113352817D01*
X150585302Y-113351230D01*
X150586068Y-113349382D01*
X150587285Y-113348969D01*
X151929352Y-113348969D01*
X151931084Y-113349969D01*
G37*
G36*
X158281084Y-112849969D02*
G01*
X158281084Y-112851969D01*
X158280463Y-112852632D01*
X158249509Y-112873313D01*
X158242291Y-112909597D01*
X158262966Y-112940540D01*
X158279818Y-112947521D01*
X158281036Y-112949108D01*
X158280270Y-112950956D01*
X158279053Y-112951369D01*
X156936986Y-112951369D01*
X156935254Y-112950369D01*
X156935254Y-112948369D01*
X156935875Y-112947706D01*
X156966829Y-112927025D01*
X156974047Y-112890741D01*
X156953372Y-112859798D01*
X156936520Y-112852817D01*
X156935302Y-112851230D01*
X156936068Y-112849382D01*
X156937285Y-112848969D01*
X158279352Y-112848969D01*
X158281084Y-112849969D01*
G37*
G36*
X151931084Y-112849969D02*
G01*
X151931084Y-112851969D01*
X151930463Y-112852632D01*
X151899509Y-112873313D01*
X151892291Y-112909597D01*
X151912966Y-112940540D01*
X151929818Y-112947521D01*
X151931036Y-112949108D01*
X151930270Y-112950956D01*
X151929053Y-112951369D01*
X150586986Y-112951369D01*
X150585254Y-112950369D01*
X150585254Y-112948369D01*
X150585875Y-112947706D01*
X150616829Y-112927025D01*
X150624047Y-112890741D01*
X150603372Y-112859798D01*
X150586520Y-112852817D01*
X150585302Y-112851230D01*
X150586068Y-112849382D01*
X150587285Y-112848969D01*
X151929352Y-112848969D01*
X151931084Y-112849969D01*
G37*
G36*
X155885632Y-110552875D02*
G01*
X155906313Y-110583829D01*
X155942597Y-110591047D01*
X155973540Y-110570372D01*
X155980521Y-110553520D01*
X155982108Y-110552302D01*
X155983956Y-110553068D01*
X155984369Y-110554285D01*
X155984369Y-111896352D01*
X155983369Y-111898084D01*
X155981369Y-111898084D01*
X155980706Y-111897463D01*
X155960025Y-111866509D01*
X155923741Y-111859291D01*
X155892798Y-111879966D01*
X155885817Y-111896818D01*
X155884230Y-111898036D01*
X155882382Y-111897270D01*
X155881969Y-111896053D01*
X155881969Y-110553986D01*
X155882969Y-110552254D01*
X155884969Y-110552254D01*
X155885632Y-110552875D01*
G37*
G36*
X155385632Y-110552875D02*
G01*
X155406313Y-110583829D01*
X155442597Y-110591047D01*
X155473540Y-110570372D01*
X155480521Y-110553520D01*
X155482108Y-110552302D01*
X155483956Y-110553068D01*
X155484369Y-110554285D01*
X155484369Y-111896352D01*
X155483369Y-111898084D01*
X155481369Y-111898084D01*
X155480706Y-111897463D01*
X155460025Y-111866509D01*
X155423741Y-111859291D01*
X155392798Y-111879966D01*
X155385817Y-111896818D01*
X155384230Y-111898036D01*
X155382382Y-111897270D01*
X155381969Y-111896053D01*
X155381969Y-110553986D01*
X155382969Y-110552254D01*
X155384969Y-110552254D01*
X155385632Y-110552875D01*
G37*
G36*
X154885632Y-110552875D02*
G01*
X154906313Y-110583829D01*
X154942597Y-110591047D01*
X154973540Y-110570372D01*
X154980521Y-110553520D01*
X154982108Y-110552302D01*
X154983956Y-110553068D01*
X154984369Y-110554285D01*
X154984369Y-111896352D01*
X154983369Y-111898084D01*
X154981369Y-111898084D01*
X154980706Y-111897463D01*
X154960025Y-111866509D01*
X154923741Y-111859291D01*
X154892798Y-111879966D01*
X154885817Y-111896818D01*
X154884230Y-111898036D01*
X154882382Y-111897270D01*
X154881969Y-111896053D01*
X154881969Y-110553986D01*
X154882969Y-110552254D01*
X154884969Y-110552254D01*
X154885632Y-110552875D01*
G37*
G36*
X152885632Y-110552875D02*
G01*
X152906313Y-110583829D01*
X152942597Y-110591047D01*
X152973540Y-110570372D01*
X152980521Y-110553520D01*
X152982108Y-110552302D01*
X152983956Y-110553068D01*
X152984369Y-110554285D01*
X152984369Y-111896352D01*
X152983369Y-111898084D01*
X152981369Y-111898084D01*
X152980706Y-111897463D01*
X152960025Y-111866509D01*
X152923741Y-111859291D01*
X152892798Y-111879966D01*
X152885817Y-111896818D01*
X152884230Y-111898036D01*
X152882382Y-111897270D01*
X152881969Y-111896053D01*
X152881969Y-110553986D01*
X152882969Y-110552254D01*
X152884969Y-110552254D01*
X152885632Y-110552875D01*
G37*
G36*
X154385632Y-110552875D02*
G01*
X154406313Y-110583829D01*
X154442597Y-110591047D01*
X154473540Y-110570372D01*
X154480521Y-110553520D01*
X154482108Y-110552302D01*
X154483956Y-110553068D01*
X154484369Y-110554285D01*
X154484369Y-111896352D01*
X154483369Y-111898084D01*
X154481369Y-111898084D01*
X154480706Y-111897463D01*
X154460025Y-111866509D01*
X154423741Y-111859291D01*
X154392798Y-111879966D01*
X154385817Y-111896818D01*
X154384230Y-111898036D01*
X154382382Y-111897270D01*
X154381969Y-111896053D01*
X154381969Y-110553986D01*
X154382969Y-110552254D01*
X154384969Y-110552254D01*
X154385632Y-110552875D01*
G37*
G36*
X153885632Y-110552875D02*
G01*
X153906313Y-110583829D01*
X153942597Y-110591047D01*
X153973540Y-110570372D01*
X153980521Y-110553520D01*
X153982108Y-110552302D01*
X153983956Y-110553068D01*
X153984369Y-110554285D01*
X153984369Y-111896352D01*
X153983369Y-111898084D01*
X153981369Y-111898084D01*
X153980706Y-111897463D01*
X153960025Y-111866509D01*
X153923741Y-111859291D01*
X153892798Y-111879966D01*
X153885817Y-111896818D01*
X153884230Y-111898036D01*
X153882382Y-111897270D01*
X153881969Y-111896053D01*
X153881969Y-110553986D01*
X153882969Y-110552254D01*
X153884969Y-110552254D01*
X153885632Y-110552875D01*
G37*
G36*
X153385632Y-110552875D02*
G01*
X153406313Y-110583829D01*
X153442597Y-110591047D01*
X153473540Y-110570372D01*
X153480521Y-110553520D01*
X153482108Y-110552302D01*
X153483956Y-110553068D01*
X153484369Y-110554285D01*
X153484369Y-111896352D01*
X153483369Y-111898084D01*
X153481369Y-111898084D01*
X153480706Y-111897463D01*
X153460025Y-111866509D01*
X153423741Y-111859291D01*
X153392798Y-111879966D01*
X153385817Y-111896818D01*
X153384230Y-111898036D01*
X153382382Y-111897270D01*
X153381969Y-111896053D01*
X153381969Y-110553986D01*
X153382969Y-110552254D01*
X153384969Y-110552254D01*
X153385632Y-110552875D01*
G37*
M02*
