M48
; DRILL file {KiCad (6.0.4-0)} date Thursday, April 21, 2022 at 08:00:39 PM
; FORMAT={-:-/ absolute / inch / decimal}
; #@! TF.CreationDate,2022-04-21T20:00:39-07:00
; #@! TF.GenerationSoftware,Kicad,Pcbnew,(6.0.4-0)
; #@! TF.FileFunction,MixedPlating,1,2
FMAT,2
INCH
; #@! TA.AperFunction,Plated,PTH,ViaDrill
T1C0.0157
; #@! TA.AperFunction,Plated,PTH,ComponentDrill
T2C0.0295
; #@! TA.AperFunction,Plated,PTH,ComponentDrill
T3C0.0300
; #@! TA.AperFunction,Plated,PTH,ComponentDrill
T4C0.0354
; #@! TA.AperFunction,NonPlated,NPTH,ComponentDrill
T5C0.0866
%
G90
G05
T1
X5.3485Y-2.9414
X5.9665Y-4.6501
X6.0065Y-2.5288
X6.0065Y-4.6901
X6.0601Y-3.1269
X6.0665Y-4.6901
X6.1065Y-3.2651
X6.1388Y-3.0401
X6.2765Y-4.4501
X6.2765Y-4.5201
X6.4965Y-3.3301
T2
X5.131Y-3.0614
X5.181Y-3.1114
X5.231Y-3.0614
T3
X4.498Y-3.0101
X4.6949Y-3.0101
T4
X4.8569Y-3.4518
X4.8569Y-3.5518
X4.8569Y-3.6518
X4.8569Y-3.7518
X4.8569Y-3.8518
X4.8569Y-3.9518
X4.8569Y-4.0518
X4.8569Y-4.1518
X4.8569Y-4.2518
X4.8569Y-4.3518
X4.8569Y-4.4518
X4.8569Y-4.5518
X5.6569Y-3.4518
X5.6569Y-3.5518
X5.6569Y-3.6518
X5.6569Y-3.7518
X5.6569Y-3.8518
X5.6569Y-3.9518
X5.6569Y-4.0518
X5.6569Y-4.1518
X5.6569Y-4.2518
X5.6569Y-4.3518
X5.6569Y-4.4518
X5.6569Y-4.5518
X5.6569Y-4.6518
X5.6569Y-4.7518
X5.6569Y-4.8518
X5.6569Y-4.9518
T5
X4.6764Y-2.6084
X4.6779Y-4.891
X6.6059Y-2.6076
X6.6075Y-4.8906
T0
M30
