%TF.GenerationSoftware,KiCad,Pcbnew,(6.0.4-0)*%
%TF.CreationDate,2022-04-21T19:59:26-07:00*%
%TF.ProjectId,Labpass RFID Reader,4c616270-6173-4732-9052-464944205265,0.1.0*%
%TF.SameCoordinates,Original*%
%TF.FileFunction,Soldermask,Bot*%
%TF.FilePolarity,Negative*%
%FSLAX46Y46*%
G04 Gerber Fmt 4.6, Leading zero omitted, Abs format (unit mm)*
G04 Created by KiCad (PCBNEW (6.0.4-0)) date 2022-04-21 19:59:26*
%MOMM*%
%LPD*%
G01*
G04 APERTURE LIST*
G04 Aperture macros list*
%AMRoundRect*
0 Rectangle with rounded corners*
0 $1 Rounding radius*
0 $2 $3 $4 $5 $6 $7 $8 $9 X,Y pos of 4 corners*
0 Add a 4 corners polygon primitive as box body*
4,1,4,$2,$3,$4,$5,$6,$7,$8,$9,$2,$3,0*
0 Add four circle primitives for the rounded corners*
1,1,$1+$1,$2,$3*
1,1,$1+$1,$4,$5*
1,1,$1+$1,$6,$7*
1,1,$1+$1,$8,$9*
0 Add four rect primitives between the rounded corners*
20,1,$1+$1,$2,$3,$4,$5,0*
20,1,$1+$1,$4,$5,$6,$7,0*
20,1,$1+$1,$6,$7,$8,$9,0*
20,1,$1+$1,$8,$9,$2,$3,0*%
G04 Aperture macros list end*
%ADD10C,1.625600*%
%ADD11C,2.301600*%
%ADD12RoundRect,0.050800X0.650000X0.650000X-0.650000X0.650000X-0.650000X-0.650000X0.650000X-0.650000X0*%
%ADD13C,1.401600*%
%ADD14C,1.676400*%
%ADD15RoundRect,0.275800X0.225000X0.250000X-0.225000X0.250000X-0.225000X-0.250000X0.225000X-0.250000X0*%
%ADD16RoundRect,0.250800X-0.200000X-0.275000X0.200000X-0.275000X0.200000X0.275000X-0.200000X0.275000X0*%
%ADD17RoundRect,0.275800X-0.225000X-0.250000X0.225000X-0.250000X0.225000X0.250000X-0.225000X0.250000X0*%
G04 APERTURE END LIST*
D10*
%TO.C,BZ1*%
X119250169Y-76456169D03*
X114250169Y-76456169D03*
%TD*%
D11*
%TO.C,REF\u002A\u002A*%
X118779296Y-66252193D03*
%TD*%
%TO.C,REF\u002A\u002A*%
X118819296Y-124232193D03*
%TD*%
%TO.C,REF\u002A\u002A*%
X167829296Y-124222193D03*
%TD*%
D12*
%TO.C,Q1*%
X132866182Y-77760280D03*
D13*
X131596182Y-79030280D03*
X130326182Y-77760280D03*
%TD*%
D14*
%TO.C,U1*%
X143686169Y-123235419D03*
X123366169Y-105455419D03*
X123366169Y-107995419D03*
X123366169Y-92755419D03*
X123366169Y-97835419D03*
X143686169Y-87675419D03*
X123366169Y-102915419D03*
X123366169Y-95295419D03*
X123366169Y-100375419D03*
X143686169Y-115615419D03*
X143686169Y-113075419D03*
X143686169Y-110535419D03*
X143686169Y-107995419D03*
X143686169Y-105455419D03*
X143686169Y-102915419D03*
X123366169Y-115615419D03*
X123366169Y-113075419D03*
X143686169Y-118155419D03*
X143686169Y-95295419D03*
X143686169Y-97835419D03*
X143686169Y-120695419D03*
X143686169Y-125775419D03*
X143686169Y-92755419D03*
X143686169Y-100375419D03*
X123366169Y-90215419D03*
X123366169Y-87675419D03*
X143686169Y-90215419D03*
X123366169Y-110535419D03*
%TD*%
D11*
%TO.C,REF\u002A\u002A*%
X167789296Y-66232193D03*
%TD*%
D15*
%TO.C,C11*%
X160976169Y-111572169D03*
X159426169Y-111572169D03*
%TD*%
D16*
%TO.C,R12*%
X148691169Y-118114169D03*
X150341169Y-118114169D03*
%TD*%
D17*
%TO.C,C12*%
X159426169Y-109872169D03*
X160976169Y-109872169D03*
%TD*%
%TO.C,C10*%
X159426169Y-116272169D03*
X160976169Y-116272169D03*
%TD*%
D15*
%TO.C,C9*%
X160976169Y-118018169D03*
X159426169Y-118018169D03*
%TD*%
D17*
%TO.C,C13*%
X150944169Y-122372169D03*
X152494169Y-122372169D03*
%TD*%
D15*
%TO.C,C14*%
X152526169Y-120572169D03*
X150976169Y-120572169D03*
%TD*%
%TO.C,C2*%
X166576169Y-83314169D03*
X165026169Y-83314169D03*
%TD*%
%TO.C,C15*%
X155676169Y-122372169D03*
X154126169Y-122372169D03*
%TD*%
D17*
%TO.C,C16*%
X154126169Y-120572169D03*
X155676169Y-120572169D03*
%TD*%
D15*
%TO.C,C1*%
X154676169Y-77172169D03*
X153126169Y-77172169D03*
%TD*%
M02*
