%TF.GenerationSoftware,KiCad,Pcbnew,(6.0.4-0)*%
%TF.CreationDate,2022-04-21T19:59:26-07:00*%
%TF.ProjectId,Labpass RFID Reader,4c616270-6173-4732-9052-464944205265,0.1.0*%
%TF.SameCoordinates,Original*%
%TF.FileFunction,Legend,Bot*%
%TF.FilePolarity,Positive*%
%FSLAX46Y46*%
G04 Gerber Fmt 4.6, Leading zero omitted, Abs format (unit mm)*
G04 Created by KiCad (PCBNEW (6.0.4-0)) date 2022-04-21 19:59:26*
%MOMM*%
%LPD*%
G01*
G04 APERTURE LIST*
%ADD10C,0.150000*%
%ADD11C,0.120000*%
G04 APERTURE END LIST*
D10*
%TO.C,C11*%
X163869026Y-110229311D02*
X163916645Y-110276930D01*
X164059502Y-110324549D01*
X164154740Y-110324549D01*
X164297597Y-110276930D01*
X164392835Y-110181692D01*
X164440454Y-110086454D01*
X164488073Y-109895978D01*
X164488073Y-109753121D01*
X164440454Y-109562645D01*
X164392835Y-109467407D01*
X164297597Y-109372169D01*
X164154740Y-109324549D01*
X164059502Y-109324549D01*
X163916645Y-109372169D01*
X163869026Y-109419788D01*
X162916645Y-110324549D02*
X163488073Y-110324549D01*
X163202359Y-110324549D02*
X163202359Y-109324549D01*
X163297597Y-109467407D01*
X163392835Y-109562645D01*
X163488073Y-109610264D01*
X161964264Y-110324549D02*
X162535692Y-110324549D01*
X162249978Y-110324549D02*
X162249978Y-109324549D01*
X162345216Y-109467407D01*
X162440454Y-109562645D01*
X162535692Y-109610264D01*
%TO.C,R12*%
X147069026Y-118624549D02*
X147402359Y-118148359D01*
X147640454Y-118624549D02*
X147640454Y-117624549D01*
X147259502Y-117624549D01*
X147164264Y-117672169D01*
X147116645Y-117719788D01*
X147069026Y-117815026D01*
X147069026Y-117957883D01*
X147116645Y-118053121D01*
X147164264Y-118100740D01*
X147259502Y-118148359D01*
X147640454Y-118148359D01*
X146116645Y-118624549D02*
X146688073Y-118624549D01*
X146402359Y-118624549D02*
X146402359Y-117624549D01*
X146497597Y-117767407D01*
X146592835Y-117862645D01*
X146688073Y-117910264D01*
X145735692Y-117719788D02*
X145688073Y-117672169D01*
X145592835Y-117624549D01*
X145354740Y-117624549D01*
X145259502Y-117672169D01*
X145211883Y-117719788D01*
X145164264Y-117815026D01*
X145164264Y-117910264D01*
X145211883Y-118053121D01*
X145783311Y-118624549D01*
X145164264Y-118624549D01*
%TO.C,C12*%
X164069026Y-111929311D02*
X164116645Y-111976930D01*
X164259502Y-112024549D01*
X164354740Y-112024549D01*
X164497597Y-111976930D01*
X164592835Y-111881692D01*
X164640454Y-111786454D01*
X164688073Y-111595978D01*
X164688073Y-111453121D01*
X164640454Y-111262645D01*
X164592835Y-111167407D01*
X164497597Y-111072169D01*
X164354740Y-111024549D01*
X164259502Y-111024549D01*
X164116645Y-111072169D01*
X164069026Y-111119788D01*
X163116645Y-112024549D02*
X163688073Y-112024549D01*
X163402359Y-112024549D02*
X163402359Y-111024549D01*
X163497597Y-111167407D01*
X163592835Y-111262645D01*
X163688073Y-111310264D01*
X162735692Y-111119788D02*
X162688073Y-111072169D01*
X162592835Y-111024549D01*
X162354740Y-111024549D01*
X162259502Y-111072169D01*
X162211883Y-111119788D01*
X162164264Y-111215026D01*
X162164264Y-111310264D01*
X162211883Y-111453121D01*
X162783311Y-112024549D01*
X162164264Y-112024549D01*
%TO.C,C10*%
X163969026Y-118329311D02*
X164016645Y-118376930D01*
X164159502Y-118424549D01*
X164254740Y-118424549D01*
X164397597Y-118376930D01*
X164492835Y-118281692D01*
X164540454Y-118186454D01*
X164588073Y-117995978D01*
X164588073Y-117853121D01*
X164540454Y-117662645D01*
X164492835Y-117567407D01*
X164397597Y-117472169D01*
X164254740Y-117424549D01*
X164159502Y-117424549D01*
X164016645Y-117472169D01*
X163969026Y-117519788D01*
X163016645Y-118424549D02*
X163588073Y-118424549D01*
X163302359Y-118424549D02*
X163302359Y-117424549D01*
X163397597Y-117567407D01*
X163492835Y-117662645D01*
X163588073Y-117710264D01*
X162397597Y-117424549D02*
X162302359Y-117424549D01*
X162207121Y-117472169D01*
X162159502Y-117519788D01*
X162111883Y-117615026D01*
X162064264Y-117805502D01*
X162064264Y-118043597D01*
X162111883Y-118234073D01*
X162159502Y-118329311D01*
X162207121Y-118376930D01*
X162302359Y-118424549D01*
X162397597Y-118424549D01*
X162492835Y-118376930D01*
X162540454Y-118329311D01*
X162588073Y-118234073D01*
X162635692Y-118043597D01*
X162635692Y-117805502D01*
X162588073Y-117615026D01*
X162540454Y-117519788D01*
X162492835Y-117472169D01*
X162397597Y-117424549D01*
%TO.C,C9*%
X162992835Y-116629311D02*
X163040454Y-116676930D01*
X163183311Y-116724549D01*
X163278549Y-116724549D01*
X163421407Y-116676930D01*
X163516645Y-116581692D01*
X163564264Y-116486454D01*
X163611883Y-116295978D01*
X163611883Y-116153121D01*
X163564264Y-115962645D01*
X163516645Y-115867407D01*
X163421407Y-115772169D01*
X163278549Y-115724549D01*
X163183311Y-115724549D01*
X163040454Y-115772169D01*
X162992835Y-115819788D01*
X162516645Y-116724549D02*
X162326169Y-116724549D01*
X162230930Y-116676930D01*
X162183311Y-116629311D01*
X162088073Y-116486454D01*
X162040454Y-116295978D01*
X162040454Y-115915026D01*
X162088073Y-115819788D01*
X162135692Y-115772169D01*
X162230930Y-115724549D01*
X162421407Y-115724549D01*
X162516645Y-115772169D01*
X162564264Y-115819788D01*
X162611883Y-115915026D01*
X162611883Y-116153121D01*
X162564264Y-116248359D01*
X162516645Y-116295978D01*
X162421407Y-116343597D01*
X162230930Y-116343597D01*
X162135692Y-116295978D01*
X162088073Y-116248359D01*
X162040454Y-116153121D01*
%TO.C,C13*%
X149269026Y-122729311D02*
X149316645Y-122776930D01*
X149459502Y-122824549D01*
X149554740Y-122824549D01*
X149697597Y-122776930D01*
X149792835Y-122681692D01*
X149840454Y-122586454D01*
X149888073Y-122395978D01*
X149888073Y-122253121D01*
X149840454Y-122062645D01*
X149792835Y-121967407D01*
X149697597Y-121872169D01*
X149554740Y-121824549D01*
X149459502Y-121824549D01*
X149316645Y-121872169D01*
X149269026Y-121919788D01*
X148316645Y-122824549D02*
X148888073Y-122824549D01*
X148602359Y-122824549D02*
X148602359Y-121824549D01*
X148697597Y-121967407D01*
X148792835Y-122062645D01*
X148888073Y-122110264D01*
X147983311Y-121824549D02*
X147364264Y-121824549D01*
X147697597Y-122205502D01*
X147554740Y-122205502D01*
X147459502Y-122253121D01*
X147411883Y-122300740D01*
X147364264Y-122395978D01*
X147364264Y-122634073D01*
X147411883Y-122729311D01*
X147459502Y-122776930D01*
X147554740Y-122824549D01*
X147840454Y-122824549D01*
X147935692Y-122776930D01*
X147983311Y-122729311D01*
%TO.C,C14*%
X149369026Y-120929311D02*
X149416645Y-120976930D01*
X149559502Y-121024549D01*
X149654740Y-121024549D01*
X149797597Y-120976930D01*
X149892835Y-120881692D01*
X149940454Y-120786454D01*
X149988073Y-120595978D01*
X149988073Y-120453121D01*
X149940454Y-120262645D01*
X149892835Y-120167407D01*
X149797597Y-120072169D01*
X149654740Y-120024549D01*
X149559502Y-120024549D01*
X149416645Y-120072169D01*
X149369026Y-120119788D01*
X148416645Y-121024549D02*
X148988073Y-121024549D01*
X148702359Y-121024549D02*
X148702359Y-120024549D01*
X148797597Y-120167407D01*
X148892835Y-120262645D01*
X148988073Y-120310264D01*
X147559502Y-120357883D02*
X147559502Y-121024549D01*
X147797597Y-119976930D02*
X148035692Y-120691216D01*
X147416645Y-120691216D01*
%TO.C,C2*%
X165967835Y-82241311D02*
X166015454Y-82288930D01*
X166158311Y-82336549D01*
X166253549Y-82336549D01*
X166396407Y-82288930D01*
X166491645Y-82193692D01*
X166539264Y-82098454D01*
X166586883Y-81907978D01*
X166586883Y-81765121D01*
X166539264Y-81574645D01*
X166491645Y-81479407D01*
X166396407Y-81384169D01*
X166253549Y-81336549D01*
X166158311Y-81336549D01*
X166015454Y-81384169D01*
X165967835Y-81431788D01*
X165586883Y-81431788D02*
X165539264Y-81384169D01*
X165444026Y-81336549D01*
X165205930Y-81336549D01*
X165110692Y-81384169D01*
X165063073Y-81431788D01*
X165015454Y-81527026D01*
X165015454Y-81622264D01*
X165063073Y-81765121D01*
X165634502Y-82336549D01*
X165015454Y-82336549D01*
%TO.C,C15*%
X158669026Y-120929311D02*
X158716645Y-120976930D01*
X158859502Y-121024549D01*
X158954740Y-121024549D01*
X159097597Y-120976930D01*
X159192835Y-120881692D01*
X159240454Y-120786454D01*
X159288073Y-120595978D01*
X159288073Y-120453121D01*
X159240454Y-120262645D01*
X159192835Y-120167407D01*
X159097597Y-120072169D01*
X158954740Y-120024549D01*
X158859502Y-120024549D01*
X158716645Y-120072169D01*
X158669026Y-120119788D01*
X157716645Y-121024549D02*
X158288073Y-121024549D01*
X158002359Y-121024549D02*
X158002359Y-120024549D01*
X158097597Y-120167407D01*
X158192835Y-120262645D01*
X158288073Y-120310264D01*
X156811883Y-120024549D02*
X157288073Y-120024549D01*
X157335692Y-120500740D01*
X157288073Y-120453121D01*
X157192835Y-120405502D01*
X156954740Y-120405502D01*
X156859502Y-120453121D01*
X156811883Y-120500740D01*
X156764264Y-120595978D01*
X156764264Y-120834073D01*
X156811883Y-120929311D01*
X156859502Y-120976930D01*
X156954740Y-121024549D01*
X157192835Y-121024549D01*
X157288073Y-120976930D01*
X157335692Y-120929311D01*
%TO.C,C16*%
X158769026Y-122729311D02*
X158816645Y-122776930D01*
X158959502Y-122824549D01*
X159054740Y-122824549D01*
X159197597Y-122776930D01*
X159292835Y-122681692D01*
X159340454Y-122586454D01*
X159388073Y-122395978D01*
X159388073Y-122253121D01*
X159340454Y-122062645D01*
X159292835Y-121967407D01*
X159197597Y-121872169D01*
X159054740Y-121824549D01*
X158959502Y-121824549D01*
X158816645Y-121872169D01*
X158769026Y-121919788D01*
X157816645Y-122824549D02*
X158388073Y-122824549D01*
X158102359Y-122824549D02*
X158102359Y-121824549D01*
X158197597Y-121967407D01*
X158292835Y-122062645D01*
X158388073Y-122110264D01*
X156959502Y-121824549D02*
X157149978Y-121824549D01*
X157245216Y-121872169D01*
X157292835Y-121919788D01*
X157388073Y-122062645D01*
X157435692Y-122253121D01*
X157435692Y-122634073D01*
X157388073Y-122729311D01*
X157340454Y-122776930D01*
X157245216Y-122824549D01*
X157054740Y-122824549D01*
X156959502Y-122776930D01*
X156911883Y-122729311D01*
X156864264Y-122634073D01*
X156864264Y-122395978D01*
X156911883Y-122300740D01*
X156959502Y-122253121D01*
X157054740Y-122205502D01*
X157245216Y-122205502D01*
X157340454Y-122253121D01*
X157388073Y-122300740D01*
X157435692Y-122395978D01*
%TO.C,C1*%
X154067835Y-76099311D02*
X154115454Y-76146930D01*
X154258311Y-76194549D01*
X154353549Y-76194549D01*
X154496407Y-76146930D01*
X154591645Y-76051692D01*
X154639264Y-75956454D01*
X154686883Y-75765978D01*
X154686883Y-75623121D01*
X154639264Y-75432645D01*
X154591645Y-75337407D01*
X154496407Y-75242169D01*
X154353549Y-75194549D01*
X154258311Y-75194549D01*
X154115454Y-75242169D01*
X154067835Y-75289788D01*
X153115454Y-76194549D02*
X153686883Y-76194549D01*
X153401169Y-76194549D02*
X153401169Y-75194549D01*
X153496407Y-75337407D01*
X153591645Y-75432645D01*
X153686883Y-75480264D01*
D11*
%TO.C,C11*%
X160341749Y-111062169D02*
X160060589Y-111062169D01*
X160341749Y-112082169D02*
X160060589Y-112082169D01*
%TO.C,R12*%
X149278911Y-117591669D02*
X149753427Y-117591669D01*
X149278911Y-118636669D02*
X149753427Y-118636669D01*
%TO.C,C12*%
X160060589Y-109362169D02*
X160341749Y-109362169D01*
X160060589Y-110382169D02*
X160341749Y-110382169D01*
%TO.C,C10*%
X160060589Y-115762169D02*
X160341749Y-115762169D01*
X160060589Y-116782169D02*
X160341749Y-116782169D01*
%TO.C,C9*%
X160341749Y-117508169D02*
X160060589Y-117508169D01*
X160341749Y-118528169D02*
X160060589Y-118528169D01*
%TO.C,C13*%
X151578589Y-121862169D02*
X151859749Y-121862169D01*
X151578589Y-122882169D02*
X151859749Y-122882169D01*
%TO.C,C14*%
X151891749Y-120062169D02*
X151610589Y-120062169D01*
X151891749Y-121082169D02*
X151610589Y-121082169D01*
%TO.C,C2*%
X165941749Y-83824169D02*
X165660589Y-83824169D01*
X165941749Y-82804169D02*
X165660589Y-82804169D01*
%TO.C,C15*%
X155041749Y-122882169D02*
X154760589Y-122882169D01*
X155041749Y-121862169D02*
X154760589Y-121862169D01*
%TO.C,C16*%
X154760589Y-120062169D02*
X155041749Y-120062169D01*
X154760589Y-121082169D02*
X155041749Y-121082169D01*
%TO.C,C1*%
X154041749Y-76662169D02*
X153760589Y-76662169D01*
X154041749Y-77682169D02*
X153760589Y-77682169D01*
%TD*%
M02*
