%TF.GenerationSoftware,KiCad,Pcbnew,(6.0.4-0)*%
%TF.CreationDate,2022-04-21T22:45:57-07:00*%
%TF.ProjectId,Labpass RFID Reader,4c616270-6173-4732-9052-464944205265,0.1.0*%
%TF.SameCoordinates,Original*%
%TF.FileFunction,Legend,Top*%
%TF.FilePolarity,Positive*%
%FSLAX46Y46*%
G04 Gerber Fmt 4.6, Leading zero omitted, Abs format (unit mm)*
G04 Created by KiCad (PCBNEW (6.0.4-0)) date 2022-04-21 22:45:57*
%MOMM*%
%LPD*%
G01*
G04 APERTURE LIST*
%ADD10C,0.150000*%
%ADD11C,0.100000*%
%ADD12C,0.300000*%
%ADD13C,0.250000*%
%ADD14C,0.120000*%
%ADD15C,0.500000*%
%ADD16C,0.050000*%
G04 APERTURE END LIST*
D10*
X167476169Y-103872169D02*
X175676169Y-103872169D01*
X175676169Y-103872169D02*
X175676169Y-70172169D01*
X175676169Y-70172169D02*
X167476169Y-70172169D01*
X167476169Y-70172169D02*
X167476169Y-103872169D01*
D11*
X108222142Y-88818690D02*
X107984047Y-88818690D01*
X107984047Y-88318690D01*
X108388809Y-88556785D02*
X108555476Y-88556785D01*
X108626904Y-88818690D02*
X108388809Y-88818690D01*
X108388809Y-88318690D01*
X108626904Y-88318690D01*
X108841190Y-88818690D02*
X108841190Y-88318690D01*
X108960238Y-88318690D01*
X109031666Y-88342500D01*
X109079285Y-88390119D01*
X109103095Y-88437738D01*
X109126904Y-88532976D01*
X109126904Y-88604404D01*
X109103095Y-88699642D01*
X109079285Y-88747261D01*
X109031666Y-88794880D01*
X108960238Y-88818690D01*
X108841190Y-88818690D01*
X109984047Y-88818690D02*
X109698333Y-88818690D01*
X109841190Y-88818690D02*
X109841190Y-88318690D01*
X109793571Y-88390119D01*
X109745952Y-88437738D01*
X109698333Y-88461547D01*
X110865000Y-88818690D02*
X110698333Y-88580595D01*
X110579285Y-88818690D02*
X110579285Y-88318690D01*
X110769761Y-88318690D01*
X110817380Y-88342500D01*
X110841190Y-88366309D01*
X110865000Y-88413928D01*
X110865000Y-88485357D01*
X110841190Y-88532976D01*
X110817380Y-88556785D01*
X110769761Y-88580595D01*
X110579285Y-88580595D01*
X111079285Y-88628214D02*
X111460238Y-88628214D01*
X111269761Y-88818690D02*
X111269761Y-88437738D01*
X108222142Y-89623690D02*
X107984047Y-89623690D01*
X107984047Y-89123690D01*
X108388809Y-89361785D02*
X108555476Y-89361785D01*
X108626904Y-89623690D02*
X108388809Y-89623690D01*
X108388809Y-89123690D01*
X108626904Y-89123690D01*
X108841190Y-89623690D02*
X108841190Y-89123690D01*
X108960238Y-89123690D01*
X109031666Y-89147500D01*
X109079285Y-89195119D01*
X109103095Y-89242738D01*
X109126904Y-89337976D01*
X109126904Y-89409404D01*
X109103095Y-89504642D01*
X109079285Y-89552261D01*
X109031666Y-89599880D01*
X108960238Y-89623690D01*
X108841190Y-89623690D01*
X109984047Y-89623690D02*
X109698333Y-89623690D01*
X109841190Y-89623690D02*
X109841190Y-89123690D01*
X109793571Y-89195119D01*
X109745952Y-89242738D01*
X109698333Y-89266547D01*
X110841190Y-89147500D02*
X110793571Y-89123690D01*
X110722142Y-89123690D01*
X110650714Y-89147500D01*
X110603095Y-89195119D01*
X110579285Y-89242738D01*
X110555476Y-89337976D01*
X110555476Y-89409404D01*
X110579285Y-89504642D01*
X110603095Y-89552261D01*
X110650714Y-89599880D01*
X110722142Y-89623690D01*
X110769761Y-89623690D01*
X110841190Y-89599880D01*
X110865000Y-89576071D01*
X110865000Y-89409404D01*
X110769761Y-89409404D01*
X111079285Y-89433214D02*
X111460238Y-89433214D01*
X111269761Y-89623690D02*
X111269761Y-89242738D01*
X108222142Y-90428690D02*
X107984047Y-90428690D01*
X107984047Y-89928690D01*
X108388809Y-90166785D02*
X108555476Y-90166785D01*
X108626904Y-90428690D02*
X108388809Y-90428690D01*
X108388809Y-89928690D01*
X108626904Y-89928690D01*
X108841190Y-90428690D02*
X108841190Y-89928690D01*
X108960238Y-89928690D01*
X109031666Y-89952500D01*
X109079285Y-90000119D01*
X109103095Y-90047738D01*
X109126904Y-90142976D01*
X109126904Y-90214404D01*
X109103095Y-90309642D01*
X109079285Y-90357261D01*
X109031666Y-90404880D01*
X108960238Y-90428690D01*
X108841190Y-90428690D01*
X109984047Y-90428690D02*
X109698333Y-90428690D01*
X109841190Y-90428690D02*
X109841190Y-89928690D01*
X109793571Y-90000119D01*
X109745952Y-90047738D01*
X109698333Y-90071547D01*
X110745952Y-90166785D02*
X110817380Y-90190595D01*
X110841190Y-90214404D01*
X110865000Y-90262023D01*
X110865000Y-90333452D01*
X110841190Y-90381071D01*
X110817380Y-90404880D01*
X110769761Y-90428690D01*
X110579285Y-90428690D01*
X110579285Y-89928690D01*
X110745952Y-89928690D01*
X110793571Y-89952500D01*
X110817380Y-89976309D01*
X110841190Y-90023928D01*
X110841190Y-90071547D01*
X110817380Y-90119166D01*
X110793571Y-90142976D01*
X110745952Y-90166785D01*
X110579285Y-90166785D01*
X111079285Y-90238214D02*
X111460238Y-90238214D01*
X111269761Y-90428690D02*
X111269761Y-90047738D01*
X108222142Y-91233690D02*
X107984047Y-91233690D01*
X107984047Y-90733690D01*
X108388809Y-90971785D02*
X108555476Y-90971785D01*
X108626904Y-91233690D02*
X108388809Y-91233690D01*
X108388809Y-90733690D01*
X108626904Y-90733690D01*
X108841190Y-91233690D02*
X108841190Y-90733690D01*
X108960238Y-90733690D01*
X109031666Y-90757500D01*
X109079285Y-90805119D01*
X109103095Y-90852738D01*
X109126904Y-90947976D01*
X109126904Y-91019404D01*
X109103095Y-91114642D01*
X109079285Y-91162261D01*
X109031666Y-91209880D01*
X108960238Y-91233690D01*
X108841190Y-91233690D01*
X109984047Y-91233690D02*
X109698333Y-91233690D01*
X109841190Y-91233690D02*
X109841190Y-90733690D01*
X109793571Y-90805119D01*
X109745952Y-90852738D01*
X109698333Y-90876547D01*
X110841190Y-90757500D02*
X110793571Y-90733690D01*
X110722142Y-90733690D01*
X110650714Y-90757500D01*
X110603095Y-90805119D01*
X110579285Y-90852738D01*
X110555476Y-90947976D01*
X110555476Y-91019404D01*
X110579285Y-91114642D01*
X110603095Y-91162261D01*
X110650714Y-91209880D01*
X110722142Y-91233690D01*
X110769761Y-91233690D01*
X110841190Y-91209880D01*
X110865000Y-91186071D01*
X110865000Y-91019404D01*
X110769761Y-91019404D01*
X111079285Y-91233690D02*
X111079285Y-90733690D01*
X111365000Y-91233690D01*
X111365000Y-90733690D01*
X111603095Y-91233690D02*
X111603095Y-90733690D01*
X111722142Y-90733690D01*
X111793571Y-90757500D01*
X111841190Y-90805119D01*
X111865000Y-90852738D01*
X111888809Y-90947976D01*
X111888809Y-91019404D01*
X111865000Y-91114642D01*
X111841190Y-91162261D01*
X111793571Y-91209880D01*
X111722142Y-91233690D01*
X111603095Y-91233690D01*
X178166666Y-114126190D02*
X178452380Y-114126190D01*
X178309523Y-114626190D02*
X178309523Y-114126190D01*
X178547619Y-114126190D02*
X178714285Y-114626190D01*
X178880952Y-114126190D01*
X179023809Y-114602380D02*
X179095238Y-114626190D01*
X179214285Y-114626190D01*
X179261904Y-114602380D01*
X179285714Y-114578571D01*
X179309523Y-114530952D01*
X179309523Y-114483333D01*
X179285714Y-114435714D01*
X179261904Y-114411904D01*
X179214285Y-114388095D01*
X179119047Y-114364285D01*
X179071428Y-114340476D01*
X179047619Y-114316666D01*
X179023809Y-114269047D01*
X179023809Y-114221428D01*
X179047619Y-114173809D01*
X179071428Y-114150000D01*
X179119047Y-114126190D01*
X179238095Y-114126190D01*
X179309523Y-114150000D01*
X179500000Y-114602380D02*
X179571428Y-114626190D01*
X179690476Y-114626190D01*
X179738095Y-114602380D01*
X179761904Y-114578571D01*
X179785714Y-114530952D01*
X179785714Y-114483333D01*
X179761904Y-114435714D01*
X179738095Y-114411904D01*
X179690476Y-114388095D01*
X179595238Y-114364285D01*
X179547619Y-114340476D01*
X179523809Y-114316666D01*
X179500000Y-114269047D01*
X179500000Y-114221428D01*
X179523809Y-114173809D01*
X179547619Y-114150000D01*
X179595238Y-114126190D01*
X179714285Y-114126190D01*
X179785714Y-114150000D01*
X124473809Y-72823690D02*
X124235714Y-72823690D01*
X124235714Y-72323690D01*
X124807142Y-72561785D02*
X124640476Y-72561785D01*
X124640476Y-72823690D02*
X124640476Y-72323690D01*
X124878571Y-72323690D01*
X125426190Y-72680833D02*
X125664285Y-72680833D01*
X125378571Y-72823690D02*
X125545238Y-72323690D01*
X125711904Y-72823690D01*
X125878571Y-72490357D02*
X125878571Y-72823690D01*
X125878571Y-72537976D02*
X125902380Y-72514166D01*
X125950000Y-72490357D01*
X126021428Y-72490357D01*
X126069047Y-72514166D01*
X126092857Y-72561785D01*
X126092857Y-72823690D01*
X126259523Y-72490357D02*
X126450000Y-72490357D01*
X126330952Y-72323690D02*
X126330952Y-72752261D01*
X126354761Y-72799880D01*
X126402380Y-72823690D01*
X126450000Y-72823690D01*
X126807142Y-72799880D02*
X126759523Y-72823690D01*
X126664285Y-72823690D01*
X126616666Y-72799880D01*
X126592857Y-72752261D01*
X126592857Y-72561785D01*
X126616666Y-72514166D01*
X126664285Y-72490357D01*
X126759523Y-72490357D01*
X126807142Y-72514166D01*
X126830952Y-72561785D01*
X126830952Y-72609404D01*
X126592857Y-72657023D01*
X127045238Y-72490357D02*
X127045238Y-72823690D01*
X127045238Y-72537976D02*
X127069047Y-72514166D01*
X127116666Y-72490357D01*
X127188095Y-72490357D01*
X127235714Y-72514166D01*
X127259523Y-72561785D01*
X127259523Y-72823690D01*
X127497619Y-72490357D02*
X127497619Y-72823690D01*
X127497619Y-72537976D02*
X127521428Y-72514166D01*
X127569047Y-72490357D01*
X127640476Y-72490357D01*
X127688095Y-72514166D01*
X127711904Y-72561785D01*
X127711904Y-72823690D01*
X128164285Y-72823690D02*
X128164285Y-72561785D01*
X128140476Y-72514166D01*
X128092857Y-72490357D01*
X127997619Y-72490357D01*
X127950000Y-72514166D01*
X128164285Y-72799880D02*
X128116666Y-72823690D01*
X127997619Y-72823690D01*
X127950000Y-72799880D01*
X127926190Y-72752261D01*
X127926190Y-72704642D01*
X127950000Y-72657023D01*
X127997619Y-72633214D01*
X128116666Y-72633214D01*
X128164285Y-72609404D01*
X125878571Y-73581071D02*
X125854761Y-73604880D01*
X125783333Y-73628690D01*
X125735714Y-73628690D01*
X125664285Y-73604880D01*
X125616666Y-73557261D01*
X125592857Y-73509642D01*
X125569047Y-73414404D01*
X125569047Y-73342976D01*
X125592857Y-73247738D01*
X125616666Y-73200119D01*
X125664285Y-73152500D01*
X125735714Y-73128690D01*
X125783333Y-73128690D01*
X125854761Y-73152500D01*
X125878571Y-73176309D01*
X126164285Y-73628690D02*
X126116666Y-73604880D01*
X126092857Y-73581071D01*
X126069047Y-73533452D01*
X126069047Y-73390595D01*
X126092857Y-73342976D01*
X126116666Y-73319166D01*
X126164285Y-73295357D01*
X126235714Y-73295357D01*
X126283333Y-73319166D01*
X126307142Y-73342976D01*
X126330952Y-73390595D01*
X126330952Y-73533452D01*
X126307142Y-73581071D01*
X126283333Y-73604880D01*
X126235714Y-73628690D01*
X126164285Y-73628690D01*
X126545238Y-73628690D02*
X126545238Y-73295357D01*
X126545238Y-73128690D02*
X126521428Y-73152500D01*
X126545238Y-73176309D01*
X126569047Y-73152500D01*
X126545238Y-73128690D01*
X126545238Y-73176309D01*
X126854761Y-73628690D02*
X126807142Y-73604880D01*
X126783333Y-73557261D01*
X126783333Y-73128690D01*
X176309039Y-119181470D02*
X176309039Y-118681470D01*
X176309039Y-118919565D02*
X176594753Y-118919565D01*
X176594753Y-119181470D02*
X176594753Y-118681470D01*
X176999515Y-118919565D02*
X176832848Y-118919565D01*
X176832848Y-119181470D02*
X176832848Y-118681470D01*
X177070943Y-118681470D01*
X175285229Y-119843613D02*
X175523324Y-119843613D01*
X175237610Y-119986470D02*
X175404277Y-119486470D01*
X175570943Y-119986470D01*
X175737610Y-119653137D02*
X175737610Y-119986470D01*
X175737610Y-119700756D02*
X175761420Y-119676946D01*
X175809039Y-119653137D01*
X175880467Y-119653137D01*
X175928086Y-119676946D01*
X175951896Y-119724565D01*
X175951896Y-119986470D01*
X176118562Y-119653137D02*
X176309039Y-119653137D01*
X176189991Y-119486470D02*
X176189991Y-119915041D01*
X176213801Y-119962660D01*
X176261420Y-119986470D01*
X176309039Y-119986470D01*
X176666182Y-119962660D02*
X176618562Y-119986470D01*
X176523324Y-119986470D01*
X176475705Y-119962660D01*
X176451896Y-119915041D01*
X176451896Y-119724565D01*
X176475705Y-119676946D01*
X176523324Y-119653137D01*
X176618562Y-119653137D01*
X176666182Y-119676946D01*
X176689991Y-119724565D01*
X176689991Y-119772184D01*
X176451896Y-119819803D01*
X176904277Y-119653137D02*
X176904277Y-119986470D01*
X176904277Y-119700756D02*
X176928086Y-119676946D01*
X176975705Y-119653137D01*
X177047134Y-119653137D01*
X177094753Y-119676946D01*
X177118562Y-119724565D01*
X177118562Y-119986470D01*
X177356658Y-119653137D02*
X177356658Y-119986470D01*
X177356658Y-119700756D02*
X177380467Y-119676946D01*
X177428086Y-119653137D01*
X177499515Y-119653137D01*
X177547134Y-119676946D01*
X177570943Y-119724565D01*
X177570943Y-119986470D01*
X178023324Y-119986470D02*
X178023324Y-119724565D01*
X177999515Y-119676946D01*
X177951896Y-119653137D01*
X177856658Y-119653137D01*
X177809039Y-119676946D01*
X178023324Y-119962660D02*
X177975705Y-119986470D01*
X177856658Y-119986470D01*
X177809039Y-119962660D01*
X177785229Y-119915041D01*
X177785229Y-119867422D01*
X177809039Y-119819803D01*
X177856658Y-119795994D01*
X177975705Y-119795994D01*
X178023324Y-119772184D01*
X175713801Y-120291470D02*
X175999515Y-120291470D01*
X175856658Y-120791470D02*
X175856658Y-120291470D01*
X176166182Y-120791470D02*
X176166182Y-120458137D01*
X176166182Y-120553375D02*
X176189991Y-120505756D01*
X176213801Y-120481946D01*
X176261420Y-120458137D01*
X176309039Y-120458137D01*
X176689991Y-120791470D02*
X176689991Y-120529565D01*
X176666182Y-120481946D01*
X176618562Y-120458137D01*
X176523324Y-120458137D01*
X176475705Y-120481946D01*
X176689991Y-120767660D02*
X176642372Y-120791470D01*
X176523324Y-120791470D01*
X176475705Y-120767660D01*
X176451896Y-120720041D01*
X176451896Y-120672422D01*
X176475705Y-120624803D01*
X176523324Y-120600994D01*
X176642372Y-120600994D01*
X176689991Y-120577184D01*
X177142372Y-120767660D02*
X177094753Y-120791470D01*
X176999515Y-120791470D01*
X176951896Y-120767660D01*
X176928086Y-120743851D01*
X176904277Y-120696232D01*
X176904277Y-120553375D01*
X176928086Y-120505756D01*
X176951896Y-120481946D01*
X176999515Y-120458137D01*
X177094753Y-120458137D01*
X177142372Y-120481946D01*
X177547134Y-120767660D02*
X177499515Y-120791470D01*
X177404277Y-120791470D01*
X177356658Y-120767660D01*
X177332848Y-120720041D01*
X177332848Y-120529565D01*
X177356658Y-120481946D01*
X177404277Y-120458137D01*
X177499515Y-120458137D01*
X177547134Y-120481946D01*
X177570943Y-120529565D01*
X177570943Y-120577184D01*
X177332848Y-120624803D01*
D12*
X173804740Y-98015026D02*
X173861883Y-98072169D01*
X173919026Y-98243597D01*
X173919026Y-98357883D01*
X173861883Y-98529311D01*
X173747597Y-98643597D01*
X173633311Y-98700740D01*
X173404740Y-98757883D01*
X173233311Y-98757883D01*
X173004740Y-98700740D01*
X172890454Y-98643597D01*
X172776169Y-98529311D01*
X172719026Y-98357883D01*
X172719026Y-98243597D01*
X172776169Y-98072169D01*
X172833311Y-98015026D01*
X173919026Y-96986454D02*
X173290454Y-96986454D01*
X173176169Y-97043597D01*
X173119026Y-97157883D01*
X173119026Y-97386454D01*
X173176169Y-97500740D01*
X173861883Y-96986454D02*
X173919026Y-97100740D01*
X173919026Y-97386454D01*
X173861883Y-97500740D01*
X173747597Y-97557883D01*
X173633311Y-97557883D01*
X173519026Y-97500740D01*
X173461883Y-97386454D01*
X173461883Y-97100740D01*
X173404740Y-96986454D01*
X173119026Y-96415026D02*
X174319026Y-96415026D01*
X173176169Y-96415026D02*
X173119026Y-96300740D01*
X173119026Y-96072169D01*
X173176169Y-95957883D01*
X173233311Y-95900740D01*
X173347597Y-95843597D01*
X173690454Y-95843597D01*
X173804740Y-95900740D01*
X173861883Y-95957883D01*
X173919026Y-96072169D01*
X173919026Y-96300740D01*
X173861883Y-96415026D01*
X173861883Y-95386454D02*
X173919026Y-95272169D01*
X173919026Y-95043597D01*
X173861883Y-94929311D01*
X173747597Y-94872169D01*
X173690454Y-94872169D01*
X173576169Y-94929311D01*
X173519026Y-95043597D01*
X173519026Y-95215026D01*
X173461883Y-95329311D01*
X173347597Y-95386454D01*
X173290454Y-95386454D01*
X173176169Y-95329311D01*
X173119026Y-95215026D01*
X173119026Y-95043597D01*
X173176169Y-94929311D01*
X173119026Y-94529311D02*
X173119026Y-94072169D01*
X172719026Y-94357883D02*
X173747597Y-94357883D01*
X173861883Y-94300740D01*
X173919026Y-94186454D01*
X173919026Y-94072169D01*
X173919026Y-93500740D02*
X173861883Y-93615026D01*
X173804740Y-93672169D01*
X173690454Y-93729311D01*
X173347597Y-93729311D01*
X173233311Y-93672169D01*
X173176169Y-93615026D01*
X173119026Y-93500740D01*
X173119026Y-93329311D01*
X173176169Y-93215026D01*
X173233311Y-93157883D01*
X173347597Y-93100740D01*
X173690454Y-93100740D01*
X173804740Y-93157883D01*
X173861883Y-93215026D01*
X173919026Y-93329311D01*
X173919026Y-93500740D01*
X173119026Y-92586454D02*
X173919026Y-92586454D01*
X173233311Y-92586454D02*
X173176169Y-92529311D01*
X173119026Y-92415026D01*
X173119026Y-92243597D01*
X173176169Y-92129311D01*
X173290454Y-92072169D01*
X173919026Y-92072169D01*
X173861883Y-91043597D02*
X173919026Y-91157883D01*
X173919026Y-91386454D01*
X173861883Y-91500740D01*
X173747597Y-91557883D01*
X173290454Y-91557883D01*
X173176169Y-91500740D01*
X173119026Y-91386454D01*
X173119026Y-91157883D01*
X173176169Y-91043597D01*
X173290454Y-90986454D01*
X173404740Y-90986454D01*
X173519026Y-91557883D01*
X172719026Y-89729311D02*
X172719026Y-89043597D01*
X173919026Y-89386454D02*
X172719026Y-89386454D01*
X173861883Y-88186454D02*
X173919026Y-88300740D01*
X173919026Y-88529311D01*
X173861883Y-88643597D01*
X173747597Y-88700740D01*
X173290454Y-88700740D01*
X173176169Y-88643597D01*
X173119026Y-88529311D01*
X173119026Y-88300740D01*
X173176169Y-88186454D01*
X173290454Y-88129311D01*
X173404740Y-88129311D01*
X173519026Y-88700740D01*
X173919026Y-87100740D02*
X173290454Y-87100740D01*
X173176169Y-87157883D01*
X173119026Y-87272169D01*
X173119026Y-87500740D01*
X173176169Y-87615026D01*
X173861883Y-87100740D02*
X173919026Y-87215026D01*
X173919026Y-87500740D01*
X173861883Y-87615026D01*
X173747597Y-87672169D01*
X173633311Y-87672169D01*
X173519026Y-87615026D01*
X173461883Y-87500740D01*
X173461883Y-87215026D01*
X173404740Y-87100740D01*
X173919026Y-86529311D02*
X173119026Y-86529311D01*
X173233311Y-86529311D02*
X173176169Y-86472169D01*
X173119026Y-86357883D01*
X173119026Y-86186454D01*
X173176169Y-86072169D01*
X173290454Y-86015026D01*
X173919026Y-86015026D01*
X173290454Y-86015026D02*
X173176169Y-85957883D01*
X173119026Y-85843597D01*
X173119026Y-85672169D01*
X173176169Y-85557883D01*
X173290454Y-85500740D01*
X173919026Y-85500740D01*
X173919026Y-83386454D02*
X173919026Y-84072169D01*
X173919026Y-83729311D02*
X172719026Y-83729311D01*
X172890454Y-83843597D01*
X173004740Y-83957883D01*
X173061883Y-84072169D01*
X172719026Y-82986454D02*
X172719026Y-82186454D01*
X173919026Y-82700740D01*
X173861883Y-81672169D02*
X173919026Y-81672169D01*
X174033311Y-81729311D01*
X174090454Y-81786454D01*
X172833311Y-80300740D02*
X172776169Y-80243597D01*
X172719026Y-80129311D01*
X172719026Y-79843597D01*
X172776169Y-79729311D01*
X172833311Y-79672169D01*
X172947597Y-79615026D01*
X173061883Y-79615026D01*
X173233311Y-79672169D01*
X173919026Y-80357883D01*
X173919026Y-79615026D01*
X172719026Y-78872169D02*
X172719026Y-78757883D01*
X172776169Y-78643597D01*
X172833311Y-78586454D01*
X172947597Y-78529311D01*
X173176169Y-78472169D01*
X173461883Y-78472169D01*
X173690454Y-78529311D01*
X173804740Y-78586454D01*
X173861883Y-78643597D01*
X173919026Y-78757883D01*
X173919026Y-78872169D01*
X173861883Y-78986454D01*
X173804740Y-79043597D01*
X173690454Y-79100740D01*
X173461883Y-79157883D01*
X173176169Y-79157883D01*
X172947597Y-79100740D01*
X172833311Y-79043597D01*
X172776169Y-78986454D01*
X172719026Y-78872169D01*
X172833311Y-78015026D02*
X172776169Y-77957883D01*
X172719026Y-77843597D01*
X172719026Y-77557883D01*
X172776169Y-77443597D01*
X172833311Y-77386454D01*
X172947597Y-77329311D01*
X173061883Y-77329311D01*
X173233311Y-77386454D01*
X173919026Y-78072169D01*
X173919026Y-77329311D01*
X172833311Y-76872169D02*
X172776169Y-76815026D01*
X172719026Y-76700740D01*
X172719026Y-76415026D01*
X172776169Y-76300740D01*
X172833311Y-76243597D01*
X172947597Y-76186454D01*
X173061883Y-76186454D01*
X173233311Y-76243597D01*
X173919026Y-76929311D01*
X173919026Y-76186454D01*
X171180930Y-101680561D02*
X171180930Y-102632942D01*
X169180930Y-102382942D01*
X171180930Y-100156752D02*
X170133311Y-100025799D01*
X169942835Y-100097228D01*
X169847597Y-100275799D01*
X169847597Y-100656752D01*
X169942835Y-100859133D01*
X171085692Y-100144847D02*
X171180930Y-100347228D01*
X171180930Y-100823419D01*
X171085692Y-101001990D01*
X170895216Y-101073419D01*
X170704740Y-101049609D01*
X170514264Y-100930561D01*
X170419026Y-100728180D01*
X170419026Y-100251990D01*
X170323788Y-100049609D01*
X171180930Y-99204371D02*
X169180930Y-98954371D01*
X169942835Y-99049609D02*
X169847597Y-98847228D01*
X169847597Y-98466276D01*
X169942835Y-98287704D01*
X170038073Y-98204371D01*
X170228549Y-98132942D01*
X170799978Y-98204371D01*
X170990454Y-98323419D01*
X171085692Y-98430561D01*
X171180930Y-98632942D01*
X171180930Y-99013895D01*
X171085692Y-99192466D01*
X169847597Y-97228180D02*
X171847597Y-97478180D01*
X169942835Y-97240085D02*
X169847597Y-97037704D01*
X169847597Y-96656752D01*
X169942835Y-96478180D01*
X170038073Y-96394847D01*
X170228549Y-96323419D01*
X170799978Y-96394847D01*
X170990454Y-96513895D01*
X171085692Y-96621038D01*
X171180930Y-96823419D01*
X171180930Y-97204371D01*
X171085692Y-97382942D01*
X171180930Y-94728180D02*
X170133311Y-94597228D01*
X169942835Y-94668657D01*
X169847597Y-94847228D01*
X169847597Y-95228180D01*
X169942835Y-95430561D01*
X171085692Y-94716276D02*
X171180930Y-94918657D01*
X171180930Y-95394847D01*
X171085692Y-95573419D01*
X170895216Y-95644847D01*
X170704740Y-95621038D01*
X170514264Y-95501990D01*
X170419026Y-95299609D01*
X170419026Y-94823419D01*
X170323788Y-94621038D01*
X171085692Y-93859133D02*
X171180930Y-93680561D01*
X171180930Y-93299609D01*
X171085692Y-93097228D01*
X170895216Y-92978180D01*
X170799978Y-92966276D01*
X170609502Y-93037704D01*
X170514264Y-93216276D01*
X170514264Y-93501990D01*
X170419026Y-93680561D01*
X170228549Y-93751990D01*
X170133311Y-93740085D01*
X169942835Y-93621038D01*
X169847597Y-93418657D01*
X169847597Y-93132942D01*
X169942835Y-92954371D01*
X171085692Y-92240085D02*
X171180930Y-92061514D01*
X171180930Y-91680561D01*
X171085692Y-91478180D01*
X170895216Y-91359133D01*
X170799978Y-91347228D01*
X170609502Y-91418657D01*
X170514264Y-91597228D01*
X170514264Y-91882942D01*
X170419026Y-92061514D01*
X170228549Y-92132942D01*
X170133311Y-92121038D01*
X169942835Y-92001990D01*
X169847597Y-91799609D01*
X169847597Y-91513895D01*
X169942835Y-91335323D01*
X171180930Y-87871038D02*
X170228549Y-88418657D01*
X171180930Y-89013895D02*
X169180930Y-88763895D01*
X169180930Y-88001990D01*
X169276169Y-87823419D01*
X169371407Y-87740085D01*
X169561883Y-87668657D01*
X169847597Y-87704371D01*
X170038073Y-87823419D01*
X170133311Y-87930561D01*
X170228549Y-88132942D01*
X170228549Y-88894847D01*
X170133311Y-86216276D02*
X170133311Y-86882942D01*
X171180930Y-87013895D02*
X169180930Y-86763895D01*
X169180930Y-85811514D01*
X171180930Y-85299609D02*
X169180930Y-85049609D01*
X171180930Y-84347228D02*
X169180930Y-84097228D01*
X169180930Y-83621038D01*
X169276169Y-83347228D01*
X169466645Y-83180561D01*
X169657121Y-83109133D01*
X170038073Y-83061514D01*
X170323788Y-83097228D01*
X170704740Y-83240085D01*
X170895216Y-83359133D01*
X171085692Y-83573419D01*
X171180930Y-83871038D01*
X171180930Y-84347228D01*
X171180930Y-79680561D02*
X170228549Y-80228180D01*
X171180930Y-80823419D02*
X169180930Y-80573419D01*
X169180930Y-79811514D01*
X169276169Y-79632942D01*
X169371407Y-79549609D01*
X169561883Y-79478180D01*
X169847597Y-79513895D01*
X170038073Y-79632942D01*
X170133311Y-79740085D01*
X170228549Y-79942466D01*
X170228549Y-80704371D01*
X171085692Y-78049609D02*
X171180930Y-78251990D01*
X171180930Y-78632942D01*
X171085692Y-78811514D01*
X170895216Y-78882942D01*
X170133311Y-78787704D01*
X169942835Y-78668657D01*
X169847597Y-78466276D01*
X169847597Y-78085323D01*
X169942835Y-77906752D01*
X170133311Y-77835323D01*
X170323788Y-77859133D01*
X170514264Y-78835323D01*
X171180930Y-76251990D02*
X170133311Y-76121038D01*
X169942835Y-76192466D01*
X169847597Y-76371038D01*
X169847597Y-76751990D01*
X169942835Y-76954371D01*
X171085692Y-76240085D02*
X171180930Y-76442466D01*
X171180930Y-76918657D01*
X171085692Y-77097228D01*
X170895216Y-77168657D01*
X170704740Y-77144847D01*
X170514264Y-77025799D01*
X170419026Y-76823419D01*
X170419026Y-76347228D01*
X170323788Y-76144847D01*
X171180930Y-74442466D02*
X169180930Y-74192466D01*
X171085692Y-74430561D02*
X171180930Y-74632942D01*
X171180930Y-75013895D01*
X171085692Y-75192466D01*
X170990454Y-75275799D01*
X170799978Y-75347228D01*
X170228549Y-75275799D01*
X170038073Y-75156752D01*
X169942835Y-75049609D01*
X169847597Y-74847228D01*
X169847597Y-74466276D01*
X169942835Y-74287704D01*
X171085692Y-72716276D02*
X171180930Y-72918657D01*
X171180930Y-73299609D01*
X171085692Y-73478180D01*
X170895216Y-73549609D01*
X170133311Y-73454371D01*
X169942835Y-73335323D01*
X169847597Y-73132942D01*
X169847597Y-72751990D01*
X169942835Y-72573419D01*
X170133311Y-72501990D01*
X170323788Y-72525799D01*
X170514264Y-73501990D01*
X171180930Y-71775799D02*
X169847597Y-71609133D01*
X170228549Y-71656752D02*
X170038073Y-71537704D01*
X169942835Y-71430561D01*
X169847597Y-71228180D01*
X169847597Y-71037704D01*
D11*
X178580952Y-115126190D02*
X178866666Y-115126190D01*
X178723809Y-115626190D02*
X178723809Y-115126190D01*
X178985714Y-115126190D02*
X179319047Y-115626190D01*
X179319047Y-115126190D02*
X178985714Y-115626190D01*
X179485714Y-115173809D02*
X179509523Y-115150000D01*
X179557142Y-115126190D01*
X179676190Y-115126190D01*
X179723809Y-115150000D01*
X179747619Y-115173809D01*
X179771428Y-115221428D01*
X179771428Y-115269047D01*
X179747619Y-115340476D01*
X179461904Y-115626190D01*
X179771428Y-115626190D01*
X178580952Y-113126190D02*
X178866666Y-113126190D01*
X178723809Y-113626190D02*
X178723809Y-113126190D01*
X178985714Y-113126190D02*
X179319047Y-113626190D01*
X179319047Y-113126190D02*
X178985714Y-113626190D01*
X179771428Y-113626190D02*
X179485714Y-113626190D01*
X179628571Y-113626190D02*
X179628571Y-113126190D01*
X179580952Y-113197619D01*
X179533333Y-113245238D01*
X179485714Y-113269047D01*
D13*
X172823549Y-64766841D02*
X172347359Y-65040651D01*
X172823549Y-65338270D02*
X171823549Y-65213270D01*
X171823549Y-64832317D01*
X171871169Y-64743032D01*
X171918788Y-64701365D01*
X172014026Y-64665651D01*
X172156883Y-64683508D01*
X172252121Y-64743032D01*
X172299740Y-64796603D01*
X172347359Y-64897794D01*
X172347359Y-65278746D01*
X172775930Y-63951365D02*
X172823549Y-64052555D01*
X172823549Y-64243032D01*
X172775930Y-64332317D01*
X172680692Y-64368032D01*
X172299740Y-64320413D01*
X172204502Y-64260889D01*
X172156883Y-64159698D01*
X172156883Y-63969222D01*
X172204502Y-63879936D01*
X172299740Y-63844222D01*
X172394978Y-63856127D01*
X172490216Y-64344222D01*
X172156883Y-63493032D02*
X172823549Y-63338270D01*
X172156883Y-63016841D01*
X173433549Y-65618032D02*
X173433549Y-65522794D01*
X173481169Y-65433508D01*
X173528788Y-65391841D01*
X173624026Y-65356127D01*
X173814502Y-65332317D01*
X174052597Y-65362079D01*
X174243073Y-65433508D01*
X174338311Y-65493032D01*
X174385930Y-65546603D01*
X174433549Y-65647794D01*
X174433549Y-65743032D01*
X174385930Y-65832317D01*
X174338311Y-65873984D01*
X174243073Y-65909698D01*
X174052597Y-65933508D01*
X173814502Y-65903746D01*
X173624026Y-65832317D01*
X173528788Y-65772794D01*
X173481169Y-65719222D01*
X173433549Y-65618032D01*
X174338311Y-64969222D02*
X174385930Y-64927555D01*
X174433549Y-64981127D01*
X174385930Y-65022794D01*
X174338311Y-64969222D01*
X174433549Y-64981127D01*
X174433549Y-63981127D02*
X174433549Y-64552555D01*
X174433549Y-64266841D02*
X173433549Y-64141841D01*
X173576407Y-64254936D01*
X173671645Y-64362079D01*
X173719264Y-64463270D01*
X174338311Y-63540651D02*
X174385930Y-63498984D01*
X174433549Y-63552555D01*
X174385930Y-63594222D01*
X174338311Y-63540651D01*
X174433549Y-63552555D01*
X173433549Y-62760889D02*
X173433549Y-62665651D01*
X173481169Y-62576365D01*
X173528788Y-62534698D01*
X173624026Y-62498984D01*
X173814502Y-62475174D01*
X174052597Y-62504936D01*
X174243073Y-62576365D01*
X174338311Y-62635889D01*
X174385930Y-62689460D01*
X174433549Y-62790651D01*
X174433549Y-62885889D01*
X174385930Y-62975174D01*
X174338311Y-63016841D01*
X174243073Y-63052555D01*
X174052597Y-63076365D01*
X173814502Y-63046603D01*
X173624026Y-62975174D01*
X173528788Y-62915651D01*
X173481169Y-62862079D01*
X173433549Y-62760889D01*
D11*
X108222142Y-114818690D02*
X107984047Y-114818690D01*
X107984047Y-114318690D01*
X108388809Y-114556785D02*
X108555476Y-114556785D01*
X108626904Y-114818690D02*
X108388809Y-114818690D01*
X108388809Y-114318690D01*
X108626904Y-114318690D01*
X108841190Y-114818690D02*
X108841190Y-114318690D01*
X108960238Y-114318690D01*
X109031666Y-114342500D01*
X109079285Y-114390119D01*
X109103095Y-114437738D01*
X109126904Y-114532976D01*
X109126904Y-114604404D01*
X109103095Y-114699642D01*
X109079285Y-114747261D01*
X109031666Y-114794880D01*
X108960238Y-114818690D01*
X108841190Y-114818690D01*
X109698333Y-114366309D02*
X109722142Y-114342500D01*
X109769761Y-114318690D01*
X109888809Y-114318690D01*
X109936428Y-114342500D01*
X109960238Y-114366309D01*
X109984047Y-114413928D01*
X109984047Y-114461547D01*
X109960238Y-114532976D01*
X109674523Y-114818690D01*
X109984047Y-114818690D01*
X110865000Y-114818690D02*
X110698333Y-114580595D01*
X110579285Y-114818690D02*
X110579285Y-114318690D01*
X110769761Y-114318690D01*
X110817380Y-114342500D01*
X110841190Y-114366309D01*
X110865000Y-114413928D01*
X110865000Y-114485357D01*
X110841190Y-114532976D01*
X110817380Y-114556785D01*
X110769761Y-114580595D01*
X110579285Y-114580595D01*
X111079285Y-114628214D02*
X111460238Y-114628214D01*
X111269761Y-114818690D02*
X111269761Y-114437738D01*
X108222142Y-115623690D02*
X107984047Y-115623690D01*
X107984047Y-115123690D01*
X108388809Y-115361785D02*
X108555476Y-115361785D01*
X108626904Y-115623690D02*
X108388809Y-115623690D01*
X108388809Y-115123690D01*
X108626904Y-115123690D01*
X108841190Y-115623690D02*
X108841190Y-115123690D01*
X108960238Y-115123690D01*
X109031666Y-115147500D01*
X109079285Y-115195119D01*
X109103095Y-115242738D01*
X109126904Y-115337976D01*
X109126904Y-115409404D01*
X109103095Y-115504642D01*
X109079285Y-115552261D01*
X109031666Y-115599880D01*
X108960238Y-115623690D01*
X108841190Y-115623690D01*
X109698333Y-115171309D02*
X109722142Y-115147500D01*
X109769761Y-115123690D01*
X109888809Y-115123690D01*
X109936428Y-115147500D01*
X109960238Y-115171309D01*
X109984047Y-115218928D01*
X109984047Y-115266547D01*
X109960238Y-115337976D01*
X109674523Y-115623690D01*
X109984047Y-115623690D01*
X110841190Y-115147500D02*
X110793571Y-115123690D01*
X110722142Y-115123690D01*
X110650714Y-115147500D01*
X110603095Y-115195119D01*
X110579285Y-115242738D01*
X110555476Y-115337976D01*
X110555476Y-115409404D01*
X110579285Y-115504642D01*
X110603095Y-115552261D01*
X110650714Y-115599880D01*
X110722142Y-115623690D01*
X110769761Y-115623690D01*
X110841190Y-115599880D01*
X110865000Y-115576071D01*
X110865000Y-115409404D01*
X110769761Y-115409404D01*
X111079285Y-115433214D02*
X111460238Y-115433214D01*
X111269761Y-115623690D02*
X111269761Y-115242738D01*
X108222142Y-116428690D02*
X107984047Y-116428690D01*
X107984047Y-115928690D01*
X108388809Y-116166785D02*
X108555476Y-116166785D01*
X108626904Y-116428690D02*
X108388809Y-116428690D01*
X108388809Y-115928690D01*
X108626904Y-115928690D01*
X108841190Y-116428690D02*
X108841190Y-115928690D01*
X108960238Y-115928690D01*
X109031666Y-115952500D01*
X109079285Y-116000119D01*
X109103095Y-116047738D01*
X109126904Y-116142976D01*
X109126904Y-116214404D01*
X109103095Y-116309642D01*
X109079285Y-116357261D01*
X109031666Y-116404880D01*
X108960238Y-116428690D01*
X108841190Y-116428690D01*
X109698333Y-115976309D02*
X109722142Y-115952500D01*
X109769761Y-115928690D01*
X109888809Y-115928690D01*
X109936428Y-115952500D01*
X109960238Y-115976309D01*
X109984047Y-116023928D01*
X109984047Y-116071547D01*
X109960238Y-116142976D01*
X109674523Y-116428690D01*
X109984047Y-116428690D01*
X110745952Y-116166785D02*
X110817380Y-116190595D01*
X110841190Y-116214404D01*
X110865000Y-116262023D01*
X110865000Y-116333452D01*
X110841190Y-116381071D01*
X110817380Y-116404880D01*
X110769761Y-116428690D01*
X110579285Y-116428690D01*
X110579285Y-115928690D01*
X110745952Y-115928690D01*
X110793571Y-115952500D01*
X110817380Y-115976309D01*
X110841190Y-116023928D01*
X110841190Y-116071547D01*
X110817380Y-116119166D01*
X110793571Y-116142976D01*
X110745952Y-116166785D01*
X110579285Y-116166785D01*
X111079285Y-116238214D02*
X111460238Y-116238214D01*
X111269761Y-116428690D02*
X111269761Y-116047738D01*
X108222142Y-117233690D02*
X107984047Y-117233690D01*
X107984047Y-116733690D01*
X108388809Y-116971785D02*
X108555476Y-116971785D01*
X108626904Y-117233690D02*
X108388809Y-117233690D01*
X108388809Y-116733690D01*
X108626904Y-116733690D01*
X108841190Y-117233690D02*
X108841190Y-116733690D01*
X108960238Y-116733690D01*
X109031666Y-116757500D01*
X109079285Y-116805119D01*
X109103095Y-116852738D01*
X109126904Y-116947976D01*
X109126904Y-117019404D01*
X109103095Y-117114642D01*
X109079285Y-117162261D01*
X109031666Y-117209880D01*
X108960238Y-117233690D01*
X108841190Y-117233690D01*
X109698333Y-116781309D02*
X109722142Y-116757500D01*
X109769761Y-116733690D01*
X109888809Y-116733690D01*
X109936428Y-116757500D01*
X109960238Y-116781309D01*
X109984047Y-116828928D01*
X109984047Y-116876547D01*
X109960238Y-116947976D01*
X109674523Y-117233690D01*
X109984047Y-117233690D01*
X110841190Y-116757500D02*
X110793571Y-116733690D01*
X110722142Y-116733690D01*
X110650714Y-116757500D01*
X110603095Y-116805119D01*
X110579285Y-116852738D01*
X110555476Y-116947976D01*
X110555476Y-117019404D01*
X110579285Y-117114642D01*
X110603095Y-117162261D01*
X110650714Y-117209880D01*
X110722142Y-117233690D01*
X110769761Y-117233690D01*
X110841190Y-117209880D01*
X110865000Y-117186071D01*
X110865000Y-117019404D01*
X110769761Y-117019404D01*
X111079285Y-117233690D02*
X111079285Y-116733690D01*
X111365000Y-117233690D01*
X111365000Y-116733690D01*
X111603095Y-117233690D02*
X111603095Y-116733690D01*
X111722142Y-116733690D01*
X111793571Y-116757500D01*
X111841190Y-116805119D01*
X111865000Y-116852738D01*
X111888809Y-116947976D01*
X111888809Y-117019404D01*
X111865000Y-117114642D01*
X111841190Y-117162261D01*
X111793571Y-117209880D01*
X111722142Y-117233690D01*
X111603095Y-117233690D01*
D10*
%TO.C,U4*%
X150065549Y-115162073D02*
X150875073Y-115162073D01*
X150970311Y-115114454D01*
X151017930Y-115066835D01*
X151065549Y-114971597D01*
X151065549Y-114781121D01*
X151017930Y-114685883D01*
X150970311Y-114638264D01*
X150875073Y-114590645D01*
X150065549Y-114590645D01*
X150398883Y-113685883D02*
X151065549Y-113685883D01*
X150017930Y-113923978D02*
X150732216Y-114162073D01*
X150732216Y-113543026D01*
D11*
%TO.C,R15*%
X119944753Y-99586470D02*
X119778086Y-99348375D01*
X119659039Y-99586470D02*
X119659039Y-99086470D01*
X119849515Y-99086470D01*
X119897134Y-99110280D01*
X119920943Y-99134089D01*
X119944753Y-99181708D01*
X119944753Y-99253137D01*
X119920943Y-99300756D01*
X119897134Y-99324565D01*
X119849515Y-99348375D01*
X119659039Y-99348375D01*
X120420943Y-99586470D02*
X120135229Y-99586470D01*
X120278086Y-99586470D02*
X120278086Y-99086470D01*
X120230467Y-99157899D01*
X120182848Y-99205518D01*
X120135229Y-99229327D01*
X120873324Y-99086470D02*
X120635229Y-99086470D01*
X120611420Y-99324565D01*
X120635229Y-99300756D01*
X120682848Y-99276946D01*
X120801896Y-99276946D01*
X120849515Y-99300756D01*
X120873324Y-99324565D01*
X120897134Y-99372184D01*
X120897134Y-99491232D01*
X120873324Y-99538851D01*
X120849515Y-99562660D01*
X120801896Y-99586470D01*
X120682848Y-99586470D01*
X120635229Y-99562660D01*
X120611420Y-99538851D01*
D10*
%TO.C,C4*%
X148574502Y-64733311D02*
X148526883Y-64780930D01*
X148384026Y-64828549D01*
X148288788Y-64828549D01*
X148145930Y-64780930D01*
X148050692Y-64685692D01*
X148003073Y-64590454D01*
X147955454Y-64399978D01*
X147955454Y-64257121D01*
X148003073Y-64066645D01*
X148050692Y-63971407D01*
X148145930Y-63876169D01*
X148288788Y-63828549D01*
X148384026Y-63828549D01*
X148526883Y-63876169D01*
X148574502Y-63923788D01*
X149431645Y-64161883D02*
X149431645Y-64828549D01*
X149193549Y-63780930D02*
X148955454Y-64495216D01*
X149574502Y-64495216D01*
%TO.C,D1*%
X129459073Y-67462549D02*
X129459073Y-66462549D01*
X129697169Y-66462549D01*
X129840026Y-66510169D01*
X129935264Y-66605407D01*
X129982883Y-66700645D01*
X130030502Y-66891121D01*
X130030502Y-67033978D01*
X129982883Y-67224454D01*
X129935264Y-67319692D01*
X129840026Y-67414930D01*
X129697169Y-67462549D01*
X129459073Y-67462549D01*
X130982883Y-67462549D02*
X130411454Y-67462549D01*
X130697169Y-67462549D02*
X130697169Y-66462549D01*
X130601930Y-66605407D01*
X130506692Y-66700645D01*
X130411454Y-66748264D01*
%TO.C,Y1*%
X149349978Y-104648359D02*
X149349978Y-105124549D01*
X149016645Y-104124549D02*
X149349978Y-104648359D01*
X149683311Y-104124549D01*
X150540454Y-105124549D02*
X149969026Y-105124549D01*
X150254740Y-105124549D02*
X150254740Y-104124549D01*
X150159502Y-104267407D01*
X150064264Y-104362645D01*
X149969026Y-104410264D01*
%TO.C,BZ1*%
X115545216Y-84100740D02*
X115688073Y-84148359D01*
X115735692Y-84195978D01*
X115783311Y-84291216D01*
X115783311Y-84434073D01*
X115735692Y-84529311D01*
X115688073Y-84576930D01*
X115592835Y-84624549D01*
X115211883Y-84624549D01*
X115211883Y-83624549D01*
X115545216Y-83624549D01*
X115640454Y-83672169D01*
X115688073Y-83719788D01*
X115735692Y-83815026D01*
X115735692Y-83910264D01*
X115688073Y-84005502D01*
X115640454Y-84053121D01*
X115545216Y-84100740D01*
X115211883Y-84100740D01*
X116116645Y-83624549D02*
X116783311Y-83624549D01*
X116116645Y-84624549D01*
X116783311Y-84624549D01*
X117688073Y-84624549D02*
X117116645Y-84624549D01*
X117402359Y-84624549D02*
X117402359Y-83624549D01*
X117307121Y-83767407D01*
X117211883Y-83862645D01*
X117116645Y-83910264D01*
D13*
X120202549Y-73777597D02*
X118297788Y-73777597D01*
X119250169Y-72825216D02*
X119250169Y-74729978D01*
D10*
%TO.C,L2*%
X166859502Y-114424549D02*
X166383311Y-114424549D01*
X166383311Y-113424549D01*
X167145216Y-113519788D02*
X167192835Y-113472169D01*
X167288073Y-113424549D01*
X167526169Y-113424549D01*
X167621407Y-113472169D01*
X167669026Y-113519788D01*
X167716645Y-113615026D01*
X167716645Y-113710264D01*
X167669026Y-113853121D01*
X167097597Y-114424549D01*
X167716645Y-114424549D01*
%TO.C,C19*%
X160183311Y-112229311D02*
X160135692Y-112276930D01*
X159992835Y-112324549D01*
X159897597Y-112324549D01*
X159754740Y-112276930D01*
X159659502Y-112181692D01*
X159611883Y-112086454D01*
X159564264Y-111895978D01*
X159564264Y-111753121D01*
X159611883Y-111562645D01*
X159659502Y-111467407D01*
X159754740Y-111372169D01*
X159897597Y-111324549D01*
X159992835Y-111324549D01*
X160135692Y-111372169D01*
X160183311Y-111419788D01*
X161135692Y-112324549D02*
X160564264Y-112324549D01*
X160849978Y-112324549D02*
X160849978Y-111324549D01*
X160754740Y-111467407D01*
X160659502Y-111562645D01*
X160564264Y-111610264D01*
X161611883Y-112324549D02*
X161802359Y-112324549D01*
X161897597Y-112276930D01*
X161945216Y-112229311D01*
X162040454Y-112086454D01*
X162088073Y-111895978D01*
X162088073Y-111515026D01*
X162040454Y-111419788D01*
X161992835Y-111372169D01*
X161897597Y-111324549D01*
X161707121Y-111324549D01*
X161611883Y-111372169D01*
X161564264Y-111419788D01*
X161516645Y-111515026D01*
X161516645Y-111753121D01*
X161564264Y-111848359D01*
X161611883Y-111895978D01*
X161707121Y-111943597D01*
X161897597Y-111943597D01*
X161992835Y-111895978D01*
X162040454Y-111848359D01*
X162088073Y-111753121D01*
%TO.C,C8*%
X135243198Y-72329311D02*
X135195579Y-72376930D01*
X135052722Y-72424549D01*
X134957484Y-72424549D01*
X134814626Y-72376930D01*
X134719388Y-72281692D01*
X134671769Y-72186454D01*
X134624150Y-71995978D01*
X134624150Y-71853121D01*
X134671769Y-71662645D01*
X134719388Y-71567407D01*
X134814626Y-71472169D01*
X134957484Y-71424549D01*
X135052722Y-71424549D01*
X135195579Y-71472169D01*
X135243198Y-71519788D01*
X135814626Y-71853121D02*
X135719388Y-71805502D01*
X135671769Y-71757883D01*
X135624150Y-71662645D01*
X135624150Y-71615026D01*
X135671769Y-71519788D01*
X135719388Y-71472169D01*
X135814626Y-71424549D01*
X136005103Y-71424549D01*
X136100341Y-71472169D01*
X136147960Y-71519788D01*
X136195579Y-71615026D01*
X136195579Y-71662645D01*
X136147960Y-71757883D01*
X136100341Y-71805502D01*
X136005103Y-71853121D01*
X135814626Y-71853121D01*
X135719388Y-71900740D01*
X135671769Y-71948359D01*
X135624150Y-72043597D01*
X135624150Y-72234073D01*
X135671769Y-72329311D01*
X135719388Y-72376930D01*
X135814626Y-72424549D01*
X136005103Y-72424549D01*
X136100341Y-72376930D01*
X136147960Y-72329311D01*
X136195579Y-72234073D01*
X136195579Y-72043597D01*
X136147960Y-71948359D01*
X136100341Y-71900740D01*
X136005103Y-71853121D01*
D11*
%TO.C,R20*%
X119944753Y-107186470D02*
X119778086Y-106948375D01*
X119659039Y-107186470D02*
X119659039Y-106686470D01*
X119849515Y-106686470D01*
X119897134Y-106710280D01*
X119920943Y-106734089D01*
X119944753Y-106781708D01*
X119944753Y-106853137D01*
X119920943Y-106900756D01*
X119897134Y-106924565D01*
X119849515Y-106948375D01*
X119659039Y-106948375D01*
X120135229Y-106734089D02*
X120159039Y-106710280D01*
X120206658Y-106686470D01*
X120325705Y-106686470D01*
X120373324Y-106710280D01*
X120397134Y-106734089D01*
X120420943Y-106781708D01*
X120420943Y-106829327D01*
X120397134Y-106900756D01*
X120111420Y-107186470D01*
X120420943Y-107186470D01*
X120730467Y-106686470D02*
X120778086Y-106686470D01*
X120825705Y-106710280D01*
X120849515Y-106734089D01*
X120873324Y-106781708D01*
X120897134Y-106876946D01*
X120897134Y-106995994D01*
X120873324Y-107091232D01*
X120849515Y-107138851D01*
X120825705Y-107162660D01*
X120778086Y-107186470D01*
X120730467Y-107186470D01*
X120682848Y-107162660D01*
X120659039Y-107138851D01*
X120635229Y-107091232D01*
X120611420Y-106995994D01*
X120611420Y-106876946D01*
X120635229Y-106781708D01*
X120659039Y-106734089D01*
X120682848Y-106710280D01*
X120730467Y-106686470D01*
D10*
%TO.C,R14*%
X167098311Y-107386549D02*
X166764978Y-106910359D01*
X166526883Y-107386549D02*
X166526883Y-106386549D01*
X166907835Y-106386549D01*
X167003073Y-106434169D01*
X167050692Y-106481788D01*
X167098311Y-106577026D01*
X167098311Y-106719883D01*
X167050692Y-106815121D01*
X167003073Y-106862740D01*
X166907835Y-106910359D01*
X166526883Y-106910359D01*
X168050692Y-107386549D02*
X167479264Y-107386549D01*
X167764978Y-107386549D02*
X167764978Y-106386549D01*
X167669740Y-106529407D01*
X167574502Y-106624645D01*
X167479264Y-106672264D01*
X168907835Y-106719883D02*
X168907835Y-107386549D01*
X168669740Y-106338930D02*
X168431645Y-107053216D01*
X169050692Y-107053216D01*
%TO.C,R5*%
X158302502Y-66424549D02*
X157969169Y-65948359D01*
X157731073Y-66424549D02*
X157731073Y-65424549D01*
X158112026Y-65424549D01*
X158207264Y-65472169D01*
X158254883Y-65519788D01*
X158302502Y-65615026D01*
X158302502Y-65757883D01*
X158254883Y-65853121D01*
X158207264Y-65900740D01*
X158112026Y-65948359D01*
X157731073Y-65948359D01*
X159207264Y-65424549D02*
X158731073Y-65424549D01*
X158683454Y-65900740D01*
X158731073Y-65853121D01*
X158826311Y-65805502D01*
X159064407Y-65805502D01*
X159159645Y-65853121D01*
X159207264Y-65900740D01*
X159254883Y-65995978D01*
X159254883Y-66234073D01*
X159207264Y-66329311D01*
X159159645Y-66376930D01*
X159064407Y-66424549D01*
X158826311Y-66424549D01*
X158731073Y-66376930D01*
X158683454Y-66329311D01*
%TO.C,Q1*%
X127489943Y-78307899D02*
X127394705Y-78260280D01*
X127299467Y-78165041D01*
X127156610Y-78022184D01*
X127061372Y-77974565D01*
X126966134Y-77974565D01*
X127013753Y-78212660D02*
X126918515Y-78165041D01*
X126823277Y-78069803D01*
X126775658Y-77879327D01*
X126775658Y-77545994D01*
X126823277Y-77355518D01*
X126918515Y-77260280D01*
X127013753Y-77212660D01*
X127204229Y-77212660D01*
X127299467Y-77260280D01*
X127394705Y-77355518D01*
X127442324Y-77545994D01*
X127442324Y-77879327D01*
X127394705Y-78069803D01*
X127299467Y-78165041D01*
X127204229Y-78212660D01*
X127013753Y-78212660D01*
X128394705Y-78212660D02*
X127823277Y-78212660D01*
X128108991Y-78212660D02*
X128108991Y-77212660D01*
X128013753Y-77355518D01*
X127918515Y-77450756D01*
X127823277Y-77498375D01*
%TO.C,R4*%
X159459502Y-71024549D02*
X159126169Y-70548359D01*
X158888073Y-71024549D02*
X158888073Y-70024549D01*
X159269026Y-70024549D01*
X159364264Y-70072169D01*
X159411883Y-70119788D01*
X159459502Y-70215026D01*
X159459502Y-70357883D01*
X159411883Y-70453121D01*
X159364264Y-70500740D01*
X159269026Y-70548359D01*
X158888073Y-70548359D01*
X160316645Y-70357883D02*
X160316645Y-71024549D01*
X160078549Y-69976930D02*
X159840454Y-70691216D01*
X160459502Y-70691216D01*
%TO.C,R10*%
X138823324Y-80212660D02*
X138489991Y-79736470D01*
X138251896Y-80212660D02*
X138251896Y-79212660D01*
X138632848Y-79212660D01*
X138728086Y-79260280D01*
X138775705Y-79307899D01*
X138823324Y-79403137D01*
X138823324Y-79545994D01*
X138775705Y-79641232D01*
X138728086Y-79688851D01*
X138632848Y-79736470D01*
X138251896Y-79736470D01*
X139775705Y-80212660D02*
X139204277Y-80212660D01*
X139489991Y-80212660D02*
X139489991Y-79212660D01*
X139394753Y-79355518D01*
X139299515Y-79450756D01*
X139204277Y-79498375D01*
X140394753Y-79212660D02*
X140489991Y-79212660D01*
X140585229Y-79260280D01*
X140632848Y-79307899D01*
X140680467Y-79403137D01*
X140728086Y-79593613D01*
X140728086Y-79831708D01*
X140680467Y-80022184D01*
X140632848Y-80117422D01*
X140585229Y-80165041D01*
X140489991Y-80212660D01*
X140394753Y-80212660D01*
X140299515Y-80165041D01*
X140251896Y-80117422D01*
X140204277Y-80022184D01*
X140156658Y-79831708D01*
X140156658Y-79593613D01*
X140204277Y-79403137D01*
X140251896Y-79307899D01*
X140299515Y-79260280D01*
X140394753Y-79212660D01*
%TO.C,R3*%
X152651502Y-88529549D02*
X152318169Y-88053359D01*
X152080073Y-88529549D02*
X152080073Y-87529549D01*
X152461026Y-87529549D01*
X152556264Y-87577169D01*
X152603883Y-87624788D01*
X152651502Y-87720026D01*
X152651502Y-87862883D01*
X152603883Y-87958121D01*
X152556264Y-88005740D01*
X152461026Y-88053359D01*
X152080073Y-88053359D01*
X152984835Y-87529549D02*
X153603883Y-87529549D01*
X153270549Y-87910502D01*
X153413407Y-87910502D01*
X153508645Y-87958121D01*
X153556264Y-88005740D01*
X153603883Y-88100978D01*
X153603883Y-88339073D01*
X153556264Y-88434311D01*
X153508645Y-88481930D01*
X153413407Y-88529549D01*
X153127692Y-88529549D01*
X153032454Y-88481930D01*
X152984835Y-88434311D01*
D11*
%TO.C,R16*%
X119944753Y-94586470D02*
X119778086Y-94348375D01*
X119659039Y-94586470D02*
X119659039Y-94086470D01*
X119849515Y-94086470D01*
X119897134Y-94110280D01*
X119920943Y-94134089D01*
X119944753Y-94181708D01*
X119944753Y-94253137D01*
X119920943Y-94300756D01*
X119897134Y-94324565D01*
X119849515Y-94348375D01*
X119659039Y-94348375D01*
X120420943Y-94586470D02*
X120135229Y-94586470D01*
X120278086Y-94586470D02*
X120278086Y-94086470D01*
X120230467Y-94157899D01*
X120182848Y-94205518D01*
X120135229Y-94229327D01*
X120849515Y-94086470D02*
X120754277Y-94086470D01*
X120706658Y-94110280D01*
X120682848Y-94134089D01*
X120635229Y-94205518D01*
X120611420Y-94300756D01*
X120611420Y-94491232D01*
X120635229Y-94538851D01*
X120659039Y-94562660D01*
X120706658Y-94586470D01*
X120801896Y-94586470D01*
X120849515Y-94562660D01*
X120873324Y-94538851D01*
X120897134Y-94491232D01*
X120897134Y-94372184D01*
X120873324Y-94324565D01*
X120849515Y-94300756D01*
X120801896Y-94276946D01*
X120706658Y-94276946D01*
X120659039Y-94300756D01*
X120635229Y-94324565D01*
X120611420Y-94372184D01*
D10*
%TO.C,J2*%
X107666666Y-94052380D02*
X107666666Y-94766666D01*
X107619047Y-94909523D01*
X107523809Y-95004761D01*
X107380952Y-95052380D01*
X107285714Y-95052380D01*
X108095238Y-94147619D02*
X108142857Y-94100000D01*
X108238095Y-94052380D01*
X108476190Y-94052380D01*
X108571428Y-94100000D01*
X108619047Y-94147619D01*
X108666666Y-94242857D01*
X108666666Y-94338095D01*
X108619047Y-94480952D01*
X108047619Y-95052380D01*
X108666666Y-95052380D01*
%TO.C,R9*%
X138643198Y-69462245D02*
X138309865Y-68986055D01*
X138071769Y-69462245D02*
X138071769Y-68462245D01*
X138452722Y-68462245D01*
X138547960Y-68509865D01*
X138595579Y-68557484D01*
X138643198Y-68652722D01*
X138643198Y-68795579D01*
X138595579Y-68890817D01*
X138547960Y-68938436D01*
X138452722Y-68986055D01*
X138071769Y-68986055D01*
X139119388Y-69462245D02*
X139309865Y-69462245D01*
X139405103Y-69414626D01*
X139452722Y-69367007D01*
X139547960Y-69224150D01*
X139595579Y-69033674D01*
X139595579Y-68652722D01*
X139547960Y-68557484D01*
X139500341Y-68509865D01*
X139405103Y-68462245D01*
X139214626Y-68462245D01*
X139119388Y-68509865D01*
X139071769Y-68557484D01*
X139024150Y-68652722D01*
X139024150Y-68890817D01*
X139071769Y-68986055D01*
X139119388Y-69033674D01*
X139214626Y-69081293D01*
X139405103Y-69081293D01*
X139500341Y-69033674D01*
X139547960Y-68986055D01*
X139595579Y-68890817D01*
%TO.C,C3*%
X161569502Y-66329311D02*
X161521883Y-66376930D01*
X161379026Y-66424549D01*
X161283788Y-66424549D01*
X161140930Y-66376930D01*
X161045692Y-66281692D01*
X160998073Y-66186454D01*
X160950454Y-65995978D01*
X160950454Y-65853121D01*
X160998073Y-65662645D01*
X161045692Y-65567407D01*
X161140930Y-65472169D01*
X161283788Y-65424549D01*
X161379026Y-65424549D01*
X161521883Y-65472169D01*
X161569502Y-65519788D01*
X161902835Y-65424549D02*
X162521883Y-65424549D01*
X162188549Y-65805502D01*
X162331407Y-65805502D01*
X162426645Y-65853121D01*
X162474264Y-65900740D01*
X162521883Y-65995978D01*
X162521883Y-66234073D01*
X162474264Y-66329311D01*
X162426645Y-66376930D01*
X162331407Y-66424549D01*
X162045692Y-66424549D01*
X161950454Y-66376930D01*
X161902835Y-66329311D01*
%TO.C,C17*%
X154983311Y-99929311D02*
X154935692Y-99976930D01*
X154792835Y-100024549D01*
X154697597Y-100024549D01*
X154554740Y-99976930D01*
X154459502Y-99881692D01*
X154411883Y-99786454D01*
X154364264Y-99595978D01*
X154364264Y-99453121D01*
X154411883Y-99262645D01*
X154459502Y-99167407D01*
X154554740Y-99072169D01*
X154697597Y-99024549D01*
X154792835Y-99024549D01*
X154935692Y-99072169D01*
X154983311Y-99119788D01*
X155935692Y-100024549D02*
X155364264Y-100024549D01*
X155649978Y-100024549D02*
X155649978Y-99024549D01*
X155554740Y-99167407D01*
X155459502Y-99262645D01*
X155364264Y-99310264D01*
X156269026Y-99024549D02*
X156935692Y-99024549D01*
X156507121Y-100024549D01*
D11*
%TO.C,R18*%
X119944753Y-102186470D02*
X119778086Y-101948375D01*
X119659039Y-102186470D02*
X119659039Y-101686470D01*
X119849515Y-101686470D01*
X119897134Y-101710280D01*
X119920943Y-101734089D01*
X119944753Y-101781708D01*
X119944753Y-101853137D01*
X119920943Y-101900756D01*
X119897134Y-101924565D01*
X119849515Y-101948375D01*
X119659039Y-101948375D01*
X120420943Y-102186470D02*
X120135229Y-102186470D01*
X120278086Y-102186470D02*
X120278086Y-101686470D01*
X120230467Y-101757899D01*
X120182848Y-101805518D01*
X120135229Y-101829327D01*
X120706658Y-101900756D02*
X120659039Y-101876946D01*
X120635229Y-101853137D01*
X120611420Y-101805518D01*
X120611420Y-101781708D01*
X120635229Y-101734089D01*
X120659039Y-101710280D01*
X120706658Y-101686470D01*
X120801896Y-101686470D01*
X120849515Y-101710280D01*
X120873324Y-101734089D01*
X120897134Y-101781708D01*
X120897134Y-101805518D01*
X120873324Y-101853137D01*
X120849515Y-101876946D01*
X120801896Y-101900756D01*
X120706658Y-101900756D01*
X120659039Y-101924565D01*
X120635229Y-101948375D01*
X120611420Y-101995994D01*
X120611420Y-102091232D01*
X120635229Y-102138851D01*
X120659039Y-102162660D01*
X120706658Y-102186470D01*
X120801896Y-102186470D01*
X120849515Y-102162660D01*
X120873324Y-102138851D01*
X120897134Y-102091232D01*
X120897134Y-101995994D01*
X120873324Y-101948375D01*
X120849515Y-101924565D01*
X120801896Y-101900756D01*
D10*
%TO.C,R7*%
X151127502Y-71288549D02*
X150794169Y-70812359D01*
X150556073Y-71288549D02*
X150556073Y-70288549D01*
X150937026Y-70288549D01*
X151032264Y-70336169D01*
X151079883Y-70383788D01*
X151127502Y-70479026D01*
X151127502Y-70621883D01*
X151079883Y-70717121D01*
X151032264Y-70764740D01*
X150937026Y-70812359D01*
X150556073Y-70812359D01*
X151460835Y-70288549D02*
X152127502Y-70288549D01*
X151698930Y-71288549D01*
%TO.C,C18*%
X151483311Y-99929311D02*
X151435692Y-99976930D01*
X151292835Y-100024549D01*
X151197597Y-100024549D01*
X151054740Y-99976930D01*
X150959502Y-99881692D01*
X150911883Y-99786454D01*
X150864264Y-99595978D01*
X150864264Y-99453121D01*
X150911883Y-99262645D01*
X150959502Y-99167407D01*
X151054740Y-99072169D01*
X151197597Y-99024549D01*
X151292835Y-99024549D01*
X151435692Y-99072169D01*
X151483311Y-99119788D01*
X152435692Y-100024549D02*
X151864264Y-100024549D01*
X152149978Y-100024549D02*
X152149978Y-99024549D01*
X152054740Y-99167407D01*
X151959502Y-99262645D01*
X151864264Y-99310264D01*
X153007121Y-99453121D02*
X152911883Y-99405502D01*
X152864264Y-99357883D01*
X152816645Y-99262645D01*
X152816645Y-99215026D01*
X152864264Y-99119788D01*
X152911883Y-99072169D01*
X153007121Y-99024549D01*
X153197597Y-99024549D01*
X153292835Y-99072169D01*
X153340454Y-99119788D01*
X153388073Y-99215026D01*
X153388073Y-99262645D01*
X153340454Y-99357883D01*
X153292835Y-99405502D01*
X153197597Y-99453121D01*
X153007121Y-99453121D01*
X152911883Y-99500740D01*
X152864264Y-99548359D01*
X152816645Y-99643597D01*
X152816645Y-99834073D01*
X152864264Y-99929311D01*
X152911883Y-99976930D01*
X153007121Y-100024549D01*
X153197597Y-100024549D01*
X153292835Y-99976930D01*
X153340454Y-99929311D01*
X153388073Y-99834073D01*
X153388073Y-99643597D01*
X153340454Y-99548359D01*
X153292835Y-99500740D01*
X153197597Y-99453121D01*
%TO.C,J1*%
X176211666Y-109052380D02*
X176211666Y-109766666D01*
X176164047Y-109909523D01*
X176068809Y-110004761D01*
X175925952Y-110052380D01*
X175830714Y-110052380D01*
X177211666Y-110052380D02*
X176640238Y-110052380D01*
X176925952Y-110052380D02*
X176925952Y-109052380D01*
X176830714Y-109195238D01*
X176735476Y-109290476D01*
X176640238Y-109338095D01*
%TO.C,R8*%
X143698502Y-64728549D02*
X143365169Y-64252359D01*
X143127073Y-64728549D02*
X143127073Y-63728549D01*
X143508026Y-63728549D01*
X143603264Y-63776169D01*
X143650883Y-63823788D01*
X143698502Y-63919026D01*
X143698502Y-64061883D01*
X143650883Y-64157121D01*
X143603264Y-64204740D01*
X143508026Y-64252359D01*
X143127073Y-64252359D01*
X144269930Y-64157121D02*
X144174692Y-64109502D01*
X144127073Y-64061883D01*
X144079454Y-63966645D01*
X144079454Y-63919026D01*
X144127073Y-63823788D01*
X144174692Y-63776169D01*
X144269930Y-63728549D01*
X144460407Y-63728549D01*
X144555645Y-63776169D01*
X144603264Y-63823788D01*
X144650883Y-63919026D01*
X144650883Y-63966645D01*
X144603264Y-64061883D01*
X144555645Y-64109502D01*
X144460407Y-64157121D01*
X144269930Y-64157121D01*
X144174692Y-64204740D01*
X144127073Y-64252359D01*
X144079454Y-64347597D01*
X144079454Y-64538073D01*
X144127073Y-64633311D01*
X144174692Y-64680930D01*
X144269930Y-64728549D01*
X144460407Y-64728549D01*
X144555645Y-64680930D01*
X144603264Y-64633311D01*
X144650883Y-64538073D01*
X144650883Y-64347597D01*
X144603264Y-64252359D01*
X144555645Y-64204740D01*
X144460407Y-64157121D01*
%TO.C,C6*%
X140359502Y-64629311D02*
X140311883Y-64676930D01*
X140169026Y-64724549D01*
X140073788Y-64724549D01*
X139930930Y-64676930D01*
X139835692Y-64581692D01*
X139788073Y-64486454D01*
X139740454Y-64295978D01*
X139740454Y-64153121D01*
X139788073Y-63962645D01*
X139835692Y-63867407D01*
X139930930Y-63772169D01*
X140073788Y-63724549D01*
X140169026Y-63724549D01*
X140311883Y-63772169D01*
X140359502Y-63819788D01*
X141216645Y-63724549D02*
X141026169Y-63724549D01*
X140930930Y-63772169D01*
X140883311Y-63819788D01*
X140788073Y-63962645D01*
X140740454Y-64153121D01*
X140740454Y-64534073D01*
X140788073Y-64629311D01*
X140835692Y-64676930D01*
X140930930Y-64724549D01*
X141121407Y-64724549D01*
X141216645Y-64676930D01*
X141264264Y-64629311D01*
X141311883Y-64534073D01*
X141311883Y-64295978D01*
X141264264Y-64200740D01*
X141216645Y-64153121D01*
X141121407Y-64105502D01*
X140930930Y-64105502D01*
X140835692Y-64153121D01*
X140788073Y-64200740D01*
X140740454Y-64295978D01*
%TO.C,U3*%
X164364264Y-80824549D02*
X164364264Y-81634073D01*
X164411883Y-81729311D01*
X164459502Y-81776930D01*
X164554740Y-81824549D01*
X164745216Y-81824549D01*
X164840454Y-81776930D01*
X164888073Y-81729311D01*
X164935692Y-81634073D01*
X164935692Y-80824549D01*
X165316645Y-80824549D02*
X165935692Y-80824549D01*
X165602359Y-81205502D01*
X165745216Y-81205502D01*
X165840454Y-81253121D01*
X165888073Y-81300740D01*
X165935692Y-81395978D01*
X165935692Y-81634073D01*
X165888073Y-81729311D01*
X165840454Y-81776930D01*
X165745216Y-81824549D01*
X165459502Y-81824549D01*
X165364264Y-81776930D01*
X165316645Y-81729311D01*
D11*
%TO.C,R17*%
X119944753Y-96986470D02*
X119778086Y-96748375D01*
X119659039Y-96986470D02*
X119659039Y-96486470D01*
X119849515Y-96486470D01*
X119897134Y-96510280D01*
X119920943Y-96534089D01*
X119944753Y-96581708D01*
X119944753Y-96653137D01*
X119920943Y-96700756D01*
X119897134Y-96724565D01*
X119849515Y-96748375D01*
X119659039Y-96748375D01*
X120420943Y-96986470D02*
X120135229Y-96986470D01*
X120278086Y-96986470D02*
X120278086Y-96486470D01*
X120230467Y-96557899D01*
X120182848Y-96605518D01*
X120135229Y-96629327D01*
X120587610Y-96486470D02*
X120920943Y-96486470D01*
X120706658Y-96986470D01*
D10*
%TO.C,U1*%
X145564264Y-127424549D02*
X145564264Y-128234073D01*
X145611883Y-128329311D01*
X145659502Y-128376930D01*
X145754740Y-128424549D01*
X145945216Y-128424549D01*
X146040454Y-128376930D01*
X146088073Y-128329311D01*
X146135692Y-128234073D01*
X146135692Y-127424549D01*
X147135692Y-128424549D02*
X146564264Y-128424549D01*
X146849978Y-128424549D02*
X146849978Y-127424549D01*
X146754740Y-127567407D01*
X146659502Y-127662645D01*
X146564264Y-127710264D01*
%TO.C,C20*%
X170883311Y-108529311D02*
X170835692Y-108576930D01*
X170692835Y-108624549D01*
X170597597Y-108624549D01*
X170454740Y-108576930D01*
X170359502Y-108481692D01*
X170311883Y-108386454D01*
X170264264Y-108195978D01*
X170264264Y-108053121D01*
X170311883Y-107862645D01*
X170359502Y-107767407D01*
X170454740Y-107672169D01*
X170597597Y-107624549D01*
X170692835Y-107624549D01*
X170835692Y-107672169D01*
X170883311Y-107719788D01*
X171264264Y-107719788D02*
X171311883Y-107672169D01*
X171407121Y-107624549D01*
X171645216Y-107624549D01*
X171740454Y-107672169D01*
X171788073Y-107719788D01*
X171835692Y-107815026D01*
X171835692Y-107910264D01*
X171788073Y-108053121D01*
X171216645Y-108624549D01*
X171835692Y-108624549D01*
X172454740Y-107624549D02*
X172549978Y-107624549D01*
X172645216Y-107672169D01*
X172692835Y-107719788D01*
X172740454Y-107815026D01*
X172788073Y-108005502D01*
X172788073Y-108243597D01*
X172740454Y-108434073D01*
X172692835Y-108529311D01*
X172645216Y-108576930D01*
X172549978Y-108624549D01*
X172454740Y-108624549D01*
X172359502Y-108576930D01*
X172311883Y-108529311D01*
X172264264Y-108434073D01*
X172216645Y-108243597D01*
X172216645Y-108005502D01*
X172264264Y-107815026D01*
X172311883Y-107719788D01*
X172359502Y-107672169D01*
X172454740Y-107624549D01*
%TO.C,U2*%
X164364264Y-87924549D02*
X164364264Y-88734073D01*
X164411883Y-88829311D01*
X164459502Y-88876930D01*
X164554740Y-88924549D01*
X164745216Y-88924549D01*
X164840454Y-88876930D01*
X164888073Y-88829311D01*
X164935692Y-88734073D01*
X164935692Y-87924549D01*
X165364264Y-88019788D02*
X165411883Y-87972169D01*
X165507121Y-87924549D01*
X165745216Y-87924549D01*
X165840454Y-87972169D01*
X165888073Y-88019788D01*
X165935692Y-88115026D01*
X165935692Y-88210264D01*
X165888073Y-88353121D01*
X165316645Y-88924549D01*
X165935692Y-88924549D01*
D11*
%TO.C,R19*%
X119944753Y-104786470D02*
X119778086Y-104548375D01*
X119659039Y-104786470D02*
X119659039Y-104286470D01*
X119849515Y-104286470D01*
X119897134Y-104310280D01*
X119920943Y-104334089D01*
X119944753Y-104381708D01*
X119944753Y-104453137D01*
X119920943Y-104500756D01*
X119897134Y-104524565D01*
X119849515Y-104548375D01*
X119659039Y-104548375D01*
X120420943Y-104786470D02*
X120135229Y-104786470D01*
X120278086Y-104786470D02*
X120278086Y-104286470D01*
X120230467Y-104357899D01*
X120182848Y-104405518D01*
X120135229Y-104429327D01*
X120659039Y-104786470D02*
X120754277Y-104786470D01*
X120801896Y-104762660D01*
X120825705Y-104738851D01*
X120873324Y-104667422D01*
X120897134Y-104572184D01*
X120897134Y-104381708D01*
X120873324Y-104334089D01*
X120849515Y-104310280D01*
X120801896Y-104286470D01*
X120706658Y-104286470D01*
X120659039Y-104310280D01*
X120635229Y-104334089D01*
X120611420Y-104381708D01*
X120611420Y-104500756D01*
X120635229Y-104548375D01*
X120659039Y-104572184D01*
X120706658Y-104595994D01*
X120801896Y-104595994D01*
X120849515Y-104572184D01*
X120873324Y-104548375D01*
X120897134Y-104500756D01*
D10*
%TO.C,C21*%
X170983311Y-121329311D02*
X170935692Y-121376930D01*
X170792835Y-121424549D01*
X170697597Y-121424549D01*
X170554740Y-121376930D01*
X170459502Y-121281692D01*
X170411883Y-121186454D01*
X170364264Y-120995978D01*
X170364264Y-120853121D01*
X170411883Y-120662645D01*
X170459502Y-120567407D01*
X170554740Y-120472169D01*
X170697597Y-120424549D01*
X170792835Y-120424549D01*
X170935692Y-120472169D01*
X170983311Y-120519788D01*
X171364264Y-120519788D02*
X171411883Y-120472169D01*
X171507121Y-120424549D01*
X171745216Y-120424549D01*
X171840454Y-120472169D01*
X171888073Y-120519788D01*
X171935692Y-120615026D01*
X171935692Y-120710264D01*
X171888073Y-120853121D01*
X171316645Y-121424549D01*
X171935692Y-121424549D01*
X172888073Y-121424549D02*
X172316645Y-121424549D01*
X172602359Y-121424549D02*
X172602359Y-120424549D01*
X172507121Y-120567407D01*
X172411883Y-120662645D01*
X172316645Y-120710264D01*
%TO.C,R11*%
X137542324Y-77426660D02*
X137208991Y-76950470D01*
X136970896Y-77426660D02*
X136970896Y-76426660D01*
X137351848Y-76426660D01*
X137447086Y-76474280D01*
X137494705Y-76521899D01*
X137542324Y-76617137D01*
X137542324Y-76759994D01*
X137494705Y-76855232D01*
X137447086Y-76902851D01*
X137351848Y-76950470D01*
X136970896Y-76950470D01*
X138494705Y-77426660D02*
X137923277Y-77426660D01*
X138208991Y-77426660D02*
X138208991Y-76426660D01*
X138113753Y-76569518D01*
X138018515Y-76664756D01*
X137923277Y-76712375D01*
X139447086Y-77426660D02*
X138875658Y-77426660D01*
X139161372Y-77426660D02*
X139161372Y-76426660D01*
X139066134Y-76569518D01*
X138970896Y-76664756D01*
X138875658Y-76712375D01*
%TO.C,R1*%
X152759502Y-80824549D02*
X152426169Y-80348359D01*
X152188073Y-80824549D02*
X152188073Y-79824549D01*
X152569026Y-79824549D01*
X152664264Y-79872169D01*
X152711883Y-79919788D01*
X152759502Y-80015026D01*
X152759502Y-80157883D01*
X152711883Y-80253121D01*
X152664264Y-80300740D01*
X152569026Y-80348359D01*
X152188073Y-80348359D01*
X153711883Y-80824549D02*
X153140454Y-80824549D01*
X153426169Y-80824549D02*
X153426169Y-79824549D01*
X153330930Y-79967407D01*
X153235692Y-80062645D01*
X153140454Y-80110264D01*
%TO.C,L3*%
X167059502Y-120624549D02*
X166583311Y-120624549D01*
X166583311Y-119624549D01*
X167297597Y-119624549D02*
X167916645Y-119624549D01*
X167583311Y-120005502D01*
X167726169Y-120005502D01*
X167821407Y-120053121D01*
X167869026Y-120100740D01*
X167916645Y-120195978D01*
X167916645Y-120434073D01*
X167869026Y-120529311D01*
X167821407Y-120576930D01*
X167726169Y-120624549D01*
X167440454Y-120624549D01*
X167345216Y-120576930D01*
X167297597Y-120529311D01*
%TO.C,C5*%
X146059502Y-69433311D02*
X146011883Y-69480930D01*
X145869026Y-69528549D01*
X145773788Y-69528549D01*
X145630930Y-69480930D01*
X145535692Y-69385692D01*
X145488073Y-69290454D01*
X145440454Y-69099978D01*
X145440454Y-68957121D01*
X145488073Y-68766645D01*
X145535692Y-68671407D01*
X145630930Y-68576169D01*
X145773788Y-68528549D01*
X145869026Y-68528549D01*
X146011883Y-68576169D01*
X146059502Y-68623788D01*
X146964264Y-68528549D02*
X146488073Y-68528549D01*
X146440454Y-69004740D01*
X146488073Y-68957121D01*
X146583311Y-68909502D01*
X146821407Y-68909502D01*
X146916645Y-68957121D01*
X146964264Y-69004740D01*
X147011883Y-69099978D01*
X147011883Y-69338073D01*
X146964264Y-69433311D01*
X146916645Y-69480930D01*
X146821407Y-69528549D01*
X146583311Y-69528549D01*
X146488073Y-69480930D01*
X146440454Y-69433311D01*
%TO.C,R2*%
X152651502Y-85481549D02*
X152318169Y-85005359D01*
X152080073Y-85481549D02*
X152080073Y-84481549D01*
X152461026Y-84481549D01*
X152556264Y-84529169D01*
X152603883Y-84576788D01*
X152651502Y-84672026D01*
X152651502Y-84814883D01*
X152603883Y-84910121D01*
X152556264Y-84957740D01*
X152461026Y-85005359D01*
X152080073Y-85005359D01*
X153032454Y-84576788D02*
X153080073Y-84529169D01*
X153175311Y-84481549D01*
X153413407Y-84481549D01*
X153508645Y-84529169D01*
X153556264Y-84576788D01*
X153603883Y-84672026D01*
X153603883Y-84767264D01*
X153556264Y-84910121D01*
X152984835Y-85481549D01*
X153603883Y-85481549D01*
%TO.C,C7*%
X134359502Y-64633311D02*
X134311883Y-64680930D01*
X134169026Y-64728549D01*
X134073788Y-64728549D01*
X133930930Y-64680930D01*
X133835692Y-64585692D01*
X133788073Y-64490454D01*
X133740454Y-64299978D01*
X133740454Y-64157121D01*
X133788073Y-63966645D01*
X133835692Y-63871407D01*
X133930930Y-63776169D01*
X134073788Y-63728549D01*
X134169026Y-63728549D01*
X134311883Y-63776169D01*
X134359502Y-63823788D01*
X134692835Y-63728549D02*
X135359502Y-63728549D01*
X134930930Y-64728549D01*
%TO.C,R6*%
X151159502Y-63128549D02*
X150826169Y-62652359D01*
X150588073Y-63128549D02*
X150588073Y-62128549D01*
X150969026Y-62128549D01*
X151064264Y-62176169D01*
X151111883Y-62223788D01*
X151159502Y-62319026D01*
X151159502Y-62461883D01*
X151111883Y-62557121D01*
X151064264Y-62604740D01*
X150969026Y-62652359D01*
X150588073Y-62652359D01*
X152016645Y-62128549D02*
X151826169Y-62128549D01*
X151730930Y-62176169D01*
X151683311Y-62223788D01*
X151588073Y-62366645D01*
X151540454Y-62557121D01*
X151540454Y-62938073D01*
X151588073Y-63033311D01*
X151635692Y-63080930D01*
X151730930Y-63128549D01*
X151921407Y-63128549D01*
X152016645Y-63080930D01*
X152064264Y-63033311D01*
X152111883Y-62938073D01*
X152111883Y-62699978D01*
X152064264Y-62604740D01*
X152016645Y-62557121D01*
X151921407Y-62509502D01*
X151730930Y-62509502D01*
X151635692Y-62557121D01*
X151588073Y-62604740D01*
X151540454Y-62699978D01*
%TO.C,R13*%
X158383311Y-107524549D02*
X158049978Y-107048359D01*
X157811883Y-107524549D02*
X157811883Y-106524549D01*
X158192835Y-106524549D01*
X158288073Y-106572169D01*
X158335692Y-106619788D01*
X158383311Y-106715026D01*
X158383311Y-106857883D01*
X158335692Y-106953121D01*
X158288073Y-107000740D01*
X158192835Y-107048359D01*
X157811883Y-107048359D01*
X159335692Y-107524549D02*
X158764264Y-107524549D01*
X159049978Y-107524549D02*
X159049978Y-106524549D01*
X158954740Y-106667407D01*
X158859502Y-106762645D01*
X158764264Y-106810264D01*
X159669026Y-106524549D02*
X160288073Y-106524549D01*
X159954740Y-106905502D01*
X160097597Y-106905502D01*
X160192835Y-106953121D01*
X160240454Y-107000740D01*
X160288073Y-107095978D01*
X160288073Y-107334073D01*
X160240454Y-107429311D01*
X160192835Y-107476930D01*
X160097597Y-107524549D01*
X159811883Y-107524549D01*
X159716645Y-107476930D01*
X159669026Y-107429311D01*
D14*
%TO.C,U4*%
X157043169Y-117010169D02*
X156568169Y-117010169D01*
X157043169Y-111790169D02*
X156568169Y-111790169D01*
X151823169Y-111790169D02*
X152298169Y-111790169D01*
X151823169Y-112265169D02*
X151823169Y-111790169D01*
X157043169Y-116535169D02*
X157043169Y-117010169D01*
X151823169Y-116535169D02*
X151823169Y-117010169D01*
X157043169Y-112265169D02*
X157043169Y-111790169D01*
%TO.C,R15*%
X120503440Y-99837780D02*
X120028924Y-99837780D01*
X120503440Y-100882780D02*
X120028924Y-100882780D01*
%TO.C,C4*%
X148881749Y-66392169D02*
X148600589Y-66392169D01*
X148881749Y-65372169D02*
X148600589Y-65372169D01*
%TO.C,D1*%
X133333169Y-68510169D02*
X133333169Y-65960169D01*
X131633169Y-68510169D02*
X133333169Y-68510169D01*
X131633169Y-68510169D02*
X131633169Y-65960169D01*
%TO.C,Y1*%
X151225169Y-107722169D02*
X156975169Y-107722169D01*
X156975169Y-107722169D02*
X156975169Y-104122169D01*
X156975169Y-104122169D02*
X151225169Y-104122169D01*
D15*
%TO.C,BZ1*%
X122900169Y-76456169D02*
G75*
G03*
X122900169Y-76456169I-6150000J0D01*
G01*
D14*
%TO.C,L2*%
X166531105Y-110150169D02*
X167735233Y-110150169D01*
X166531105Y-112870169D02*
X167735233Y-112870169D01*
%TO.C,C19*%
X160818589Y-110748169D02*
X161099749Y-110748169D01*
X160818589Y-109728169D02*
X161099749Y-109728169D01*
%TO.C,C8*%
X135869285Y-69718169D02*
X136150445Y-69718169D01*
X135869285Y-70738169D02*
X136150445Y-70738169D01*
%TO.C,L1*%
X131730000Y-74400000D02*
X129070000Y-74400000D01*
X131730000Y-72310000D02*
X131730000Y-69200000D01*
X131730000Y-69200000D02*
X129070000Y-69200000D01*
X131730000Y-74400000D02*
X131730000Y-73830000D01*
X131730000Y-73830000D02*
X133250000Y-73830000D01*
X129070000Y-74400000D02*
X129070000Y-71290000D01*
X129070000Y-69770000D02*
X129070000Y-69200000D01*
%TO.C,R20*%
X120503440Y-108482780D02*
X120028924Y-108482780D01*
X120503440Y-107437780D02*
X120028924Y-107437780D01*
%TO.C,R14*%
X167503911Y-108982669D02*
X167978427Y-108982669D01*
X167503911Y-107937669D02*
X167978427Y-107937669D01*
%TO.C,R5*%
X158231911Y-68088669D02*
X158706427Y-68088669D01*
X158231911Y-67043669D02*
X158706427Y-67043669D01*
%TO.C,Q1*%
X133396182Y-75910280D02*
X129796182Y-75910280D01*
X131596182Y-80360281D02*
G75*
G03*
X133434660Y-75921802I0J2600001D01*
G01*
X129757704Y-75921802D02*
G75*
G03*
X131596182Y-80360280I1838478J-1838478D01*
G01*
%TO.C,R4*%
X158166669Y-70376911D02*
X158166669Y-70851427D01*
X157121669Y-70376911D02*
X157121669Y-70851427D01*
%TO.C,R10*%
X136503440Y-79237780D02*
X136028924Y-79237780D01*
X136503440Y-80282780D02*
X136028924Y-80282780D01*
%TO.C,R3*%
X155626669Y-87839911D02*
X155626669Y-88314427D01*
X154581669Y-87839911D02*
X154581669Y-88314427D01*
%TO.C,R16*%
X120503440Y-95882780D02*
X120028924Y-95882780D01*
X120503440Y-94837780D02*
X120028924Y-94837780D01*
%TO.C,J2*%
X112130000Y-93150000D02*
X113650000Y-93150000D01*
X109470000Y-92580000D02*
X112130000Y-92580000D01*
X112130000Y-104830000D02*
X112130000Y-108390000D01*
X112130000Y-99750000D02*
X112130000Y-103310000D01*
X112130000Y-109910000D02*
X112130000Y-113020000D01*
X112130000Y-92580000D02*
X112130000Y-93150000D01*
X109470000Y-107370000D02*
X109470000Y-110930000D01*
X109470000Y-113020000D02*
X112130000Y-113020000D01*
X109470000Y-92580000D02*
X109470000Y-95690000D01*
X112130000Y-94670000D02*
X112130000Y-98230000D01*
X109470000Y-97210000D02*
X109470000Y-100770000D01*
X109470000Y-102290000D02*
X109470000Y-105850000D01*
X109470000Y-112450000D02*
X109470000Y-113020000D01*
%TO.C,R9*%
X138608669Y-66944427D02*
X138608669Y-66469911D01*
X137563669Y-66944427D02*
X137563669Y-66469911D01*
%TO.C,C3*%
X161841749Y-68076169D02*
X161560589Y-68076169D01*
X161841749Y-67056169D02*
X161560589Y-67056169D01*
%TO.C,C17*%
X156213169Y-101956589D02*
X156213169Y-102237749D01*
X155193169Y-101956589D02*
X155193169Y-102237749D01*
%TO.C,R18*%
X120503440Y-102437780D02*
X120028924Y-102437780D01*
X120503440Y-103482780D02*
X120028924Y-103482780D01*
%TO.C,R7*%
X150771669Y-67867911D02*
X150771669Y-68342427D01*
X151816669Y-67867911D02*
X151816669Y-68342427D01*
%TO.C,C18*%
X151637169Y-102237749D02*
X151637169Y-101956589D01*
X152657169Y-102237749D02*
X152657169Y-101956589D01*
%TO.C,J1*%
X177730000Y-118270000D02*
X175070000Y-118270000D01*
X177730000Y-110530000D02*
X175070000Y-110530000D01*
X177730000Y-118270000D02*
X177730000Y-117700000D01*
X175070000Y-113640000D02*
X175070000Y-110530000D01*
X175070000Y-111100000D02*
X175070000Y-110530000D01*
X177730000Y-116180000D02*
X177730000Y-112620000D01*
X177730000Y-117700000D02*
X179250000Y-117700000D01*
X175070000Y-118270000D02*
X175070000Y-115160000D01*
%TO.C,R8*%
X144102427Y-65359669D02*
X143627911Y-65359669D01*
X144102427Y-66404669D02*
X143627911Y-66404669D01*
%TO.C,C6*%
X140472589Y-66392169D02*
X140753749Y-66392169D01*
X140472589Y-65372169D02*
X140753749Y-65372169D01*
%TO.C,U3*%
X160184169Y-81653169D02*
X162134169Y-81653169D01*
X160184169Y-81653169D02*
X158234169Y-81653169D01*
X160184169Y-72783169D02*
X162134169Y-72783169D01*
X160184169Y-72783169D02*
X156734169Y-72783169D01*
%TO.C,R17*%
X120503440Y-98282780D02*
X120028924Y-98282780D01*
X120503440Y-97237780D02*
X120028924Y-97237780D01*
D16*
%TO.C,U1*%
X144956169Y-129585419D02*
X144956169Y-83865419D01*
X142416169Y-81325419D02*
X124636169Y-81325419D01*
X135558169Y-131617419D02*
X136066169Y-132125419D01*
X122096169Y-83865419D02*
X122096169Y-129585419D01*
X131494169Y-131617419D02*
X135558169Y-131617419D01*
X130986169Y-132125419D02*
X131494169Y-131617419D01*
X136066169Y-132125419D02*
X142416169Y-132125419D01*
X124636169Y-132125419D02*
X130986169Y-132125419D01*
X144956169Y-83865419D02*
G75*
G03*
X142416169Y-81325419I-2540000J0D01*
G01*
X142416169Y-132125419D02*
G75*
G03*
X144956169Y-129585419I0J2540000D01*
G01*
X122096169Y-129585419D02*
G75*
G03*
X124636169Y-132125419I2540001J1D01*
G01*
X124636169Y-81325419D02*
G75*
G03*
X122096169Y-83865419I1J-2540001D01*
G01*
D14*
%TO.C,C20*%
X172036169Y-110537749D02*
X172036169Y-110256589D01*
X171016169Y-110537749D02*
X171016169Y-110256589D01*
%TO.C,U2*%
X160184169Y-83802169D02*
X156734169Y-83802169D01*
X160184169Y-88922169D02*
X158234169Y-88922169D01*
X160184169Y-88922169D02*
X162134169Y-88922169D01*
X160184169Y-83802169D02*
X162134169Y-83802169D01*
%TO.C,R19*%
X120503440Y-106082780D02*
X120028924Y-106082780D01*
X120503440Y-105037780D02*
X120028924Y-105037780D01*
%TO.C,C21*%
X172136169Y-118687749D02*
X172136169Y-118406589D01*
X171116169Y-118687749D02*
X171116169Y-118406589D01*
%TO.C,R11*%
X136373682Y-77172538D02*
X136373682Y-76698022D01*
X135328682Y-77172538D02*
X135328682Y-76698022D01*
%TO.C,R1*%
X154835669Y-80091911D02*
X154835669Y-80566427D01*
X155880669Y-80091911D02*
X155880669Y-80566427D01*
%TO.C,L3*%
X167735233Y-118964169D02*
X166531105Y-118964169D01*
X167735233Y-116244169D02*
X166531105Y-116244169D01*
%TO.C,C5*%
X145704169Y-66516589D02*
X145704169Y-66797749D01*
X146724169Y-66516589D02*
X146724169Y-66797749D01*
%TO.C,R2*%
X155626669Y-84791911D02*
X155626669Y-85266427D01*
X154581669Y-84791911D02*
X154581669Y-85266427D01*
%TO.C,C7*%
X135040169Y-66544589D02*
X135040169Y-66825749D01*
X134020169Y-66544589D02*
X134020169Y-66825749D01*
%TO.C,R6*%
X150771669Y-64819911D02*
X150771669Y-65294427D01*
X151816669Y-64819911D02*
X151816669Y-65294427D01*
%TO.C,R13*%
X158928669Y-109175911D02*
X158928669Y-109650427D01*
X157883669Y-109175911D02*
X157883669Y-109650427D01*
%TD*%
M02*
